<svg width="1347" height="799" viewBox="0 0 1347 799" fill="none" xmlns="http://www.w3.org/2000/svg">
<path d="M64.9648 0.498779C64.883 1.17384 64.8398 1.86146 64.8398 2.55933C64.8398 11.6638 72.0117 19.0447 80.8584 19.0447C89.705 19.0446 96.877 11.6638 96.877 2.55933C96.8769 1.86148 96.8337 1.17383 96.752 0.498779H111.02C110.938 1.17384 110.895 1.86146 110.895 2.55933C110.895 11.6638 118.066 19.0447 126.913 19.0447C135.76 19.0446 142.932 11.6638 142.932 2.55933C142.932 1.86148 142.888 1.17383 142.807 0.498779H158.074C157.992 1.17384 157.949 1.86146 157.949 2.55933C157.949 11.6638 165.121 19.0447 173.968 19.0447C182.814 19.0446 189.986 11.6638 189.986 2.55933C189.986 1.86148 189.943 1.17383 189.861 0.498779H205.129C205.047 1.17384 205.004 1.86146 205.004 2.55933C205.004 11.6638 212.176 19.0447 221.022 19.0447C229.869 19.0446 237.041 11.6638 237.041 2.55933C237.041 1.86148 236.998 1.17383 236.916 0.498779H252.18C252.098 1.17384 252.055 1.86146 252.055 2.55933C252.055 11.6638 259.227 19.0447 268.073 19.0447C276.92 19.0446 284.092 11.6638 284.092 2.55933C284.092 1.86148 284.049 1.17383 283.967 0.498779H299.234C299.153 1.17384 299.109 1.86146 299.109 2.55933C299.109 11.6638 306.281 19.0447 315.128 19.0447C323.975 19.0446 331.146 11.6638 331.146 2.55933C331.146 1.86148 331.103 1.17383 331.021 0.498779H344.285C344.203 1.17384 344.16 1.86146 344.16 2.55933C344.16 11.6638 351.332 19.0447 360.179 19.0447C369.025 19.0446 376.197 11.6638 376.197 2.55933C376.197 1.86148 376.154 1.17383 376.072 0.498779H390.34C390.258 1.17384 390.215 1.86146 390.215 2.55933C390.215 11.6638 397.387 19.0447 406.233 19.0447C415.08 19.0446 422.252 11.6638 422.252 2.55933C422.252 1.86148 422.209 1.17383 422.127 0.498779H437.395C437.313 1.17384 437.27 1.86146 437.27 2.55933C437.27 11.6638 444.441 19.0447 453.288 19.0447C462.135 19.0446 469.307 11.6638 469.307 2.55933C469.307 1.86148 469.263 1.17383 469.182 0.498779H484.445C484.364 1.17384 484.32 1.86146 484.32 2.55933C484.32 11.6638 491.492 19.0447 500.339 19.0447C509.185 19.0446 516.357 11.6638 516.357 2.55933C516.357 1.86148 516.314 1.17383 516.232 0.498779H531.5C531.418 1.17384 531.375 1.86146 531.375 2.55933C531.375 11.6638 538.547 19.0447 547.394 19.0447C556.24 19.0446 563.412 11.6638 563.412 2.55933C563.412 1.86148 563.369 1.17383 563.287 0.498779H578.555C578.473 1.17384 578.43 1.86146 578.43 2.55933C578.43 11.6638 585.602 19.0447 594.448 19.0447C603.295 19.0446 610.467 11.6638 610.467 2.55933C610.467 1.86148 610.424 1.17383 610.342 0.498779H623.605C623.524 1.17384 623.48 1.86146 623.48 2.55933C623.48 11.6638 630.652 19.0447 639.499 19.0447C648.346 19.0446 655.518 11.6638 655.518 2.55933C655.518 1.86148 655.474 1.17383 655.393 0.498779H670.66C670.578 1.17384 670.535 1.86146 670.535 2.55933C670.535 11.6638 677.707 19.0447 686.554 19.0447C695.4 19.0446 702.572 11.6638 702.572 2.55933C702.572 1.86148 702.529 1.17383 702.447 0.498779H717.711C717.629 1.17384 717.586 1.86146 717.586 2.55933C717.586 11.6638 724.758 19.0447 733.604 19.0447C742.451 19.0446 749.623 11.6638 749.623 2.55933C749.623 1.86148 749.58 1.17383 749.498 0.498779H764.766C764.684 1.17384 764.641 1.86146 764.641 2.55933C764.641 11.6638 771.812 19.0447 780.659 19.0447C789.506 19.0446 796.678 11.6638 796.678 2.55933C796.678 1.86148 796.635 1.17383 796.553 0.498779H811.82C811.739 1.17384 811.695 1.86146 811.695 2.55933C811.695 11.6638 818.867 19.0447 827.714 19.0447C836.56 19.0446 843.732 11.6638 843.732 2.55933C843.732 1.86148 843.689 1.17383 843.607 0.498779H858.875C858.793 1.17384 858.75 1.86146 858.75 2.55933C858.75 11.6638 865.922 19.0447 874.769 19.0447C883.615 19.0446 890.787 11.6638 890.787 2.55933C890.787 1.86148 890.744 1.17383 890.662 0.498779H905.93C905.848 1.17384 905.805 1.86146 905.805 2.55933C905.805 11.6638 912.977 19.0447 921.823 19.0447C930.67 19.0446 937.842 11.6638 937.842 2.55933C937.842 1.86148 937.799 1.17383 937.717 0.498779H952.984C952.903 1.17384 952.859 1.86146 952.859 2.55933C952.859 11.6638 960.031 19.0447 968.878 19.0447C977.725 19.0446 984.896 11.6638 984.896 2.55933C984.896 1.86148 984.853 1.17383 984.771 0.498779H1000.04C999.953 1.17385 999.91 1.86145 999.91 2.55933C999.91 11.6638 1007.08 19.0447 1015.93 19.0447C1024.78 19.0445 1031.95 11.6637 1031.95 2.55933C1031.95 1.86148 1031.9 1.17382 1031.82 0.498779H1047.09C1047 1.17384 1046.96 1.86146 1046.96 2.55933C1046.96 11.6638 1054.13 19.0447 1062.98 19.0447C1071.83 19.0446 1079 11.6638 1079 2.55933C1079 1.86148 1078.95 1.17383 1078.87 0.498779H1094.15C1094.07 1.17384 1094.02 1.86146 1094.02 2.55933C1094.02 11.6638 1101.2 19.0447 1110.04 19.0447C1118.89 19.0446 1126.06 11.6638 1126.06 2.55933C1126.06 1.86148 1126.02 1.17383 1125.94 0.498779H1139.2C1139.11 1.17384 1139.07 1.86146 1139.07 2.55933C1139.07 11.6638 1146.24 19.0447 1155.09 19.0447C1163.94 19.0446 1171.11 11.6638 1171.11 2.55933C1171.11 1.86148 1171.06 1.17383 1170.98 0.498779H1186.25C1186.17 1.17384 1186.13 1.86146 1186.12 2.55933C1186.12 11.6638 1193.3 19.0447 1202.14 19.0447C1210.99 19.0446 1218.16 11.6638 1218.16 2.55933C1218.16 1.86148 1218.12 1.17383 1218.04 0.498779H1233.3C1233.22 1.17384 1233.18 1.86146 1233.18 2.55933C1233.18 11.6638 1240.35 19.0447 1249.2 19.0447C1258.04 19.0446 1265.22 11.6638 1265.22 2.55933C1265.22 1.86148 1265.17 1.17383 1265.09 0.498779H1280.36C1280.28 1.17384 1280.23 1.86146 1280.23 2.55933C1280.23 11.6638 1287.41 19.0447 1296.25 19.0447C1305.1 19.0446 1312.27 11.6638 1312.27 2.55933C1312.27 1.86148 1312.23 1.17383 1312.15 0.498779H1346.31V43.7722H1346.31C1337.46 43.7722 1330.29 51.1531 1330.29 60.2576C1330.29 69.362 1337.46 76.7429 1346.31 76.7429L1346.31 76.7419V92.197H1346.31C1337.46 92.197 1330.29 99.5779 1330.29 108.682C1330.29 117.787 1337.46 125.168 1346.31 125.168L1346.31 125.167V139.593H1346.31C1337.46 139.593 1330.29 146.973 1330.29 156.078C1330.29 165.182 1337.46 172.562 1346.31 172.562L1346.31 172.561V186.987H1346.31C1337.46 186.987 1330.29 194.368 1330.29 203.472C1330.29 212.577 1337.46 219.958 1346.31 219.958L1346.31 219.957V234.382H1346.31C1337.46 234.382 1330.29 241.763 1330.29 250.867C1330.29 259.971 1337.46 267.352 1346.31 267.352L1346.31 267.351V284.868H1346.31C1337.46 284.868 1330.29 292.249 1330.29 301.353C1330.29 310.458 1337.46 317.838 1346.31 317.838L1346.31 317.837V332.262H1346.31C1337.46 332.262 1330.29 339.643 1330.29 348.748C1330.29 357.852 1337.46 365.233 1346.31 365.233L1346.31 365.232V379.658H1346.31C1337.46 379.658 1330.29 387.039 1330.29 396.143C1330.29 405.248 1337.46 412.628 1346.31 412.628L1346.31 412.627V430.143H1346.31C1337.46 430.143 1330.29 437.524 1330.29 446.629C1330.29 455.733 1337.46 463.114 1346.31 463.114L1346.31 463.113V477.539H1346.31C1337.46 477.539 1330.29 484.92 1330.29 494.024C1330.29 503.128 1337.46 510.509 1346.31 510.509L1346.31 510.508V524.933H1346.31C1337.46 524.933 1330.29 532.314 1330.29 541.419C1330.29 550.523 1337.46 557.903 1346.31 557.903L1346.31 557.902V572.328H1346.31C1337.46 572.328 1330.29 579.709 1330.29 588.813C1330.29 597.918 1337.46 605.299 1346.31 605.299L1346.31 605.298V621.784H1346.31C1337.46 621.784 1330.29 629.165 1330.29 638.269C1330.29 647.374 1337.46 654.755 1346.31 654.755L1346.31 654.754V669.178H1346.31C1337.46 669.178 1330.29 676.559 1330.29 685.664C1330.29 694.768 1337.46 702.149 1346.31 702.149L1346.31 702.148V716.574H1346.31C1337.46 716.574 1330.29 723.954 1330.29 733.058C1330.29 742.163 1337.46 749.544 1346.31 749.544L1346.31 749.543V799H1339.17C1339.26 798.325 1339.3 797.637 1339.3 796.939C1339.3 787.835 1332.13 780.454 1323.28 780.454C1314.43 780.454 1307.26 787.835 1307.26 796.939C1307.26 797.637 1307.3 798.325 1307.39 799H1292.12C1292.2 798.325 1292.25 797.637 1292.25 796.939C1292.25 787.835 1285.08 780.454 1276.23 780.454C1267.38 780.454 1260.21 787.835 1260.21 796.939C1260.21 797.637 1260.25 798.325 1260.34 799H1245.07C1245.15 798.325 1245.19 797.637 1245.19 796.939C1245.19 787.835 1238.02 780.454 1229.17 780.454C1220.33 780.454 1213.16 787.835 1213.16 796.939C1213.16 797.637 1213.2 798.325 1213.28 799H1198.01C1198.1 798.325 1198.14 797.637 1198.14 796.939C1198.14 787.835 1190.97 780.454 1182.12 780.454C1173.27 780.454 1166.1 787.835 1166.1 796.939C1166.1 797.637 1166.14 798.325 1166.23 799H1150.96C1151.04 798.325 1151.08 797.637 1151.08 796.939C1151.08 787.835 1143.91 780.454 1135.07 780.454C1126.22 780.454 1119.05 787.835 1119.05 796.939C1119.05 797.637 1119.09 798.325 1119.17 799H1105.9C1105.99 798.325 1106.03 797.637 1106.03 796.939C1106.03 787.835 1098.86 780.454 1090.01 780.454C1081.16 780.454 1073.99 787.835 1073.99 796.939C1073.99 797.637 1074.04 798.325 1074.12 799H1058.85C1058.94 798.325 1058.98 797.637 1058.98 796.939C1058.98 787.835 1051.81 780.454 1042.96 780.454C1034.11 780.454 1026.94 787.835 1026.94 796.939C1026.94 797.637 1026.98 798.325 1027.07 799H1011.8C1011.88 798.325 1011.92 797.637 1011.92 796.939C1011.92 787.835 1004.75 780.454 995.905 780.454C987.059 780.454 979.887 787.835 979.887 796.939C979.887 797.637 979.93 798.325 980.012 799H964.748C964.83 798.325 964.873 797.637 964.873 796.939C964.873 787.835 957.701 780.454 948.854 780.454C940.008 780.454 932.836 787.835 932.836 796.939C932.836 797.637 932.879 798.325 932.961 799H917.697C917.779 798.325 917.822 797.637 917.822 796.939C917.822 787.835 910.65 780.454 901.804 780.454C892.957 780.454 885.785 787.835 885.785 796.939C885.785 797.637 885.828 798.325 885.91 799H870.639C870.72 798.325 870.764 797.637 870.764 796.939C870.764 787.835 863.592 780.454 854.745 780.454C845.898 780.454 838.727 787.835 838.727 796.939C838.727 797.637 838.77 798.325 838.852 799H823.584C823.666 798.325 823.709 797.637 823.709 796.939C823.709 787.835 816.537 780.454 807.69 780.454C798.844 780.454 791.672 787.835 791.672 796.939C791.672 797.637 791.715 798.325 791.797 799H776.533C776.615 798.325 776.658 797.637 776.658 796.939C776.658 787.835 769.486 780.454 760.64 780.454C751.793 780.454 744.621 787.835 744.621 796.939C744.621 797.637 744.664 798.325 744.746 799H729.479C729.56 798.325 729.604 797.637 729.604 796.939C729.604 787.835 722.432 780.454 713.585 780.454C704.738 780.454 697.566 787.835 697.566 796.939C697.566 797.637 697.61 798.325 697.691 799H682.42C682.502 798.325 682.545 797.637 682.545 796.939C682.545 787.835 675.373 780.454 666.526 780.454C657.68 780.454 650.508 787.835 650.508 796.939C650.508 797.637 650.551 798.325 650.633 799H635.369C635.451 798.325 635.494 797.637 635.494 796.939C635.494 787.835 628.322 780.454 619.476 780.454C610.629 780.454 603.457 787.835 603.457 796.939C603.457 797.637 603.5 798.325 603.582 799H590.318C590.4 798.325 590.443 797.637 590.443 796.939C590.443 787.835 583.271 780.454 574.425 780.454C565.578 780.454 558.406 787.835 558.406 796.939C558.406 797.637 558.449 798.325 558.531 799H543.264C543.345 798.325 543.389 797.637 543.389 796.939C543.389 787.835 536.217 780.454 527.37 780.454C518.523 780.454 511.352 787.835 511.352 796.939C511.352 797.637 511.395 798.325 511.477 799H496.209C496.291 798.325 496.334 797.637 496.334 796.939C496.334 787.835 489.162 780.454 480.315 780.454C471.469 780.454 464.297 787.835 464.297 796.939C464.297 797.637 464.34 798.325 464.422 799H449.154C449.236 798.325 449.279 797.637 449.279 796.939C449.279 787.835 442.107 780.454 433.261 780.454C424.414 780.454 417.242 787.835 417.242 796.939C417.242 797.637 417.285 798.325 417.367 799H402.107C402.189 798.325 402.232 797.637 402.232 796.939C402.232 787.835 395.06 780.454 386.214 780.454C377.367 780.454 370.195 787.835 370.195 796.939C370.195 797.637 370.239 798.325 370.32 799H356.049C356.131 798.325 356.174 797.637 356.174 796.939C356.174 787.835 349.002 780.454 340.155 780.454C331.309 780.454 324.137 787.835 324.137 796.939C324.137 797.637 324.18 798.325 324.262 799H310.998C311.08 798.325 311.123 797.637 311.123 796.939C311.123 787.835 303.951 780.454 295.104 780.454C286.258 780.454 279.086 787.835 279.086 796.939C279.086 797.637 279.129 798.325 279.211 799H263.947C264.029 798.325 264.072 797.637 264.072 796.939C264.072 787.835 256.9 780.454 248.054 780.454C239.207 780.454 232.035 787.835 232.035 796.939C232.035 797.637 232.078 798.325 232.16 799H216.893C216.974 798.325 217.018 797.637 217.018 796.939C217.018 787.835 209.846 780.454 200.999 780.454C192.152 780.454 184.98 787.835 184.98 796.939C184.98 797.637 185.024 798.325 185.105 799H169.838C169.92 798.325 169.963 797.637 169.963 796.939C169.963 787.835 162.791 780.454 153.944 780.454C145.098 780.454 137.926 787.835 137.926 796.939C137.926 797.637 137.969 798.325 138.051 799H122.783C122.865 798.325 122.908 797.637 122.908 796.939C122.908 787.835 115.736 780.454 106.89 780.454C98.043 780.454 90.8711 787.835 90.8711 796.939C90.8711 797.637 90.9143 798.325 90.9961 799H76.7324C76.8142 798.325 76.8574 797.637 76.8574 796.939C76.8574 787.835 69.6854 780.454 60.8389 780.454C51.9922 780.454 44.8203 787.835 44.8203 796.939C44.8203 797.637 44.8635 798.325 44.9453 799H29.6777C29.7595 798.325 29.8027 797.637 29.8027 796.939C29.8027 787.835 22.6308 780.454 13.7842 780.454C8.42291 780.454 3.67709 783.165 0.769531 787.327V752.601C1.0999 752.622 1.43307 752.635 1.76855 752.635C10.615 752.634 17.7869 745.254 17.7871 736.15C17.7871 727.046 10.6151 719.665 1.76855 719.665C1.43309 719.665 1.09988 719.676 0.769531 719.697V705.207C1.09989 705.228 1.43308 705.24 1.76855 705.24C10.6151 705.24 17.7871 697.859 17.7871 688.755C17.787 679.65 10.6151 672.269 1.76855 672.269C1.43311 672.269 1.09986 672.281 0.769531 672.302V657.811C1.0999 657.832 1.43307 657.844 1.76855 657.844C10.615 657.844 17.7869 650.464 17.7871 641.36C17.7871 632.256 10.6151 624.875 1.76855 624.875C1.43309 624.875 1.09988 624.886 0.769531 624.907V608.356C1.0999 608.377 1.43307 608.389 1.76855 608.389C10.6151 608.389 17.7871 601.008 17.7871 591.904C17.7869 582.8 10.615 575.42 1.76855 575.42C1.43309 575.42 1.09988 575.431 0.769531 575.452V560.962C1.09989 560.983 1.43308 560.995 1.76855 560.995C10.6151 560.995 17.7871 553.614 17.7871 544.51C17.7871 535.405 10.6151 528.024 1.76855 528.024C1.4331 528.024 1.09987 528.035 0.769531 528.056V513.567C1.09988 513.588 1.43309 513.599 1.76855 513.599C10.615 513.599 17.7869 506.219 17.7871 497.115C17.7871 488.011 10.6151 480.63 1.76855 480.63C1.43309 480.63 1.09987 480.641 0.769531 480.662V466.172C1.09989 466.193 1.43307 466.205 1.76855 466.205C10.6151 466.205 17.7871 458.824 17.7871 449.719C17.787 440.615 10.615 433.234 1.76855 433.234C1.43311 433.234 1.09986 433.245 0.769531 433.266V415.686C1.09988 415.707 1.43309 415.719 1.76855 415.719C10.6151 415.719 17.787 408.338 17.7871 399.234C17.7871 390.13 10.6151 382.749 1.76855 382.749C1.4331 382.749 1.09987 382.76 0.769531 382.781V368.291C1.0999 368.312 1.43307 368.324 1.76855 368.324C10.6151 368.324 17.7871 360.943 17.7871 351.839C17.7869 342.734 10.615 335.354 1.76855 335.354C1.43309 335.354 1.09988 335.366 0.769531 335.386V320.896C1.09989 320.917 1.43308 320.929 1.76855 320.929C10.6151 320.929 17.7871 313.549 17.7871 304.444C17.7871 295.34 10.6151 287.959 1.76855 287.959C1.4331 287.959 1.09987 287.97 0.769531 287.991V270.41C1.0999 270.431 1.43307 270.443 1.76855 270.443C10.6151 270.443 17.7871 263.062 17.7871 253.958C17.7869 244.854 10.615 237.474 1.76855 237.473C1.43309 237.473 1.09988 237.485 0.769531 237.506V223.015C1.09989 223.036 1.43308 223.049 1.76855 223.049C10.6151 223.048 17.7871 215.668 17.7871 206.563C17.7871 197.459 10.6151 190.078 1.76855 190.078C1.4331 190.078 1.09987 190.089 0.769531 190.11V175.621C1.09988 175.642 1.43309 175.654 1.76855 175.654C10.615 175.654 17.787 168.273 17.7871 159.169C17.7871 150.064 10.6151 142.683 1.76855 142.683C1.4331 142.683 1.09987 142.695 0.769531 142.716V128.225C1.0999 128.246 1.43307 128.259 1.76855 128.259C10.615 128.258 17.7869 120.878 17.7871 111.774C17.7871 102.67 10.6151 95.2889 1.76855 95.2888C1.43309 95.2888 1.09988 95.3001 0.769531 95.321V79.8005C1.09989 79.8215 1.43308 79.8337 1.76855 79.8337C10.6151 79.8336 17.7871 72.4528 17.7871 63.3484C17.7871 54.244 10.6151 46.8632 1.76855 46.863C1.4331 46.863 1.09987 46.8743 0.769531 46.8953V12.1707C3.67705 16.3332 8.4227 19.0447 13.7842 19.0447C22.6308 19.0446 29.8027 11.6638 29.8027 2.55933C29.8027 1.86148 29.7595 1.17383 29.6777 0.498779H64.9648Z" fill="#CCE0F9"/>
</svg>
