<svg width="616" height="336" viewBox="0 0 616 336" fill="none" xmlns="http://www.w3.org/2000/svg">
<g clip-path="url(#clip0_1571_26336)">
<path d="M85.0547 173.999L82.2227 165.933H71.0117L68.1797 173.999H64.4883L74.8789 145.815H78.3555L88.7461 173.999H85.0547ZM76.5586 150.093L72.0469 162.944H81.1875L76.6758 150.093H76.5586ZM91.4414 173.999V153.687H94.6445V157.007H94.7227C95.3867 154.761 97.2617 153.335 99.6445 153.335C100.23 153.335 100.738 153.433 101.012 153.472V156.772C100.738 156.675 100.016 156.577 99.1953 156.577C96.5586 156.577 94.8398 158.472 94.8398 161.343V173.999H91.4414ZM104.879 148.784H108.277V153.687H112.223V156.479H108.277V168.55C108.277 170.405 109.059 171.245 110.797 171.245C111.188 171.245 111.969 171.187 112.203 171.147V173.999C111.793 174.097 110.855 174.155 110.055 174.155C106.324 174.155 104.879 172.632 104.879 168.726V156.479H101.852V153.687H104.879V148.784ZM116.031 173.999V153.687H119.43V173.999H116.031ZM117.73 150.269C116.578 150.269 115.621 149.312 115.621 148.159C115.621 146.987 116.578 146.05 117.73 146.05C118.902 146.05 119.859 146.987 119.859 148.159C119.859 149.312 118.902 150.269 117.73 150.269ZM123.668 159.292C123.668 155.815 126.773 153.335 131.246 153.335C135.445 153.335 138.531 155.835 138.688 159.272H135.445C135.211 157.319 133.629 156.108 131.129 156.108C128.648 156.108 127.008 157.339 127.008 159.116C127.008 160.522 128.082 161.46 130.387 162.046L133.531 162.808C137.633 163.843 139.117 165.327 139.117 168.315C139.117 171.851 135.777 174.351 131.031 174.351C126.578 174.351 123.473 171.929 123.121 168.335H126.52C126.891 170.444 128.492 171.577 131.246 171.577C134 171.577 135.699 170.405 135.699 168.569C135.699 167.124 134.859 166.343 132.574 165.737L129 164.819C125.426 163.901 123.668 162.065 123.668 159.292ZM143.746 148.784H147.145V153.687H151.09V156.479H147.145V168.55C147.145 170.405 147.926 171.245 149.664 171.245C150.055 171.245 150.836 171.187 151.07 171.147V173.999C150.66 174.097 149.723 174.155 148.922 174.155C145.191 174.155 143.746 172.632 143.746 168.726V156.479H140.719V153.687H143.746V148.784ZM154.898 173.999V153.687H158.297V173.999H154.898ZM156.598 150.269C155.445 150.269 154.488 149.312 154.488 148.159C154.488 146.987 155.445 146.05 156.598 146.05C157.77 146.05 158.727 146.987 158.727 148.159C158.727 149.312 157.77 150.269 156.598 150.269ZM179.762 160.347H176.441C175.953 158.14 174.234 156.323 171.246 156.323C167.73 156.323 165.348 159.233 165.348 163.843C165.348 168.569 167.77 171.362 171.285 171.362C174.059 171.362 175.875 169.897 176.461 167.456H179.801C179.273 171.499 175.875 174.351 171.266 174.351C165.641 174.351 161.891 170.386 161.891 163.843C161.891 157.437 165.621 153.335 171.227 153.335C176.305 153.335 179.332 156.694 179.762 160.347ZM197.828 171.46C201.031 171.46 203.492 169.214 203.492 166.284V164.624L198.062 164.956C195.328 165.132 193.766 166.343 193.766 168.257C193.766 170.19 195.387 171.46 197.828 171.46ZM197.066 174.351C193.023 174.351 190.309 171.909 190.309 168.257C190.309 164.78 192.984 162.593 197.672 162.319L203.492 161.987V160.288C203.492 157.808 201.852 156.323 199.039 156.323C196.422 156.323 194.781 157.554 194.352 159.546H191.07C191.305 156.03 194.312 153.335 199.117 153.335C203.883 153.335 206.891 155.913 206.891 159.956V173.999H203.668V170.503H203.59C202.379 172.827 199.801 174.351 197.066 174.351ZM211.207 173.999V153.687H214.41V156.929H214.488C215.621 154.741 217.789 153.335 220.934 153.335C225.387 153.335 227.965 156.206 227.965 160.815V173.999H224.566V161.421C224.566 158.14 223.023 156.343 219.898 156.343C216.695 156.343 214.605 158.608 214.605 162.046V173.999H211.207ZM239.996 174.351C234.82 174.351 231.305 170.21 231.305 163.843C231.305 157.476 234.801 153.335 239.918 153.335C242.828 153.335 245.172 154.761 246.383 156.987H246.461V145.815H249.859V173.999H246.617V170.562H246.559C245.25 172.905 242.926 174.351 239.996 174.351ZM240.641 156.323C237.047 156.323 234.781 159.253 234.781 163.843C234.781 168.452 237.047 171.362 240.641 171.362C244.137 171.362 246.48 168.394 246.48 163.843C246.48 159.312 244.137 156.323 240.641 156.323ZM274.781 174.468C267.008 174.468 262.086 168.823 262.086 159.897C262.086 151.05 267.066 145.347 274.781 145.347C280.914 145.347 285.582 149.077 286.48 154.702H282.926C282.027 151.011 278.805 148.589 274.781 148.589C269.273 148.589 265.699 153.042 265.699 159.897C265.699 166.812 269.234 171.226 274.801 171.226C278.941 171.226 281.91 169.233 282.926 165.796H286.48C285.191 171.362 281.012 174.468 274.781 174.468ZM290.113 173.999V153.687H293.316V157.007H293.395C294.059 154.761 295.934 153.335 298.316 153.335C298.902 153.335 299.41 153.433 299.684 153.472V156.772C299.41 156.675 298.688 156.577 297.867 156.577C295.23 156.577 293.512 158.472 293.512 161.343V173.999H290.113ZM309.625 156.284C306.441 156.284 304.215 158.726 304 162.104H315.035C314.957 158.706 312.828 156.284 309.625 156.284ZM314.957 168.179H318.297C317.711 171.733 314.273 174.351 309.84 174.351C304.02 174.351 300.484 170.308 300.484 163.921C300.484 157.612 304.078 153.335 309.684 153.335C315.172 153.335 318.551 157.319 318.551 163.472V164.761H303.98V164.956C303.98 168.843 306.266 171.401 309.918 171.401C312.496 171.401 314.391 170.093 314.957 168.179ZM328.688 171.46C331.891 171.46 334.352 169.214 334.352 166.284V164.624L328.922 164.956C326.188 165.132 324.625 166.343 324.625 168.257C324.625 170.19 326.246 171.46 328.688 171.46ZM327.926 174.351C323.883 174.351 321.168 171.909 321.168 168.257C321.168 164.78 323.844 162.593 328.531 162.319L334.352 161.987V160.288C334.352 157.808 332.711 156.323 329.898 156.323C327.281 156.323 325.641 157.554 325.211 159.546H321.93C322.164 156.03 325.172 153.335 329.977 153.335C334.742 153.335 337.75 155.913 337.75 159.956V173.999H334.527V170.503H334.449C333.238 172.827 330.66 174.351 327.926 174.351ZM343.16 148.784H346.559V153.687H350.504V156.479H346.559V168.55C346.559 170.405 347.34 171.245 349.078 171.245C349.469 171.245 350.25 171.187 350.484 171.147V173.999C350.074 174.097 349.137 174.155 348.336 174.155C344.605 174.155 343.16 172.632 343.16 168.726V156.479H340.133V153.687H343.16V148.784ZM354.312 173.999V153.687H357.711V173.999H354.312ZM356.012 150.269C354.859 150.269 353.902 149.312 353.902 148.159C353.902 146.987 354.859 146.05 356.012 146.05C357.184 146.05 358.141 146.987 358.141 148.159C358.141 149.312 357.184 150.269 356.012 150.269ZM378.961 153.687L371.5 173.999H368.023L360.543 153.687H364.117L369.723 170.386H369.801L375.426 153.687H378.961ZM389.195 156.284C386.012 156.284 383.785 158.726 383.57 162.104H394.605C394.527 158.706 392.398 156.284 389.195 156.284ZM394.527 168.179H397.867C397.281 171.733 393.844 174.351 389.41 174.351C383.59 174.351 380.055 170.308 380.055 163.921C380.055 157.612 383.648 153.335 389.254 153.335C394.742 153.335 398.121 157.319 398.121 163.472V164.761H383.551V164.956C383.551 168.843 385.836 171.401 389.488 171.401C392.066 171.401 393.961 170.093 394.527 168.179ZM85.0547 221.999L82.2227 213.933H71.0117L68.1797 221.999H64.4883L74.8789 193.815H78.3555L88.7461 221.999H85.0547ZM76.5586 198.093L72.0469 210.944H81.1875L76.6758 198.093H76.5586ZM107.926 208.347H104.605C104.117 206.14 102.398 204.323 99.4102 204.323C95.8945 204.323 93.5117 207.233 93.5117 211.843C93.5117 216.569 95.9336 219.362 99.4492 219.362C102.223 219.362 104.039 217.897 104.625 215.456H107.965C107.438 219.499 104.039 222.351 99.4297 222.351C93.8047 222.351 90.0547 218.386 90.0547 211.843C90.0547 205.437 93.7852 201.335 99.3906 201.335C104.469 201.335 107.496 204.694 107.926 208.347ZM112.184 196.784H115.582V201.687H119.527V204.479H115.582V216.55C115.582 218.405 116.363 219.245 118.102 219.245C118.492 219.245 119.273 219.187 119.508 219.147V221.999C119.098 222.097 118.16 222.155 117.359 222.155C113.629 222.155 112.184 220.632 112.184 216.726V204.479H109.156V201.687H112.184V196.784ZM123.336 221.999V201.687H126.734V221.999H123.336ZM125.035 198.269C123.883 198.269 122.926 197.312 122.926 196.159C122.926 194.987 123.883 194.05 125.035 194.05C126.207 194.05 127.164 194.987 127.164 196.159C127.164 197.312 126.207 198.269 125.035 198.269ZM147.984 201.687L140.523 221.999H137.047L129.566 201.687H133.141L138.746 218.386H138.824L144.449 201.687H147.984ZM150.836 221.999V201.687H154.234V221.999H150.836ZM152.535 198.269C151.383 198.269 150.426 197.312 150.426 196.159C150.426 194.987 151.383 194.05 152.535 194.05C153.707 194.05 154.664 194.987 154.664 196.159C154.664 197.312 153.707 198.269 152.535 198.269ZM159.918 196.784H163.316V201.687H167.262V204.479H163.316V216.55C163.316 218.405 164.098 219.245 165.836 219.245C166.227 219.245 167.008 219.187 167.242 219.147V221.999C166.832 222.097 165.895 222.155 165.094 222.155C161.363 222.155 159.918 220.632 159.918 216.726V204.479H156.891V201.687H159.918V196.784ZM171.07 221.999V201.687H174.469V221.999H171.07ZM172.77 198.269C171.617 198.269 170.66 197.312 170.66 196.159C170.66 194.987 171.617 194.05 172.77 194.05C173.941 194.05 174.898 194.987 174.898 196.159C174.898 197.312 173.941 198.269 172.77 198.269ZM187.203 204.284C184.02 204.284 181.793 206.726 181.578 210.104H192.613C192.535 206.706 190.406 204.284 187.203 204.284ZM192.535 216.179H195.875C195.289 219.733 191.852 222.351 187.418 222.351C181.598 222.351 178.062 218.308 178.062 211.921C178.062 205.612 181.656 201.335 187.262 201.335C192.75 201.335 196.129 205.319 196.129 211.472V212.761H181.559V212.956C181.559 216.843 183.844 219.401 187.496 219.401C190.074 219.401 191.969 218.093 192.535 216.179ZM199.215 207.292C199.215 203.815 202.32 201.335 206.793 201.335C210.992 201.335 214.078 203.835 214.234 207.272H210.992C210.758 205.319 209.176 204.108 206.676 204.108C204.195 204.108 202.555 205.339 202.555 207.116C202.555 208.522 203.629 209.46 205.934 210.046L209.078 210.808C213.18 211.843 214.664 213.327 214.664 216.315C214.664 219.851 211.324 222.351 206.578 222.351C202.125 222.351 199.02 219.929 198.668 216.335H202.066C202.438 218.444 204.039 219.577 206.793 219.577C209.547 219.577 211.246 218.405 211.246 216.569C211.246 215.124 210.406 214.343 208.121 213.737L204.547 212.819C200.973 211.901 199.215 210.065 199.215 207.292Z" fill="#020409"/>
<path d="M89.0205 91.1289L91.3111 98.3392L51.1363 111.102L48.8457 103.892L89.0205 91.1289Z" fill="#F8DCD8" stroke="white" stroke-width="2"/>
<g filter="url(#filter0_di_1571_26336)">
<path d="M52.3812 97.8422C53.7543 86.8868 45.4876 82.6062 37.3314 90.0492C30.556 81.3324 21.6833 84.1512 21.1794 95.1804C10.2243 93.8087 5.94236 102.076 13.3863 110.23C4.66854 117.007 7.48723 125.88 18.5179 126.383C17.1447 137.339 25.4128 141.619 33.5677 134.176C40.3443 142.893 49.2171 140.074 49.7196 129.045C60.676 130.416 64.9567 122.15 57.5127 113.995C66.2318 107.222 63.4131 98.3495 52.3812 97.8422Z" fill="#3F9672"/>
<path d="M26.4494 83.7805C30.0565 82.6346 34.1081 84.1748 37.5119 87.9326C41.504 84.8056 45.7586 83.9741 49.1195 85.7144C52.4805 87.4548 54.2554 91.4091 54.0048 96.4737C59.0399 97.0865 62.6371 99.5074 63.7832 103.115C64.9292 106.722 63.3886 110.774 59.6298 114.177C62.7566 118.168 63.5886 122.421 61.8483 125.782C60.1079 129.143 56.1533 130.919 51.0884 130.669C50.4774 135.702 48.0579 139.299 44.4507 140.445C40.8434 141.591 36.7906 140.051 33.386 136.292C29.3947 139.419 25.1414 140.251 21.7806 138.511C18.4195 136.771 16.643 132.817 16.8934 127.752C11.8595 127.141 8.2629 124.721 7.11689 121.114C5.9709 117.506 7.511 113.454 11.2693 110.049C8.14246 106.058 7.31133 101.804 9.05177 98.4432C10.7922 95.0827 14.7457 93.3067 19.8095 93.5563C20.4211 88.5226 22.8423 84.9264 26.4494 83.7805Z" stroke="white" stroke-width="3"/>
</g>
<path d="M31.4478 99.5165C38.4068 97.3057 45.8409 101.155 48.0517 108.114C50.2625 115.072 46.4126 122.506 39.4535 124.717C32.4945 126.927 25.0612 123.078 22.8505 116.12C20.6399 109.161 24.489 101.727 31.4478 99.5165Z" fill="#F8DCD8" stroke="white" stroke-width="4"/>
<g filter="url(#filter1_di_1571_26336)">
<path d="M117.428 77.1791C118.801 66.2237 110.534 61.9431 102.378 69.3861C95.6029 60.6693 86.7301 63.4881 86.2263 74.5173C75.2712 73.1456 70.9892 81.4127 78.4332 89.5671C69.7154 96.3441 72.5341 105.217 83.5648 105.72C82.1916 116.676 90.4597 120.956 98.6146 113.513C105.391 122.229 114.264 119.411 114.767 108.382C125.723 109.753 130.004 101.487 122.56 93.3322C131.279 86.5591 128.46 77.6864 117.428 77.1791Z" fill="#3F9672"/>
<path d="M91.4963 63.1174C95.1034 61.9715 99.1549 63.5117 102.559 67.2695C106.551 64.1425 110.805 63.311 114.166 65.0513C117.527 66.7917 119.302 70.746 119.052 75.8106C124.087 76.4234 127.684 78.8444 128.83 82.4517C129.976 86.0592 128.435 90.1108 124.677 93.5136C127.803 97.5047 128.635 101.758 126.895 105.119C125.155 108.48 121.2 110.255 116.135 110.006C115.524 115.039 113.105 118.636 109.498 119.782C105.89 120.928 101.837 119.388 98.4329 115.629C94.4415 118.756 90.1882 119.588 86.8275 117.848C83.4664 116.108 81.6899 112.154 81.9403 107.089C76.9063 106.478 73.3098 104.058 72.1638 100.451C71.0178 96.8432 72.5579 92.7904 76.3162 89.3859C73.1893 85.3946 72.3582 81.1409 74.0986 77.7801C75.8391 74.4196 79.7926 72.6436 84.8564 72.8932C85.4679 67.8595 87.8891 64.2633 91.4963 63.1174Z" stroke="white" stroke-width="3"/>
</g>
<path d="M96.4946 78.8534C103.454 76.6426 110.888 80.4916 113.099 87.4504C115.309 94.4094 111.459 101.843 104.5 104.054C97.5413 106.264 90.108 102.415 87.8973 95.4564C85.6868 88.4976 89.5359 81.0643 96.4946 78.8534Z" fill="#F8DCD8" stroke="white" stroke-width="4"/>
<g filter="url(#filter2_di_1571_26336)">
<path d="M440.973 180.973C440.973 177.122 437.851 174 434 174C430.149 174 427.027 177.122 427.027 180.973V188.617L423.251 181.971C421.348 178.623 417.091 177.451 413.743 179.354C410.395 181.256 409.223 185.513 411.126 188.861L415.424 196.424L407.861 192.126C404.513 190.223 400.256 191.395 398.354 194.743C396.451 198.091 397.623 202.348 400.971 204.251L407.617 208.027H399.973C396.122 208.027 393 211.149 393 215C393 218.851 396.122 221.973 399.973 221.973H407.617L400.971 225.749C397.623 227.652 396.451 231.909 398.354 235.257C400.256 238.605 404.513 239.777 407.861 237.874L415.424 233.576L411.126 241.139C409.223 244.487 410.395 248.744 413.743 250.646C417.091 252.549 421.348 251.377 423.251 248.029L427.027 241.383V249.027C427.027 252.878 430.149 256 434 256C437.851 256 440.973 252.878 440.973 249.027V241.383L444.749 248.029C446.652 251.377 450.909 252.549 454.257 250.646C457.605 248.744 458.777 244.487 456.874 241.139L452.576 233.576L460.139 237.874C463.487 239.777 467.744 238.605 469.646 235.257C471.549 231.909 470.377 227.652 467.029 225.749L460.383 221.973H468.027C471.878 221.973 475 218.851 475 215C475 211.149 471.878 208.027 468.027 208.027H460.383L467.029 204.251C470.377 202.348 471.549 198.091 469.646 194.743C467.744 191.395 463.487 190.223 460.139 192.126L452.576 196.424L456.874 188.861C458.777 185.513 457.605 181.256 454.257 179.354C450.909 177.451 446.652 178.623 444.749 181.971L440.973 188.617V180.973Z" fill="#E681FF"/>
<path d="M434 171.5C438.751 171.5 442.683 174.997 443.366 179.558C446.213 175.93 451.362 174.832 455.492 177.18C459.939 179.707 461.557 185.289 459.212 189.787C463.711 187.442 469.293 189.061 471.82 193.508C474.168 197.638 473.069 202.786 469.441 205.633C474.002 206.316 477.5 210.249 477.5 215C477.5 219.751 474.002 223.683 469.441 224.366C473.07 227.213 474.168 232.361 471.82 236.492C469.293 240.939 463.711 242.557 459.212 240.212C461.557 244.711 459.939 250.293 455.492 252.82C451.361 255.168 446.213 254.07 443.366 250.441C442.683 255.002 438.751 258.5 434 258.5C429.249 258.5 425.316 255.002 424.633 250.441C421.786 254.069 416.638 255.168 412.508 252.82C408.061 250.293 406.442 244.711 408.787 240.212C404.289 242.557 398.707 240.939 396.18 236.492C393.832 232.362 394.93 227.213 398.558 224.366C393.997 223.683 390.5 219.751 390.5 215C390.5 210.249 393.997 206.316 398.558 205.633C394.93 202.786 393.833 197.638 396.18 193.508C398.707 189.061 404.289 187.443 408.787 189.787C406.443 185.289 408.061 179.707 412.508 177.18C416.638 174.833 421.786 175.93 424.633 179.558C425.316 174.997 429.249 171.5 434 171.5Z" stroke="white" stroke-width="5"/>
</g>
<g filter="url(#filter3_i_1571_26336)">
<circle cx="433.927" cy="213.801" r="13.5173" fill="#8D83FF"/>
</g>
<circle cx="433.927" cy="213.801" r="15.5173" stroke="white" stroke-width="4"/>
<g filter="url(#filter4_di_1571_26336)">
<rect x="64" y="263.999" width="165" height="48" rx="24" fill="#0064E2" shape-rendering="crispEdges"/>
<rect x="65" y="264.999" width="163" height="46" rx="23" stroke="#CCE0F9" stroke-width="2" shape-rendering="crispEdges"/>
<path d="M96.1953 291.983V293.499H89.0391V282.226H96.1953V283.733H90.7891V287.03H95.9062V288.483H90.7891V291.983H96.1953ZM100.867 290.476H100.828L99.0078 293.499H97.1797L99.8906 289.397L97.2188 285.28H99.1094L100.906 288.257H100.938L102.711 285.28H104.57L101.875 289.343L104.539 293.499H102.68L100.867 290.476ZM109.914 285.147C112 285.147 113.375 286.788 113.375 289.39C113.375 291.991 112.008 293.64 109.945 293.64C108.766 293.64 107.828 293.062 107.359 292.147H107.32V296.218H105.633V285.28H107.266V286.694H107.297C107.781 285.749 108.727 285.147 109.914 285.147ZM109.469 292.21C110.805 292.21 111.641 291.116 111.641 289.39C111.641 287.671 110.805 286.569 109.469 286.569C108.18 286.569 107.312 287.694 107.312 289.39C107.312 291.101 108.172 292.21 109.469 292.21ZM114.742 293.499V282.226H116.43V293.499H114.742ZM121.695 293.655C119.344 293.655 117.797 292.038 117.797 289.39C117.797 286.749 119.352 285.132 121.695 285.132C124.039 285.132 125.594 286.749 125.594 289.39C125.594 292.038 124.047 293.655 121.695 293.655ZM121.695 292.265C123.023 292.265 123.875 291.218 123.875 289.39C123.875 287.569 123.016 286.522 121.695 286.522C120.375 286.522 119.516 287.569 119.516 289.39C119.516 291.218 120.375 292.265 121.695 292.265ZM126.898 293.499V285.28H128.508V286.679H128.547C128.82 285.718 129.555 285.147 130.523 285.147C130.766 285.147 130.977 285.187 131.102 285.21V286.78C130.969 286.726 130.672 286.687 130.344 286.687C129.258 286.687 128.586 287.413 128.586 288.577V293.499H126.898ZM135.227 286.491C134.047 286.491 133.219 287.39 133.133 288.632H137.242C137.203 287.374 136.406 286.491 135.227 286.491ZM137.234 291.085H138.836C138.602 292.585 137.18 293.655 135.297 293.655C132.883 293.655 131.422 292.022 131.422 289.429C131.422 286.851 132.906 285.132 135.227 285.132C137.508 285.132 138.93 286.741 138.93 289.233V289.812H133.125V289.913C133.125 291.343 133.984 292.288 135.336 292.288C136.297 292.288 137.008 291.804 137.234 291.085ZM146.367 292.304C147.547 292.304 148.469 291.491 148.469 290.421V289.772L146.445 289.897C145.438 289.968 144.867 290.413 144.867 291.116C144.867 291.835 145.461 292.304 146.367 292.304ZM145.898 293.64C144.289 293.64 143.164 292.64 143.164 291.163C143.164 289.726 144.266 288.843 146.219 288.733L148.469 288.601V287.968C148.469 287.054 147.852 286.507 146.82 286.507C145.844 286.507 145.234 286.976 145.086 287.71H143.492C143.586 286.226 144.852 285.132 146.883 285.132C148.875 285.132 150.148 286.187 150.148 287.835V293.499H148.531V292.147H148.492C148.016 293.062 146.977 293.64 145.898 293.64ZM158.844 288.108H157.234C157.062 287.233 156.406 286.538 155.305 286.538C154 286.538 153.141 287.624 153.141 289.39C153.141 291.194 154.008 292.241 155.32 292.241C156.359 292.241 157.039 291.671 157.234 290.718H158.859C158.68 292.468 157.281 293.655 155.305 293.655C152.953 293.655 151.422 292.046 151.422 289.39C151.422 286.78 152.953 285.132 155.289 285.132C157.406 285.132 158.695 286.491 158.844 288.108ZM160.547 283.335H162.242V285.28H163.805V286.616H162.242V291.147C162.242 291.858 162.555 292.179 163.242 292.179C163.414 292.179 163.688 292.163 163.797 292.14V293.476C163.609 293.522 163.234 293.554 162.859 293.554C161.195 293.554 160.547 292.921 160.547 291.335V286.616H159.352V285.28H160.547V283.335ZM165.25 293.499V285.28H166.938V293.499H165.25ZM166.094 284.077C165.555 284.077 165.117 283.647 165.117 283.116C165.117 282.577 165.555 282.147 166.094 282.147C166.641 282.147 167.078 282.577 167.078 283.116C167.078 283.647 166.641 284.077 166.094 284.077ZM175.68 285.28L172.734 293.499H170.922L167.961 285.28H169.758L171.82 291.851H171.852L173.914 285.28H175.68ZM176.703 293.499V285.28H178.391V293.499H176.703ZM177.547 284.077C177.008 284.077 176.57 283.647 176.57 283.116C176.57 282.577 177.008 282.147 177.547 282.147C178.094 282.147 178.531 282.577 178.531 283.116C178.531 283.647 178.094 284.077 177.547 284.077ZM180.609 283.335H182.305V285.28H183.867V286.616H182.305V291.147C182.305 291.858 182.617 292.179 183.305 292.179C183.477 292.179 183.75 292.163 183.859 292.14V293.476C183.672 293.522 183.297 293.554 182.922 293.554C181.258 293.554 180.609 292.921 180.609 291.335V286.616H179.414V285.28H180.609V283.335ZM185.312 293.499V285.28H187V293.499H185.312ZM186.156 284.077C185.617 284.077 185.18 283.647 185.18 283.116C185.18 282.577 185.617 282.147 186.156 282.147C186.703 282.147 187.141 282.577 187.141 283.116C187.141 283.647 186.703 284.077 186.156 284.077ZM192.164 286.491C190.984 286.491 190.156 287.39 190.07 288.632H194.18C194.141 287.374 193.344 286.491 192.164 286.491ZM194.172 291.085H195.773C195.539 292.585 194.117 293.655 192.234 293.655C189.82 293.655 188.359 292.022 188.359 289.429C188.359 286.851 189.844 285.132 192.164 285.132C194.445 285.132 195.867 286.741 195.867 289.233V289.812H190.062V289.913C190.062 291.343 190.922 292.288 192.273 292.288C193.234 292.288 193.945 291.804 194.172 291.085ZM197.031 287.608C197.031 286.14 198.328 285.132 200.25 285.132C202.078 285.132 203.359 286.155 203.414 287.616H201.828C201.75 286.874 201.148 286.413 200.203 286.413C199.289 286.413 198.68 286.858 198.68 287.507C198.68 288.015 199.086 288.358 199.938 288.569L201.32 288.89C202.977 289.288 203.602 289.913 203.602 291.124C203.602 292.624 202.203 293.655 200.188 293.655C198.242 293.655 196.953 292.647 196.82 291.14H198.492C198.625 291.929 199.234 292.366 200.266 292.366C201.281 292.366 201.906 291.944 201.906 291.28C201.906 290.757 201.594 290.468 200.734 290.249L199.266 289.89C197.781 289.53 197.031 288.757 197.031 287.608Z" fill="white"/>
</g>
</g>
<defs>
<filter id="filter0_di_1571_26336" x="-10.7578" y="65.9048" width="92.418" height="92.4155" filterUnits="userSpaceOnUse" color-interpolation-filters="sRGB">
<feFlood flood-opacity="0" result="BackgroundImageFix"/>
<feColorMatrix in="SourceAlpha" type="matrix" values="0 0 0 0 0 0 0 0 0 0 0 0 0 0 0 0 0 0 127 0" result="hardAlpha"/>
<feOffset/>
<feGaussianBlur stdDeviation="8"/>
<feComposite in2="hardAlpha" operator="out"/>
<feColorMatrix type="matrix" values="0 0 0 0 0.247059 0 0 0 0 0.588235 0 0 0 0 0.447059 0 0 0 0.3 0"/>
<feBlend mode="normal" in2="BackgroundImageFix" result="effect1_dropShadow_1571_26336"/>
<feBlend mode="normal" in="SourceGraphic" in2="effect1_dropShadow_1571_26336" result="shape"/>
<feColorMatrix in="SourceAlpha" type="matrix" values="0 0 0 0 0 0 0 0 0 0 0 0 0 0 0 0 0 0 127 0" result="hardAlpha"/>
<feOffset dy="2"/>
<feGaussianBlur stdDeviation="2.5"/>
<feComposite in2="hardAlpha" operator="arithmetic" k2="-1" k3="1"/>
<feColorMatrix type="matrix" values="0 0 0 0 1 0 0 0 0 1 0 0 0 0 1 0 0 0 0.4 0"/>
<feBlend mode="normal" in2="shape" result="effect2_innerShadow_1571_26336"/>
</filter>
<filter id="filter1_di_1571_26336" x="54.2891" y="45.2417" width="92.418" height="92.4155" filterUnits="userSpaceOnUse" color-interpolation-filters="sRGB">
<feFlood flood-opacity="0" result="BackgroundImageFix"/>
<feColorMatrix in="SourceAlpha" type="matrix" values="0 0 0 0 0 0 0 0 0 0 0 0 0 0 0 0 0 0 127 0" result="hardAlpha"/>
<feOffset/>
<feGaussianBlur stdDeviation="8"/>
<feComposite in2="hardAlpha" operator="out"/>
<feColorMatrix type="matrix" values="0 0 0 0 0.247059 0 0 0 0 0.588235 0 0 0 0 0.447059 0 0 0 0.3 0"/>
<feBlend mode="normal" in2="BackgroundImageFix" result="effect1_dropShadow_1571_26336"/>
<feBlend mode="normal" in="SourceGraphic" in2="effect1_dropShadow_1571_26336" result="shape"/>
<feColorMatrix in="SourceAlpha" type="matrix" values="0 0 0 0 0 0 0 0 0 0 0 0 0 0 0 0 0 0 127 0" result="hardAlpha"/>
<feOffset dy="2"/>
<feGaussianBlur stdDeviation="2.5"/>
<feComposite in2="hardAlpha" operator="arithmetic" k2="-1" k3="1"/>
<feColorMatrix type="matrix" values="0 0 0 0 1 0 0 0 0 1 0 0 0 0 1 0 0 0 0.4 0"/>
<feBlend mode="normal" in2="shape" result="effect2_innerShadow_1571_26336"/>
</filter>
<filter id="filter2_di_1571_26336" x="372" y="153" width="124" height="124" filterUnits="userSpaceOnUse" color-interpolation-filters="sRGB">
<feFlood flood-opacity="0" result="BackgroundImageFix"/>
<feColorMatrix in="SourceAlpha" type="matrix" values="0 0 0 0 0 0 0 0 0 0 0 0 0 0 0 0 0 0 127 0" result="hardAlpha"/>
<feOffset/>
<feGaussianBlur stdDeviation="8"/>
<feComposite in2="hardAlpha" operator="out"/>
<feColorMatrix type="matrix" values="0 0 0 0 0.901961 0 0 0 0 0.505882 0 0 0 0 1 0 0 0 0.3 0"/>
<feBlend mode="normal" in2="BackgroundImageFix" result="effect1_dropShadow_1571_26336"/>
<feBlend mode="normal" in="SourceGraphic" in2="effect1_dropShadow_1571_26336" result="shape"/>
<feColorMatrix in="SourceAlpha" type="matrix" values="0 0 0 0 0 0 0 0 0 0 0 0 0 0 0 0 0 0 127 0" result="hardAlpha"/>
<feOffset dx="2.90968" dy="2"/>
<feGaussianBlur stdDeviation="2.5"/>
<feComposite in2="hardAlpha" operator="arithmetic" k2="-1" k3="1"/>
<feColorMatrix type="matrix" values="0 0 0 0 1 0 0 0 0 1 0 0 0 0 1 0 0 0 0.4 0"/>
<feBlend mode="normal" in2="shape" result="effect2_innerShadow_1571_26336"/>
</filter>
<filter id="filter3_i_1571_26336" x="416.41" y="195.283" width="35.0352" height="36.0347" filterUnits="userSpaceOnUse" color-interpolation-filters="sRGB">
<feFlood flood-opacity="0" result="BackgroundImageFix"/>
<feBlend mode="normal" in="SourceGraphic" in2="BackgroundImageFix" result="shape"/>
<feColorMatrix in="SourceAlpha" type="matrix" values="0 0 0 0 0 0 0 0 0 0 0 0 0 0 0 0 0 0 127 0" result="hardAlpha"/>
<feOffset dy="-1"/>
<feGaussianBlur stdDeviation="2.5"/>
<feComposite in2="hardAlpha" operator="arithmetic" k2="-1" k3="1"/>
<feColorMatrix type="matrix" values="0 0 0 0 1 0 0 0 0 1 0 0 0 0 1 0 0 0 0.25 0"/>
<feBlend mode="normal" in2="shape" result="effect1_innerShadow_1571_26336"/>
</filter>
<filter id="filter4_di_1571_26336" x="56" y="259.999" width="181" height="64" filterUnits="userSpaceOnUse" color-interpolation-filters="sRGB">
<feFlood flood-opacity="0" result="BackgroundImageFix"/>
<feColorMatrix in="SourceAlpha" type="matrix" values="0 0 0 0 0 0 0 0 0 0 0 0 0 0 0 0 0 0 127 0" result="hardAlpha"/>
<feOffset dy="4"/>
<feGaussianBlur stdDeviation="4"/>
<feComposite in2="hardAlpha" operator="out"/>
<feColorMatrix type="matrix" values="0 0 0 0 0 0 0 0 0 0.392157 0 0 0 0 0.886275 0 0 0 0.3 0"/>
<feBlend mode="normal" in2="BackgroundImageFix" result="effect1_dropShadow_1571_26336"/>
<feBlend mode="normal" in="SourceGraphic" in2="effect1_dropShadow_1571_26336" result="shape"/>
<feColorMatrix in="SourceAlpha" type="matrix" values="0 0 0 0 0 0 0 0 0 0 0 0 0 0 0 0 0 0 127 0" result="hardAlpha"/>
<feOffset dy="2"/>
<feGaussianBlur stdDeviation="3.7"/>
<feComposite in2="hardAlpha" operator="arithmetic" k2="-1" k3="1"/>
<feColorMatrix type="matrix" values="0 0 0 0 1 0 0 0 0 1 0 0 0 0 1 0 0 0 0.25 0"/>
<feBlend mode="normal" in2="shape" result="effect2_innerShadow_1571_26336"/>
</filter>
<clipPath id="clip0_1571_26336">
<rect width="616" height="336" fill="white" transform="translate(0 -0.000976562)"/>
</clipPath>
</defs>
</svg>
