<svg width="1440" height="2172" viewBox="0 0 1440 2172" fill="none" xmlns="http://www.w3.org/2000/svg">
<g opacity="0.2">
<path fill-rule="evenodd" clip-rule="evenodd" d="M60.2473 0.210901H0.210901V60.2473H54.0275L60.2473 54.0275V0.210901ZM66.6329 60.2473L60.4934 54.1077V0.210901H120.53V60.2473H66.6329ZM60.4934 66.5415L66.5415 60.4934H120.53V120.53H60.4934V66.5415ZM54.1189 60.4934L60.2473 66.6217V120.53H0.210901V60.4934H54.1189ZM0 0V60.2825V60.4582V120.565V120.741V180.847V181.023V241.13V241.305V301.412V301.588V361.87H60.2825H60.4582H120.565H120.741H180.847H181.023H241.13H241.305H301.412H301.588H361.694H361.87H421.977H422.153H482.259H482.435H542.542H542.717H603L603 301.588V241.305V241.13V180.847V120.741V60.4582V60.2825V0H542.717H542.542H482.435H482.259H422.153H421.977H361.87H361.694H301.588H301.412H241.305H241.13H181.023H180.847H120.741H120.565H60.4582H60.2825H0ZM120.776 0.210901H180.812V60.2473H120.776V0.210901ZM241.094 0.210901H181.058V60.2473H241.094V0.210901ZM241.341 0.210901H301.377V60.2473H241.341V0.210901ZM361.659 0.210901H301.623V60.2473H361.659V0.210901ZM361.905 0.210901H421.942V60.2473H361.905V0.210901ZM482.224 0.210901H422.188V60.2473H482.224V0.210901ZM482.47 0.210901H542.506V60.2473H482.47V0.210901ZM602.789 0.210901H542.753V60.2473H602.789V0.210901ZM120.776 60.4934H180.812V120.53H120.776V60.4934ZM241.094 60.4934H181.058V120.53H235.056L241.094 114.491V60.4934ZM247.283 120.53L241.341 114.588V60.4934H301.377V120.53H247.283ZM241.341 127.005L247.549 120.796L247.529 120.776H301.377V180.812H241.341V127.005ZM234.81 120.776L234.789 120.796L241.094 127.102V180.812H181.058V120.776H234.81ZM361.659 60.4934H301.623V120.53H361.659V60.4934ZM361.905 60.4934H421.942V120.53H361.905V60.4934ZM482.224 60.4934H422.188V120.53H482.224V60.4934ZM482.47 60.4934H542.506V103.874L542.405 103.976L525.85 120.53H482.47V60.4934ZM525.605 120.776H482.47V174.897L482.672 174.696L488.788 180.812H542.507V137.719L542.405 137.617L525.747 120.959L525.584 120.796L525.605 120.776ZM542.507 137.393L525.91 120.796L525.93 120.776H536.208L536.187 120.796L542.507 127.115V137.393ZM542.753 137.595V180.812H602.789V120.776H559.53L559.551 120.796L559.388 120.959L542.753 137.595ZM559.205 120.776L559.225 120.796L542.753 137.269V126.991L548.948 120.796L548.927 120.776H559.205ZM559.285 120.53H602.789V60.4934H542.753V103.998L559.285 120.53ZM542.753 104.324L558.959 120.53H548.681L542.753 114.601V104.324ZM542.506 104.199L526.176 120.53H536.454L542.506 114.477V104.199ZM482.47 187.254L482.672 187.456L489.052 181.076L489.034 181.058H542.506V241.094H482.47V187.254ZM476.31 181.058L476.292 181.076L482.224 187.008V241.094H422.188V181.058H476.31ZM482.224 175.144L476.556 180.812H422.188V120.776H482.224V175.144ZM0.210901 120.776H60.2473V180.812H0.210901V120.776ZM120.53 120.776H60.4934V180.812H120.53V120.776ZM120.776 120.776H180.812V180.812H120.776V120.776ZM361.659 120.776H301.623V180.812H361.659V120.776ZM361.905 120.776H421.942V180.812H361.905V120.776ZM0.210901 181.058H60.2473V241.094H0.210901V181.058ZM120.53 181.058H60.4934V241.094H103.941L103.863 241.016L104.026 240.853L120.53 224.35V181.058ZM120.53 224.676L104.189 241.016L104.267 241.094H114.545L114.467 241.016L120.53 234.953V224.676ZM120.776 234.708V224.43L120.847 224.359L137.505 241.016L137.426 241.094H127.149L127.227 241.016L120.847 234.636L120.776 234.708ZM120.776 247.325L120.847 247.396L126.903 241.341H137.18L120.847 257.674L120.776 257.603V247.325ZM114.791 241.341L120.53 247.079V257.357L104.513 241.341H114.791ZM104.187 241.341H60.4934V301.377H120.53V257.683L104.187 241.341ZM120.776 257.929V301.377H180.812V241.341H137.506L121.01 257.837L120.847 258L120.776 257.929ZM137.752 241.094H180.812V181.058H120.776V224.104L120.847 224.033L121.01 224.196L137.667 240.853L137.83 241.016L137.752 241.094ZM241.094 181.058H181.058V241.094H241.094V181.058ZM241.341 181.058H301.377V241.094H241.341V181.058ZM361.659 181.058H301.623V241.094H361.659V181.058ZM361.905 181.058H421.942V241.094H361.905V181.058ZM602.789 181.058H542.753V241.094H602.789V181.058ZM0.210901 241.341H60.2473V301.377H0.210901V241.341ZM241.094 241.341H181.058V301.377H241.094V241.341ZM241.341 241.341H301.377V301.377H241.341V241.341ZM361.659 241.341H301.623V301.377H361.659V241.341ZM361.905 241.341H421.942V301.377H361.905V241.341ZM482.224 241.341H422.188V301.377H482.224V241.341ZM482.47 241.341H542.506V301.377H482.47V241.341ZM602.789 241.341H542.753V301.377H602.789V241.341ZM0.210901 301.623H60.2473V361.659H0.210901V301.623ZM120.53 301.623H60.4934V361.659H120.53V301.623ZM120.776 301.623H180.812V361.659H120.776V301.623ZM241.094 301.623H181.058V361.659H241.094V301.623ZM241.341 301.623H301.377V361.659H241.341V301.623ZM361.659 301.623H301.623V361.659H361.659V301.623ZM361.905 301.623H421.942V361.659H361.905V301.623ZM482.224 301.623H422.188V361.659H482.224V301.623ZM482.47 301.623H542.506V361.659H482.47V301.623ZM602.789 301.623H542.753V361.659H602.789V301.623Z" fill="url(#paint0_radial_819_9235)" fill-opacity="0.6"/>
<path fill-rule="evenodd" clip-rule="evenodd" d="M60.2473 362.081H0.210901V422.118H54.0275L60.2473 415.898V362.081ZM66.6329 422.118L60.4934 415.978V362.081H120.53V422.118H66.6329ZM60.4934 428.412L66.5415 422.364H120.53V482.4H60.4934V428.412ZM54.1189 422.364L60.2473 428.492V482.4H0.210901V422.364H54.1189ZM0 361.87V422.153V422.328V482.435V482.611V542.717V542.893V603V603.176V663.282V663.458V723.741H60.2825H60.4582H120.565H120.741H180.847H181.023H241.13H241.305H301.412H301.588H361.694H361.87H421.977H422.153H482.259H482.435H542.542H542.717H603L603 663.458V603.176V603V542.717V482.611V422.328V422.153V361.87H542.717H542.542H482.435H482.259H422.153H421.977H361.87H361.694H301.588H301.412H241.305H241.13H181.023H180.847H120.741H120.565H60.4582H60.2825H0ZM120.776 362.081H180.812V422.118H120.776V362.081ZM241.094 362.081H181.058V422.118H241.094V362.081ZM241.341 362.081H301.377V422.118H241.341V362.081ZM361.659 362.081H301.623V422.118H361.659V362.081ZM361.905 362.081H421.942V422.118H361.905V362.081ZM482.224 362.081H422.188V422.118H482.224V362.081ZM482.47 362.081H542.506V422.118H482.47V362.081ZM602.789 362.081H542.753V422.118H602.789V362.081ZM120.776 422.364H180.812V482.4H120.776V422.364ZM241.094 422.364H181.058V482.4H235.056L241.094 476.361V422.364ZM247.283 482.4L241.341 476.458V422.364H301.377V482.4H247.283ZM241.341 488.875L247.549 482.667L247.529 482.646H301.377V542.682H241.341V488.875ZM234.81 482.646L234.789 482.667L241.094 488.972V542.682H181.058V482.646H234.81ZM361.659 422.364H301.623V482.4H361.659V422.364ZM361.905 422.364H421.942V482.4H361.905V422.364ZM482.224 422.364H422.188V482.4H482.224V422.364ZM482.47 422.364H542.506V465.744L542.405 465.846L525.85 482.4H482.47V422.364ZM525.605 482.646H482.47V536.768L482.672 536.566L488.788 542.682H542.507V499.589L542.405 499.487L525.747 482.829L525.584 482.667L525.605 482.646ZM542.507 499.263L525.91 482.667L525.93 482.646H536.208L536.187 482.667L542.507 488.986V499.263ZM542.753 499.465V542.682H602.789V482.646H559.53L559.551 482.667L559.388 482.829L542.753 499.465ZM559.205 482.646L559.225 482.667L542.753 499.139V488.862L548.948 482.667L548.927 482.646H559.205ZM559.285 482.4H602.789V422.364H542.753V465.868L559.285 482.4ZM542.753 466.194L558.959 482.4H548.681L542.753 476.472V466.194ZM542.506 466.07L526.176 482.4H536.454L542.506 476.348V466.07ZM482.47 549.124L482.672 549.326L489.052 542.946L489.034 542.928H542.506V602.965H482.47V549.124ZM476.31 542.928L476.292 542.946L482.224 548.879V602.965H422.188V542.928H476.31ZM482.224 537.014L476.556 542.682H422.188V482.646H482.224V537.014ZM0.210901 482.646H60.2473V542.682H0.210901V482.646ZM120.53 482.646H60.4934V542.682H120.53V482.646ZM120.776 482.646H180.812V542.682H120.776V482.646ZM361.659 482.646H301.623V542.682H361.659V482.646ZM361.905 482.646H421.942V542.682H361.905V482.646ZM0.210901 542.928H60.2473V602.965H0.210901V542.928ZM120.53 542.928H60.4934V602.965H103.941L103.863 602.887L104.026 602.724L120.53 586.22V542.928ZM120.53 586.546L104.189 602.887L104.267 602.965H114.545L114.467 602.887L120.53 596.824V586.546ZM120.776 596.578V586.3L120.847 586.229L137.505 602.887L137.426 602.965H127.149L127.227 602.887L120.847 596.507L120.776 596.578ZM120.776 609.196L120.847 609.267L126.903 603.211H137.18L120.847 619.544L120.776 619.473V609.196ZM114.791 603.211L120.53 608.95V619.227L104.513 603.211H114.791ZM104.187 603.211H60.4934V663.247H120.53V619.553L104.187 603.211ZM120.776 619.799V663.247H180.812V603.211H137.506L121.01 619.707L120.847 619.87L120.776 619.799ZM137.752 602.965H180.812V542.928H120.776V585.974L120.847 585.903L121.01 586.066L137.667 602.724L137.83 602.887L137.752 602.965ZM241.094 542.928H181.058V602.965H241.094V542.928ZM241.341 542.928H301.377V602.965H241.341V542.928ZM361.659 542.928H301.623V602.965H361.659V542.928ZM361.905 542.928H421.942V602.965H361.905V542.928ZM602.789 542.928H542.753V602.965H602.789V542.928ZM0.210901 603.211H60.2473V663.247H0.210901V603.211ZM241.094 603.211H181.058V663.247H241.094V603.211ZM241.341 603.211H301.377V663.247H241.341V603.211ZM361.659 603.211H301.623V663.247H361.659V603.211ZM361.905 603.211H421.942V663.247H361.905V603.211ZM482.224 603.211H422.188V663.247H482.224V603.211ZM482.47 603.211H542.506V663.247H482.47V603.211ZM602.789 603.211H542.753V663.247H602.789V603.211ZM0.210901 663.493H60.2473V723.53H0.210901V663.493ZM120.53 663.493H60.4934V723.53H120.53V663.493ZM120.776 663.493H180.812V723.53H120.776V663.493ZM241.094 663.493H181.058V723.53H241.094V663.493ZM241.341 663.493H301.377V723.53H241.341V663.493ZM361.659 663.493H301.623V723.53H361.659V663.493ZM361.905 663.493H421.942V723.53H361.905V663.493ZM482.224 663.493H422.188V723.53H482.224V663.493ZM482.47 663.493H542.506V723.53H482.47V663.493ZM602.789 663.493H542.753V723.53H602.789V663.493Z" fill="url(#paint1_radial_819_9235)" fill-opacity="0.6"/>
<path fill-rule="evenodd" clip-rule="evenodd" d="M60.2473 723.952H0.210901V783.988H54.0275L60.2473 777.768V723.952ZM66.6329 783.988L60.4934 777.848V723.952H120.53V783.988H66.6329ZM60.4934 790.282L66.5415 784.234H120.53V844.27H60.4934V790.282ZM54.1189 784.234L60.2473 790.362V844.27H0.210901V784.234H54.1189ZM0 723.741V784.023V784.199V844.305V844.481V904.588V904.763V964.87V965.046V1025.15V1025.33V1085.61H60.2825H60.4582H120.565H120.741H180.847H181.023H241.13H241.305H301.412H301.588H361.694H361.87H421.977H422.153H482.259H482.435H542.542H542.717H603L603 1025.33V965.046V964.87V904.588V844.481V784.199V784.023V723.741H542.717H542.542H482.435H482.259H422.153H421.977H361.87H361.694H301.588H301.412H241.305H241.13H181.023H180.847H120.741H120.565H60.4582H60.2825H0ZM120.776 723.952H180.812V783.988H120.776V723.952ZM241.094 723.952H181.058V783.988H241.094V723.952ZM241.341 723.952H301.377V783.988H241.341V723.952ZM361.659 723.952H301.623V783.988H361.659V723.952ZM361.905 723.952H421.942V783.988H361.905V723.952ZM482.224 723.952H422.188V783.988H482.224V723.952ZM482.47 723.952H542.506V783.988H482.47V723.952ZM602.789 723.952H542.753V783.988H602.789V723.952ZM120.776 784.234H180.812V844.27H120.776V784.234ZM241.094 784.234H181.058V844.27H235.056L241.094 838.231V784.234ZM247.283 844.27L241.341 838.328V784.234H301.377V844.27H247.283ZM241.341 850.745L247.549 844.537L247.529 844.516H301.377V904.553H241.341V850.745ZM234.81 844.516L234.789 844.537L241.094 850.842V904.553H181.058V844.516H234.81ZM361.659 784.234H301.623V844.27H361.659V784.234ZM361.905 784.234H421.942V844.27H361.905V784.234ZM482.224 784.234H422.188V844.27H482.224V784.234ZM482.47 784.234H542.506V827.614L542.405 827.716L525.85 844.27H482.47V784.234ZM525.605 844.516H482.47V898.638L482.672 898.436L488.788 904.553H542.507V861.459L542.405 861.357L525.747 844.7L525.584 844.537L525.605 844.516ZM542.507 861.134L525.91 844.537L525.93 844.516H536.208L536.187 844.537L542.507 850.856V861.134ZM542.753 861.335V904.553H602.789V844.516H559.53L559.551 844.537L559.388 844.7L542.753 861.335ZM559.205 844.516L559.225 844.537L542.753 861.009V850.732L548.948 844.537L548.927 844.516H559.205ZM559.285 844.27H602.789V784.234H542.753V827.739L559.285 844.27ZM542.753 828.064L558.959 844.27H548.681L542.753 838.342V828.064ZM542.506 827.94L526.176 844.27H536.454L542.506 838.218V827.94ZM482.47 910.995L482.672 911.197L489.052 904.816L489.034 904.799H542.506V964.835H482.47V910.995ZM476.31 904.799L476.292 904.816L482.224 910.749V964.835H422.188V904.799H476.31ZM482.224 898.884L476.556 904.553H422.188V844.516H482.224V898.884ZM0.210901 844.516H60.2473V904.553H0.210901V844.516ZM120.53 844.516H60.4934V904.553H120.53V844.516ZM120.776 844.516H180.812V904.553H120.776V844.516ZM361.659 844.516H301.623V904.553H361.659V844.516ZM361.905 844.516H421.942V904.553H361.905V844.516ZM0.210901 904.799H60.2473V964.835H0.210901V904.799ZM120.53 904.799H60.4934V964.835H103.941L103.863 964.757L104.026 964.594L120.53 948.091V904.799ZM120.53 948.416L104.189 964.757L104.267 964.835H114.545L114.467 964.757L120.53 958.694V948.416ZM120.776 958.448V948.17L120.847 948.099L137.505 964.757L137.426 964.835H127.149L127.227 964.757L120.847 958.377L120.776 958.448ZM120.776 971.066L120.847 971.137L126.903 965.081H137.18L120.847 981.415L120.776 981.344V971.066ZM114.791 965.081L120.53 970.82V981.098L104.513 965.081H114.791ZM104.187 965.081H60.4934V1025.12H120.53V981.423L104.187 965.081ZM120.776 981.669V1025.12H180.812V965.081H137.506L121.01 981.578L120.847 981.741L120.776 981.669ZM137.752 964.835H180.812V904.799H120.776V947.845L120.847 947.773L121.01 947.936L137.667 964.594L137.83 964.757L137.752 964.835ZM241.094 904.799H181.058V964.835H241.094V904.799ZM241.341 904.799H301.377V964.835H241.341V904.799ZM361.659 904.799H301.623V964.835H361.659V904.799ZM361.905 904.799H421.942V964.835H361.905V904.799ZM602.789 904.799H542.753V964.835H602.789V904.799ZM0.210901 965.081H60.2473V1025.12H0.210901V965.081ZM241.094 965.081H181.058V1025.12H241.094V965.081ZM241.341 965.081H301.377V1025.12H241.341V965.081ZM361.659 965.081H301.623V1025.12H361.659V965.081ZM361.905 965.081H421.942V1025.12H361.905V965.081ZM482.224 965.081H422.188V1025.12H482.224V965.081ZM482.47 965.081H542.506V1025.12H482.47V965.081ZM602.789 965.081H542.753V1025.12H602.789V965.081ZM0.210901 1025.36H60.2473V1085.4H0.210901V1025.36ZM120.53 1025.36H60.4934V1085.4H120.53V1025.36ZM120.776 1025.36H180.812V1085.4H120.776V1025.36ZM241.094 1025.36H181.058V1085.4H241.094V1025.36ZM241.341 1025.36H301.377V1085.4H241.341V1025.36ZM361.659 1025.36H301.623V1085.4H361.659V1025.36ZM361.905 1025.36H421.942V1085.4H361.905V1025.36ZM482.224 1025.36H422.188V1085.4H482.224V1025.36ZM482.47 1025.36H542.506V1085.4H482.47V1025.36ZM602.789 1025.36H542.753V1085.4H602.789V1025.36Z" fill="url(#paint2_radial_819_9235)" fill-opacity="0.6"/>
<path fill-rule="evenodd" clip-rule="evenodd" d="M60.2473 1085.82H0.210901V1145.86H54.0275L60.2473 1139.64V1085.82ZM66.6329 1145.86L60.4934 1139.72V1085.82H120.53V1145.86H66.6329ZM60.4934 1152.15L66.5415 1146.1H120.53V1206.14H60.4934V1152.15ZM54.1189 1146.1L60.2473 1152.23V1206.14H0.210901V1146.1H54.1189ZM0 1085.61V1145.89V1146.07V1206.18V1206.35V1266.46V1266.63V1326.74V1326.92V1387.02V1387.2V1447.48H60.2825H60.4582H120.565H120.741H180.847H181.023H241.13H241.305H301.412H301.588H361.694H361.87H421.977H422.153H482.259H482.435H542.542H542.717H603L603 1387.2V1326.92V1326.74V1266.46V1206.35V1146.07V1145.89V1085.61H542.717H542.542H482.435H482.259H422.153H421.977H361.87H361.694H301.588H301.412H241.305H241.13H181.023H180.847H120.741H120.565H60.4582H60.2825H0ZM120.776 1085.82H180.812V1145.86H120.776V1085.82ZM241.094 1085.82H181.058V1145.86H241.094V1085.82ZM241.341 1085.82H301.377V1145.86H241.341V1085.82ZM361.659 1085.82H301.623V1145.86H361.659V1085.82ZM361.905 1085.82H421.942V1145.86H361.905V1085.82ZM482.224 1085.82H422.188V1145.86H482.224V1085.82ZM482.47 1085.82H542.506V1145.86H482.47V1085.82ZM602.789 1085.82H542.753V1145.86H602.789V1085.82ZM120.776 1146.1H180.812V1206.14H120.776V1146.1ZM241.094 1146.1H181.058V1206.14H235.056L241.094 1200.1V1146.1ZM247.283 1206.14L241.341 1200.2V1146.1H301.377V1206.14H247.283ZM241.341 1212.62L247.549 1206.41L247.529 1206.39H301.377V1266.42H241.341V1212.62ZM234.81 1206.39L234.789 1206.41L241.094 1212.71V1266.42H181.058V1206.39H234.81ZM361.659 1146.1H301.623V1206.14H361.659V1146.1ZM361.905 1146.1H421.942V1206.14H361.905V1146.1ZM482.224 1146.1H422.188V1206.14H482.224V1146.1ZM482.47 1146.1H542.506V1189.48L542.405 1189.59L525.85 1206.14H482.47V1146.1ZM525.605 1206.39H482.47V1260.51L482.672 1260.31L488.788 1266.42H542.507V1223.33L542.405 1223.23L525.747 1206.57L525.584 1206.41L525.605 1206.39ZM542.507 1223L525.91 1206.41L525.93 1206.39H536.208L536.187 1206.41L542.507 1212.73V1223ZM542.753 1223.21V1266.42H602.789V1206.39H559.53L559.551 1206.41L559.388 1206.57L542.753 1223.21ZM559.205 1206.39L559.225 1206.41L542.753 1222.88V1212.6L548.948 1206.41L548.927 1206.39H559.205ZM559.285 1206.14H602.789V1146.1H542.753V1189.61L559.285 1206.14ZM542.753 1189.93L558.959 1206.14H548.681L542.753 1200.21V1189.93ZM542.506 1189.81L526.176 1206.14H536.454L542.506 1200.09V1189.81ZM482.47 1272.86L482.672 1273.07L489.052 1266.69L489.034 1266.67H542.506V1326.71H482.47V1272.86ZM476.31 1266.67L476.292 1266.69L482.224 1272.62V1326.71H422.188V1266.67H476.31ZM482.224 1260.75L476.556 1266.42H422.188V1206.39H482.224V1260.75ZM0.210901 1206.39H60.2473V1266.42H0.210901V1206.39ZM120.53 1206.39H60.4934V1266.42H120.53V1206.39ZM120.776 1206.39H180.812V1266.42H120.776V1206.39ZM361.659 1206.39H301.623V1266.42H361.659V1206.39ZM361.905 1206.39H421.942V1266.42H361.905V1206.39ZM0.210901 1266.67H60.2473V1326.71H0.210901V1266.67ZM120.53 1266.67H60.4934V1326.71H103.941L103.863 1326.63L104.026 1326.46L120.53 1309.96V1266.67ZM120.53 1310.29L104.189 1326.63L104.267 1326.71H114.545L114.467 1326.63L120.53 1320.56V1310.29ZM120.776 1320.32V1310.04L120.847 1309.97L137.505 1326.63L137.426 1326.71H127.149L127.227 1326.63L120.847 1320.25L120.776 1320.32ZM120.776 1332.94L120.847 1333.01L126.903 1326.95H137.18L120.847 1343.28L120.776 1343.21V1332.94ZM114.791 1326.95L120.53 1332.69V1342.97L104.513 1326.95H114.791ZM104.187 1326.95H60.4934V1386.99H120.53V1343.29L104.187 1326.95ZM120.776 1343.54V1386.99H180.812V1326.95H137.506L121.01 1343.45L120.847 1343.61L120.776 1343.54ZM137.752 1326.71H180.812V1266.67H120.776V1309.71L120.847 1309.64L121.01 1309.81L137.667 1326.46L137.83 1326.63L137.752 1326.71ZM241.094 1266.67H181.058V1326.71H241.094V1266.67ZM241.341 1266.67H301.377V1326.71H241.341V1266.67ZM361.659 1266.67H301.623V1326.71H361.659V1266.67ZM361.905 1266.67H421.942V1326.71H361.905V1266.67ZM602.789 1266.67H542.753V1326.71H602.789V1266.67ZM0.210901 1326.95H60.2473V1386.99H0.210901V1326.95ZM241.094 1326.95H181.058V1386.99H241.094V1326.95ZM241.341 1326.95H301.377V1386.99H241.341V1326.95ZM361.659 1326.95H301.623V1386.99H361.659V1326.95ZM361.905 1326.95H421.942V1386.99H361.905V1326.95ZM482.224 1326.95H422.188V1386.99H482.224V1326.95ZM482.47 1326.95H542.506V1386.99H482.47V1326.95ZM602.789 1326.95H542.753V1386.99H602.789V1326.95ZM0.210901 1387.23H60.2473V1447.27H0.210901V1387.23ZM120.53 1387.23H60.4934V1447.27H120.53V1387.23ZM120.776 1387.23H180.812V1447.27H120.776V1387.23ZM241.094 1387.23H181.058V1447.27H241.094V1387.23ZM241.341 1387.23H301.377V1447.27H241.341V1387.23ZM361.659 1387.23H301.623V1447.27H361.659V1387.23ZM361.905 1387.23H421.942V1447.27H361.905V1387.23ZM482.224 1387.23H422.188V1447.27H482.224V1387.23ZM482.47 1387.23H542.506V1447.27H482.47V1387.23ZM602.789 1387.23H542.753V1447.27H602.789V1387.23Z" fill="url(#paint3_radial_819_9235)" fill-opacity="0.6"/>
<path fill-rule="evenodd" clip-rule="evenodd" d="M60.2473 1447.69H0.210901V1507.73H54.0275L60.2473 1501.51V1447.69ZM66.6329 1507.73L60.4934 1501.59V1447.69H120.53V1507.73H66.6329ZM60.4934 1514.02L66.5415 1507.97H120.53V1568.01H60.4934V1514.02ZM54.1189 1507.97L60.2473 1514.1V1568.01H0.210901V1507.97H54.1189ZM0 1447.48V1507.76V1507.94V1568.05V1568.22V1628.33V1628.5V1688.61V1688.79V1748.89V1749.07V1809.35H60.2825H60.4582H120.565H120.741H180.847H181.023H241.13H241.305H301.412H301.588H361.694H361.87H421.977H422.153H482.259H482.435H542.542H542.717H603L603 1749.07V1688.79V1688.61V1628.33V1568.22V1507.94V1507.76V1447.48H542.717H542.542H482.435H482.259H422.153H421.977H361.87H361.694H301.588H301.412H241.305H241.13H181.023H180.847H120.741H120.565H60.4582H60.2825H0ZM120.776 1447.69H180.812V1507.73H120.776V1447.69ZM241.094 1447.69H181.058V1507.73H241.094V1447.69ZM241.341 1447.69H301.377V1507.73H241.341V1447.69ZM361.659 1447.69H301.623V1507.73H361.659V1447.69ZM361.905 1447.69H421.942V1507.73H361.905V1447.69ZM482.224 1447.69H422.188V1507.73H482.224V1447.69ZM482.47 1447.69H542.506V1507.73H482.47V1447.69ZM602.789 1447.69H542.753V1507.73H602.789V1447.69ZM120.776 1507.97H180.812V1568.01H120.776V1507.97ZM241.094 1507.97H181.058V1568.01H235.056L241.094 1561.97V1507.97ZM247.283 1568.01L241.341 1562.07V1507.97H301.377V1568.01H247.283ZM241.341 1574.49L247.549 1568.28L247.529 1568.26H301.377V1628.29H241.341V1574.49ZM234.81 1568.26L234.789 1568.28L241.094 1574.58V1628.29H181.058V1568.26H234.81ZM361.659 1507.97H301.623V1568.01H361.659V1507.97ZM361.905 1507.97H421.942V1568.01H361.905V1507.97ZM482.224 1507.97H422.188V1568.01H482.224V1507.97ZM482.47 1507.97H542.506V1551.35L542.405 1551.46L525.85 1568.01H482.47V1507.97ZM525.605 1568.26H482.47V1622.38L482.672 1622.18L488.788 1628.29H542.507V1585.2L542.405 1585.1L525.747 1568.44L525.584 1568.28L525.605 1568.26ZM542.507 1584.87L525.91 1568.28L525.93 1568.26H536.208L536.187 1568.28L542.507 1574.6V1584.87ZM542.753 1585.08V1628.29H602.789V1568.26H559.53L559.551 1568.28L559.388 1568.44L542.753 1585.08ZM559.205 1568.26L559.225 1568.28L542.753 1584.75V1574.47L548.948 1568.28L548.927 1568.26H559.205ZM559.285 1568.01H602.789V1507.97H542.753V1551.48L559.285 1568.01ZM542.753 1551.8L558.959 1568.01H548.681L542.753 1562.08V1551.8ZM542.506 1551.68L526.176 1568.01H536.454L542.506 1561.96V1551.68ZM482.47 1634.74L482.672 1634.94L489.052 1628.56L489.034 1628.54H542.506V1688.58H482.47V1634.74ZM476.31 1628.54L476.292 1628.56L482.224 1634.49V1688.58H422.188V1628.54H476.31ZM482.224 1622.62L476.556 1628.29H422.188V1568.26H482.224V1622.62ZM0.210901 1568.26H60.2473V1628.29H0.210901V1568.26ZM120.53 1568.26H60.4934V1628.29H120.53V1568.26ZM120.776 1568.26H180.812V1628.29H120.776V1568.26ZM361.659 1568.26H301.623V1628.29H361.659V1568.26ZM361.905 1568.26H421.942V1628.29H361.905V1568.26ZM0.210901 1628.54H60.2473V1688.58H0.210901V1628.54ZM120.53 1628.54H60.4934V1688.58H103.941L103.863 1688.5L104.026 1688.33L120.53 1671.83V1628.54ZM120.53 1672.16L104.189 1688.5L104.267 1688.58H114.545L114.467 1688.5L120.53 1682.43V1672.16ZM120.776 1682.19V1671.91L120.847 1671.84L137.505 1688.5L137.426 1688.58H127.149L127.227 1688.5L120.847 1682.12L120.776 1682.19ZM120.776 1694.81L120.847 1694.88L126.903 1688.82H137.18L120.847 1705.16L120.776 1705.08V1694.81ZM114.791 1688.82L120.53 1694.56V1704.84L104.513 1688.82H114.791ZM104.187 1688.82H60.4934V1748.86H120.53V1705.16L104.187 1688.82ZM120.776 1705.41V1748.86H180.812V1688.82H137.506L121.01 1705.32L120.847 1705.48L120.776 1705.41ZM137.752 1688.58H180.812V1628.54H120.776V1671.59L120.847 1671.51L121.01 1671.68L137.667 1688.33L137.83 1688.5L137.752 1688.58ZM241.094 1628.54H181.058V1688.58H241.094V1628.54ZM241.341 1628.54H301.377V1688.58H241.341V1628.54ZM361.659 1628.54H301.623V1688.58H361.659V1628.54ZM361.905 1628.54H421.942V1688.58H361.905V1628.54ZM602.789 1628.54H542.753V1688.58H602.789V1628.54ZM0.210901 1688.82H60.2473V1748.86H0.210901V1688.82ZM241.094 1688.82H181.058V1748.86H241.094V1688.82ZM241.341 1688.82H301.377V1748.86H241.341V1688.82ZM361.659 1688.82H301.623V1748.86H361.659V1688.82ZM361.905 1688.82H421.942V1748.86H361.905V1688.82ZM482.224 1688.82H422.188V1748.86H482.224V1688.82ZM482.47 1688.82H542.506V1748.86H482.47V1688.82ZM602.789 1688.82H542.753V1748.86H602.789V1688.82ZM0.210901 1749.1H60.2473V1809.14H0.210901V1749.1ZM120.53 1749.1H60.4934V1809.14H120.53V1749.1ZM120.776 1749.1H180.812V1809.14H120.776V1749.1ZM241.094 1749.1H181.058V1809.14H241.094V1749.1ZM241.341 1749.1H301.377V1809.14H241.341V1749.1ZM361.659 1749.1H301.623V1809.14H361.659V1749.1ZM361.905 1749.1H421.942V1809.14H361.905V1749.1ZM482.224 1749.1H422.188V1809.14H482.224V1749.1ZM482.47 1749.1H542.506V1809.14H482.47V1749.1ZM602.789 1749.1H542.753V1809.14H602.789V1749.1Z" fill="url(#paint4_radial_819_9235)" fill-opacity="0.6"/>
<path fill-rule="evenodd" clip-rule="evenodd" d="M60.2473 1809.56H0.210901V1869.6H54.0275L60.2473 1863.38V1809.56ZM66.6329 1869.6L60.4934 1863.46V1809.56H120.53V1869.6H66.6329ZM60.4934 1875.89L66.5415 1869.84H120.53V1929.88H60.4934V1875.89ZM54.1189 1869.84L60.2473 1875.97V1929.88H0.210901V1869.84H54.1189ZM0 1809.35V1869.63V1869.81V1929.92V1930.09V1990.2V1990.37V2050.48V2050.66V2110.76V2110.94V2171.22H60.2825H60.4582H120.565H120.741H180.847H181.023H241.13H241.305H301.412H301.588H361.694H361.87H421.977H422.153H482.259H482.435H542.542H542.717H603L603 2110.94V2050.66V2050.48V1990.2V1930.09V1869.81V1869.63V1809.35H542.717H542.542H482.435H482.259H422.153H421.977H361.87H361.694H301.588H301.412H241.305H241.13H181.023H180.847H120.741H120.565H60.4582H60.2825H0ZM120.776 1809.56H180.812V1869.6H120.776V1809.56ZM241.094 1809.56H181.058V1869.6H241.094V1809.56ZM241.341 1809.56H301.377V1869.6H241.341V1809.56ZM361.659 1809.56H301.623V1869.6H361.659V1809.56ZM361.905 1809.56H421.942V1869.6H361.905V1809.56ZM482.224 1809.56H422.188V1869.6H482.224V1809.56ZM482.47 1809.56H542.506V1869.6H482.47V1809.56ZM602.789 1809.56H542.753V1869.6H602.789V1809.56ZM120.776 1869.84H180.812V1929.88H120.776V1869.84ZM241.094 1869.84H181.058V1929.88H235.056L241.094 1923.84V1869.84ZM247.283 1929.88L241.341 1923.94V1869.84H301.377V1929.88H247.283ZM241.341 1936.36L247.549 1930.15L247.529 1930.13H301.377V1990.16H241.341V1936.36ZM234.81 1930.13L234.789 1930.15L241.094 1936.45V1990.16H181.058V1930.13H234.81ZM361.659 1869.84H301.623V1929.88H361.659V1869.84ZM361.905 1869.84H421.942V1929.88H361.905V1869.84ZM482.224 1869.84H422.188V1929.88H482.224V1869.84ZM482.47 1869.84H542.506V1913.23L542.405 1913.33L525.85 1929.88H482.47V1869.84ZM525.605 1930.13H482.47V1984.25L482.672 1984.05L488.788 1990.16H542.507V1947.07L542.405 1946.97L525.747 1930.31L525.584 1930.15L525.605 1930.13ZM542.507 1946.74L525.91 1930.15L525.93 1930.13H536.208L536.187 1930.15L542.507 1936.47V1946.74ZM542.753 1946.95V1990.16H602.789V1930.13H559.53L559.551 1930.15L559.388 1930.31L542.753 1946.95ZM559.205 1930.13L559.225 1930.15L542.753 1946.62V1936.34L548.948 1930.15L548.927 1930.13H559.205ZM559.285 1929.88H602.789V1869.84H542.753V1913.35L559.285 1929.88ZM542.753 1913.68L558.959 1929.88H548.681L542.753 1923.95V1913.68ZM542.506 1913.55L526.176 1929.88H536.454L542.506 1923.83V1913.55ZM482.47 1996.61L482.672 1996.81L489.052 1990.43L489.034 1990.41H542.506V2050.45H482.47V1996.61ZM476.31 1990.41L476.292 1990.43L482.224 1996.36V2050.45H422.188V1990.41H476.31ZM482.224 1984.5L476.556 1990.16H422.188V1930.13H482.224V1984.5ZM0.210901 1930.13H60.2473V1990.16H0.210901V1930.13ZM120.53 1930.13H60.4934V1990.16H120.53V1930.13ZM120.776 1930.13H180.812V1990.16H120.776V1930.13ZM361.659 1930.13H301.623V1990.16H361.659V1930.13ZM361.905 1930.13H421.942V1990.16H361.905V1930.13ZM0.210901 1990.41H60.2473V2050.45H0.210901V1990.41ZM120.53 1990.41H60.4934V2050.45H103.941L103.863 2050.37L104.026 2050.21L120.53 2033.7V1990.41ZM120.53 2034.03L104.189 2050.37L104.267 2050.45H114.545L114.467 2050.37L120.53 2044.31V2034.03ZM120.776 2044.06V2033.78L120.847 2033.71L137.505 2050.37L137.426 2050.45H127.149L127.227 2050.37L120.847 2043.99L120.776 2044.06ZM120.776 2056.68L120.847 2056.75L126.903 2050.69H137.18L120.847 2067.03L120.776 2066.95V2056.68ZM114.791 2050.69L120.53 2056.43V2066.71L104.513 2050.69H114.791ZM104.187 2050.69H60.4934V2110.73H120.53V2067.03L104.187 2050.69ZM120.776 2067.28V2110.73H180.812V2050.69H137.506L121.01 2067.19L120.847 2067.35L120.776 2067.28ZM137.752 2050.45H180.812V1990.41H120.776V2033.46L120.847 2033.38L121.01 2033.55L137.667 2050.21L137.83 2050.37L137.752 2050.45ZM241.094 1990.41H181.058V2050.45H241.094V1990.41ZM241.341 1990.41H301.377V2050.45H241.341V1990.41ZM361.659 1990.41H301.623V2050.45H361.659V1990.41ZM361.905 1990.41H421.942V2050.45H361.905V1990.41ZM602.789 1990.41H542.753V2050.45H602.789V1990.41ZM0.210901 2050.69H60.2473V2110.73H0.210901V2050.69ZM241.094 2050.69H181.058V2110.73H241.094V2050.69ZM241.341 2050.69H301.377V2110.73H241.341V2050.69ZM361.659 2050.69H301.623V2110.73H361.659V2050.69ZM361.905 2050.69H421.942V2110.73H361.905V2050.69ZM482.224 2050.69H422.188V2110.73H482.224V2050.69ZM482.47 2050.69H542.506V2110.73H482.47V2050.69ZM602.789 2050.69H542.753V2110.73H602.789V2050.69ZM0.210901 2110.97H60.2473V2171.01H0.210901V2110.97ZM120.53 2110.97H60.4934V2171.01H120.53V2110.97ZM120.776 2110.97H180.812V2171.01H120.776V2110.97ZM241.094 2110.97H181.058V2171.01H241.094V2110.97ZM241.341 2110.97H301.377V2171.01H241.341V2110.97ZM361.659 2110.97H301.623V2171.01H361.659V2110.97ZM361.905 2110.97H421.942V2171.01H361.905V2110.97ZM482.224 2110.97H422.188V2171.01H482.224V2110.97ZM482.47 2110.97H542.506V2171.01H482.47V2110.97ZM602.789 2110.97H542.753V2171.01H602.789V2110.97Z" fill="url(#paint5_radial_819_9235)" fill-opacity="0.6"/>
<path fill-rule="evenodd" clip-rule="evenodd" d="M663.247 0.210901H603.211V60.2473H657.027L663.247 54.0275V0.210901ZM669.633 60.2473L663.493 54.1077V0.210901H723.53V60.2473H669.633ZM663.493 66.5415L669.541 60.4934H723.53V120.53H663.493V66.5415ZM657.119 60.4934L663.247 66.6217V120.53H603.211V60.4934H657.119ZM603 0V60.2825V60.4582V120.565V120.741V180.847V181.023V241.13V241.305V301.412V301.588V361.87H663.282H663.458H723.565H723.741H783.847H784.023H844.13H844.305H904.412H904.588H964.694H964.87H1024.98H1025.15H1085.26H1085.44H1145.54H1145.72H1206L1206 301.588V241.305V241.13V180.847V120.741V60.4582V60.2825V0H1145.72H1145.54H1085.44H1085.26H1025.15H1024.98H964.87H964.694H904.588H904.412H844.305H844.13H784.023H783.847H723.741H723.565H663.458H663.282H603ZM723.776 0.210901H783.812V60.2473H723.776V0.210901ZM844.094 0.210901H784.058V60.2473H844.094V0.210901ZM844.341 0.210901H904.377V60.2473H844.341V0.210901ZM964.659 0.210901H904.623V60.2473H964.659V0.210901ZM964.905 0.210901H1024.94V60.2473H964.905V0.210901ZM1085.22 0.210901H1025.19V60.2473H1085.22V0.210901ZM1085.47 0.210901H1145.51V60.2473H1085.47V0.210901ZM1205.79 0.210901H1145.75V60.2473H1205.79V0.210901ZM723.776 60.4934H783.812V120.53H723.776V60.4934ZM844.094 60.4934H784.058V120.53H838.056L844.094 114.491V60.4934ZM850.283 120.53L844.341 114.588V60.4934H904.377V120.53H850.283ZM844.341 127.005L850.549 120.796L850.529 120.776H904.377V180.812H844.341V127.005ZM837.81 120.776L837.789 120.796L844.094 127.102V180.812H784.058V120.776H837.81ZM964.659 60.4934H904.623V120.53H964.659V60.4934ZM964.905 60.4934H1024.94V120.53H964.905V60.4934ZM1085.22 60.4934H1025.19V120.53H1085.22V60.4934ZM1085.47 60.4934H1145.51V103.874L1145.4 103.976L1128.85 120.53H1085.47V60.4934ZM1128.6 120.776H1085.47V174.897L1085.67 174.696L1091.79 180.812H1145.51V137.719L1145.4 137.617L1128.75 120.959L1128.58 120.796L1128.6 120.776ZM1145.51 137.393L1128.91 120.796L1128.93 120.776H1139.21L1139.19 120.796L1145.51 127.115V137.393ZM1145.75 137.595V180.812H1205.79V120.776H1162.53L1162.55 120.796L1162.39 120.959L1145.75 137.595ZM1162.2 120.776L1162.23 120.796L1145.75 137.269V126.991L1151.95 120.796L1151.93 120.776H1162.2ZM1162.28 120.53H1205.79V60.4934H1145.75V103.998L1162.28 120.53ZM1145.75 104.324L1161.96 120.53H1151.68L1145.75 114.601V104.324ZM1145.51 104.199L1129.18 120.53H1139.45L1145.51 114.477V104.199ZM1085.47 187.254L1085.67 187.456L1092.05 181.076L1092.03 181.058H1145.51V241.094H1085.47V187.254ZM1079.31 181.058L1079.29 181.076L1085.22 187.008V241.094H1025.19V181.058H1079.31ZM1085.22 175.144L1079.56 180.812H1025.19V120.776H1085.22V175.144ZM603.211 120.776H663.247V180.812H603.211V120.776ZM723.53 120.776H663.493V180.812H723.53V120.776ZM723.776 120.776H783.812V180.812H723.776V120.776ZM964.659 120.776H904.623V180.812H964.659V120.776ZM964.905 120.776H1024.94V180.812H964.905V120.776ZM603.211 181.058H663.247V241.094H603.211V181.058ZM723.53 181.058H663.493V241.094H706.941L706.863 241.016L707.026 240.853L723.53 224.35V181.058ZM723.53 224.676L707.189 241.016L707.267 241.094H717.545L717.467 241.016L723.53 234.953V224.676ZM723.776 234.708V224.43L723.847 224.359L740.505 241.016L740.426 241.094H730.149L730.227 241.016L723.847 234.636L723.776 234.708ZM723.776 247.325L723.847 247.396L729.903 241.341H740.18L723.847 257.674L723.776 257.603V247.325ZM717.791 241.341L723.53 247.079V257.357L707.513 241.341H717.791ZM707.187 241.341H663.493V301.377H723.53V257.683L707.187 241.341ZM723.776 257.929V301.377H783.812V241.341H740.506L724.01 257.837L723.847 258L723.776 257.929ZM740.752 241.094H783.812V181.058H723.776V224.104L723.847 224.033L724.01 224.196L740.667 240.853L740.83 241.016L740.752 241.094ZM844.094 181.058H784.058V241.094H844.094V181.058ZM844.341 181.058H904.377V241.094H844.341V181.058ZM964.659 181.058H904.623V241.094H964.659V181.058ZM964.905 181.058H1024.94V241.094H964.905V181.058ZM1205.79 181.058H1145.75V241.094H1205.79V181.058ZM603.211 241.341H663.247V301.377H603.211V241.341ZM844.094 241.341H784.058V301.377H844.094V241.341ZM844.341 241.341H904.377V301.377H844.341V241.341ZM964.659 241.341H904.623V301.377H964.659V241.341ZM964.905 241.341H1024.94V301.377H964.905V241.341ZM1085.22 241.341H1025.19V301.377H1085.22V241.341ZM1085.47 241.341H1145.51V301.377H1085.47V241.341ZM1205.79 241.341H1145.75V301.377H1205.79V241.341ZM603.211 301.623H663.247V361.659H603.211V301.623ZM723.53 301.623H663.493V361.659H723.53V301.623ZM723.776 301.623H783.812V361.659H723.776V301.623ZM844.094 301.623H784.058V361.659H844.094V301.623ZM844.341 301.623H904.377V361.659H844.341V301.623ZM964.659 301.623H904.623V361.659H964.659V301.623ZM964.905 301.623H1024.94V361.659H964.905V301.623ZM1085.22 301.623H1025.19V361.659H1085.22V301.623ZM1085.47 301.623H1145.51V361.659H1085.47V301.623ZM1205.79 301.623H1145.75V361.659H1205.79V301.623Z" fill="url(#paint6_radial_819_9235)" fill-opacity="0.6"/>
<path fill-rule="evenodd" clip-rule="evenodd" d="M663.247 362.081H603.211V422.118H657.027L663.247 415.898V362.081ZM669.633 422.118L663.493 415.978V362.081H723.53V422.118H669.633ZM663.493 428.412L669.541 422.364H723.53V482.4H663.493V428.412ZM657.119 422.364L663.247 428.492V482.4H603.211V422.364H657.119ZM603 361.87V422.153V422.328V482.435V482.611V542.717V542.893V603V603.176V663.282V663.458V723.741H663.282H663.458H723.565H723.741H783.847H784.023H844.13H844.305H904.412H904.588H964.694H964.87H1024.98H1025.15H1085.26H1085.44H1145.54H1145.72H1206L1206 663.458V603.176V603V542.717V482.611V422.328V422.153V361.87H1145.72H1145.54H1085.44H1085.26H1025.15H1024.98H964.87H964.694H904.588H904.412H844.305H844.13H784.023H783.847H723.741H723.565H663.458H663.282H603ZM723.776 362.081H783.812V422.118H723.776V362.081ZM844.094 362.081H784.058V422.118H844.094V362.081ZM844.341 362.081H904.377V422.118H844.341V362.081ZM964.659 362.081H904.623V422.118H964.659V362.081ZM964.905 362.081H1024.94V422.118H964.905V362.081ZM1085.22 362.081H1025.19V422.118H1085.22V362.081ZM1085.47 362.081H1145.51V422.118H1085.47V362.081ZM1205.79 362.081H1145.75V422.118H1205.79V362.081ZM723.776 422.364H783.812V482.4H723.776V422.364ZM844.094 422.364H784.058V482.4H838.056L844.094 476.361V422.364ZM850.283 482.4L844.341 476.458V422.364H904.377V482.4H850.283ZM844.341 488.875L850.549 482.667L850.529 482.646H904.377V542.682H844.341V488.875ZM837.81 482.646L837.789 482.667L844.094 488.972V542.682H784.058V482.646H837.81ZM964.659 422.364H904.623V482.4H964.659V422.364ZM964.905 422.364H1024.94V482.4H964.905V422.364ZM1085.22 422.364H1025.19V482.4H1085.22V422.364ZM1085.47 422.364H1145.51V465.744L1145.4 465.846L1128.85 482.4H1085.47V422.364ZM1128.6 482.646H1085.47V536.768L1085.67 536.566L1091.79 542.682H1145.51V499.589L1145.4 499.487L1128.75 482.829L1128.58 482.667L1128.6 482.646ZM1145.51 499.263L1128.91 482.667L1128.93 482.646H1139.21L1139.19 482.667L1145.51 488.986V499.263ZM1145.75 499.465V542.682H1205.79V482.646H1162.53L1162.55 482.667L1162.39 482.829L1145.75 499.465ZM1162.2 482.646L1162.23 482.667L1145.75 499.139V488.862L1151.95 482.667L1151.93 482.646H1162.2ZM1162.28 482.4H1205.79V422.364H1145.75V465.868L1162.28 482.4ZM1145.75 466.194L1161.96 482.4H1151.68L1145.75 476.472V466.194ZM1145.51 466.07L1129.18 482.4H1139.45L1145.51 476.348V466.07ZM1085.47 549.124L1085.67 549.326L1092.05 542.946L1092.03 542.928H1145.51V602.965H1085.47V549.124ZM1079.31 542.928L1079.29 542.946L1085.22 548.879V602.965H1025.19V542.928H1079.31ZM1085.22 537.014L1079.56 542.682H1025.19V482.646H1085.22V537.014ZM603.211 482.646H663.247V542.682H603.211V482.646ZM723.53 482.646H663.493V542.682H723.53V482.646ZM723.776 482.646H783.812V542.682H723.776V482.646ZM964.659 482.646H904.623V542.682H964.659V482.646ZM964.905 482.646H1024.94V542.682H964.905V482.646ZM603.211 542.928H663.247V602.965H603.211V542.928ZM723.53 542.928H663.493V602.965H706.941L706.863 602.887L707.026 602.724L723.53 586.22V542.928ZM723.53 586.546L707.189 602.887L707.267 602.965H717.545L717.467 602.887L723.53 596.824V586.546ZM723.776 596.578V586.3L723.847 586.229L740.505 602.887L740.426 602.965H730.149L730.227 602.887L723.847 596.507L723.776 596.578ZM723.776 609.196L723.847 609.267L729.903 603.211H740.18L723.847 619.544L723.776 619.473V609.196ZM717.791 603.211L723.53 608.95V619.227L707.513 603.211H717.791ZM707.187 603.211H663.493V663.247H723.53V619.553L707.187 603.211ZM723.776 619.799V663.247H783.812V603.211H740.506L724.01 619.707L723.847 619.87L723.776 619.799ZM740.752 602.965H783.812V542.928H723.776V585.974L723.847 585.903L724.01 586.066L740.667 602.724L740.83 602.887L740.752 602.965ZM844.094 542.928H784.058V602.965H844.094V542.928ZM844.341 542.928H904.377V602.965H844.341V542.928ZM964.659 542.928H904.623V602.965H964.659V542.928ZM964.905 542.928H1024.94V602.965H964.905V542.928ZM1205.79 542.928H1145.75V602.965H1205.79V542.928ZM603.211 603.211H663.247V663.247H603.211V603.211ZM844.094 603.211H784.058V663.247H844.094V603.211ZM844.341 603.211H904.377V663.247H844.341V603.211ZM964.659 603.211H904.623V663.247H964.659V603.211ZM964.905 603.211H1024.94V663.247H964.905V603.211ZM1085.22 603.211H1025.19V663.247H1085.22V603.211ZM1085.47 603.211H1145.51V663.247H1085.47V603.211ZM1205.79 603.211H1145.75V663.247H1205.79V603.211ZM603.211 663.493H663.247V723.53H603.211V663.493ZM723.53 663.493H663.493V723.53H723.53V663.493ZM723.776 663.493H783.812V723.53H723.776V663.493ZM844.094 663.493H784.058V723.53H844.094V663.493ZM844.341 663.493H904.377V723.53H844.341V663.493ZM964.659 663.493H904.623V723.53H964.659V663.493ZM964.905 663.493H1024.94V723.53H964.905V663.493ZM1085.22 663.493H1025.19V723.53H1085.22V663.493ZM1085.47 663.493H1145.51V723.53H1085.47V663.493ZM1205.79 663.493H1145.75V723.53H1205.79V663.493Z" fill="url(#paint7_radial_819_9235)" fill-opacity="0.6"/>
<path fill-rule="evenodd" clip-rule="evenodd" d="M663.247 723.952H603.211V783.988H657.027L663.247 777.768V723.952ZM669.633 783.988L663.493 777.848V723.952H723.53V783.988H669.633ZM663.493 790.282L669.541 784.234H723.53V844.27H663.493V790.282ZM657.119 784.234L663.247 790.362V844.27H603.211V784.234H657.119ZM603 723.741V784.023V784.199V844.305V844.481V904.588V904.763V964.87V965.046V1025.15V1025.33V1085.61H663.282H663.458H723.565H723.741H783.847H784.023H844.13H844.305H904.412H904.588H964.694H964.87H1024.98H1025.15H1085.26H1085.44H1145.54H1145.72H1206L1206 1025.33V965.046V964.87V904.588V844.481V784.199V784.023V723.741H1145.72H1145.54H1085.44H1085.26H1025.15H1024.98H964.87H964.694H904.588H904.412H844.305H844.13H784.023H783.847H723.741H723.565H663.458H663.282H603ZM723.776 723.952H783.812V783.988H723.776V723.952ZM844.094 723.952H784.058V783.988H844.094V723.952ZM844.341 723.952H904.377V783.988H844.341V723.952ZM964.659 723.952H904.623V783.988H964.659V723.952ZM964.905 723.952H1024.94V783.988H964.905V723.952ZM1085.22 723.952H1025.19V783.988H1085.22V723.952ZM1085.47 723.952H1145.51V783.988H1085.47V723.952ZM1205.79 723.952H1145.75V783.988H1205.79V723.952ZM723.776 784.234H783.812V844.27H723.776V784.234ZM844.094 784.234H784.058V844.27H838.056L844.094 838.231V784.234ZM850.283 844.27L844.341 838.328V784.234H904.377V844.27H850.283ZM844.341 850.745L850.549 844.537L850.529 844.516H904.377V904.553H844.341V850.745ZM837.81 844.516L837.789 844.537L844.094 850.842V904.553H784.058V844.516H837.81ZM964.659 784.234H904.623V844.27H964.659V784.234ZM964.905 784.234H1024.94V844.27H964.905V784.234ZM1085.22 784.234H1025.19V844.27H1085.22V784.234ZM1085.47 784.234H1145.51V827.614L1145.4 827.716L1128.85 844.27H1085.47V784.234ZM1128.6 844.516H1085.47V898.638L1085.67 898.436L1091.79 904.553H1145.51V861.459L1145.4 861.357L1128.75 844.7L1128.58 844.537L1128.6 844.516ZM1145.51 861.134L1128.91 844.537L1128.93 844.516H1139.21L1139.19 844.537L1145.51 850.856V861.134ZM1145.75 861.335V904.553H1205.79V844.516H1162.53L1162.55 844.537L1162.39 844.7L1145.75 861.335ZM1162.2 844.516L1162.23 844.537L1145.75 861.009V850.732L1151.95 844.537L1151.93 844.516H1162.2ZM1162.28 844.27H1205.79V784.234H1145.75V827.739L1162.28 844.27ZM1145.75 828.064L1161.96 844.27H1151.68L1145.75 838.342V828.064ZM1145.51 827.94L1129.18 844.27H1139.45L1145.51 838.218V827.94ZM1085.47 910.995L1085.67 911.197L1092.05 904.816L1092.03 904.799H1145.51V964.835H1085.47V910.995ZM1079.31 904.799L1079.29 904.816L1085.22 910.749V964.835H1025.19V904.799H1079.31ZM1085.22 898.884L1079.56 904.553H1025.19V844.516H1085.22V898.884ZM603.211 844.516H663.247V904.553H603.211V844.516ZM723.53 844.516H663.493V904.553H723.53V844.516ZM723.776 844.516H783.812V904.553H723.776V844.516ZM964.659 844.516H904.623V904.553H964.659V844.516ZM964.905 844.516H1024.94V904.553H964.905V844.516ZM603.211 904.799H663.247V964.835H603.211V904.799ZM723.53 904.799H663.493V964.835H706.941L706.863 964.757L707.026 964.594L723.53 948.091V904.799ZM723.53 948.416L707.189 964.757L707.267 964.835H717.545L717.467 964.757L723.53 958.694V948.416ZM723.776 958.448V948.17L723.847 948.099L740.505 964.757L740.426 964.835H730.149L730.227 964.757L723.847 958.377L723.776 958.448ZM723.776 971.066L723.847 971.137L729.903 965.081H740.18L723.847 981.415L723.776 981.344V971.066ZM717.791 965.081L723.53 970.82V981.098L707.513 965.081H717.791ZM707.187 965.081H663.493V1025.12H723.53V981.423L707.187 965.081ZM723.776 981.669V1025.12H783.812V965.081H740.506L724.01 981.578L723.847 981.741L723.776 981.669ZM740.752 964.835H783.812V904.799H723.776V947.845L723.847 947.773L724.01 947.936L740.667 964.594L740.83 964.757L740.752 964.835ZM844.094 904.799H784.058V964.835H844.094V904.799ZM844.341 904.799H904.377V964.835H844.341V904.799ZM964.659 904.799H904.623V964.835H964.659V904.799ZM964.905 904.799H1024.94V964.835H964.905V904.799ZM1205.79 904.799H1145.75V964.835H1205.79V904.799ZM603.211 965.081H663.247V1025.12H603.211V965.081ZM844.094 965.081H784.058V1025.12H844.094V965.081ZM844.341 965.081H904.377V1025.12H844.341V965.081ZM964.659 965.081H904.623V1025.12H964.659V965.081ZM964.905 965.081H1024.94V1025.12H964.905V965.081ZM1085.22 965.081H1025.19V1025.12H1085.22V965.081ZM1085.47 965.081H1145.51V1025.12H1085.47V965.081ZM1205.79 965.081H1145.75V1025.12H1205.79V965.081ZM603.211 1025.36H663.247V1085.4H603.211V1025.36ZM723.53 1025.36H663.493V1085.4H723.53V1025.36ZM723.776 1025.36H783.812V1085.4H723.776V1025.36ZM844.094 1025.36H784.058V1085.4H844.094V1025.36ZM844.341 1025.36H904.377V1085.4H844.341V1025.36ZM964.659 1025.36H904.623V1085.4H964.659V1025.36ZM964.905 1025.36H1024.94V1085.4H964.905V1025.36ZM1085.22 1025.36H1025.19V1085.4H1085.22V1025.36ZM1085.47 1025.36H1145.51V1085.4H1085.47V1025.36ZM1205.79 1025.36H1145.75V1085.4H1205.79V1025.36Z" fill="url(#paint8_radial_819_9235)" fill-opacity="0.6"/>
<path fill-rule="evenodd" clip-rule="evenodd" d="M663.247 1085.82H603.211V1145.86H657.027L663.247 1139.64V1085.82ZM669.633 1145.86L663.493 1139.72V1085.82H723.53V1145.86H669.633ZM663.493 1152.15L669.541 1146.1H723.53V1206.14H663.493V1152.15ZM657.119 1146.1L663.247 1152.23V1206.14H603.211V1146.1H657.119ZM603 1085.61V1145.89V1146.07V1206.18V1206.35V1266.46V1266.63V1326.74V1326.92V1387.02V1387.2V1447.48H663.282H663.458H723.565H723.741H783.847H784.023H844.13H844.305H904.412H904.588H964.694H964.87H1024.98H1025.15H1085.26H1085.44H1145.54H1145.72H1206L1206 1387.2V1326.92V1326.74V1266.46V1206.35V1146.07V1145.89V1085.61H1145.72H1145.54H1085.44H1085.26H1025.15H1024.98H964.87H964.694H904.588H904.412H844.305H844.13H784.023H783.847H723.741H723.565H663.458H663.282H603ZM723.776 1085.82H783.812V1145.86H723.776V1085.82ZM844.094 1085.82H784.058V1145.86H844.094V1085.82ZM844.341 1085.82H904.377V1145.86H844.341V1085.82ZM964.659 1085.82H904.623V1145.86H964.659V1085.82ZM964.905 1085.82H1024.94V1145.86H964.905V1085.82ZM1085.22 1085.82H1025.19V1145.86H1085.22V1085.82ZM1085.47 1085.82H1145.51V1145.86H1085.47V1085.82ZM1205.79 1085.82H1145.75V1145.86H1205.79V1085.82ZM723.776 1146.1H783.812V1206.14H723.776V1146.1ZM844.094 1146.1H784.058V1206.14H838.056L844.094 1200.1V1146.1ZM850.283 1206.14L844.341 1200.2V1146.1H904.377V1206.14H850.283ZM844.341 1212.62L850.549 1206.41L850.529 1206.39H904.377V1266.42H844.341V1212.62ZM837.81 1206.39L837.789 1206.41L844.094 1212.71V1266.42H784.058V1206.39H837.81ZM964.659 1146.1H904.623V1206.14H964.659V1146.1ZM964.905 1146.1H1024.94V1206.14H964.905V1146.1ZM1085.22 1146.1H1025.19V1206.14H1085.22V1146.1ZM1085.47 1146.1H1145.51V1189.48L1145.4 1189.59L1128.85 1206.14H1085.47V1146.1ZM1128.6 1206.39H1085.47V1260.51L1085.67 1260.31L1091.79 1266.42H1145.51V1223.33L1145.4 1223.23L1128.75 1206.57L1128.58 1206.41L1128.6 1206.39ZM1145.51 1223L1128.91 1206.41L1128.93 1206.39H1139.21L1139.19 1206.41L1145.51 1212.73V1223ZM1145.75 1223.21V1266.42H1205.79V1206.39H1162.53L1162.55 1206.41L1162.39 1206.57L1145.75 1223.21ZM1162.2 1206.39L1162.23 1206.41L1145.75 1222.88V1212.6L1151.95 1206.41L1151.93 1206.39H1162.2ZM1162.28 1206.14H1205.79V1146.1H1145.75V1189.61L1162.28 1206.14ZM1145.75 1189.93L1161.96 1206.14H1151.68L1145.75 1200.21V1189.93ZM1145.51 1189.81L1129.18 1206.14H1139.45L1145.51 1200.09V1189.81ZM1085.47 1272.86L1085.67 1273.07L1092.05 1266.69L1092.03 1266.67H1145.51V1326.71H1085.47V1272.86ZM1079.31 1266.67L1079.29 1266.69L1085.22 1272.62V1326.71H1025.19V1266.67H1079.31ZM1085.22 1260.75L1079.56 1266.42H1025.19V1206.39H1085.22V1260.75ZM603.211 1206.39H663.247V1266.42H603.211V1206.39ZM723.53 1206.39H663.493V1266.42H723.53V1206.39ZM723.776 1206.39H783.812V1266.42H723.776V1206.39ZM964.659 1206.39H904.623V1266.42H964.659V1206.39ZM964.905 1206.39H1024.94V1266.42H964.905V1206.39ZM603.211 1266.67H663.247V1326.71H603.211V1266.67ZM723.53 1266.67H663.493V1326.71H706.941L706.863 1326.63L707.026 1326.46L723.53 1309.96V1266.67ZM723.53 1310.29L707.189 1326.63L707.267 1326.71H717.545L717.467 1326.63L723.53 1320.56V1310.29ZM723.776 1320.32V1310.04L723.847 1309.97L740.505 1326.63L740.426 1326.71H730.149L730.227 1326.63L723.847 1320.25L723.776 1320.32ZM723.776 1332.94L723.847 1333.01L729.903 1326.95H740.18L723.847 1343.28L723.776 1343.21V1332.94ZM717.791 1326.95L723.53 1332.69V1342.97L707.513 1326.95H717.791ZM707.187 1326.95H663.493V1386.99H723.53V1343.29L707.187 1326.95ZM723.776 1343.54V1386.99H783.812V1326.95H740.506L724.01 1343.45L723.847 1343.61L723.776 1343.54ZM740.752 1326.71H783.812V1266.67H723.776V1309.71L723.847 1309.64L724.01 1309.81L740.667 1326.46L740.83 1326.63L740.752 1326.71ZM844.094 1266.67H784.058V1326.71H844.094V1266.67ZM844.341 1266.67H904.377V1326.71H844.341V1266.67ZM964.659 1266.67H904.623V1326.71H964.659V1266.67ZM964.905 1266.67H1024.94V1326.71H964.905V1266.67ZM1205.79 1266.67H1145.75V1326.71H1205.79V1266.67ZM603.211 1326.95H663.247V1386.99H603.211V1326.95ZM844.094 1326.95H784.058V1386.99H844.094V1326.95ZM844.341 1326.95H904.377V1386.99H844.341V1326.95ZM964.659 1326.95H904.623V1386.99H964.659V1326.95ZM964.905 1326.95H1024.94V1386.99H964.905V1326.95ZM1085.22 1326.95H1025.19V1386.99H1085.22V1326.95ZM1085.47 1326.95H1145.51V1386.99H1085.47V1326.95ZM1205.79 1326.95H1145.75V1386.99H1205.79V1326.95ZM603.211 1387.23H663.247V1447.27H603.211V1387.23ZM723.53 1387.23H663.493V1447.27H723.53V1387.23ZM723.776 1387.23H783.812V1447.27H723.776V1387.23ZM844.094 1387.23H784.058V1447.27H844.094V1387.23ZM844.341 1387.23H904.377V1447.27H844.341V1387.23ZM964.659 1387.23H904.623V1447.27H964.659V1387.23ZM964.905 1387.23H1024.94V1447.27H964.905V1387.23ZM1085.22 1387.23H1025.19V1447.27H1085.22V1387.23ZM1085.47 1387.23H1145.51V1447.27H1085.47V1387.23ZM1205.79 1387.23H1145.75V1447.27H1205.79V1387.23Z" fill="url(#paint9_radial_819_9235)" fill-opacity="0.6"/>
<path fill-rule="evenodd" clip-rule="evenodd" d="M663.247 1447.69H603.211V1507.73H657.027L663.247 1501.51V1447.69ZM669.633 1507.73L663.493 1501.59V1447.69H723.53V1507.73H669.633ZM663.493 1514.02L669.541 1507.97H723.53V1568.01H663.493V1514.02ZM657.119 1507.97L663.247 1514.1V1568.01H603.211V1507.97H657.119ZM603 1447.48V1507.76V1507.94V1568.05V1568.22V1628.33V1628.5V1688.61V1688.79V1748.89V1749.07V1809.35H663.282H663.458H723.565H723.741H783.847H784.023H844.13H844.305H904.412H904.588H964.694H964.87H1024.98H1025.15H1085.26H1085.44H1145.54H1145.72H1206L1206 1749.07V1688.79V1688.61V1628.33V1568.22V1507.94V1507.76V1447.48H1145.72H1145.54H1085.44H1085.26H1025.15H1024.98H964.87H964.694H904.588H904.412H844.305H844.13H784.023H783.847H723.741H723.565H663.458H663.282H603ZM723.776 1447.69H783.812V1507.73H723.776V1447.69ZM844.094 1447.69H784.058V1507.73H844.094V1447.69ZM844.341 1447.69H904.377V1507.73H844.341V1447.69ZM964.659 1447.69H904.623V1507.73H964.659V1447.69ZM964.905 1447.69H1024.94V1507.73H964.905V1447.69ZM1085.22 1447.69H1025.19V1507.73H1085.22V1447.69ZM1085.47 1447.69H1145.51V1507.73H1085.47V1447.69ZM1205.79 1447.69H1145.75V1507.73H1205.79V1447.69ZM723.776 1507.97H783.812V1568.01H723.776V1507.97ZM844.094 1507.97H784.058V1568.01H838.056L844.094 1561.97V1507.97ZM850.283 1568.01L844.341 1562.07V1507.97H904.377V1568.01H850.283ZM844.341 1574.49L850.549 1568.28L850.529 1568.26H904.377V1628.29H844.341V1574.49ZM837.81 1568.26L837.789 1568.28L844.094 1574.58V1628.29H784.058V1568.26H837.81ZM964.659 1507.97H904.623V1568.01H964.659V1507.97ZM964.905 1507.97H1024.94V1568.01H964.905V1507.97ZM1085.22 1507.97H1025.19V1568.01H1085.22V1507.97ZM1085.47 1507.97H1145.51V1551.35L1145.4 1551.46L1128.85 1568.01H1085.47V1507.97ZM1128.6 1568.26H1085.47V1622.38L1085.67 1622.18L1091.79 1628.29H1145.51V1585.2L1145.4 1585.1L1128.75 1568.44L1128.58 1568.28L1128.6 1568.26ZM1145.51 1584.87L1128.91 1568.28L1128.93 1568.26H1139.21L1139.19 1568.28L1145.51 1574.6V1584.87ZM1145.75 1585.08V1628.29H1205.79V1568.26H1162.53L1162.55 1568.28L1162.39 1568.44L1145.75 1585.08ZM1162.2 1568.26L1162.23 1568.28L1145.75 1584.75V1574.47L1151.95 1568.28L1151.93 1568.26H1162.2ZM1162.28 1568.01H1205.79V1507.97H1145.75V1551.48L1162.28 1568.01ZM1145.75 1551.8L1161.96 1568.01H1151.68L1145.75 1562.08V1551.8ZM1145.51 1551.68L1129.18 1568.01H1139.45L1145.51 1561.96V1551.68ZM1085.47 1634.74L1085.67 1634.94L1092.05 1628.56L1092.03 1628.54H1145.51V1688.58H1085.47V1634.74ZM1079.31 1628.54L1079.29 1628.56L1085.22 1634.49V1688.58H1025.19V1628.54H1079.31ZM1085.22 1622.62L1079.56 1628.29H1025.19V1568.26H1085.22V1622.62ZM603.211 1568.26H663.247V1628.29H603.211V1568.26ZM723.53 1568.26H663.493V1628.29H723.53V1568.26ZM723.776 1568.26H783.812V1628.29H723.776V1568.26ZM964.659 1568.26H904.623V1628.29H964.659V1568.26ZM964.905 1568.26H1024.94V1628.29H964.905V1568.26ZM603.211 1628.54H663.247V1688.58H603.211V1628.54ZM723.53 1628.54H663.493V1688.58H706.941L706.863 1688.5L707.026 1688.33L723.53 1671.83V1628.54ZM723.53 1672.16L707.189 1688.5L707.267 1688.58H717.545L717.467 1688.5L723.53 1682.43V1672.16ZM723.776 1682.19V1671.91L723.847 1671.84L740.505 1688.5L740.426 1688.58H730.149L730.227 1688.5L723.847 1682.12L723.776 1682.19ZM723.776 1694.81L723.847 1694.88L729.903 1688.82H740.18L723.847 1705.16L723.776 1705.08V1694.81ZM717.791 1688.82L723.53 1694.56V1704.84L707.513 1688.82H717.791ZM707.187 1688.82H663.493V1748.86H723.53V1705.16L707.187 1688.82ZM723.776 1705.41V1748.86H783.812V1688.82H740.506L724.01 1705.32L723.847 1705.48L723.776 1705.41ZM740.752 1688.58H783.812V1628.54H723.776V1671.59L723.847 1671.51L724.01 1671.68L740.667 1688.33L740.83 1688.5L740.752 1688.58ZM844.094 1628.54H784.058V1688.58H844.094V1628.54ZM844.341 1628.54H904.377V1688.58H844.341V1628.54ZM964.659 1628.54H904.623V1688.58H964.659V1628.54ZM964.905 1628.54H1024.94V1688.58H964.905V1628.54ZM1205.79 1628.54H1145.75V1688.58H1205.79V1628.54ZM603.211 1688.82H663.247V1748.86H603.211V1688.82ZM844.094 1688.82H784.058V1748.86H844.094V1688.82ZM844.341 1688.82H904.377V1748.86H844.341V1688.82ZM964.659 1688.82H904.623V1748.86H964.659V1688.82ZM964.905 1688.82H1024.94V1748.86H964.905V1688.82ZM1085.22 1688.82H1025.19V1748.86H1085.22V1688.82ZM1085.47 1688.82H1145.51V1748.86H1085.47V1688.82ZM1205.79 1688.82H1145.75V1748.86H1205.79V1688.82ZM603.211 1749.1H663.247V1809.14H603.211V1749.1ZM723.53 1749.1H663.493V1809.14H723.53V1749.1ZM723.776 1749.1H783.812V1809.14H723.776V1749.1ZM844.094 1749.1H784.058V1809.14H844.094V1749.1ZM844.341 1749.1H904.377V1809.14H844.341V1749.1ZM964.659 1749.1H904.623V1809.14H964.659V1749.1ZM964.905 1749.1H1024.94V1809.14H964.905V1749.1ZM1085.22 1749.1H1025.19V1809.14H1085.22V1749.1ZM1085.47 1749.1H1145.51V1809.14H1085.47V1749.1ZM1205.79 1749.1H1145.75V1809.14H1205.79V1749.1Z" fill="url(#paint10_radial_819_9235)" fill-opacity="0.6"/>
<path fill-rule="evenodd" clip-rule="evenodd" d="M663.247 1809.56H603.211V1869.6H657.027L663.247 1863.38V1809.56ZM669.633 1869.6L663.493 1863.46V1809.56H723.53V1869.6H669.633ZM663.493 1875.89L669.541 1869.84H723.53V1929.88H663.493V1875.89ZM657.119 1869.84L663.247 1875.97V1929.88H603.211V1869.84H657.119ZM603 1809.35V1869.63V1869.81V1929.92V1930.09V1990.2V1990.37V2050.48V2050.66V2110.76V2110.94V2171.22H663.282H663.458H723.565H723.741H783.847H784.023H844.13H844.305H904.412H904.588H964.694H964.87H1024.98H1025.15H1085.26H1085.44H1145.54H1145.72H1206L1206 2110.94V2050.66V2050.48V1990.2V1930.09V1869.81V1869.63V1809.35H1145.72H1145.54H1085.44H1085.26H1025.15H1024.98H964.87H964.694H904.588H904.412H844.305H844.13H784.023H783.847H723.741H723.565H663.458H663.282H603ZM723.776 1809.56H783.812V1869.6H723.776V1809.56ZM844.094 1809.56H784.058V1869.6H844.094V1809.56ZM844.341 1809.56H904.377V1869.6H844.341V1809.56ZM964.659 1809.56H904.623V1869.6H964.659V1809.56ZM964.905 1809.56H1024.94V1869.6H964.905V1809.56ZM1085.22 1809.56H1025.19V1869.6H1085.22V1809.56ZM1085.47 1809.56H1145.51V1869.6H1085.47V1809.56ZM1205.79 1809.56H1145.75V1869.6H1205.79V1809.56ZM723.776 1869.84H783.812V1929.88H723.776V1869.84ZM844.094 1869.84H784.058V1929.88H838.056L844.094 1923.84V1869.84ZM850.283 1929.88L844.341 1923.94V1869.84H904.377V1929.88H850.283ZM844.341 1936.36L850.549 1930.15L850.529 1930.13H904.377V1990.16H844.341V1936.36ZM837.81 1930.13L837.789 1930.15L844.094 1936.45V1990.16H784.058V1930.13H837.81ZM964.659 1869.84H904.623V1929.88H964.659V1869.84ZM964.905 1869.84H1024.94V1929.88H964.905V1869.84ZM1085.22 1869.84H1025.19V1929.88H1085.22V1869.84ZM1085.47 1869.84H1145.51V1913.23L1145.4 1913.33L1128.85 1929.88H1085.47V1869.84ZM1128.6 1930.13H1085.47V1984.25L1085.67 1984.05L1091.79 1990.16H1145.51V1947.07L1145.4 1946.97L1128.75 1930.31L1128.58 1930.15L1128.6 1930.13ZM1145.51 1946.74L1128.91 1930.15L1128.93 1930.13H1139.21L1139.19 1930.15L1145.51 1936.47V1946.74ZM1145.75 1946.95V1990.16H1205.79V1930.13H1162.53L1162.55 1930.15L1162.39 1930.31L1145.75 1946.95ZM1162.2 1930.13L1162.23 1930.15L1145.75 1946.62V1936.34L1151.95 1930.15L1151.93 1930.13H1162.2ZM1162.28 1929.88H1205.79V1869.84H1145.75V1913.35L1162.28 1929.88ZM1145.75 1913.68L1161.96 1929.88H1151.68L1145.75 1923.95V1913.68ZM1145.51 1913.55L1129.18 1929.88H1139.45L1145.51 1923.83V1913.55ZM1085.47 1996.61L1085.67 1996.81L1092.05 1990.43L1092.03 1990.41H1145.51V2050.45H1085.47V1996.61ZM1079.31 1990.41L1079.29 1990.43L1085.22 1996.36V2050.45H1025.19V1990.41H1079.31ZM1085.22 1984.5L1079.56 1990.16H1025.19V1930.13H1085.22V1984.5ZM603.211 1930.13H663.247V1990.16H603.211V1930.13ZM723.53 1930.13H663.493V1990.16H723.53V1930.13ZM723.776 1930.13H783.812V1990.16H723.776V1930.13ZM964.659 1930.13H904.623V1990.16H964.659V1930.13ZM964.905 1930.13H1024.94V1990.16H964.905V1930.13ZM603.211 1990.41H663.247V2050.45H603.211V1990.41ZM723.53 1990.41H663.493V2050.45H706.941L706.863 2050.37L707.026 2050.21L723.53 2033.7V1990.41ZM723.53 2034.03L707.189 2050.37L707.267 2050.45H717.545L717.467 2050.37L723.53 2044.31V2034.03ZM723.776 2044.06V2033.78L723.847 2033.71L740.505 2050.37L740.426 2050.45H730.149L730.227 2050.37L723.847 2043.99L723.776 2044.06ZM723.776 2056.68L723.847 2056.75L729.903 2050.69H740.18L723.847 2067.03L723.776 2066.95V2056.68ZM717.791 2050.69L723.53 2056.43V2066.71L707.513 2050.69H717.791ZM707.187 2050.69H663.493V2110.73H723.53V2067.03L707.187 2050.69ZM723.776 2067.28V2110.73H783.812V2050.69H740.506L724.01 2067.19L723.847 2067.35L723.776 2067.28ZM740.752 2050.45H783.812V1990.41H723.776V2033.46L723.847 2033.38L724.01 2033.55L740.667 2050.21L740.83 2050.37L740.752 2050.45ZM844.094 1990.41H784.058V2050.45H844.094V1990.41ZM844.341 1990.41H904.377V2050.45H844.341V1990.41ZM964.659 1990.41H904.623V2050.45H964.659V1990.41ZM964.905 1990.41H1024.94V2050.45H964.905V1990.41ZM1205.79 1990.41H1145.75V2050.45H1205.79V1990.41ZM603.211 2050.69H663.247V2110.73H603.211V2050.69ZM844.094 2050.69H784.058V2110.73H844.094V2050.69ZM844.341 2050.69H904.377V2110.73H844.341V2050.69ZM964.659 2050.69H904.623V2110.73H964.659V2050.69ZM964.905 2050.69H1024.94V2110.73H964.905V2050.69ZM1085.22 2050.69H1025.19V2110.73H1085.22V2050.69ZM1085.47 2050.69H1145.51V2110.73H1085.47V2050.69ZM1205.79 2050.69H1145.75V2110.73H1205.79V2050.69ZM603.211 2110.97H663.247V2171.01H603.211V2110.97ZM723.53 2110.97H663.493V2171.01H723.53V2110.97ZM723.776 2110.97H783.812V2171.01H723.776V2110.97ZM844.094 2110.97H784.058V2171.01H844.094V2110.97ZM844.341 2110.97H904.377V2171.01H844.341V2110.97ZM964.659 2110.97H904.623V2171.01H964.659V2110.97ZM964.905 2110.97H1024.94V2171.01H964.905V2110.97ZM1085.22 2110.97H1025.19V2171.01H1085.22V2110.97ZM1085.47 2110.97H1145.51V2171.01H1085.47V2110.97ZM1205.79 2110.97H1145.75V2171.01H1205.79V2110.97Z" fill="url(#paint11_radial_819_9235)" fill-opacity="0.6"/>
<path fill-rule="evenodd" clip-rule="evenodd" d="M1266.25 0.210901H1206.21V60.2473H1260.03L1266.25 54.0275V0.210901ZM1272.63 60.2473L1266.49 54.1077V0.210901H1326.53V60.2473H1272.63ZM1266.49 66.5415L1272.54 60.4934H1326.53V120.53H1266.49V66.5415ZM1260.12 60.4934L1266.25 66.6217V120.53H1206.21V60.4934H1260.12ZM1206 0V60.2825V60.4582V120.565V120.741V180.847V181.023V241.13V241.305V301.412V301.588V361.87H1266.28H1266.46H1326.56H1326.74H1386.85H1387.02H1447.13H1447.31H1507.41H1507.59H1567.69H1567.87H1627.98H1628.15H1688.26H1688.44H1748.54H1748.72H1809L1809 301.588V241.305V241.13V180.847V120.741V60.4582V60.2825V0H1748.72H1748.54H1688.44H1688.26H1628.15H1627.98H1567.87H1567.69H1507.59H1507.41H1447.31H1447.13H1387.02H1386.85H1326.74H1326.56H1266.46H1266.28H1206ZM1326.78 0.210901H1386.81V60.2473H1326.78V0.210901ZM1447.09 0.210901H1387.06V60.2473H1447.09V0.210901ZM1447.34 0.210901H1507.38V60.2473H1447.34V0.210901ZM1567.66 0.210901H1507.62V60.2473H1567.66V0.210901ZM1567.91 0.210901H1627.94V60.2473H1567.91V0.210901ZM1688.22 0.210901H1628.19V60.2473H1688.22V0.210901ZM1688.47 0.210901H1748.51V60.2473H1688.47V0.210901ZM1808.79 0.210901H1748.75V60.2473H1808.79V0.210901ZM1326.78 60.4934H1386.81V120.53H1326.78V60.4934ZM1447.09 60.4934H1387.06V120.53H1441.06L1447.09 114.491V60.4934ZM1453.28 120.53L1447.34 114.588V60.4934H1507.38V120.53H1453.28ZM1447.34 127.005L1453.55 120.796L1453.53 120.776H1507.38V180.812H1447.34V127.005ZM1440.81 120.776L1440.79 120.796L1447.09 127.102V180.812H1387.06V120.776H1440.81ZM1567.66 60.4934H1507.62V120.53H1567.66V60.4934ZM1567.91 60.4934H1627.94V120.53H1567.91V60.4934ZM1688.22 60.4934H1628.19V120.53H1688.22V60.4934ZM1688.47 60.4934H1748.51V103.874L1748.4 103.976L1731.85 120.53H1688.47V60.4934ZM1731.6 120.776H1688.47V174.897L1688.67 174.696L1694.79 180.812H1748.51V137.719L1748.4 137.617L1731.75 120.959L1731.58 120.796L1731.6 120.776ZM1748.51 137.393L1731.91 120.796L1731.93 120.776H1742.21L1742.19 120.796L1748.51 127.115V137.393ZM1748.75 137.595V180.812H1808.79V120.776H1765.53L1765.55 120.796L1765.39 120.959L1748.75 137.595ZM1765.2 120.776L1765.23 120.796L1748.75 137.269V126.991L1754.95 120.796L1754.93 120.776H1765.2ZM1765.28 120.53H1808.79V60.4934H1748.75V103.998L1765.28 120.53ZM1748.75 104.324L1764.96 120.53H1754.68L1748.75 114.601V104.324ZM1748.51 104.199L1732.18 120.53H1742.45L1748.51 114.477V104.199ZM1688.47 187.254L1688.67 187.456L1695.05 181.076L1695.03 181.058H1748.51V241.094H1688.47V187.254ZM1682.31 181.058L1682.29 181.076L1688.22 187.008V241.094H1628.19V181.058H1682.31ZM1688.22 175.144L1682.56 180.812H1628.19V120.776H1688.22V175.144ZM1206.21 120.776H1266.25V180.812H1206.21V120.776ZM1326.53 120.776H1266.49V180.812H1326.53V120.776ZM1326.78 120.776H1386.81V180.812H1326.78V120.776ZM1567.66 120.776H1507.62V180.812H1567.66V120.776ZM1567.91 120.776H1627.94V180.812H1567.91V120.776ZM1206.21 181.058H1266.25V241.094H1206.21V181.058ZM1326.53 181.058H1266.49V241.094H1309.94L1309.86 241.016L1310.03 240.853L1326.53 224.35V181.058ZM1326.53 224.676L1310.19 241.016L1310.27 241.094H1320.54L1320.47 241.016L1326.53 234.953V224.676ZM1326.78 234.708V224.43L1326.85 224.359L1343.5 241.016L1343.43 241.094H1333.15L1333.23 241.016L1326.85 234.636L1326.78 234.708ZM1326.78 247.325L1326.85 247.396L1332.9 241.341H1343.18L1326.85 257.674L1326.78 257.603V247.325ZM1320.79 241.341L1326.53 247.079V257.357L1310.51 241.341H1320.79ZM1310.19 241.341H1266.49V301.377H1326.53V257.683L1310.19 241.341ZM1326.78 257.929V301.377H1386.81V241.341H1343.51L1327.01 257.837L1326.85 258L1326.78 257.929ZM1343.75 241.094H1386.81V181.058H1326.78V224.104L1326.85 224.033L1327.01 224.196L1343.67 240.853L1343.83 241.016L1343.75 241.094ZM1447.09 181.058H1387.06V241.094H1447.09V181.058ZM1447.34 181.058H1507.38V241.094H1447.34V181.058ZM1567.66 181.058H1507.62V241.094H1567.66V181.058ZM1567.91 181.058H1627.94V241.094H1567.91V181.058ZM1808.79 181.058H1748.75V241.094H1808.79V181.058ZM1206.21 241.341H1266.25V301.377H1206.21V241.341ZM1447.09 241.341H1387.06V301.377H1447.09V241.341ZM1447.34 241.341H1507.38V301.377H1447.34V241.341ZM1567.66 241.341H1507.62V301.377H1567.66V241.341ZM1567.91 241.341H1627.94V301.377H1567.91V241.341ZM1688.22 241.341H1628.19V301.377H1688.22V241.341ZM1688.47 241.341H1748.51V301.377H1688.47V241.341ZM1808.79 241.341H1748.75V301.377H1808.79V241.341ZM1206.21 301.623H1266.25V361.659H1206.21V301.623ZM1326.53 301.623H1266.49V361.659H1326.53V301.623ZM1326.78 301.623H1386.81V361.659H1326.78V301.623ZM1447.09 301.623H1387.06V361.659H1447.09V301.623ZM1447.34 301.623H1507.38V361.659H1447.34V301.623ZM1567.66 301.623H1507.62V361.659H1567.66V301.623ZM1567.91 301.623H1627.94V361.659H1567.91V301.623ZM1688.22 301.623H1628.19V361.659H1688.22V301.623ZM1688.47 301.623H1748.51V361.659H1688.47V301.623ZM1808.79 301.623H1748.75V361.659H1808.79V301.623Z" fill="url(#paint12_radial_819_9235)" fill-opacity="0.6"/>
<path fill-rule="evenodd" clip-rule="evenodd" d="M1266.25 362.081H1206.21V422.118H1260.03L1266.25 415.898V362.081ZM1272.63 422.118L1266.49 415.978V362.081H1326.53V422.118H1272.63ZM1266.49 428.412L1272.54 422.364H1326.53V482.4H1266.49V428.412ZM1260.12 422.364L1266.25 428.492V482.4H1206.21V422.364H1260.12ZM1206 361.87V422.153V422.328V482.435V482.611V542.717V542.893V603V603.176V663.282V663.458V723.741H1266.28H1266.46H1326.56H1326.74H1386.85H1387.02H1447.13H1447.31H1507.41H1507.59H1567.69H1567.87H1627.98H1628.15H1688.26H1688.44H1748.54H1748.72H1809L1809 663.458V603.176V603V542.717V482.611V422.328V422.153V361.87H1748.72H1748.54H1688.44H1688.26H1628.15H1627.98H1567.87H1567.69H1507.59H1507.41H1447.31H1447.13H1387.02H1386.85H1326.74H1326.56H1266.46H1266.28H1206ZM1326.78 362.081H1386.81V422.118H1326.78V362.081ZM1447.09 362.081H1387.06V422.118H1447.09V362.081ZM1447.34 362.081H1507.38V422.118H1447.34V362.081ZM1567.66 362.081H1507.62V422.118H1567.66V362.081ZM1567.91 362.081H1627.94V422.118H1567.91V362.081ZM1688.22 362.081H1628.19V422.118H1688.22V362.081ZM1688.47 362.081H1748.51V422.118H1688.47V362.081ZM1808.79 362.081H1748.75V422.118H1808.79V362.081ZM1326.78 422.364H1386.81V482.4H1326.78V422.364ZM1447.09 422.364H1387.06V482.4H1441.06L1447.09 476.361V422.364ZM1453.28 482.4L1447.34 476.458V422.364H1507.38V482.4H1453.28ZM1447.34 488.875L1453.55 482.667L1453.53 482.646H1507.38V542.682H1447.34V488.875ZM1440.81 482.646L1440.79 482.667L1447.09 488.972V542.682H1387.06V482.646H1440.81ZM1567.66 422.364H1507.62V482.4H1567.66V422.364ZM1567.91 422.364H1627.94V482.4H1567.91V422.364ZM1688.22 422.364H1628.19V482.4H1688.22V422.364ZM1688.47 422.364H1748.51V465.744L1748.4 465.846L1731.85 482.4H1688.47V422.364ZM1731.6 482.646H1688.47V536.768L1688.67 536.566L1694.79 542.682H1748.51V499.589L1748.4 499.487L1731.75 482.829L1731.58 482.667L1731.6 482.646ZM1748.51 499.263L1731.91 482.667L1731.93 482.646H1742.21L1742.19 482.667L1748.51 488.986V499.263ZM1748.75 499.465V542.682H1808.79V482.646H1765.53L1765.55 482.667L1765.39 482.829L1748.75 499.465ZM1765.2 482.646L1765.23 482.667L1748.75 499.139V488.862L1754.95 482.667L1754.93 482.646H1765.2ZM1765.28 482.4H1808.79V422.364H1748.75V465.868L1765.28 482.4ZM1748.75 466.194L1764.96 482.4H1754.68L1748.75 476.472V466.194ZM1748.51 466.07L1732.18 482.4H1742.45L1748.51 476.348V466.07ZM1688.47 549.124L1688.67 549.326L1695.05 542.946L1695.03 542.928H1748.51V602.965H1688.47V549.124ZM1682.31 542.928L1682.29 542.946L1688.22 548.879V602.965H1628.19V542.928H1682.31ZM1688.22 537.014L1682.56 542.682H1628.19V482.646H1688.22V537.014ZM1206.21 482.646H1266.25V542.682H1206.21V482.646ZM1326.53 482.646H1266.49V542.682H1326.53V482.646ZM1326.78 482.646H1386.81V542.682H1326.78V482.646ZM1567.66 482.646H1507.62V542.682H1567.66V482.646ZM1567.91 482.646H1627.94V542.682H1567.91V482.646ZM1206.21 542.928H1266.25V602.965H1206.21V542.928ZM1326.53 542.928H1266.49V602.965H1309.94L1309.86 602.887L1310.03 602.724L1326.53 586.22V542.928ZM1326.53 586.546L1310.19 602.887L1310.27 602.965H1320.54L1320.47 602.887L1326.53 596.824V586.546ZM1326.78 596.578V586.3L1326.85 586.229L1343.5 602.887L1343.43 602.965H1333.15L1333.23 602.887L1326.85 596.507L1326.78 596.578ZM1326.78 609.196L1326.85 609.267L1332.9 603.211H1343.18L1326.85 619.544L1326.78 619.473V609.196ZM1320.79 603.211L1326.53 608.95V619.227L1310.51 603.211H1320.79ZM1310.19 603.211H1266.49V663.247H1326.53V619.553L1310.19 603.211ZM1326.78 619.799V663.247H1386.81V603.211H1343.51L1327.01 619.707L1326.85 619.87L1326.78 619.799ZM1343.75 602.965H1386.81V542.928H1326.78V585.974L1326.85 585.903L1327.01 586.066L1343.67 602.724L1343.83 602.887L1343.75 602.965ZM1447.09 542.928H1387.06V602.965H1447.09V542.928ZM1447.34 542.928H1507.38V602.965H1447.34V542.928ZM1567.66 542.928H1507.62V602.965H1567.66V542.928ZM1567.91 542.928H1627.94V602.965H1567.91V542.928ZM1808.79 542.928H1748.75V602.965H1808.79V542.928ZM1206.21 603.211H1266.25V663.247H1206.21V603.211ZM1447.09 603.211H1387.06V663.247H1447.09V603.211ZM1447.34 603.211H1507.38V663.247H1447.34V603.211ZM1567.66 603.211H1507.62V663.247H1567.66V603.211ZM1567.91 603.211H1627.94V663.247H1567.91V603.211ZM1688.22 603.211H1628.19V663.247H1688.22V603.211ZM1688.47 603.211H1748.51V663.247H1688.47V603.211ZM1808.79 603.211H1748.75V663.247H1808.79V603.211ZM1206.21 663.493H1266.25V723.53H1206.21V663.493ZM1326.53 663.493H1266.49V723.53H1326.53V663.493ZM1326.78 663.493H1386.81V723.53H1326.78V663.493ZM1447.09 663.493H1387.06V723.53H1447.09V663.493ZM1447.34 663.493H1507.38V723.53H1447.34V663.493ZM1567.66 663.493H1507.62V723.53H1567.66V663.493ZM1567.91 663.493H1627.94V723.53H1567.91V663.493ZM1688.22 663.493H1628.19V723.53H1688.22V663.493ZM1688.47 663.493H1748.51V723.53H1688.47V663.493ZM1808.79 663.493H1748.75V723.53H1808.79V663.493Z" fill="url(#paint13_radial_819_9235)" fill-opacity="0.6"/>
<path fill-rule="evenodd" clip-rule="evenodd" d="M1266.25 723.952H1206.21V783.988H1260.03L1266.25 777.768V723.952ZM1272.63 783.988L1266.49 777.848V723.952H1326.53V783.988H1272.63ZM1266.49 790.282L1272.54 784.234H1326.53V844.27H1266.49V790.282ZM1260.12 784.234L1266.25 790.362V844.27H1206.21V784.234H1260.12ZM1206 723.741V784.023V784.199V844.305V844.481V904.588V904.763V964.87V965.046V1025.15V1025.33V1085.61H1266.28H1266.46H1326.56H1326.74H1386.85H1387.02H1447.13H1447.31H1507.41H1507.59H1567.69H1567.87H1627.98H1628.15H1688.26H1688.44H1748.54H1748.72H1809L1809 1025.33V965.046V964.87V904.588V844.481V784.199V784.023V723.741H1748.72H1748.54H1688.44H1688.26H1628.15H1627.98H1567.87H1567.69H1507.59H1507.41H1447.31H1447.13H1387.02H1386.85H1326.74H1326.56H1266.46H1266.28H1206ZM1326.78 723.952H1386.81V783.988H1326.78V723.952ZM1447.09 723.952H1387.06V783.988H1447.09V723.952ZM1447.34 723.952H1507.38V783.988H1447.34V723.952ZM1567.66 723.952H1507.62V783.988H1567.66V723.952ZM1567.91 723.952H1627.94V783.988H1567.91V723.952ZM1688.22 723.952H1628.19V783.988H1688.22V723.952ZM1688.47 723.952H1748.51V783.988H1688.47V723.952ZM1808.79 723.952H1748.75V783.988H1808.79V723.952ZM1326.78 784.234H1386.81V844.27H1326.78V784.234ZM1447.09 784.234H1387.06V844.27H1441.06L1447.09 838.231V784.234ZM1453.28 844.27L1447.34 838.328V784.234H1507.38V844.27H1453.28ZM1447.34 850.745L1453.55 844.537L1453.53 844.516H1507.38V904.553H1447.34V850.745ZM1440.81 844.516L1440.79 844.537L1447.09 850.842V904.553H1387.06V844.516H1440.81ZM1567.66 784.234H1507.62V844.27H1567.66V784.234ZM1567.91 784.234H1627.94V844.27H1567.91V784.234ZM1688.22 784.234H1628.19V844.27H1688.22V784.234ZM1688.47 784.234H1748.51V827.614L1748.4 827.716L1731.85 844.27H1688.47V784.234ZM1731.6 844.516H1688.47V898.638L1688.67 898.436L1694.79 904.553H1748.51V861.459L1748.4 861.357L1731.75 844.7L1731.58 844.537L1731.6 844.516ZM1748.51 861.134L1731.91 844.537L1731.93 844.516H1742.21L1742.19 844.537L1748.51 850.856V861.134ZM1748.75 861.335V904.553H1808.79V844.516H1765.53L1765.55 844.537L1765.39 844.7L1748.75 861.335ZM1765.2 844.516L1765.23 844.537L1748.75 861.009V850.732L1754.95 844.537L1754.93 844.516H1765.2ZM1765.28 844.27H1808.79V784.234H1748.75V827.739L1765.28 844.27ZM1748.75 828.064L1764.96 844.27H1754.68L1748.75 838.342V828.064ZM1748.51 827.94L1732.18 844.27H1742.45L1748.51 838.218V827.94ZM1688.47 910.995L1688.67 911.197L1695.05 904.816L1695.03 904.799H1748.51V964.835H1688.47V910.995ZM1682.31 904.799L1682.29 904.816L1688.22 910.749V964.835H1628.19V904.799H1682.31ZM1688.22 898.884L1682.56 904.553H1628.19V844.516H1688.22V898.884ZM1206.21 844.516H1266.25V904.553H1206.21V844.516ZM1326.53 844.516H1266.49V904.553H1326.53V844.516ZM1326.78 844.516H1386.81V904.553H1326.78V844.516ZM1567.66 844.516H1507.62V904.553H1567.66V844.516ZM1567.91 844.516H1627.94V904.553H1567.91V844.516ZM1206.21 904.799H1266.25V964.835H1206.21V904.799ZM1326.53 904.799H1266.49V964.835H1309.94L1309.86 964.757L1310.03 964.594L1326.53 948.091V904.799ZM1326.53 948.416L1310.19 964.757L1310.27 964.835H1320.54L1320.47 964.757L1326.53 958.694V948.416ZM1326.78 958.448V948.17L1326.85 948.099L1343.5 964.757L1343.43 964.835H1333.15L1333.23 964.757L1326.85 958.377L1326.78 958.448ZM1326.78 971.066L1326.85 971.137L1332.9 965.081H1343.18L1326.85 981.415L1326.78 981.344V971.066ZM1320.79 965.081L1326.53 970.82V981.098L1310.51 965.081H1320.79ZM1310.19 965.081H1266.49V1025.12H1326.53V981.423L1310.19 965.081ZM1326.78 981.669V1025.12H1386.81V965.081H1343.51L1327.01 981.578L1326.85 981.741L1326.78 981.669ZM1343.75 964.835H1386.81V904.799H1326.78V947.845L1326.85 947.773L1327.01 947.936L1343.67 964.594L1343.83 964.757L1343.75 964.835ZM1447.09 904.799H1387.06V964.835H1447.09V904.799ZM1447.34 904.799H1507.38V964.835H1447.34V904.799ZM1567.66 904.799H1507.62V964.835H1567.66V904.799ZM1567.91 904.799H1627.94V964.835H1567.91V904.799ZM1808.79 904.799H1748.75V964.835H1808.79V904.799ZM1206.21 965.081H1266.25V1025.12H1206.21V965.081ZM1447.09 965.081H1387.06V1025.12H1447.09V965.081ZM1447.34 965.081H1507.38V1025.12H1447.34V965.081ZM1567.66 965.081H1507.62V1025.12H1567.66V965.081ZM1567.91 965.081H1627.94V1025.12H1567.91V965.081ZM1688.22 965.081H1628.19V1025.12H1688.22V965.081ZM1688.47 965.081H1748.51V1025.12H1688.47V965.081ZM1808.79 965.081H1748.75V1025.12H1808.79V965.081ZM1206.21 1025.36H1266.25V1085.4H1206.21V1025.36ZM1326.53 1025.36H1266.49V1085.4H1326.53V1025.36ZM1326.78 1025.36H1386.81V1085.4H1326.78V1025.36ZM1447.09 1025.36H1387.06V1085.4H1447.09V1025.36ZM1447.34 1025.36H1507.38V1085.4H1447.34V1025.36ZM1567.66 1025.36H1507.62V1085.4H1567.66V1025.36ZM1567.91 1025.36H1627.94V1085.4H1567.91V1025.36ZM1688.22 1025.36H1628.19V1085.4H1688.22V1025.36ZM1688.47 1025.36H1748.51V1085.4H1688.47V1025.36ZM1808.79 1025.36H1748.75V1085.4H1808.79V1025.36Z" fill="url(#paint14_radial_819_9235)" fill-opacity="0.6"/>
<path fill-rule="evenodd" clip-rule="evenodd" d="M1266.25 1085.82H1206.21V1145.86H1260.03L1266.25 1139.64V1085.82ZM1272.63 1145.86L1266.49 1139.72V1085.82H1326.53V1145.86H1272.63ZM1266.49 1152.15L1272.54 1146.1H1326.53V1206.14H1266.49V1152.15ZM1260.12 1146.1L1266.25 1152.23V1206.14H1206.21V1146.1H1260.12ZM1206 1085.61V1145.89V1146.07V1206.18V1206.35V1266.46V1266.63V1326.74V1326.92V1387.02V1387.2V1447.48H1266.28H1266.46H1326.56H1326.74H1386.85H1387.02H1447.13H1447.31H1507.41H1507.59H1567.69H1567.87H1627.98H1628.15H1688.26H1688.44H1748.54H1748.72H1809L1809 1387.2V1326.92V1326.74V1266.46V1206.35V1146.07V1145.89V1085.61H1748.72H1748.54H1688.44H1688.26H1628.15H1627.98H1567.87H1567.69H1507.59H1507.41H1447.31H1447.13H1387.02H1386.85H1326.74H1326.56H1266.46H1266.28H1206ZM1326.78 1085.82H1386.81V1145.86H1326.78V1085.82ZM1447.09 1085.82H1387.06V1145.86H1447.09V1085.82ZM1447.34 1085.82H1507.38V1145.86H1447.34V1085.82ZM1567.66 1085.82H1507.62V1145.86H1567.66V1085.82ZM1567.91 1085.82H1627.94V1145.86H1567.91V1085.82ZM1688.22 1085.82H1628.19V1145.86H1688.22V1085.82ZM1688.47 1085.82H1748.51V1145.86H1688.47V1085.82ZM1808.79 1085.82H1748.75V1145.86H1808.79V1085.82ZM1326.78 1146.1H1386.81V1206.14H1326.78V1146.1ZM1447.09 1146.1H1387.06V1206.14H1441.06L1447.09 1200.1V1146.1ZM1453.28 1206.14L1447.34 1200.2V1146.1H1507.38V1206.14H1453.28ZM1447.34 1212.62L1453.55 1206.41L1453.53 1206.39H1507.38V1266.42H1447.34V1212.62ZM1440.81 1206.39L1440.79 1206.41L1447.09 1212.71V1266.42H1387.06V1206.39H1440.81ZM1567.66 1146.1H1507.62V1206.14H1567.66V1146.1ZM1567.91 1146.1H1627.94V1206.14H1567.91V1146.1ZM1688.22 1146.1H1628.19V1206.14H1688.22V1146.1ZM1688.47 1146.1H1748.51V1189.48L1748.4 1189.59L1731.85 1206.14H1688.47V1146.1ZM1731.6 1206.39H1688.47V1260.51L1688.67 1260.31L1694.79 1266.42H1748.51V1223.33L1748.4 1223.23L1731.75 1206.57L1731.58 1206.41L1731.6 1206.39ZM1748.51 1223L1731.91 1206.41L1731.93 1206.39H1742.21L1742.19 1206.41L1748.51 1212.73V1223ZM1748.75 1223.21V1266.42H1808.79V1206.39H1765.53L1765.55 1206.41L1765.39 1206.57L1748.75 1223.21ZM1765.2 1206.39L1765.23 1206.41L1748.75 1222.88V1212.6L1754.95 1206.41L1754.93 1206.39H1765.2ZM1765.28 1206.14H1808.79V1146.1H1748.75V1189.61L1765.28 1206.14ZM1748.75 1189.93L1764.96 1206.14H1754.68L1748.75 1200.21V1189.93ZM1748.51 1189.81L1732.18 1206.14H1742.45L1748.51 1200.09V1189.81ZM1688.47 1272.86L1688.67 1273.07L1695.05 1266.69L1695.03 1266.67H1748.51V1326.71H1688.47V1272.86ZM1682.31 1266.67L1682.29 1266.69L1688.22 1272.62V1326.71H1628.19V1266.67H1682.31ZM1688.22 1260.75L1682.56 1266.42H1628.19V1206.39H1688.22V1260.75ZM1206.21 1206.39H1266.25V1266.42H1206.21V1206.39ZM1326.53 1206.39H1266.49V1266.42H1326.53V1206.39ZM1326.78 1206.39H1386.81V1266.42H1326.78V1206.39ZM1567.66 1206.39H1507.62V1266.42H1567.66V1206.39ZM1567.91 1206.39H1627.94V1266.42H1567.91V1206.39ZM1206.21 1266.67H1266.25V1326.71H1206.21V1266.67ZM1326.53 1266.67H1266.49V1326.71H1309.94L1309.86 1326.63L1310.03 1326.46L1326.53 1309.96V1266.67ZM1326.53 1310.29L1310.19 1326.63L1310.27 1326.71H1320.54L1320.47 1326.63L1326.53 1320.56V1310.29ZM1326.78 1320.32V1310.04L1326.85 1309.97L1343.5 1326.63L1343.43 1326.71H1333.15L1333.23 1326.63L1326.85 1320.25L1326.78 1320.32ZM1326.78 1332.94L1326.85 1333.01L1332.9 1326.95H1343.18L1326.85 1343.28L1326.78 1343.21V1332.94ZM1320.79 1326.95L1326.53 1332.69V1342.97L1310.51 1326.95H1320.79ZM1310.19 1326.95H1266.49V1386.99H1326.53V1343.29L1310.19 1326.95ZM1326.78 1343.54V1386.99H1386.81V1326.95H1343.51L1327.01 1343.45L1326.85 1343.61L1326.78 1343.54ZM1343.75 1326.71H1386.81V1266.67H1326.78V1309.71L1326.85 1309.64L1327.01 1309.81L1343.67 1326.46L1343.83 1326.63L1343.75 1326.71ZM1447.09 1266.67H1387.06V1326.71H1447.09V1266.67ZM1447.34 1266.67H1507.38V1326.71H1447.34V1266.67ZM1567.66 1266.67H1507.62V1326.71H1567.66V1266.67ZM1567.91 1266.67H1627.94V1326.71H1567.91V1266.67ZM1808.79 1266.67H1748.75V1326.71H1808.79V1266.67ZM1206.21 1326.95H1266.25V1386.99H1206.21V1326.95ZM1447.09 1326.95H1387.06V1386.99H1447.09V1326.95ZM1447.34 1326.95H1507.38V1386.99H1447.34V1326.95ZM1567.66 1326.95H1507.62V1386.99H1567.66V1326.95ZM1567.91 1326.95H1627.94V1386.99H1567.91V1326.95ZM1688.22 1326.95H1628.19V1386.99H1688.22V1326.95ZM1688.47 1326.95H1748.51V1386.99H1688.47V1326.95ZM1808.79 1326.95H1748.75V1386.99H1808.79V1326.95ZM1206.21 1387.23H1266.25V1447.27H1206.21V1387.23ZM1326.53 1387.23H1266.49V1447.27H1326.53V1387.23ZM1326.78 1387.23H1386.81V1447.27H1326.78V1387.23ZM1447.09 1387.23H1387.06V1447.27H1447.09V1387.23ZM1447.34 1387.23H1507.38V1447.27H1447.34V1387.23ZM1567.66 1387.23H1507.62V1447.27H1567.66V1387.23ZM1567.91 1387.23H1627.94V1447.27H1567.91V1387.23ZM1688.22 1387.23H1628.19V1447.27H1688.22V1387.23ZM1688.47 1387.23H1748.51V1447.27H1688.47V1387.23ZM1808.79 1387.23H1748.75V1447.27H1808.79V1387.23Z" fill="url(#paint15_radial_819_9235)" fill-opacity="0.6"/>
<path fill-rule="evenodd" clip-rule="evenodd" d="M1266.25 1447.69H1206.21V1507.73H1260.03L1266.25 1501.51V1447.69ZM1272.63 1507.73L1266.49 1501.59V1447.69H1326.53V1507.73H1272.63ZM1266.49 1514.02L1272.54 1507.97H1326.53V1568.01H1266.49V1514.02ZM1260.12 1507.97L1266.25 1514.1V1568.01H1206.21V1507.97H1260.12ZM1206 1447.48V1507.76V1507.94V1568.05V1568.22V1628.33V1628.5V1688.61V1688.79V1748.89V1749.07V1809.35H1266.28H1266.46H1326.56H1326.74H1386.85H1387.02H1447.13H1447.31H1507.41H1507.59H1567.69H1567.87H1627.98H1628.15H1688.26H1688.44H1748.54H1748.72H1809L1809 1749.07V1688.79V1688.61V1628.33V1568.22V1507.94V1507.76V1447.48H1748.72H1748.54H1688.44H1688.26H1628.15H1627.98H1567.87H1567.69H1507.59H1507.41H1447.31H1447.13H1387.02H1386.85H1326.74H1326.56H1266.46H1266.28H1206ZM1326.78 1447.69H1386.81V1507.73H1326.78V1447.69ZM1447.09 1447.69H1387.06V1507.73H1447.09V1447.69ZM1447.34 1447.69H1507.38V1507.73H1447.34V1447.69ZM1567.66 1447.69H1507.62V1507.73H1567.66V1447.69ZM1567.91 1447.69H1627.94V1507.73H1567.91V1447.69ZM1688.22 1447.69H1628.19V1507.73H1688.22V1447.69ZM1688.47 1447.69H1748.51V1507.73H1688.47V1447.69ZM1808.79 1447.69H1748.75V1507.73H1808.79V1447.69ZM1326.78 1507.97H1386.81V1568.01H1326.78V1507.97ZM1447.09 1507.97H1387.06V1568.01H1441.06L1447.09 1561.97V1507.97ZM1453.28 1568.01L1447.34 1562.07V1507.97H1507.38V1568.01H1453.28ZM1447.34 1574.49L1453.55 1568.28L1453.53 1568.26H1507.38V1628.29H1447.34V1574.49ZM1440.81 1568.26L1440.79 1568.28L1447.09 1574.58V1628.29H1387.06V1568.26H1440.81ZM1567.66 1507.97H1507.62V1568.01H1567.66V1507.97ZM1567.91 1507.97H1627.94V1568.01H1567.91V1507.97ZM1688.22 1507.97H1628.19V1568.01H1688.22V1507.97ZM1688.47 1507.97H1748.51V1551.35L1748.4 1551.46L1731.85 1568.01H1688.47V1507.97ZM1731.6 1568.26H1688.47V1622.38L1688.67 1622.18L1694.79 1628.29H1748.51V1585.2L1748.4 1585.1L1731.75 1568.44L1731.58 1568.28L1731.6 1568.26ZM1748.51 1584.87L1731.91 1568.28L1731.93 1568.26H1742.21L1742.19 1568.28L1748.51 1574.6V1584.87ZM1748.75 1585.08V1628.29H1808.79V1568.26H1765.53L1765.55 1568.28L1765.39 1568.44L1748.75 1585.08ZM1765.2 1568.26L1765.23 1568.28L1748.75 1584.75V1574.47L1754.95 1568.28L1754.93 1568.26H1765.2ZM1765.28 1568.01H1808.79V1507.97H1748.75V1551.48L1765.28 1568.01ZM1748.75 1551.8L1764.96 1568.01H1754.68L1748.75 1562.08V1551.8ZM1748.51 1551.68L1732.18 1568.01H1742.45L1748.51 1561.96V1551.68ZM1688.47 1634.74L1688.67 1634.94L1695.05 1628.56L1695.03 1628.54H1748.51V1688.58H1688.47V1634.74ZM1682.31 1628.54L1682.29 1628.56L1688.22 1634.49V1688.58H1628.19V1628.54H1682.31ZM1688.22 1622.62L1682.56 1628.29H1628.19V1568.26H1688.22V1622.62ZM1206.21 1568.26H1266.25V1628.29H1206.21V1568.26ZM1326.53 1568.26H1266.49V1628.29H1326.53V1568.26ZM1326.78 1568.26H1386.81V1628.29H1326.78V1568.26ZM1567.66 1568.26H1507.62V1628.29H1567.66V1568.26ZM1567.91 1568.26H1627.94V1628.29H1567.91V1568.26ZM1206.21 1628.54H1266.25V1688.58H1206.21V1628.54ZM1326.53 1628.54H1266.49V1688.58H1309.94L1309.86 1688.5L1310.03 1688.33L1326.53 1671.83V1628.54ZM1326.53 1672.16L1310.19 1688.5L1310.27 1688.58H1320.54L1320.47 1688.5L1326.53 1682.43V1672.16ZM1326.78 1682.19V1671.91L1326.85 1671.84L1343.5 1688.5L1343.43 1688.58H1333.15L1333.23 1688.5L1326.85 1682.12L1326.78 1682.19ZM1326.78 1694.81L1326.85 1694.88L1332.9 1688.82H1343.18L1326.85 1705.16L1326.78 1705.08V1694.81ZM1320.79 1688.82L1326.53 1694.56V1704.84L1310.51 1688.82H1320.79ZM1310.19 1688.82H1266.49V1748.86H1326.53V1705.16L1310.19 1688.82ZM1326.78 1705.41V1748.86H1386.81V1688.82H1343.51L1327.01 1705.32L1326.85 1705.48L1326.78 1705.41ZM1343.75 1688.58H1386.81V1628.54H1326.78V1671.59L1326.85 1671.51L1327.01 1671.68L1343.67 1688.33L1343.83 1688.5L1343.75 1688.58ZM1447.09 1628.54H1387.06V1688.58H1447.09V1628.54ZM1447.34 1628.54H1507.38V1688.58H1447.34V1628.54ZM1567.66 1628.54H1507.62V1688.58H1567.66V1628.54ZM1567.91 1628.54H1627.94V1688.58H1567.91V1628.54ZM1808.79 1628.54H1748.75V1688.58H1808.79V1628.54ZM1206.21 1688.82H1266.25V1748.86H1206.21V1688.82ZM1447.09 1688.82H1387.06V1748.86H1447.09V1688.82ZM1447.34 1688.82H1507.38V1748.86H1447.34V1688.82ZM1567.66 1688.82H1507.62V1748.86H1567.66V1688.82ZM1567.91 1688.82H1627.94V1748.86H1567.91V1688.82ZM1688.22 1688.82H1628.19V1748.86H1688.22V1688.82ZM1688.47 1688.82H1748.51V1748.86H1688.47V1688.82ZM1808.79 1688.82H1748.75V1748.86H1808.79V1688.82ZM1206.21 1749.1H1266.25V1809.14H1206.21V1749.1ZM1326.53 1749.1H1266.49V1809.14H1326.53V1749.1ZM1326.78 1749.1H1386.81V1809.14H1326.78V1749.1ZM1447.09 1749.1H1387.06V1809.14H1447.09V1749.1ZM1447.34 1749.1H1507.38V1809.14H1447.34V1749.1ZM1567.66 1749.1H1507.62V1809.14H1567.66V1749.1ZM1567.91 1749.1H1627.94V1809.14H1567.91V1749.1ZM1688.22 1749.1H1628.19V1809.14H1688.22V1749.1ZM1688.47 1749.1H1748.51V1809.14H1688.47V1749.1ZM1808.79 1749.1H1748.75V1809.14H1808.79V1749.1Z" fill="url(#paint16_radial_819_9235)" fill-opacity="0.6"/>
<path fill-rule="evenodd" clip-rule="evenodd" d="M1266.25 1809.56H1206.21V1869.6H1260.03L1266.25 1863.38V1809.56ZM1272.63 1869.6L1266.49 1863.46V1809.56H1326.53V1869.6H1272.63ZM1266.49 1875.89L1272.54 1869.84H1326.53V1929.88H1266.49V1875.89ZM1260.12 1869.84L1266.25 1875.97V1929.88H1206.21V1869.84H1260.12ZM1206 1809.35V1869.63V1869.81V1929.92V1930.09V1990.2V1990.37V2050.48V2050.66V2110.76V2110.94V2171.22H1266.28H1266.46H1326.56H1326.74H1386.85H1387.02H1447.13H1447.31H1507.41H1507.59H1567.69H1567.87H1627.98H1628.15H1688.26H1688.44H1748.54H1748.72H1809L1809 2110.94V2050.66V2050.48V1990.2V1930.09V1869.81V1869.63V1809.35H1748.72H1748.54H1688.44H1688.26H1628.15H1627.98H1567.87H1567.69H1507.59H1507.41H1447.31H1447.13H1387.02H1386.85H1326.74H1326.56H1266.46H1266.28H1206ZM1326.78 1809.56H1386.81V1869.6H1326.78V1809.56ZM1447.09 1809.56H1387.06V1869.6H1447.09V1809.56ZM1447.34 1809.56H1507.38V1869.6H1447.34V1809.56ZM1567.66 1809.56H1507.62V1869.6H1567.66V1809.56ZM1567.91 1809.56H1627.94V1869.6H1567.91V1809.56ZM1688.22 1809.56H1628.19V1869.6H1688.22V1809.56ZM1688.47 1809.56H1748.51V1869.6H1688.47V1809.56ZM1808.79 1809.56H1748.75V1869.6H1808.79V1809.56ZM1326.78 1869.84H1386.81V1929.88H1326.78V1869.84ZM1447.09 1869.84H1387.06V1929.88H1441.06L1447.09 1923.84V1869.84ZM1453.28 1929.88L1447.34 1923.94V1869.84H1507.38V1929.88H1453.28ZM1447.34 1936.36L1453.55 1930.15L1453.53 1930.13H1507.38V1990.16H1447.34V1936.36ZM1440.81 1930.13L1440.79 1930.15L1447.09 1936.45V1990.16H1387.06V1930.13H1440.81ZM1567.66 1869.84H1507.62V1929.88H1567.66V1869.84ZM1567.91 1869.84H1627.94V1929.88H1567.91V1869.84ZM1688.22 1869.84H1628.19V1929.88H1688.22V1869.84ZM1688.47 1869.84H1748.51V1913.23L1748.4 1913.33L1731.85 1929.88H1688.47V1869.84ZM1731.6 1930.13H1688.47V1984.25L1688.67 1984.05L1694.79 1990.16H1748.51V1947.07L1748.4 1946.97L1731.75 1930.31L1731.58 1930.15L1731.6 1930.13ZM1748.51 1946.74L1731.91 1930.15L1731.93 1930.13H1742.21L1742.19 1930.15L1748.51 1936.47V1946.74ZM1748.75 1946.95V1990.16H1808.79V1930.13H1765.53L1765.55 1930.15L1765.39 1930.31L1748.75 1946.95ZM1765.2 1930.13L1765.23 1930.15L1748.75 1946.62V1936.34L1754.95 1930.15L1754.93 1930.13H1765.2ZM1765.28 1929.88H1808.79V1869.84H1748.75V1913.35L1765.28 1929.88ZM1748.75 1913.68L1764.96 1929.88H1754.68L1748.75 1923.95V1913.68ZM1748.51 1913.55L1732.18 1929.88H1742.45L1748.51 1923.83V1913.55ZM1688.47 1996.61L1688.67 1996.81L1695.05 1990.43L1695.03 1990.41H1748.51V2050.45H1688.47V1996.61ZM1682.31 1990.41L1682.29 1990.43L1688.22 1996.36V2050.45H1628.19V1990.41H1682.31ZM1688.22 1984.5L1682.56 1990.16H1628.19V1930.13H1688.22V1984.5ZM1206.21 1930.13H1266.25V1990.16H1206.21V1930.13ZM1326.53 1930.13H1266.49V1990.16H1326.53V1930.13ZM1326.78 1930.13H1386.81V1990.16H1326.78V1930.13ZM1567.66 1930.13H1507.62V1990.16H1567.66V1930.13ZM1567.91 1930.13H1627.94V1990.16H1567.91V1930.13ZM1206.21 1990.41H1266.25V2050.45H1206.21V1990.41ZM1326.53 1990.41H1266.49V2050.45H1309.94L1309.86 2050.37L1310.03 2050.21L1326.53 2033.7V1990.41ZM1326.53 2034.03L1310.19 2050.37L1310.27 2050.45H1320.54L1320.47 2050.37L1326.53 2044.31V2034.03ZM1326.78 2044.06V2033.78L1326.85 2033.71L1343.5 2050.37L1343.43 2050.45H1333.15L1333.23 2050.37L1326.85 2043.99L1326.78 2044.06ZM1326.78 2056.68L1326.85 2056.75L1332.9 2050.69H1343.18L1326.85 2067.03L1326.78 2066.95V2056.68ZM1320.79 2050.69L1326.53 2056.43V2066.71L1310.51 2050.69H1320.79ZM1310.19 2050.69H1266.49V2110.73H1326.53V2067.03L1310.19 2050.69ZM1326.78 2067.28V2110.73H1386.81V2050.69H1343.51L1327.01 2067.19L1326.85 2067.35L1326.78 2067.28ZM1343.75 2050.45H1386.81V1990.41H1326.78V2033.46L1326.85 2033.38L1327.01 2033.55L1343.67 2050.21L1343.83 2050.37L1343.75 2050.45ZM1447.09 1990.41H1387.06V2050.45H1447.09V1990.41ZM1447.34 1990.41H1507.38V2050.45H1447.34V1990.41ZM1567.66 1990.41H1507.62V2050.45H1567.66V1990.41ZM1567.91 1990.41H1627.94V2050.45H1567.91V1990.41ZM1808.79 1990.41H1748.75V2050.45H1808.79V1990.41ZM1206.21 2050.69H1266.25V2110.73H1206.21V2050.69ZM1447.09 2050.69H1387.06V2110.73H1447.09V2050.69ZM1447.34 2050.69H1507.38V2110.73H1447.34V2050.69ZM1567.66 2050.69H1507.62V2110.73H1567.66V2050.69ZM1567.91 2050.69H1627.94V2110.73H1567.91V2050.69ZM1688.22 2050.69H1628.19V2110.73H1688.22V2050.69ZM1688.47 2050.69H1748.51V2110.73H1688.47V2050.69ZM1808.79 2050.69H1748.75V2110.73H1808.79V2050.69ZM1206.21 2110.97H1266.25V2171.01H1206.21V2110.97ZM1326.53 2110.97H1266.49V2171.01H1326.53V2110.97ZM1326.78 2110.97H1386.81V2171.01H1326.78V2110.97ZM1447.09 2110.97H1387.06V2171.01H1447.09V2110.97ZM1447.34 2110.97H1507.38V2171.01H1447.34V2110.97ZM1567.66 2110.97H1507.62V2171.01H1567.66V2110.97ZM1567.91 2110.97H1627.94V2171.01H1567.91V2110.97ZM1688.22 2110.97H1628.19V2171.01H1688.22V2110.97ZM1688.47 2110.97H1748.51V2171.01H1688.47V2110.97ZM1808.79 2110.97H1748.75V2171.01H1808.79V2110.97Z" fill="url(#paint17_radial_819_9235)" fill-opacity="0.6"/>
</g>
<defs>
<radialGradient id="paint0_radial_819_9235" cx="0" cy="0" r="1" gradientUnits="userSpaceOnUse" gradientTransform="translate(301.5 -203.108) rotate(90) scale(519.384 865.472)">
<stop/>
<stop offset="1" stop-opacity="0.67"/>
</radialGradient>
<radialGradient id="paint1_radial_819_9235" cx="0" cy="0" r="1" gradientUnits="userSpaceOnUse" gradientTransform="translate(301.5 158.762) rotate(90) scale(519.384 865.472)">
<stop/>
<stop offset="1" stop-opacity="0.67"/>
</radialGradient>
<radialGradient id="paint2_radial_819_9235" cx="0" cy="0" r="1" gradientUnits="userSpaceOnUse" gradientTransform="translate(301.5 520.633) rotate(90) scale(519.384 865.472)">
<stop/>
<stop offset="1" stop-opacity="0.67"/>
</radialGradient>
<radialGradient id="paint3_radial_819_9235" cx="0" cy="0" r="1" gradientUnits="userSpaceOnUse" gradientTransform="translate(301.5 882.503) rotate(90) scale(519.384 865.472)">
<stop/>
<stop offset="1" stop-opacity="0.67"/>
</radialGradient>
<radialGradient id="paint4_radial_819_9235" cx="0" cy="0" r="1" gradientUnits="userSpaceOnUse" gradientTransform="translate(301.5 1244.37) rotate(90) scale(519.384 865.472)">
<stop/>
<stop offset="1" stop-opacity="0.67"/>
</radialGradient>
<radialGradient id="paint5_radial_819_9235" cx="0" cy="0" r="1" gradientUnits="userSpaceOnUse" gradientTransform="translate(301.5 1606.24) rotate(90) scale(519.384 865.472)">
<stop/>
<stop offset="1" stop-opacity="0.67"/>
</radialGradient>
<radialGradient id="paint6_radial_819_9235" cx="0" cy="0" r="1" gradientUnits="userSpaceOnUse" gradientTransform="translate(904.5 -203.108) rotate(90) scale(519.384 865.472)">
<stop/>
<stop offset="1" stop-opacity="0.67"/>
</radialGradient>
<radialGradient id="paint7_radial_819_9235" cx="0" cy="0" r="1" gradientUnits="userSpaceOnUse" gradientTransform="translate(904.5 158.762) rotate(90) scale(519.384 865.472)">
<stop/>
<stop offset="1" stop-opacity="0.67"/>
</radialGradient>
<radialGradient id="paint8_radial_819_9235" cx="0" cy="0" r="1" gradientUnits="userSpaceOnUse" gradientTransform="translate(904.5 520.633) rotate(90) scale(519.384 865.472)">
<stop/>
<stop offset="1" stop-opacity="0.67"/>
</radialGradient>
<radialGradient id="paint9_radial_819_9235" cx="0" cy="0" r="1" gradientUnits="userSpaceOnUse" gradientTransform="translate(904.5 882.503) rotate(90) scale(519.384 865.472)">
<stop/>
<stop offset="1" stop-opacity="0.67"/>
</radialGradient>
<radialGradient id="paint10_radial_819_9235" cx="0" cy="0" r="1" gradientUnits="userSpaceOnUse" gradientTransform="translate(904.5 1244.37) rotate(90) scale(519.384 865.472)">
<stop/>
<stop offset="1" stop-opacity="0.67"/>
</radialGradient>
<radialGradient id="paint11_radial_819_9235" cx="0" cy="0" r="1" gradientUnits="userSpaceOnUse" gradientTransform="translate(904.5 1606.24) rotate(90) scale(519.384 865.472)">
<stop/>
<stop offset="1" stop-opacity="0.67"/>
</radialGradient>
<radialGradient id="paint12_radial_819_9235" cx="0" cy="0" r="1" gradientUnits="userSpaceOnUse" gradientTransform="translate(1507.5 -203.108) rotate(90) scale(519.384 865.472)">
<stop/>
<stop offset="1" stop-opacity="0.67"/>
</radialGradient>
<radialGradient id="paint13_radial_819_9235" cx="0" cy="0" r="1" gradientUnits="userSpaceOnUse" gradientTransform="translate(1507.5 158.762) rotate(90) scale(519.384 865.472)">
<stop/>
<stop offset="1" stop-opacity="0.67"/>
</radialGradient>
<radialGradient id="paint14_radial_819_9235" cx="0" cy="0" r="1" gradientUnits="userSpaceOnUse" gradientTransform="translate(1507.5 520.633) rotate(90) scale(519.384 865.472)">
<stop/>
<stop offset="1" stop-opacity="0.67"/>
</radialGradient>
<radialGradient id="paint15_radial_819_9235" cx="0" cy="0" r="1" gradientUnits="userSpaceOnUse" gradientTransform="translate(1507.5 882.503) rotate(90) scale(519.384 865.472)">
<stop/>
<stop offset="1" stop-opacity="0.67"/>
</radialGradient>
<radialGradient id="paint16_radial_819_9235" cx="0" cy="0" r="1" gradientUnits="userSpaceOnUse" gradientTransform="translate(1507.5 1244.37) rotate(90) scale(519.384 865.472)">
<stop/>
<stop offset="1" stop-opacity="0.67"/>
</radialGradient>
<radialGradient id="paint17_radial_819_9235" cx="0" cy="0" r="1" gradientUnits="userSpaceOnUse" gradientTransform="translate(1507.5 1606.24) rotate(90) scale(519.384 865.472)">
<stop/>
<stop offset="1" stop-opacity="0.67"/>
</radialGradient>
</defs>
</svg>
