<svg width="1468" height="1224" viewBox="0 0 1468 1224" fill="none" xmlns="http://www.w3.org/2000/svg">
<g opacity="0.4" filter="url(#filter0_f_830_21)">
<circle cx="748" cy="612" r="212" fill="url(#paint0_linear_830_21)"/>
</g>
<mask id="mask0_830_21" style="mask-type:alpha" maskUnits="userSpaceOnUse" x="570" y="434" width="356" height="356">
<circle opacity="0.5" cx="748" cy="612" r="178" fill="url(#paint1_linear_830_21)"/>
</mask>
<g mask="url(#mask0_830_21)">
<path opacity="0.8" d="M-179.394 273H-223.008V316.614M-179.394 273V316.614M-179.394 273H-135.78M-179.394 316.614H-223.008M-179.394 316.614V360.228M-179.394 316.614H-135.78M-223.008 316.614V360.228M-179.394 360.228H-223.008M-179.394 360.228V403.842M-179.394 360.228H-135.78M-223.008 360.228V403.842M-179.394 403.842H-223.008M-179.394 403.842V447.455M-179.394 403.842H-135.78M-223.008 403.842V447.455M-179.394 447.455H-223.008M-179.394 447.455V491.069M-179.394 447.455H-135.78M-223.008 447.455V491.069M-179.394 491.069H-223.008M-179.394 491.069V534.683M-179.394 491.069H-135.78M-223.008 491.069V534.683M-179.394 534.683H-223.008M-179.394 534.683V578.297M-179.394 534.683H-135.78M-223.008 534.683V578.297M-179.394 578.297H-223.008M-179.394 578.297V621.911M-179.394 578.297H-135.78M-223.008 578.297V621.911M-179.394 621.911H-223.008M-179.394 621.911V665.525M-179.394 621.911H-135.78M-223.008 621.911V665.525M-179.394 665.525H-223.008M-179.394 665.525V709.139M-179.394 665.525H-135.78M-223.008 665.525V709.139M-179.394 709.139H-223.008M-179.394 709.139V752.752M-179.394 709.139H-135.78M-223.008 709.139V752.752M-179.394 752.752H-223.008M-179.394 752.752V796.366M-179.394 752.752H-135.78M-223.008 752.752V796.366M-179.394 796.366H-223.008M-179.394 796.366V839.98M-179.394 796.366H-135.78M-223.008 796.366V839.98M-179.394 839.98H-223.008M-179.394 839.98V883.594M-179.394 839.98H-135.78M-223.008 839.98V883.594M-179.394 883.594H-223.008M-179.394 883.594V927.208M-179.394 883.594H-135.78M-223.008 883.594V927.208M-179.394 927.208H-223.008M-179.394 927.208V970.822M-179.394 927.208H-135.78M-223.008 927.208V970.822M-179.394 970.822H-223.008M-179.394 970.822V1014.44M-179.394 970.822H-135.78M-223.008 970.822V1014.44M-179.394 1014.44H-223.008M-179.394 1014.44V1058.05M-179.394 1014.44H-135.78M-223.008 1014.44V1058.05M-179.394 1058.05H-223.008M-179.394 1058.05V1101.66M-179.394 1058.05H-135.78M-223.008 1058.05V1101.66M-179.394 1101.66H-223.008M-179.394 1101.66V1145.28M-179.394 1101.66H-135.78M-223.008 1101.66V1145.28H-179.394M-179.394 1145.28H-135.78M-135.78 273V316.614M-135.78 273H-92.1663M-135.78 316.614V360.228M-135.78 316.614H-92.1663M-135.78 360.228V403.842M-135.78 360.228H-92.1663M-135.78 403.842V447.455M-135.78 403.842H-92.1663M-135.78 447.455V491.069M-135.78 447.455H-92.1663M-135.78 491.069V534.683M-135.78 491.069H-92.1663M-135.78 534.683V578.297M-135.78 534.683H-92.1663M-135.78 578.297V621.911M-135.78 578.297H-92.1663M-135.78 621.911V665.525M-135.78 621.911H-92.1663M-135.78 665.525V709.139M-135.78 665.525H-92.1663M-135.78 709.139V752.752M-135.78 709.139H-92.1663M-135.78 752.752V796.366M-135.78 752.752H-92.1663M-135.78 796.366V839.98M-135.78 796.366H-92.1663M-135.78 839.98V883.594M-135.78 839.98H-92.1663M-135.78 883.594V927.208M-135.78 883.594H-92.1663M-135.78 927.208V970.822M-135.78 927.208H-92.1663M-135.78 970.822V1014.44M-135.78 970.822H-92.1663M-135.78 1014.44V1058.05M-135.78 1014.44H-92.1663M-135.78 1058.05V1101.66M-135.78 1058.05H-92.1663M-135.78 1101.66V1145.28M-135.78 1101.66H-92.1663M-135.78 1145.28H-92.1663M-92.1663 273V316.614M-92.1663 273H-48.5524M-92.1663 316.614V360.228M-92.1663 316.614H-48.5524M-92.1663 360.228V403.842M-92.1663 360.228H-48.5524M-92.1663 403.842V447.455M-92.1663 403.842H-48.5524M-92.1663 447.455V491.069M-92.1663 447.455H-48.5524M-92.1663 491.069V534.683M-92.1663 491.069H-48.5524M-92.1663 534.683V578.297M-92.1663 534.683H-48.5524M-92.1663 578.297V621.911M-92.1663 578.297H-48.5524M-92.1663 621.911V665.525M-92.1663 621.911H-48.5524M-92.1663 665.525V709.139M-92.1663 665.525H-48.5524M-92.1663 709.139V752.752M-92.1663 709.139H-48.5524M-92.1663 752.752V796.366M-92.1663 752.752H-48.5524M-92.1663 796.366V839.98M-92.1663 796.366H-48.5524M-92.1663 839.98V883.594M-92.1663 839.98H-48.5524M-92.1663 883.594V927.208M-92.1663 883.594H-48.5524M-92.1663 927.208V970.822M-92.1663 927.208H-48.5524M-92.1663 970.822V1014.44M-92.1663 970.822H-48.5524M-92.1663 1014.44V1058.05M-92.1663 1014.44H-48.5524M-92.1663 1058.05V1101.66M-92.1663 1058.05H-48.5524M-92.1663 1101.66V1145.28M-92.1663 1101.66H-48.5524M-92.1663 1145.28H-48.5524M-48.5524 273V316.614M-48.5524 273H-4.93854M-48.5524 316.614V360.228M-48.5524 316.614H-4.93854M-48.5524 360.228V403.842M-48.5524 360.228H-4.93854M-48.5524 403.842V447.455M-48.5524 403.842H-4.93854M-48.5524 447.455V491.069M-48.5524 447.455H-4.93854M-48.5524 491.069V534.683M-48.5524 491.069H-4.93854M-48.5524 534.683V578.297M-48.5524 534.683H-4.93854M-48.5524 578.297V621.911M-48.5524 578.297H-4.93854M-48.5524 621.911V665.525M-48.5524 621.911H-4.93854M-48.5524 665.525V709.139M-48.5524 665.525H-4.93854M-48.5524 709.139V752.752M-48.5524 709.139H-4.93854M-48.5524 752.752V796.366M-48.5524 752.752H-4.93854M-48.5524 796.366V839.98M-48.5524 796.366H-4.93854M-48.5524 839.98V883.594M-48.5524 839.98H-4.93854M-48.5524 883.594V927.208M-48.5524 883.594H-4.93854M-48.5524 927.208V970.822M-48.5524 927.208H-4.93854M-48.5524 970.822V1014.44M-48.5524 970.822H-4.93854M-48.5524 1014.44V1058.05M-48.5524 1014.44H-4.93854M-48.5524 1058.05V1101.66M-48.5524 1058.05H-4.93854M-48.5524 1101.66V1145.28M-48.5524 1101.66H-4.93854M-48.5524 1145.28H-4.93854M-4.93854 273V316.614M-4.93854 273H38.6753M-4.93854 316.614V360.228M-4.93854 316.614H38.6753M-4.93854 360.228V403.842M-4.93854 360.228H38.6753M-4.93854 403.842V447.455M-4.93854 403.842H38.6753M-4.93854 447.455V491.069M-4.93854 447.455H38.6753M-4.93854 491.069V534.683M-4.93854 491.069H38.6753M-4.93854 534.683V578.297M-4.93854 534.683H38.6753M-4.93854 578.297V621.911M-4.93854 578.297H38.6753M-4.93854 621.911V665.525M-4.93854 621.911H38.6753M-4.93854 665.525V709.139M-4.93854 665.525H38.6753M-4.93854 709.139V752.752M-4.93854 709.139H38.6753M-4.93854 752.752V796.366M-4.93854 752.752H38.6753M-4.93854 796.366V839.98M-4.93854 796.366H38.6753M-4.93854 839.98V883.594M-4.93854 839.98H38.6753M-4.93854 883.594V927.208M-4.93854 883.594H38.6753M-4.93854 927.208V970.822M-4.93854 927.208H38.6753M-4.93854 970.822V1014.44M-4.93854 970.822H38.6753M-4.93854 1014.44V1058.05M-4.93854 1014.44H38.6753M-4.93854 1058.05V1101.66M-4.93854 1058.05H38.6753M-4.93854 1101.66V1145.28M-4.93854 1101.66H38.6753M-4.93854 1145.28H38.6753M38.6753 273V316.614M38.6753 273H82.2892M38.6753 316.614V360.228M38.6753 316.614H82.2892M38.6753 360.228V403.842M38.6753 360.228H82.2892M38.6753 403.842V447.455M38.6753 403.842H82.2892M38.6753 447.455V491.069M38.6753 447.455H82.2892M38.6753 491.069V534.683M38.6753 491.069H82.2892M38.6753 534.683V578.297M38.6753 534.683H82.2892M38.6753 578.297V621.911M38.6753 578.297H82.2892M38.6753 621.911V665.525M38.6753 621.911H82.2892M38.6753 665.525V709.139M38.6753 665.525H82.2892M38.6753 709.139V752.752M38.6753 709.139H82.2892M38.6753 752.752V796.366M38.6753 752.752H82.2892M38.6753 796.366V839.98M38.6753 796.366H82.2892M38.6753 839.98V883.594M38.6753 839.98H82.2892M38.6753 883.594V927.208M38.6753 883.594H82.2892M38.6753 927.208V970.822M38.6753 927.208H82.2892M38.6753 970.822V1014.44M38.6753 970.822H82.2892M38.6753 1014.44V1058.05M38.6753 1014.44H82.2892M38.6753 1058.05V1101.66M38.6753 1058.05H82.2892M38.6753 1101.66V1145.28M38.6753 1101.66H82.2892M38.6753 1145.28H82.2892M82.2892 273V316.614M82.2892 273H125.903M82.2892 316.614V360.228M82.2892 316.614H125.903M82.2892 360.228V403.842M82.2892 360.228H125.903M82.2892 403.842V447.455M82.2892 403.842H125.903M82.2892 447.455V491.069M82.2892 447.455H125.903M82.2892 491.069V534.683M82.2892 491.069H125.903M82.2892 534.683V578.297M82.2892 534.683H125.903M82.2892 578.297V621.911M82.2892 578.297H125.903M82.2892 621.911V665.525M82.2892 621.911H125.903M82.2892 665.525V709.139M82.2892 665.525H125.903M82.2892 709.139V752.752M82.2892 709.139H125.903M82.2892 752.752V796.366M82.2892 752.752H125.903M82.2892 796.366V839.98M82.2892 796.366H125.903M82.2892 839.98V883.594M82.2892 839.98H125.903M82.2892 883.594V927.208M82.2892 883.594H125.903M82.2892 927.208V970.822M82.2892 927.208H125.903M82.2892 970.822V1014.44M82.2892 970.822H125.903M82.2892 1014.44V1058.05M82.2892 1014.44H125.903M82.2892 1058.05V1101.66M82.2892 1058.05H125.903M82.2892 1101.66V1145.28M82.2892 1101.66H125.903M82.2892 1145.28H125.903M125.903 273V316.614M125.903 273H169.517M125.903 316.614V360.228M125.903 316.614H169.517M125.903 360.228V403.842M125.903 360.228H169.517M125.903 403.842V447.455M125.903 403.842H169.517M125.903 447.455V491.069M125.903 447.455H169.517M125.903 491.069V534.683M125.903 491.069H169.517M125.903 534.683V578.297M125.903 534.683H169.517M125.903 578.297V621.911M125.903 578.297H169.517M125.903 621.911V665.525M125.903 621.911H169.517M125.903 665.525V709.139M125.903 665.525H169.517M125.903 709.139V752.752M125.903 709.139H169.517M125.903 752.752V796.366M125.903 752.752H169.517M125.903 796.366V839.98M125.903 796.366H169.517M125.903 839.98V883.594M125.903 839.98H169.517M125.903 883.594V927.208M125.903 883.594H169.517M125.903 927.208V970.822M125.903 927.208H169.517M125.903 970.822V1014.44M125.903 970.822H169.517M125.903 1014.44V1058.05M125.903 1014.44H169.517M125.903 1058.05V1101.66M125.903 1058.05H169.517M125.903 1101.66V1145.28M125.903 1101.66H169.517M125.903 1145.28H169.517M169.517 273V316.614M169.517 273H213.131M169.517 316.614V360.228M169.517 316.614H213.131M169.517 360.228V403.842M169.517 360.228H213.131M169.517 403.842V447.455M169.517 403.842H213.131M169.517 447.455V491.069M169.517 447.455H213.131M169.517 491.069V534.683M169.517 491.069H213.131M169.517 534.683V578.297M169.517 534.683H213.131M169.517 578.297V621.911M169.517 578.297H213.131M169.517 621.911V665.525M169.517 621.911H213.131M169.517 665.525V709.139M169.517 665.525H213.131M169.517 709.139V752.752M169.517 709.139H213.131M169.517 752.752V796.366M169.517 752.752H213.131M169.517 796.366V839.98M169.517 796.366H213.131M169.517 839.98V883.594M169.517 839.98H213.131M169.517 883.594V927.208M169.517 883.594H213.131M169.517 927.208V970.822M169.517 927.208H213.131M169.517 970.822V1014.44M169.517 970.822H213.131M169.517 1014.44V1058.05M169.517 1014.44H213.131M169.517 1058.05V1101.66M169.517 1058.05H213.131M169.517 1101.66V1145.28M169.517 1101.66H213.131M169.517 1145.28H213.131M213.131 273V316.614M213.131 273H256.745M213.131 316.614V360.228M213.131 316.614H256.745M213.131 360.228V403.842M213.131 360.228H256.745M213.131 403.842V447.455M213.131 403.842H256.745M213.131 447.455V491.069M213.131 447.455H256.745M213.131 491.069V534.683M213.131 491.069H256.745M213.131 534.683V578.297M213.131 534.683H256.745M213.131 578.297V621.911M213.131 578.297H256.745M213.131 621.911V665.525M213.131 621.911H256.745M213.131 665.525V709.139M213.131 665.525H256.745M213.131 709.139V752.752M213.131 709.139H256.745M213.131 752.752V796.366M213.131 752.752H256.745M213.131 796.366V839.98M213.131 796.366H256.745M213.131 839.98V883.594M213.131 839.98H256.745M213.131 883.594V927.208M213.131 883.594H256.745M213.131 927.208V970.822M213.131 927.208H256.745M213.131 970.822V1014.44M213.131 970.822H256.745M213.131 1014.44V1058.05M213.131 1014.44H256.745M213.131 1058.05V1101.66M213.131 1058.05H256.745M213.131 1101.66V1145.28M213.131 1101.66H256.745M213.131 1145.28H256.745M256.745 273V316.614M256.745 273H300.358M256.745 316.614V360.228M256.745 316.614H300.358M256.745 360.228V403.842M256.745 360.228H300.358M256.745 403.842V447.455M256.745 403.842H300.358M256.745 447.455V491.069M256.745 447.455H300.358M256.745 491.069V534.683M256.745 491.069H300.358M256.745 534.683V578.297M256.745 534.683H300.358M256.745 578.297V621.911M256.745 578.297H300.358M256.745 621.911V665.525M256.745 621.911H300.358M256.745 665.525V709.139M256.745 665.525H300.358M256.745 709.139V752.752M256.745 709.139H300.358M256.745 752.752V796.366M256.745 752.752H300.358M256.745 796.366V839.98M256.745 796.366H300.358M256.745 839.98V883.594M256.745 839.98H300.358M256.745 883.594V927.208M256.745 883.594H300.358M256.745 927.208V970.822M256.745 927.208H300.358M256.745 970.822V1014.44M256.745 970.822H300.358M256.745 1014.44V1058.05M256.745 1014.44H300.358M256.745 1058.05V1101.66M256.745 1058.05H300.358M256.745 1101.66V1145.28M256.745 1101.66H300.358M256.745 1145.28H300.358M300.358 273V316.614M300.358 273H343.972M300.358 316.614V360.228M300.358 316.614H343.972M300.358 360.228V403.842M300.358 360.228H343.972M300.358 403.842V447.455M300.358 403.842H343.972M300.358 447.455V491.069M300.358 447.455H343.972M300.358 491.069V534.683M300.358 491.069H343.972M300.358 534.683V578.297M300.358 534.683H343.972M300.358 578.297V621.911M300.358 578.297H343.972M300.358 621.911V665.525M300.358 621.911H343.972M300.358 665.525V709.139M300.358 665.525H343.972M300.358 709.139V752.752M300.358 709.139H343.972M300.358 752.752V796.366M300.358 752.752H343.972M300.358 796.366V839.98M300.358 796.366H343.972M300.358 839.98V883.594M300.358 839.98H343.972M300.358 883.594V927.208M300.358 883.594H343.972M300.358 927.208V970.822M300.358 927.208H343.972M300.358 970.822V1014.44M300.358 970.822H343.972M300.358 1014.44V1058.05M300.358 1014.44H343.972M300.358 1058.05V1101.66M300.358 1058.05H343.972M300.358 1101.66V1145.28M300.358 1101.66H343.972M300.358 1145.28H343.972M343.972 273V316.614M343.972 273H387.586M343.972 316.614V360.228M343.972 316.614H387.586M343.972 360.228V403.842M343.972 360.228H387.586M343.972 403.842V447.455M343.972 403.842H387.586M343.972 447.455V491.069M343.972 447.455H387.586M343.972 491.069V534.683M343.972 491.069H387.586M343.972 534.683V578.297M343.972 534.683H387.586M343.972 578.297V621.911M343.972 578.297H387.586M343.972 621.911V665.525M343.972 621.911H387.586M343.972 665.525V709.139M343.972 665.525H387.586M343.972 709.139V752.752M343.972 709.139H387.586M343.972 752.752V796.366M343.972 752.752H387.586M343.972 796.366V839.98M343.972 796.366H387.586M343.972 839.98V883.594M343.972 839.98H387.586M343.972 883.594V927.208M343.972 883.594H387.586M343.972 927.208V970.822M343.972 927.208H387.586M343.972 970.822V1014.44M343.972 970.822H387.586M343.972 1014.44V1058.05M343.972 1014.44H387.586M343.972 1058.05V1101.66M343.972 1058.05H387.586M343.972 1101.66V1145.28M343.972 1101.66H387.586M343.972 1145.28H387.586M387.586 273V316.614M387.586 273H431.2M387.586 316.614V360.228M387.586 316.614H431.2M387.586 360.228V403.842M387.586 360.228H431.2M387.586 403.842V447.455M387.586 403.842H431.2M387.586 447.455V491.069M387.586 447.455H431.2M387.586 491.069V534.683M387.586 491.069H431.2M387.586 534.683V578.297M387.586 534.683H431.2M387.586 578.297V621.911M387.586 578.297H431.2M387.586 621.911V665.525M387.586 621.911H431.2M387.586 665.525V709.139M387.586 665.525H431.2M387.586 709.139V752.752M387.586 709.139H431.2M387.586 752.752V796.366M387.586 752.752H431.2M387.586 796.366V839.98M387.586 796.366H431.2M387.586 839.98V883.594M387.586 839.98H431.2M387.586 883.594V927.208M387.586 883.594H431.2M387.586 927.208V970.822M387.586 927.208H431.2M387.586 970.822V1014.44M387.586 970.822H431.2M387.586 1014.44V1058.05M387.586 1014.44H431.2M387.586 1058.05V1101.66M387.586 1058.05H431.2M387.586 1101.66V1145.28M387.586 1101.66H431.2M387.586 1145.28H431.2M431.2 273V316.614M431.2 273H474.814M431.2 316.614V360.228M431.2 316.614H474.814M431.2 360.228V403.842M431.2 360.228H474.814M431.2 403.842V447.455M431.2 403.842H474.814M431.2 447.455V491.069M431.2 447.455H474.814M431.2 491.069V534.683M431.2 491.069H474.814M431.2 534.683V578.297M431.2 534.683H474.814M431.2 578.297V621.911M431.2 578.297H474.814M431.2 621.911V665.525M431.2 621.911H474.814M431.2 665.525V709.139M431.2 665.525H474.814M431.2 709.139V752.752M431.2 709.139H474.814M431.2 752.752V796.366M431.2 752.752H474.814M431.2 796.366V839.98M431.2 796.366H474.814M431.2 839.98V883.594M431.2 839.98H474.814M431.2 883.594V927.208M431.2 883.594H474.814M431.2 927.208V970.822M431.2 927.208H474.814M431.2 970.822V1014.44M431.2 970.822H474.814M431.2 1014.44V1058.05M431.2 1014.44H474.814M431.2 1058.05V1101.66M431.2 1058.05H474.814M431.2 1101.66V1145.28M431.2 1101.66H474.814M431.2 1145.28H474.814M474.814 273V316.614M474.814 273H518.428M474.814 316.614V360.228M474.814 316.614H518.428M474.814 360.228V403.842M474.814 360.228H518.428M474.814 403.842V447.455M474.814 403.842H518.428M474.814 447.455V491.069M474.814 447.455H518.428M474.814 491.069V534.683M474.814 491.069H518.428M474.814 534.683V578.297M474.814 534.683H518.428M474.814 578.297V621.911M474.814 578.297H518.428M474.814 621.911V665.525M474.814 621.911H518.428M474.814 665.525V709.139M474.814 665.525H518.428M474.814 709.139V752.752M474.814 709.139H518.428M474.814 752.752V796.366M474.814 752.752H518.428M474.814 796.366V839.98M474.814 796.366H518.428M474.814 839.98V883.594M474.814 839.98H518.428M474.814 883.594V927.208M474.814 883.594H518.428M474.814 927.208V970.822M474.814 927.208H518.428M474.814 970.822V1014.44M474.814 970.822H518.428M474.814 1014.44V1058.05M474.814 1014.44H518.428M474.814 1058.05V1101.66M474.814 1058.05H518.428M474.814 1101.66V1145.28M474.814 1101.66H518.428M474.814 1145.28H518.428M518.428 273V316.614M518.428 273H562.042M518.428 316.614V360.228M518.428 316.614H562.042M518.428 360.228V403.842M518.428 360.228H562.042M518.428 403.842V447.455M518.428 403.842H562.042M518.428 447.455V491.069M518.428 447.455H562.042M518.428 491.069V534.683M518.428 491.069H562.042M518.428 534.683V578.297M518.428 534.683H562.042M518.428 578.297V621.911M518.428 578.297H562.042M518.428 621.911V665.525M518.428 621.911H562.042M518.428 665.525V709.139M518.428 665.525H562.042M518.428 709.139V752.752M518.428 709.139H562.042M518.428 752.752V796.366M518.428 752.752H562.042M518.428 796.366V839.98M518.428 796.366H562.042M518.428 839.98V883.594M518.428 839.98H562.042M518.428 883.594V927.208M518.428 883.594H562.042M518.428 927.208V970.822M518.428 927.208H562.042M518.428 970.822V1014.44M518.428 970.822H562.042M518.428 1014.44V1058.05M518.428 1014.44H562.042M518.428 1058.05V1101.66M518.428 1058.05H562.042M518.428 1101.66V1145.28M518.428 1101.66H562.042M518.428 1145.28H562.042M562.042 273V316.614M562.042 273H605.655M562.042 316.614V360.228M562.042 316.614H605.655M562.042 360.228V403.842M562.042 360.228H605.655M562.042 403.842V447.455M562.042 403.842H605.655M562.042 447.455V491.069M562.042 447.455H605.655M562.042 491.069V534.683M562.042 491.069H605.655M562.042 534.683V578.297M562.042 534.683H605.655M562.042 578.297V621.911M562.042 578.297H605.655M562.042 621.911V665.525M562.042 621.911H605.655M562.042 665.525V709.139M562.042 665.525H605.655M562.042 709.139V752.752M562.042 709.139H605.655M562.042 752.752V796.366M562.042 752.752H605.655M562.042 796.366V839.98M562.042 796.366H605.655M562.042 839.98V883.594M562.042 839.98H605.655M562.042 883.594V927.208M562.042 883.594H605.655M562.042 927.208V970.822M562.042 927.208H605.655M562.042 970.822V1014.44M562.042 970.822H605.655M562.042 1014.44V1058.05M562.042 1014.44H605.655M562.042 1058.05V1101.66M562.042 1058.05H605.655M562.042 1101.66V1145.28M562.042 1101.66H605.655M562.042 1145.28H605.655M605.655 273V316.614M605.655 273H649.269M605.655 316.614V360.228M605.655 316.614H649.269M605.655 360.228V403.842M605.655 360.228H649.269M605.655 403.842V447.455M605.655 403.842H649.269M605.655 447.455V491.069M605.655 447.455H649.269M605.655 491.069V534.683M605.655 491.069H649.269M605.655 534.683V578.297M605.655 534.683H649.269M605.655 578.297V621.911M605.655 578.297H649.269M605.655 621.911V665.525M605.655 621.911H649.269M605.655 665.525V709.139M605.655 665.525H649.269M605.655 709.139V752.752M605.655 709.139H649.269M605.655 752.752V796.366M605.655 752.752H649.269M605.655 796.366V839.98M605.655 796.366H649.269M605.655 839.98V883.594M605.655 839.98H649.269M605.655 883.594V927.208M605.655 883.594H649.269M605.655 927.208V970.822M605.655 927.208H649.269M605.655 970.822V1014.44M605.655 970.822H649.269M605.655 1014.44V1058.05M605.655 1014.44H649.269M605.655 1058.05V1101.66M605.655 1058.05H649.269M605.655 1101.66V1145.28M605.655 1101.66H649.269M605.655 1145.28H649.269M649.269 273V316.614M649.269 273H692.883M649.269 316.614V360.228M649.269 316.614H692.883M649.269 360.228V403.842M649.269 360.228H692.883M649.269 403.842V447.455M649.269 403.842H692.883M649.269 447.455V491.069M649.269 447.455H692.883M649.269 491.069V534.683M649.269 491.069H692.883M649.269 534.683V578.297M649.269 534.683H692.883M649.269 578.297V621.911M649.269 578.297H692.883M649.269 621.911V665.525M649.269 621.911H692.883M649.269 665.525V709.139M649.269 665.525H692.883M649.269 709.139V752.752M649.269 709.139H692.883M649.269 752.752V796.366M649.269 752.752H692.883M649.269 796.366V839.98M649.269 796.366H692.883M649.269 839.98V883.594M649.269 839.98H692.883M649.269 883.594V927.208M649.269 883.594H692.883M649.269 927.208V970.822M649.269 927.208H692.883M649.269 970.822V1014.44M649.269 970.822H692.883M649.269 1014.44V1058.05M649.269 1014.44H692.883M649.269 1058.05V1101.66M649.269 1058.05H692.883M649.269 1101.66V1145.28M649.269 1101.66H692.883M649.269 1145.28H692.883M692.883 273V316.614M692.883 273H736.497M692.883 316.614V360.228M692.883 316.614H736.497M692.883 360.228V403.842M692.883 360.228H736.497M692.883 403.842V447.455M692.883 403.842H736.497M692.883 447.455V491.069M692.883 447.455H736.497M692.883 491.069V534.683M692.883 491.069H736.497M692.883 534.683V578.297M692.883 534.683H736.497M692.883 578.297V621.911M692.883 578.297H736.497M692.883 621.911V665.525M692.883 621.911H736.497M692.883 665.525V709.139M692.883 665.525H736.497M692.883 709.139V752.752M692.883 709.139H736.497M692.883 752.752V796.366M692.883 752.752H736.497M692.883 796.366V839.98M692.883 796.366H736.497M692.883 839.98V883.594M692.883 839.98H736.497M692.883 883.594V927.208M692.883 883.594H736.497M692.883 927.208V970.822M692.883 927.208H736.497M692.883 970.822V1014.44M692.883 970.822H736.497M692.883 1014.44V1058.05M692.883 1014.44H736.497M692.883 1058.05V1101.66M692.883 1058.05H736.497M692.883 1101.66V1145.28M692.883 1101.66H736.497M692.883 1145.28H736.497M736.497 273V316.614M736.497 273H780.111M736.497 316.614V360.228M736.497 316.614H780.111M736.497 360.228V403.842M736.497 360.228H780.111M736.497 403.842V447.455M736.497 403.842H780.111M736.497 447.455V491.069M736.497 447.455H780.111M736.497 491.069V534.683M736.497 491.069H780.111M736.497 534.683V578.297M736.497 534.683H780.111M736.497 578.297V621.911M736.497 578.297H780.111M736.497 621.911V665.525M736.497 621.911H780.111M736.497 665.525V709.139M736.497 665.525H780.111M736.497 709.139V752.752M736.497 709.139H780.111M736.497 752.752V796.366M736.497 752.752H780.111M736.497 796.366V839.98M736.497 796.366H780.111M736.497 839.98V883.594M736.497 839.98H780.111M736.497 883.594V927.208M736.497 883.594H780.111M736.497 927.208V970.822M736.497 927.208H780.111M736.497 970.822V1014.44M736.497 970.822H780.111M736.497 1014.44V1058.05M736.497 1014.44H780.111M736.497 1058.05V1101.66M736.497 1058.05H780.111M736.497 1101.66V1145.28M736.497 1101.66H780.111M736.497 1145.28H780.111M780.111 273V316.614M780.111 273H823.725M780.111 316.614V360.228M780.111 316.614H823.725M780.111 360.228V403.842M780.111 360.228H823.725M780.111 403.842V447.455M780.111 403.842H823.725M780.111 447.455V491.069M780.111 447.455H823.725M780.111 491.069V534.683M780.111 491.069H823.725M780.111 534.683V578.297M780.111 534.683H823.725M780.111 578.297V621.911M780.111 578.297H823.725M780.111 621.911V665.525M780.111 621.911H823.725M780.111 665.525V709.139M780.111 665.525H823.725M780.111 709.139V752.752M780.111 709.139H823.725M780.111 752.752V796.366M780.111 752.752H823.725M780.111 796.366V839.98M780.111 796.366H823.725M780.111 839.98V883.594M780.111 839.98H823.725M780.111 883.594V927.208M780.111 883.594H823.725M780.111 927.208V970.822M780.111 927.208H823.725M780.111 970.822V1014.44M780.111 970.822H823.725M780.111 1014.44V1058.05M780.111 1014.44H823.725M780.111 1058.05V1101.66M780.111 1058.05H823.725M780.111 1101.66V1145.28M780.111 1101.66H823.725M780.111 1145.28H823.725M823.725 273V316.614M823.725 273H867.339M823.725 316.614V360.228M823.725 316.614H867.339M823.725 360.228V403.842M823.725 360.228H867.339M823.725 403.842V447.455M823.725 403.842H867.339M823.725 447.455V491.069M823.725 447.455H867.339M823.725 491.069V534.683M823.725 491.069H867.339M823.725 534.683V578.297M823.725 534.683H867.339M823.725 578.297V621.911M823.725 578.297H867.339M823.725 621.911V665.525M823.725 621.911H867.339M823.725 665.525V709.139M823.725 665.525H867.339M823.725 709.139V752.752M823.725 709.139H867.339M823.725 752.752V796.366M823.725 752.752H867.339M823.725 796.366V839.98M823.725 796.366H867.339M823.725 839.98V883.594M823.725 839.98H867.339M823.725 883.594V927.208M823.725 883.594H867.339M823.725 927.208V970.822M823.725 927.208H867.339M823.725 970.822V1014.44M823.725 970.822H867.339M823.725 1014.44V1058.05M823.725 1014.44H867.339M823.725 1058.05V1101.66M823.725 1058.05H867.339M823.725 1101.66V1145.28M823.725 1101.66H867.339M823.725 1145.28H867.339M867.339 273V316.614M867.339 273H910.952M867.339 316.614V360.228M867.339 316.614H910.952M867.339 360.228V403.842M867.339 360.228H910.952M867.339 403.842V447.455M867.339 403.842H910.952M867.339 447.455V491.069M867.339 447.455H910.952M867.339 491.069V534.683M867.339 491.069H910.952M867.339 534.683V578.297M867.339 534.683H910.952M867.339 578.297V621.911M867.339 578.297H910.952M867.339 621.911V665.525M867.339 621.911H910.952M867.339 665.525V709.139M867.339 665.525H910.952M867.339 709.139V752.752M867.339 709.139H910.952M867.339 752.752V796.366M867.339 752.752H910.952M867.339 796.366V839.98M867.339 796.366H910.952M867.339 839.98V883.594M867.339 839.98H910.952M867.339 883.594V927.208M867.339 883.594H910.952M867.339 927.208V970.822M867.339 927.208H910.952M867.339 970.822V1014.44M867.339 970.822H910.952M867.339 1014.44V1058.05M867.339 1014.44H910.952M867.339 1058.05V1101.66M867.339 1058.05H910.952M867.339 1101.66V1145.28M867.339 1101.66H910.952M867.339 1145.28H910.952M910.952 273V316.614M910.952 273H954.566M910.952 316.614V360.228M910.952 316.614H954.566M910.952 360.228V403.842M910.952 360.228H954.566M910.952 403.842V447.455M910.952 403.842H954.566M910.952 447.455V491.069M910.952 447.455H954.566M910.952 491.069V534.683M910.952 491.069H954.566M910.952 534.683V578.297M910.952 534.683H954.566M910.952 578.297V621.911M910.952 578.297H954.566M910.952 621.911V665.525M910.952 621.911H954.566M910.952 665.525V709.139M910.952 665.525H954.566M910.952 709.139V752.752M910.952 709.139H954.566M910.952 752.752V796.366M910.952 752.752H954.566M910.952 796.366V839.98M910.952 796.366H954.566M910.952 839.98V883.594M910.952 839.98H954.566M910.952 883.594V927.208M910.952 883.594H954.566M910.952 927.208V970.822M910.952 927.208H954.566M910.952 970.822V1014.44M910.952 970.822H954.566M910.952 1014.44V1058.05M910.952 1014.44H954.566M910.952 1058.05V1101.66M910.952 1058.05H954.566M910.952 1101.66V1145.28M910.952 1101.66H954.566M910.952 1145.28H954.566M954.566 273V316.614M954.566 273H998.18M954.566 316.614V360.228M954.566 316.614H998.18M954.566 360.228V403.842M954.566 360.228H998.18M954.566 403.842V447.455M954.566 403.842H998.18M954.566 447.455V491.069M954.566 447.455H998.18M954.566 491.069V534.683M954.566 491.069H998.18M954.566 534.683V578.297M954.566 534.683H998.18M954.566 578.297V621.911M954.566 578.297H998.18M954.566 621.911V665.525M954.566 621.911H998.18M954.566 665.525V709.139M954.566 665.525H998.18M954.566 709.139V752.752M954.566 709.139H998.18M954.566 752.752V796.366M954.566 752.752H998.18M954.566 796.366V839.98M954.566 796.366H998.18M954.566 839.98V883.594M954.566 839.98H998.18M954.566 883.594V927.208M954.566 883.594H998.18M954.566 927.208V970.822M954.566 927.208H998.18M954.566 970.822V1014.44M954.566 970.822H998.18M954.566 1014.44V1058.05M954.566 1014.44H998.18M954.566 1058.05V1101.66M954.566 1058.05H998.18M954.566 1101.66V1145.28M954.566 1101.66H998.18M954.566 1145.28H998.18M998.18 273V316.614M998.18 273H1041.79M998.18 316.614V360.228M998.18 316.614H1041.79M998.18 360.228V403.842M998.18 360.228H1041.79M998.18 403.842V447.455M998.18 403.842H1041.79M998.18 447.455V491.069M998.18 447.455H1041.79M998.18 491.069V534.683M998.18 491.069H1041.79M998.18 534.683V578.297M998.18 534.683H1041.79M998.18 578.297V621.911M998.18 578.297H1041.79M998.18 621.911V665.525M998.18 621.911H1041.79M998.18 665.525V709.139M998.18 665.525H1041.79M998.18 709.139V752.752M998.18 709.139H1041.79M998.18 752.752V796.366M998.18 752.752H1041.79M998.18 796.366V839.98M998.18 796.366H1041.79M998.18 839.98V883.594M998.18 839.98H1041.79M998.18 883.594V927.208M998.18 883.594H1041.79M998.18 927.208V970.822M998.18 927.208H1041.79M998.18 970.822V1014.44M998.18 970.822H1041.79M998.18 1014.44V1058.05M998.18 1014.44H1041.79M998.18 1058.05V1101.66M998.18 1058.05H1041.79M998.18 1101.66V1145.28M998.18 1101.66H1041.79M998.18 1145.28H1041.79M1041.79 273V316.614M1041.79 273H1085.41M1041.79 316.614V360.228M1041.79 316.614H1085.41M1041.79 360.228V403.842M1041.79 360.228H1085.41M1041.79 403.842V447.455M1041.79 403.842H1085.41M1041.79 447.455V491.069M1041.79 447.455H1085.41M1041.79 491.069V534.683M1041.79 491.069H1085.41M1041.79 534.683V578.297M1041.79 534.683H1085.41M1041.79 578.297V621.911M1041.79 578.297H1085.41M1041.79 621.911V665.525M1041.79 621.911H1085.41M1041.79 665.525V709.139M1041.79 665.525H1085.41M1041.79 709.139V752.752M1041.79 709.139H1085.41M1041.79 752.752V796.366M1041.79 752.752H1085.41M1041.79 796.366V839.98M1041.79 796.366H1085.41M1041.79 839.98V883.594M1041.79 839.98H1085.41M1041.79 883.594V927.208M1041.79 883.594H1085.41M1041.79 927.208V970.822M1041.79 927.208H1085.41M1041.79 970.822V1014.44M1041.79 970.822H1085.41M1041.79 1014.44V1058.05M1041.79 1014.44H1085.41M1041.79 1058.05V1101.66M1041.79 1058.05H1085.41M1041.79 1101.66V1145.28M1041.79 1101.66H1085.41M1041.79 1145.28H1085.41M1085.41 273V316.614M1085.41 273H1129.02M1085.41 316.614V360.228M1085.41 316.614H1129.02M1085.41 360.228V403.842M1085.41 360.228H1129.02M1085.41 403.842V447.455M1085.41 403.842H1129.02M1085.41 447.455V491.069M1085.41 447.455H1129.02M1085.41 491.069V534.683M1085.41 491.069H1129.02M1085.41 534.683V578.297M1085.41 534.683H1129.02M1085.41 578.297V621.911M1085.41 578.297H1129.02M1085.41 621.911V665.525M1085.41 621.911H1129.02M1085.41 665.525V709.139M1085.41 665.525H1129.02M1085.41 709.139V752.752M1085.41 709.139H1129.02M1085.41 752.752V796.366M1085.41 752.752H1129.02M1085.41 796.366V839.98M1085.41 796.366H1129.02M1085.41 839.98V883.594M1085.41 839.98H1129.02M1085.41 883.594V927.208M1085.41 883.594H1129.02M1085.41 927.208V970.822M1085.41 927.208H1129.02M1085.41 970.822V1014.44M1085.41 970.822H1129.02M1085.41 1014.44V1058.05M1085.41 1014.44H1129.02M1085.41 1058.05V1101.66M1085.41 1058.05H1129.02M1085.41 1101.66V1145.28M1085.41 1101.66H1129.02M1085.41 1145.28H1129.02M1129.02 273V316.614M1129.02 273H1172.64M1129.02 316.614V360.228M1129.02 316.614H1172.64M1129.02 360.228V403.842M1129.02 360.228H1172.64M1129.02 403.842V447.455M1129.02 403.842H1172.64M1129.02 447.455V491.069M1129.02 447.455H1172.64M1129.02 491.069V534.683M1129.02 491.069H1172.64M1129.02 534.683V578.297M1129.02 534.683H1172.64M1129.02 578.297V621.911M1129.02 578.297H1172.64M1129.02 621.911V665.525M1129.02 621.911H1172.64M1129.02 665.525V709.139M1129.02 665.525H1172.64M1129.02 709.139V752.752M1129.02 709.139H1172.64M1129.02 752.752V796.366M1129.02 752.752H1172.64M1129.02 796.366V839.98M1129.02 796.366H1172.64M1129.02 839.98V883.594M1129.02 839.98H1172.64M1129.02 883.594V927.208M1129.02 883.594H1172.64M1129.02 927.208V970.822M1129.02 927.208H1172.64M1129.02 970.822V1014.44M1129.02 970.822H1172.64M1129.02 1014.44V1058.05M1129.02 1014.44H1172.64M1129.02 1058.05V1101.66M1129.02 1058.05H1172.64M1129.02 1101.66V1145.28M1129.02 1101.66H1172.64M1129.02 1145.28H1172.64M1172.64 273V316.614M1172.64 273H1216.25M1172.64 316.614V360.228M1172.64 316.614H1216.25M1172.64 360.228V403.842M1172.64 360.228H1216.25M1172.64 403.842V447.455M1172.64 403.842H1216.25M1172.64 447.455V491.069M1172.64 447.455H1216.25M1172.64 491.069V534.683M1172.64 491.069H1216.25M1172.64 534.683V578.297M1172.64 534.683H1216.25M1172.64 578.297V621.911M1172.64 578.297H1216.25M1172.64 621.911V665.525M1172.64 621.911H1216.25M1172.64 665.525V709.139M1172.64 665.525H1216.25M1172.64 709.139V752.752M1172.64 709.139H1216.25M1172.64 752.752V796.366M1172.64 752.752H1216.25M1172.64 796.366V839.98M1172.64 796.366H1216.25M1172.64 839.98V883.594M1172.64 839.98H1216.25M1172.64 883.594V927.208M1172.64 883.594H1216.25M1172.64 927.208V970.822M1172.64 927.208H1216.25M1172.64 970.822V1014.44M1172.64 970.822H1216.25M1172.64 1014.44V1058.05M1172.64 1014.44H1216.25M1172.64 1058.05V1101.66M1172.64 1058.05H1216.25M1172.64 1101.66V1145.28M1172.64 1101.66H1216.25M1172.64 1145.28H1216.25M1216.25 273V316.614M1216.25 273H1259.86M1216.25 316.614V360.228M1216.25 316.614H1259.86M1216.25 360.228V403.842M1216.25 360.228H1259.86M1216.25 403.842V447.455M1216.25 403.842H1259.86M1216.25 447.455V491.069M1216.25 447.455H1259.86M1216.25 491.069V534.683M1216.25 491.069H1259.86M1216.25 534.683V578.297M1216.25 534.683H1259.86M1216.25 578.297V621.911M1216.25 578.297H1259.86M1216.25 621.911V665.525M1216.25 621.911H1259.86M1216.25 665.525V709.139M1216.25 665.525H1259.86M1216.25 709.139V752.752M1216.25 709.139H1259.86M1216.25 752.752V796.366M1216.25 752.752H1259.86M1216.25 796.366V839.98M1216.25 796.366H1259.86M1216.25 839.98V883.594M1216.25 839.98H1259.86M1216.25 883.594V927.208M1216.25 883.594H1259.86M1216.25 927.208V970.822M1216.25 927.208H1259.86M1216.25 970.822V1014.44M1216.25 970.822H1259.86M1216.25 1014.44V1058.05M1216.25 1014.44H1259.86M1216.25 1058.05V1101.66M1216.25 1058.05H1259.86M1216.25 1101.66V1145.28M1216.25 1101.66H1259.86M1216.25 1145.28H1259.86M1259.86 273V316.614M1259.86 273H1303.48M1259.86 316.614V360.228M1259.86 316.614H1303.48M1259.86 360.228V403.842M1259.86 360.228H1303.48M1259.86 403.842V447.455M1259.86 403.842H1303.48M1259.86 447.455V491.069M1259.86 447.455H1303.48M1259.86 491.069V534.683M1259.86 491.069H1303.48M1259.86 534.683V578.297M1259.86 534.683H1303.48M1259.86 578.297V621.911M1259.86 578.297H1303.48M1259.86 621.911V665.525M1259.86 621.911H1303.48M1259.86 665.525V709.139M1259.86 665.525H1303.48M1259.86 709.139V752.752M1259.86 709.139H1303.48M1259.86 752.752V796.366M1259.86 752.752H1303.48M1259.86 796.366V839.98M1259.86 796.366H1303.48M1259.86 839.98V883.594M1259.86 839.98H1303.48M1259.86 883.594V927.208M1259.86 883.594H1303.48M1259.86 927.208V970.822M1259.86 927.208H1303.48M1259.86 970.822V1014.44M1259.86 970.822H1303.48M1259.86 1014.44V1058.05M1259.86 1014.44H1303.48M1259.86 1058.05V1101.66M1259.86 1058.05H1303.48M1259.86 1101.66V1145.28M1259.86 1101.66H1303.48M1259.86 1145.28H1303.48M1303.48 273V316.614M1303.48 273H1347.09M1303.48 316.614V360.228M1303.48 316.614H1347.09M1303.48 360.228V403.842M1303.48 360.228H1347.09M1303.48 403.842V447.455M1303.48 403.842H1347.09M1303.48 447.455V491.069M1303.48 447.455H1347.09M1303.48 491.069V534.683M1303.48 491.069H1347.09M1303.48 534.683V578.297M1303.48 534.683H1347.09M1303.48 578.297V621.911M1303.48 578.297H1347.09M1303.48 621.911V665.525M1303.48 621.911H1347.09M1303.48 665.525V709.139M1303.48 665.525H1347.09M1303.48 709.139V752.752M1303.48 709.139H1347.09M1303.48 752.752V796.366M1303.48 752.752H1347.09M1303.48 796.366V839.98M1303.48 796.366H1347.09M1303.48 839.98V883.594M1303.48 839.98H1347.09M1303.48 883.594V927.208M1303.48 883.594H1347.09M1303.48 927.208V970.822M1303.48 927.208H1347.09M1303.48 970.822V1014.44M1303.48 970.822H1347.09M1303.48 1014.44V1058.05M1303.48 1014.44H1347.09M1303.48 1058.05V1101.66M1303.48 1058.05H1347.09M1303.48 1101.66V1145.28M1303.48 1101.66H1347.09M1303.48 1145.28H1347.09M1347.09 273V316.614M1347.09 273H1390.7M1347.09 316.614V360.228M1347.09 316.614H1390.7M1347.09 360.228V403.842M1347.09 360.228H1390.7M1347.09 403.842V447.455M1347.09 403.842H1390.7M1347.09 447.455V491.069M1347.09 447.455H1390.7M1347.09 491.069V534.683M1347.09 491.069H1390.7M1347.09 534.683V578.297M1347.09 534.683H1390.7M1347.09 578.297V621.911M1347.09 578.297H1390.7M1347.09 621.911V665.525M1347.09 621.911H1390.7M1347.09 665.525V709.139M1347.09 665.525H1390.7M1347.09 709.139V752.752M1347.09 709.139H1390.7M1347.09 752.752V796.366M1347.09 752.752H1390.7M1347.09 796.366V839.98M1347.09 796.366H1390.7M1347.09 839.98V883.594M1347.09 839.98H1390.7M1347.09 883.594V927.208M1347.09 883.594H1390.7M1347.09 927.208V970.822M1347.09 927.208H1390.7M1347.09 970.822V1014.44M1347.09 970.822H1390.7M1347.09 1014.44V1058.05M1347.09 1014.44H1390.7M1347.09 1058.05V1101.66M1347.09 1058.05H1390.7M1347.09 1101.66V1145.28M1347.09 1101.66H1390.7M1347.09 1145.28H1390.7M1390.7 273V316.614M1390.7 273H1434.32M1390.7 316.614V360.228M1390.7 316.614H1434.32M1390.7 360.228V403.842M1390.7 360.228H1434.32M1390.7 403.842V447.455M1390.7 403.842H1434.32M1390.7 447.455V491.069M1390.7 447.455H1434.32M1390.7 491.069V534.683M1390.7 491.069H1434.32M1390.7 534.683V578.297M1390.7 534.683H1434.32M1390.7 578.297V621.911M1390.7 578.297H1434.32M1390.7 621.911V665.525M1390.7 621.911H1434.32M1390.7 665.525V709.139M1390.7 665.525H1434.32M1390.7 709.139V752.752M1390.7 709.139H1434.32M1390.7 752.752V796.366M1390.7 752.752H1434.32M1390.7 796.366V839.98M1390.7 796.366H1434.32M1390.7 839.98V883.594M1390.7 839.98H1434.32M1390.7 883.594V927.208M1390.7 883.594H1434.32M1390.7 927.208V970.822M1390.7 927.208H1434.32M1390.7 970.822V1014.44M1390.7 970.822H1434.32M1390.7 1014.44V1058.05M1390.7 1014.44H1434.32M1390.7 1058.05V1101.66M1390.7 1058.05H1434.32M1390.7 1101.66V1145.28M1390.7 1101.66H1434.32M1390.7 1145.28H1434.32M1434.32 273V316.614M1434.32 273H1477.93M1434.32 316.614V360.228M1434.32 316.614H1477.93M1434.32 360.228V403.842M1434.32 360.228H1477.93M1434.32 403.842V447.455M1434.32 403.842H1477.93M1434.32 447.455V491.069M1434.32 447.455H1477.93M1434.32 491.069V534.683M1434.32 491.069H1477.93M1434.32 534.683V578.297M1434.32 534.683H1477.93M1434.32 578.297V621.911M1434.32 578.297H1477.93M1434.32 621.911V665.525M1434.32 621.911H1477.93M1434.32 665.525V709.139M1434.32 665.525H1477.93M1434.32 709.139V752.752M1434.32 709.139H1477.93M1434.32 752.752V796.366M1434.32 752.752H1477.93M1434.32 796.366V839.98M1434.32 796.366H1477.93M1434.32 839.98V883.594M1434.32 839.98H1477.93M1434.32 883.594V927.208M1434.32 883.594H1477.93M1434.32 927.208V970.822M1434.32 927.208H1477.93M1434.32 970.822V1014.44M1434.32 970.822H1477.93M1434.32 1014.44V1058.05M1434.32 1014.44H1477.93M1434.32 1058.05V1101.66M1434.32 1058.05H1477.93M1434.32 1101.66V1145.28M1434.32 1101.66H1477.93M1434.32 1145.28H1477.93M1477.93 273V316.614M1477.93 273H1521.55M1477.93 316.614V360.228M1477.93 316.614H1521.55M1477.93 360.228V403.842M1477.93 360.228H1521.55M1477.93 403.842V447.455M1477.93 403.842H1521.55M1477.93 447.455V491.069M1477.93 447.455H1521.55M1477.93 491.069V534.683M1477.93 491.069H1521.55M1477.93 534.683V578.297M1477.93 534.683H1521.55M1477.93 578.297V621.911M1477.93 578.297H1521.55M1477.93 621.911V665.525M1477.93 621.911H1521.55M1477.93 665.525V709.139M1477.93 665.525H1521.55M1477.93 709.139V752.752M1477.93 709.139H1521.55M1477.93 752.752V796.366M1477.93 752.752H1521.55M1477.93 796.366V839.98M1477.93 796.366H1521.55M1477.93 839.98V883.594M1477.93 839.98H1521.55M1477.93 883.594V927.208M1477.93 883.594H1521.55M1477.93 927.208V970.822M1477.93 927.208H1521.55M1477.93 970.822V1014.44M1477.93 970.822H1521.55M1477.93 1014.44V1058.05M1477.93 1014.44H1521.55M1477.93 1058.05V1101.66M1477.93 1058.05H1521.55M1477.93 1101.66V1145.28M1477.93 1101.66H1521.55M1477.93 1145.28H1521.55M1521.55 273V316.614M1521.55 273H1565.16M1521.55 316.614V360.228M1521.55 316.614H1565.16M1521.55 360.228V403.842M1521.55 360.228H1565.16M1521.55 403.842V447.455M1521.55 403.842H1565.16M1521.55 447.455V491.069M1521.55 447.455H1565.16M1521.55 491.069V534.683M1521.55 491.069H1565.16M1521.55 534.683V578.297M1521.55 534.683H1565.16M1521.55 578.297V621.911M1521.55 578.297H1565.16M1521.55 621.911V665.525M1521.55 621.911H1565.16M1521.55 665.525V709.139M1521.55 665.525H1565.16M1521.55 709.139V752.752M1521.55 709.139H1565.16M1521.55 752.752V796.366M1521.55 752.752H1565.16M1521.55 796.366V839.98M1521.55 796.366H1565.16M1521.55 839.98V883.594M1521.55 839.98H1565.16M1521.55 883.594V927.208M1521.55 883.594H1565.16M1521.55 927.208V970.822M1521.55 927.208H1565.16M1521.55 970.822V1014.44M1521.55 970.822H1565.16M1521.55 1014.44V1058.05M1521.55 1014.44H1565.16M1521.55 1058.05V1101.66M1521.55 1058.05H1565.16M1521.55 1101.66V1145.28M1521.55 1101.66H1565.16M1521.55 1145.28H1565.16M1565.16 273V316.614M1565.16 273H1608.77M1565.16 316.614V360.228M1565.16 316.614H1608.77M1565.16 360.228V403.842M1565.16 360.228H1608.77M1565.16 403.842V447.455M1565.16 403.842H1608.77M1565.16 447.455V491.069M1565.16 447.455H1608.77M1565.16 491.069V534.683M1565.16 491.069H1608.77M1565.16 534.683V578.297M1565.16 534.683H1608.77M1565.16 578.297V621.911M1565.16 578.297H1608.77M1565.16 621.911V665.525M1565.16 621.911H1608.77M1565.16 665.525V709.139M1565.16 665.525H1608.77M1565.16 709.139V752.752M1565.16 709.139H1608.77M1565.16 752.752V796.366M1565.16 752.752H1608.77M1565.16 796.366V839.98M1565.16 796.366H1608.77M1565.16 839.98V883.594M1565.16 839.98H1608.77M1565.16 883.594V927.208M1565.16 883.594H1608.77M1565.16 927.208V970.822M1565.16 927.208H1608.77M1565.16 970.822V1014.44M1565.16 970.822H1608.77M1565.16 1014.44V1058.05M1565.16 1014.44H1608.77M1565.16 1058.05V1101.66M1565.16 1058.05H1608.77M1565.16 1101.66V1145.28M1565.16 1101.66H1608.77M1565.16 1145.28H1608.77M1608.77 273V316.614M1608.77 273H1652.39M1608.77 316.614V360.228M1608.77 316.614H1652.39M1608.77 360.228V403.842M1608.77 360.228H1652.39M1608.77 403.842V447.455M1608.77 403.842H1652.39M1608.77 447.455V491.069M1608.77 447.455H1652.39M1608.77 491.069V534.683M1608.77 491.069H1652.39M1608.77 534.683V578.297M1608.77 534.683H1652.39M1608.77 578.297V621.911M1608.77 578.297H1652.39M1608.77 621.911V665.525M1608.77 621.911H1652.39M1608.77 665.525V709.139M1608.77 665.525H1652.39M1608.77 709.139V752.752M1608.77 709.139H1652.39M1608.77 752.752V796.366M1608.77 752.752H1652.39M1608.77 796.366V839.98M1608.77 796.366H1652.39M1608.77 839.98V883.594M1608.77 839.98H1652.39M1608.77 883.594V927.208M1608.77 883.594H1652.39M1608.77 927.208V970.822M1608.77 927.208H1652.39M1608.77 970.822V1014.44M1608.77 970.822H1652.39M1608.77 1014.44V1058.05M1608.77 1014.44H1652.39M1608.77 1058.05V1101.66M1608.77 1058.05H1652.39M1608.77 1101.66V1145.28M1608.77 1101.66H1652.39M1608.77 1145.28H1652.39M1652.39 273V316.614M1652.39 273H1696V316.614M1652.39 316.614V360.228M1652.39 316.614H1696M1652.39 360.228V403.842M1652.39 360.228H1696M1652.39 403.842V447.455M1652.39 403.842H1696M1652.39 447.455V491.069M1652.39 447.455H1696M1652.39 491.069V534.683M1652.39 491.069H1696M1652.39 534.683V578.297M1652.39 534.683H1696M1652.39 578.297V621.911M1652.39 578.297H1696M1652.39 621.911V665.525M1652.39 621.911H1696M1652.39 665.525V709.139M1652.39 665.525H1696M1652.39 709.139V752.752M1652.39 709.139H1696M1652.39 752.752V796.366M1652.39 752.752H1696M1652.39 796.366V839.98M1652.39 796.366H1696M1652.39 839.98V883.594M1652.39 839.98H1696M1652.39 883.594V927.208M1652.39 883.594H1696M1652.39 927.208V970.822M1652.39 927.208H1696M1652.39 970.822V1014.44M1652.39 970.822H1696M1652.39 1014.44V1058.05M1652.39 1014.44H1696M1652.39 1058.05V1101.66M1652.39 1058.05H1696M1652.39 1101.66V1145.28M1652.39 1101.66H1696M1652.39 1145.28H1696V1101.66M1696 316.614V360.228M1696 360.228V403.842M1696 403.842V447.455M1696 447.455V491.069M1696 491.069V534.683M1696 534.683V578.297M1696 578.297V621.911M1696 621.911V665.525M1696 665.525V709.139M1696 709.139V752.752M1696 752.752V796.366M1696 796.366V839.98M1696 839.98V883.594M1696 883.594V927.208M1696 927.208V970.822M1696 970.822V1014.44M1696 1014.44V1058.05M1696 1058.05V1101.66" stroke="black" stroke-width="0.493784"/>
</g>
<path d="M205.5 546.627C180 529.294 103.4 496.027 1 501.627" stroke="url(#paint2_linear_830_21)" stroke-width="2" stroke-dasharray="9 9"/>
<g opacity="0.5" filter="url(#filter1_f_830_21)">
<path d="M154.5 519.627L213.5 536.127V554.127L198.5 561.627L154.5 519.627Z" fill="url(#paint3_linear_830_21)"/>
</g>
<g filter="url(#filter2_di_830_21)">
<path d="M205.72 526.861L204.135 544.613C204.05 545.565 203.517 546.419 202.698 546.914L188.215 555.664C185.698 557.185 186.644 561.043 189.579 561.226L230.092 563.758C232.544 563.911 234.131 561.213 232.804 559.145L211.234 525.509C209.69 523.102 205.974 524.014 205.72 526.861Z" fill="#FBCD5F"/>
</g>
<g opacity="0.8" filter="url(#filter3_f_830_21)">
<rect x="202.234" y="547.457" width="5" height="32.3837" transform="rotate(-59.3906 202.234 547.457)" fill="white"/>
</g>
<path d="M1239.5 428.627C1265 411.294 1341.6 378.027 1444 383.627" stroke="url(#paint4_linear_830_21)" stroke-width="2" stroke-dasharray="9 9"/>
<g opacity="0.5" filter="url(#filter4_f_830_21)">
<path d="M1290.5 401.627L1231.5 418.127V436.127L1246.5 443.627L1290.5 401.627Z" fill="url(#paint5_linear_830_21)"/>
</g>
<g filter="url(#filter5_di_830_21)">
<path d="M1239.28 408.861L1240.86 426.613C1240.95 427.565 1241.48 428.419 1242.3 428.914L1256.79 437.664C1259.3 439.185 1258.36 443.043 1255.42 443.226L1214.91 445.758C1212.46 445.911 1210.87 443.213 1212.2 441.145L1233.77 407.509C1235.31 405.102 1239.03 406.014 1239.28 408.861Z" fill="#0064E2"/>
</g>
<g opacity="0.4" filter="url(#filter6_f_830_21)">
<rect width="5" height="32.3837" transform="matrix(-0.509183 -0.860658 -0.860658 0.509183 1242.77 429.457)" fill="white"/>
</g>
<defs>
<filter id="filter0_f_830_21" x="136" y="0" width="1224" height="1224" filterUnits="userSpaceOnUse" color-interpolation-filters="sRGB">
<feFlood flood-opacity="0" result="BackgroundImageFix"/>
<feBlend mode="normal" in="SourceGraphic" in2="BackgroundImageFix" result="shape"/>
<feGaussianBlur stdDeviation="200" result="effect1_foregroundBlur_830_21"/>
</filter>
<filter id="filter1_f_830_21" x="122.5" y="487.627" width="123" height="106" filterUnits="userSpaceOnUse" color-interpolation-filters="sRGB">
<feFlood flood-opacity="0" result="BackgroundImageFix"/>
<feBlend mode="normal" in="SourceGraphic" in2="BackgroundImageFix" result="shape"/>
<feGaussianBlur stdDeviation="16" result="effect1_foregroundBlur_830_21"/>
</filter>
<filter id="filter2_di_830_21" x="163.263" y="504.625" width="93.5225" height="86.6396" filterUnits="userSpaceOnUse" color-interpolation-filters="sRGB">
<feFlood flood-opacity="0" result="BackgroundImageFix"/>
<feColorMatrix in="SourceAlpha" type="matrix" values="0 0 0 0 0 0 0 0 0 0 0 0 0 0 0 0 0 0 127 0" result="hardAlpha"/>
<feOffset dy="4"/>
<feGaussianBlur stdDeviation="11.75"/>
<feComposite in2="hardAlpha" operator="out"/>
<feColorMatrix type="matrix" values="0 0 0 0 0.984314 0 0 0 0 0.803922 0 0 0 0 0.372549 0 0 0 0.5 0"/>
<feBlend mode="normal" in2="BackgroundImageFix" result="effect1_dropShadow_830_21"/>
<feBlend mode="normal" in="SourceGraphic" in2="effect1_dropShadow_830_21" result="shape"/>
<feColorMatrix in="SourceAlpha" type="matrix" values="0 0 0 0 0 0 0 0 0 0 0 0 0 0 0 0 0 0 127 0" result="hardAlpha"/>
<feOffset dy="4"/>
<feGaussianBlur stdDeviation="3.15"/>
<feComposite in2="hardAlpha" operator="arithmetic" k2="-1" k3="1"/>
<feColorMatrix type="matrix" values="0 0 0 0 1 0 0 0 0 1 0 0 0 0 1 0 0 0 0.25 0"/>
<feBlend mode="normal" in2="shape" result="effect2_innerShadow_830_21"/>
</filter>
<filter id="filter3_f_830_21" x="193.634" y="534.554" width="47.6175" height="37.9926" filterUnits="userSpaceOnUse" color-interpolation-filters="sRGB">
<feFlood flood-opacity="0" result="BackgroundImageFix"/>
<feBlend mode="normal" in="SourceGraphic" in2="BackgroundImageFix" result="shape"/>
<feGaussianBlur stdDeviation="4.3" result="effect1_foregroundBlur_830_21"/>
</filter>
<filter id="filter4_f_830_21" x="1199.5" y="369.627" width="123" height="106" filterUnits="userSpaceOnUse" color-interpolation-filters="sRGB">
<feFlood flood-opacity="0" result="BackgroundImageFix"/>
<feBlend mode="normal" in="SourceGraphic" in2="BackgroundImageFix" result="shape"/>
<feGaussianBlur stdDeviation="16" result="effect1_foregroundBlur_830_21"/>
</filter>
<filter id="filter5_di_830_21" x="1188.21" y="386.625" width="93.5225" height="86.6396" filterUnits="userSpaceOnUse" color-interpolation-filters="sRGB">
<feFlood flood-opacity="0" result="BackgroundImageFix"/>
<feColorMatrix in="SourceAlpha" type="matrix" values="0 0 0 0 0 0 0 0 0 0 0 0 0 0 0 0 0 0 127 0" result="hardAlpha"/>
<feOffset dy="4"/>
<feGaussianBlur stdDeviation="11.75"/>
<feComposite in2="hardAlpha" operator="out"/>
<feColorMatrix type="matrix" values="0 0 0 0 0 0 0 0 0 0.392157 0 0 0 0 0.886275 0 0 0 0.1 0"/>
<feBlend mode="normal" in2="BackgroundImageFix" result="effect1_dropShadow_830_21"/>
<feBlend mode="normal" in="SourceGraphic" in2="effect1_dropShadow_830_21" result="shape"/>
<feColorMatrix in="SourceAlpha" type="matrix" values="0 0 0 0 0 0 0 0 0 0 0 0 0 0 0 0 0 0 127 0" result="hardAlpha"/>
<feOffset dy="4"/>
<feGaussianBlur stdDeviation="3.15"/>
<feComposite in2="hardAlpha" operator="arithmetic" k2="-1" k3="1"/>
<feColorMatrix type="matrix" values="0 0 0 0 1 0 0 0 0 1 0 0 0 0 1 0 0 0 0.25 0"/>
<feBlend mode="normal" in2="shape" result="effect2_innerShadow_830_21"/>
</filter>
<filter id="filter6_f_830_21" x="1203.75" y="416.554" width="47.6175" height="37.9926" filterUnits="userSpaceOnUse" color-interpolation-filters="sRGB">
<feFlood flood-opacity="0" result="BackgroundImageFix"/>
<feBlend mode="normal" in="SourceGraphic" in2="BackgroundImageFix" result="shape"/>
<feGaussianBlur stdDeviation="4.3" result="effect1_foregroundBlur_830_21"/>
</filter>
<linearGradient id="paint0_linear_830_21" x1="748" y1="400" x2="748" y2="824" gradientUnits="userSpaceOnUse">
<stop stop-color="#FFEA00"/>
<stop offset="0.75" stop-color="#FFEA00" stop-opacity="0"/>
</linearGradient>
<linearGradient id="paint1_linear_830_21" x1="748" y1="434" x2="748" y2="790" gradientUnits="userSpaceOnUse">
<stop stop-color="#FFEA00"/>
<stop offset="0.75" stop-color="#FFEA00" stop-opacity="0"/>
</linearGradient>
<linearGradient id="paint2_linear_830_21" x1="-5.5" y1="506.127" x2="205.5" y2="540.127" gradientUnits="userSpaceOnUse">
<stop stop-color="#FBCE62" stop-opacity="0"/>
<stop offset="1" stop-color="#FBCE62"/>
</linearGradient>
<linearGradient id="paint3_linear_830_21" x1="207.5" y1="547.127" x2="188" y2="535.627" gradientUnits="userSpaceOnUse">
<stop stop-color="#FBCF65"/>
<stop offset="1" stop-color="#FBCF65" stop-opacity="0"/>
</linearGradient>
<linearGradient id="paint4_linear_830_21" x1="1450.5" y1="388.127" x2="1239.5" y2="422.127" gradientUnits="userSpaceOnUse">
<stop stop-color="#0064E2" stop-opacity="0"/>
<stop offset="1" stop-color="#0064E2"/>
</linearGradient>
<linearGradient id="paint5_linear_830_21" x1="1237.5" y1="429.127" x2="1257" y2="417.627" gradientUnits="userSpaceOnUse">
<stop stop-color="#0064E2"/>
<stop offset="1" stop-color="#0064E2" stop-opacity="0"/>
</linearGradient>
</defs>
</svg>
