<svg width="1440" height="930" viewBox="0 0 1440 930" fill="none" xmlns="http://www.w3.org/2000/svg">
    <g opacity="0.4" filter="url(#filter0_f_804_9281)">
        <circle cx="720" cy="318" r="212" fill="url(#paint0_linear_804_9281)" />
    </g>
    <mask id="mask0_804_9281" style="mask-type:alpha" maskUnits="userSpaceOnUse" x="542" y="140"
        width="356" height="356">
        <circle opacity="0.5" cx="720" cy="318" r="178" fill="url(#paint1_linear_804_9281)" />
    </mask>
    <g mask="url(#mask0_804_9281)">
        <path opacity="0.8"
            d="M-207.394 -21H-251.008V22.6139M-207.394 -21V22.6139M-207.394 -21H-163.78M-207.394 22.6139H-251.008M-207.394 22.6139V66.2277M-207.394 22.6139H-163.78M-251.008 22.6139V66.2277M-207.394 66.2277H-251.008M-207.394 66.2277V109.842M-207.394 66.2277H-163.78M-251.008 66.2277V109.842M-207.394 109.842H-251.008M-207.394 109.842V153.455M-207.394 109.842H-163.78M-251.008 109.842V153.455M-207.394 153.455H-251.008M-207.394 153.455V197.069M-207.394 153.455H-163.78M-251.008 153.455V197.069M-207.394 197.069H-251.008M-207.394 197.069V240.683M-207.394 197.069H-163.78M-251.008 197.069V240.683M-207.394 240.683H-251.008M-207.394 240.683V284.297M-207.394 240.683H-163.78M-251.008 240.683V284.297M-207.394 284.297H-251.008M-207.394 284.297V327.911M-207.394 284.297H-163.78M-251.008 284.297V327.911M-207.394 327.911H-251.008M-207.394 327.911V371.525M-207.394 327.911H-163.78M-251.008 327.911V371.525M-207.394 371.525H-251.008M-207.394 371.525V415.139M-207.394 371.525H-163.78M-251.008 371.525V415.139M-207.394 415.139H-251.008M-207.394 415.139V458.752M-207.394 415.139H-163.78M-251.008 415.139V458.752M-207.394 458.752H-251.008M-207.394 458.752V502.366M-207.394 458.752H-163.78M-251.008 458.752V502.366M-207.394 502.366H-251.008M-207.394 502.366V545.98M-207.394 502.366H-163.78M-251.008 502.366V545.98M-207.394 545.98H-251.008M-207.394 545.98V589.594M-207.394 545.98H-163.78M-251.008 545.98V589.594M-207.394 589.594H-251.008M-207.394 589.594V633.208M-207.394 589.594H-163.78M-251.008 589.594V633.208M-207.394 633.208H-251.008M-207.394 633.208V676.822M-207.394 633.208H-163.78M-251.008 633.208V676.822M-207.394 676.822H-251.008M-207.394 676.822V720.436M-207.394 676.822H-163.78M-251.008 676.822V720.436M-207.394 720.436H-251.008M-207.394 720.436V764.049M-207.394 720.436H-163.78M-251.008 720.436V764.049M-207.394 764.049H-251.008M-207.394 764.049V807.663M-207.394 764.049H-163.78M-251.008 764.049V807.663M-207.394 807.663H-251.008M-207.394 807.663V851.277M-207.394 807.663H-163.78M-251.008 807.663V851.277H-207.394M-207.394 851.277H-163.78M-163.78 -21V22.6139M-163.78 -21H-120.166M-163.78 22.6139V66.2277M-163.78 22.6139H-120.166M-163.78 66.2277V109.842M-163.78 66.2277H-120.166M-163.78 109.842V153.455M-163.78 109.842H-120.166M-163.78 153.455V197.069M-163.78 153.455H-120.166M-163.78 197.069V240.683M-163.78 197.069H-120.166M-163.78 240.683V284.297M-163.78 240.683H-120.166M-163.78 284.297V327.911M-163.78 284.297H-120.166M-163.78 327.911V371.525M-163.78 327.911H-120.166M-163.78 371.525V415.139M-163.78 371.525H-120.166M-163.78 415.139V458.752M-163.78 415.139H-120.166M-163.78 458.752V502.366M-163.78 458.752H-120.166M-163.78 502.366V545.98M-163.78 502.366H-120.166M-163.78 545.98V589.594M-163.78 545.98H-120.166M-163.78 589.594V633.208M-163.78 589.594H-120.166M-163.78 633.208V676.822M-163.78 633.208H-120.166M-163.78 676.822V720.436M-163.78 676.822H-120.166M-163.78 720.436V764.049M-163.78 720.436H-120.166M-163.78 764.049V807.663M-163.78 764.049H-120.166M-163.78 807.663V851.277M-163.78 807.663H-120.166M-163.78 851.277H-120.166M-120.166 -21V22.6139M-120.166 -21H-76.5524M-120.166 22.6139V66.2277M-120.166 22.6139H-76.5524M-120.166 66.2277V109.842M-120.166 66.2277H-76.5524M-120.166 109.842V153.455M-120.166 109.842H-76.5524M-120.166 153.455V197.069M-120.166 153.455H-76.5524M-120.166 197.069V240.683M-120.166 197.069H-76.5524M-120.166 240.683V284.297M-120.166 240.683H-76.5524M-120.166 284.297V327.911M-120.166 284.297H-76.5524M-120.166 327.911V371.525M-120.166 327.911H-76.5524M-120.166 371.525V415.139M-120.166 371.525H-76.5524M-120.166 415.139V458.752M-120.166 415.139H-76.5524M-120.166 458.752V502.366M-120.166 458.752H-76.5524M-120.166 502.366V545.98M-120.166 502.366H-76.5524M-120.166 545.98V589.594M-120.166 545.98H-76.5524M-120.166 589.594V633.208M-120.166 589.594H-76.5524M-120.166 633.208V676.822M-120.166 633.208H-76.5524M-120.166 676.822V720.436M-120.166 676.822H-76.5524M-120.166 720.436V764.049M-120.166 720.436H-76.5524M-120.166 764.049V807.663M-120.166 764.049H-76.5524M-120.166 807.663V851.277M-120.166 807.663H-76.5524M-120.166 851.277H-76.5524M-76.5524 -21V22.6139M-76.5524 -21H-32.9385M-76.5524 22.6139V66.2277M-76.5524 22.6139H-32.9385M-76.5524 66.2277V109.842M-76.5524 66.2277H-32.9385M-76.5524 109.842V153.455M-76.5524 109.842H-32.9385M-76.5524 153.455V197.069M-76.5524 153.455H-32.9385M-76.5524 197.069V240.683M-76.5524 197.069H-32.9385M-76.5524 240.683V284.297M-76.5524 240.683H-32.9385M-76.5524 284.297V327.911M-76.5524 284.297H-32.9385M-76.5524 327.911V371.525M-76.5524 327.911H-32.9385M-76.5524 371.525V415.139M-76.5524 371.525H-32.9385M-76.5524 415.139V458.752M-76.5524 415.139H-32.9385M-76.5524 458.752V502.366M-76.5524 458.752H-32.9385M-76.5524 502.366V545.98M-76.5524 502.366H-32.9385M-76.5524 545.98V589.594M-76.5524 545.98H-32.9385M-76.5524 589.594V633.208M-76.5524 589.594H-32.9385M-76.5524 633.208V676.822M-76.5524 633.208H-32.9385M-76.5524 676.822V720.436M-76.5524 676.822H-32.9385M-76.5524 720.436V764.049M-76.5524 720.436H-32.9385M-76.5524 764.049V807.663M-76.5524 764.049H-32.9385M-76.5524 807.663V851.277M-76.5524 807.663H-32.9385M-76.5524 851.277H-32.9385M-32.9385 -21V22.6139M-32.9385 -21H10.6753M-32.9385 22.6139V66.2277M-32.9385 22.6139H10.6753M-32.9385 66.2277V109.842M-32.9385 66.2277H10.6753M-32.9385 109.842V153.455M-32.9385 109.842H10.6753M-32.9385 153.455V197.069M-32.9385 153.455H10.6753M-32.9385 197.069V240.683M-32.9385 197.069H10.6753M-32.9385 240.683V284.297M-32.9385 240.683H10.6753M-32.9385 284.297V327.911M-32.9385 284.297H10.6753M-32.9385 327.911V371.525M-32.9385 327.911H10.6753M-32.9385 371.525V415.139M-32.9385 371.525H10.6753M-32.9385 415.139V458.752M-32.9385 415.139H10.6753M-32.9385 458.752V502.366M-32.9385 458.752H10.6753M-32.9385 502.366V545.98M-32.9385 502.366H10.6753M-32.9385 545.98V589.594M-32.9385 545.98H10.6753M-32.9385 589.594V633.208M-32.9385 589.594H10.6753M-32.9385 633.208V676.822M-32.9385 633.208H10.6753M-32.9385 676.822V720.436M-32.9385 676.822H10.6753M-32.9385 720.436V764.049M-32.9385 720.436H10.6753M-32.9385 764.049V807.663M-32.9385 764.049H10.6753M-32.9385 807.663V851.277M-32.9385 807.663H10.6753M-32.9385 851.277H10.6753M10.6753 -21V22.6139M10.6753 -21H54.2892M10.6753 22.6139V66.2277M10.6753 22.6139H54.2892M10.6753 66.2277V109.842M10.6753 66.2277H54.2892M10.6753 109.842V153.455M10.6753 109.842H54.2892M10.6753 153.455V197.069M10.6753 153.455H54.2892M10.6753 197.069V240.683M10.6753 197.069H54.2892M10.6753 240.683V284.297M10.6753 240.683H54.2892M10.6753 284.297V327.911M10.6753 284.297H54.2892M10.6753 327.911V371.525M10.6753 327.911H54.2892M10.6753 371.525V415.139M10.6753 371.525H54.2892M10.6753 415.139V458.752M10.6753 415.139H54.2892M10.6753 458.752V502.366M10.6753 458.752H54.2892M10.6753 502.366V545.98M10.6753 502.366H54.2892M10.6753 545.98V589.594M10.6753 545.98H54.2892M10.6753 589.594V633.208M10.6753 589.594H54.2892M10.6753 633.208V676.822M10.6753 633.208H54.2892M10.6753 676.822V720.436M10.6753 676.822H54.2892M10.6753 720.436V764.049M10.6753 720.436H54.2892M10.6753 764.049V807.663M10.6753 764.049H54.2892M10.6753 807.663V851.277M10.6753 807.663H54.2892M10.6753 851.277H54.2892M54.2892 -21V22.6139M54.2892 -21H97.903M54.2892 22.6139V66.2277M54.2892 22.6139H97.903M54.2892 66.2277V109.842M54.2892 66.2277H97.903M54.2892 109.842V153.455M54.2892 109.842H97.903M54.2892 153.455V197.069M54.2892 153.455H97.903M54.2892 197.069V240.683M54.2892 197.069H97.903M54.2892 240.683V284.297M54.2892 240.683H97.903M54.2892 284.297V327.911M54.2892 284.297H97.903M54.2892 327.911V371.525M54.2892 327.911H97.903M54.2892 371.525V415.139M54.2892 371.525H97.903M54.2892 415.139V458.752M54.2892 415.139H97.903M54.2892 458.752V502.366M54.2892 458.752H97.903M54.2892 502.366V545.98M54.2892 502.366H97.903M54.2892 545.98V589.594M54.2892 545.98H97.903M54.2892 589.594V633.208M54.2892 589.594H97.903M54.2892 633.208V676.822M54.2892 633.208H97.903M54.2892 676.822V720.436M54.2892 676.822H97.903M54.2892 720.436V764.049M54.2892 720.436H97.903M54.2892 764.049V807.663M54.2892 764.049H97.903M54.2892 807.663V851.277M54.2892 807.663H97.903M54.2892 851.277H97.903M97.903 -21V22.6139M97.903 -21H141.517M97.903 22.6139V66.2277M97.903 22.6139H141.517M97.903 66.2277V109.842M97.903 66.2277H141.517M97.903 109.842V153.455M97.903 109.842H141.517M97.903 153.455V197.069M97.903 153.455H141.517M97.903 197.069V240.683M97.903 197.069H141.517M97.903 240.683V284.297M97.903 240.683H141.517M97.903 284.297V327.911M97.903 284.297H141.517M97.903 327.911V371.525M97.903 327.911H141.517M97.903 371.525V415.139M97.903 371.525H141.517M97.903 415.139V458.752M97.903 415.139H141.517M97.903 458.752V502.366M97.903 458.752H141.517M97.903 502.366V545.98M97.903 502.366H141.517M97.903 545.98V589.594M97.903 545.98H141.517M97.903 589.594V633.208M97.903 589.594H141.517M97.903 633.208V676.822M97.903 633.208H141.517M97.903 676.822V720.436M97.903 676.822H141.517M97.903 720.436V764.049M97.903 720.436H141.517M97.903 764.049V807.663M97.903 764.049H141.517M97.903 807.663V851.277M97.903 807.663H141.517M97.903 851.277H141.517M141.517 -21V22.6139M141.517 -21H185.131M141.517 22.6139V66.2277M141.517 22.6139H185.131M141.517 66.2277V109.842M141.517 66.2277H185.131M141.517 109.842V153.455M141.517 109.842H185.131M141.517 153.455V197.069M141.517 153.455H185.131M141.517 197.069V240.683M141.517 197.069H185.131M141.517 240.683V284.297M141.517 240.683H185.131M141.517 284.297V327.911M141.517 284.297H185.131M141.517 327.911V371.525M141.517 327.911H185.131M141.517 371.525V415.139M141.517 371.525H185.131M141.517 415.139V458.752M141.517 415.139H185.131M141.517 458.752V502.366M141.517 458.752H185.131M141.517 502.366V545.98M141.517 502.366H185.131M141.517 545.98V589.594M141.517 545.98H185.131M141.517 589.594V633.208M141.517 589.594H185.131M141.517 633.208V676.822M141.517 633.208H185.131M141.517 676.822V720.436M141.517 676.822H185.131M141.517 720.436V764.049M141.517 720.436H185.131M141.517 764.049V807.663M141.517 764.049H185.131M141.517 807.663V851.277M141.517 807.663H185.131M141.517 851.277H185.131M185.131 -21V22.6139M185.131 -21H228.745M185.131 22.6139V66.2277M185.131 22.6139H228.745M185.131 66.2277V109.842M185.131 66.2277H228.745M185.131 109.842V153.455M185.131 109.842H228.745M185.131 153.455V197.069M185.131 153.455H228.745M185.131 197.069V240.683M185.131 197.069H228.745M185.131 240.683V284.297M185.131 240.683H228.745M185.131 284.297V327.911M185.131 284.297H228.745M185.131 327.911V371.525M185.131 327.911H228.745M185.131 371.525V415.139M185.131 371.525H228.745M185.131 415.139V458.752M185.131 415.139H228.745M185.131 458.752V502.366M185.131 458.752H228.745M185.131 502.366V545.98M185.131 502.366H228.745M185.131 545.98V589.594M185.131 545.98H228.745M185.131 589.594V633.208M185.131 589.594H228.745M185.131 633.208V676.822M185.131 633.208H228.745M185.131 676.822V720.436M185.131 676.822H228.745M185.131 720.436V764.049M185.131 720.436H228.745M185.131 764.049V807.663M185.131 764.049H228.745M185.131 807.663V851.277M185.131 807.663H228.745M185.131 851.277H228.745M228.745 -21V22.6139M228.745 -21H272.358M228.745 22.6139V66.2277M228.745 22.6139H272.358M228.745 66.2277V109.842M228.745 66.2277H272.358M228.745 109.842V153.455M228.745 109.842H272.358M228.745 153.455V197.069M228.745 153.455H272.358M228.745 197.069V240.683M228.745 197.069H272.358M228.745 240.683V284.297M228.745 240.683H272.358M228.745 284.297V327.911M228.745 284.297H272.358M228.745 327.911V371.525M228.745 327.911H272.358M228.745 371.525V415.139M228.745 371.525H272.358M228.745 415.139V458.752M228.745 415.139H272.358M228.745 458.752V502.366M228.745 458.752H272.358M228.745 502.366V545.98M228.745 502.366H272.358M228.745 545.98V589.594M228.745 545.98H272.358M228.745 589.594V633.208M228.745 589.594H272.358M228.745 633.208V676.822M228.745 633.208H272.358M228.745 676.822V720.436M228.745 676.822H272.358M228.745 720.436V764.049M228.745 720.436H272.358M228.745 764.049V807.663M228.745 764.049H272.358M228.745 807.663V851.277M228.745 807.663H272.358M228.745 851.277H272.358M272.358 -21V22.6139M272.358 -21H315.972M272.358 22.6139V66.2277M272.358 22.6139H315.972M272.358 66.2277V109.842M272.358 66.2277H315.972M272.358 109.842V153.455M272.358 109.842H315.972M272.358 153.455V197.069M272.358 153.455H315.972M272.358 197.069V240.683M272.358 197.069H315.972M272.358 240.683V284.297M272.358 240.683H315.972M272.358 284.297V327.911M272.358 284.297H315.972M272.358 327.911V371.525M272.358 327.911H315.972M272.358 371.525V415.139M272.358 371.525H315.972M272.358 415.139V458.752M272.358 415.139H315.972M272.358 458.752V502.366M272.358 458.752H315.972M272.358 502.366V545.98M272.358 502.366H315.972M272.358 545.98V589.594M272.358 545.98H315.972M272.358 589.594V633.208M272.358 589.594H315.972M272.358 633.208V676.822M272.358 633.208H315.972M272.358 676.822V720.436M272.358 676.822H315.972M272.358 720.436V764.049M272.358 720.436H315.972M272.358 764.049V807.663M272.358 764.049H315.972M272.358 807.663V851.277M272.358 807.663H315.972M272.358 851.277H315.972M315.972 -21V22.6139M315.972 -21H359.586M315.972 22.6139V66.2277M315.972 22.6139H359.586M315.972 66.2277V109.842M315.972 66.2277H359.586M315.972 109.842V153.455M315.972 109.842H359.586M315.972 153.455V197.069M315.972 153.455H359.586M315.972 197.069V240.683M315.972 197.069H359.586M315.972 240.683V284.297M315.972 240.683H359.586M315.972 284.297V327.911M315.972 284.297H359.586M315.972 327.911V371.525M315.972 327.911H359.586M315.972 371.525V415.139M315.972 371.525H359.586M315.972 415.139V458.752M315.972 415.139H359.586M315.972 458.752V502.366M315.972 458.752H359.586M315.972 502.366V545.98M315.972 502.366H359.586M315.972 545.98V589.594M315.972 545.98H359.586M315.972 589.594V633.208M315.972 589.594H359.586M315.972 633.208V676.822M315.972 633.208H359.586M315.972 676.822V720.436M315.972 676.822H359.586M315.972 720.436V764.049M315.972 720.436H359.586M315.972 764.049V807.663M315.972 764.049H359.586M315.972 807.663V851.277M315.972 807.663H359.586M315.972 851.277H359.586M359.586 -21V22.6139M359.586 -21H403.2M359.586 22.6139V66.2277M359.586 22.6139H403.2M359.586 66.2277V109.842M359.586 66.2277H403.2M359.586 109.842V153.455M359.586 109.842H403.2M359.586 153.455V197.069M359.586 153.455H403.2M359.586 197.069V240.683M359.586 197.069H403.2M359.586 240.683V284.297M359.586 240.683H403.2M359.586 284.297V327.911M359.586 284.297H403.2M359.586 327.911V371.525M359.586 327.911H403.2M359.586 371.525V415.139M359.586 371.525H403.2M359.586 415.139V458.752M359.586 415.139H403.2M359.586 458.752V502.366M359.586 458.752H403.2M359.586 502.366V545.98M359.586 502.366H403.2M359.586 545.98V589.594M359.586 545.98H403.2M359.586 589.594V633.208M359.586 589.594H403.2M359.586 633.208V676.822M359.586 633.208H403.2M359.586 676.822V720.436M359.586 676.822H403.2M359.586 720.436V764.049M359.586 720.436H403.2M359.586 764.049V807.663M359.586 764.049H403.2M359.586 807.663V851.277M359.586 807.663H403.2M359.586 851.277H403.2M403.2 -21V22.6139M403.2 -21H446.814M403.2 22.6139V66.2277M403.2 22.6139H446.814M403.2 66.2277V109.842M403.2 66.2277H446.814M403.2 109.842V153.455M403.2 109.842H446.814M403.2 153.455V197.069M403.2 153.455H446.814M403.2 197.069V240.683M403.2 197.069H446.814M403.2 240.683V284.297M403.2 240.683H446.814M403.2 284.297V327.911M403.2 284.297H446.814M403.2 327.911V371.525M403.2 327.911H446.814M403.2 371.525V415.139M403.2 371.525H446.814M403.2 415.139V458.752M403.2 415.139H446.814M403.2 458.752V502.366M403.2 458.752H446.814M403.2 502.366V545.98M403.2 502.366H446.814M403.2 545.98V589.594M403.2 545.98H446.814M403.2 589.594V633.208M403.2 589.594H446.814M403.2 633.208V676.822M403.2 633.208H446.814M403.2 676.822V720.436M403.2 676.822H446.814M403.2 720.436V764.049M403.2 720.436H446.814M403.2 764.049V807.663M403.2 764.049H446.814M403.2 807.663V851.277M403.2 807.663H446.814M403.2 851.277H446.814M446.814 -21V22.6139M446.814 -21H490.428M446.814 22.6139V66.2277M446.814 22.6139H490.428M446.814 66.2277V109.842M446.814 66.2277H490.428M446.814 109.842V153.455M446.814 109.842H490.428M446.814 153.455V197.069M446.814 153.455H490.428M446.814 197.069V240.683M446.814 197.069H490.428M446.814 240.683V284.297M446.814 240.683H490.428M446.814 284.297V327.911M446.814 284.297H490.428M446.814 327.911V371.525M446.814 327.911H490.428M446.814 371.525V415.139M446.814 371.525H490.428M446.814 415.139V458.752M446.814 415.139H490.428M446.814 458.752V502.366M446.814 458.752H490.428M446.814 502.366V545.98M446.814 502.366H490.428M446.814 545.98V589.594M446.814 545.98H490.428M446.814 589.594V633.208M446.814 589.594H490.428M446.814 633.208V676.822M446.814 633.208H490.428M446.814 676.822V720.436M446.814 676.822H490.428M446.814 720.436V764.049M446.814 720.436H490.428M446.814 764.049V807.663M446.814 764.049H490.428M446.814 807.663V851.277M446.814 807.663H490.428M446.814 851.277H490.428M490.428 -21V22.6139M490.428 -21H534.042M490.428 22.6139V66.2277M490.428 22.6139H534.042M490.428 66.2277V109.842M490.428 66.2277H534.042M490.428 109.842V153.455M490.428 109.842H534.042M490.428 153.455V197.069M490.428 153.455H534.042M490.428 197.069V240.683M490.428 197.069H534.042M490.428 240.683V284.297M490.428 240.683H534.042M490.428 284.297V327.911M490.428 284.297H534.042M490.428 327.911V371.525M490.428 327.911H534.042M490.428 371.525V415.139M490.428 371.525H534.042M490.428 415.139V458.752M490.428 415.139H534.042M490.428 458.752V502.366M490.428 458.752H534.042M490.428 502.366V545.98M490.428 502.366H534.042M490.428 545.98V589.594M490.428 545.98H534.042M490.428 589.594V633.208M490.428 589.594H534.042M490.428 633.208V676.822M490.428 633.208H534.042M490.428 676.822V720.436M490.428 676.822H534.042M490.428 720.436V764.049M490.428 720.436H534.042M490.428 764.049V807.663M490.428 764.049H534.042M490.428 807.663V851.277M490.428 807.663H534.042M490.428 851.277H534.042M534.042 -21V22.6139M534.042 -21H577.655M534.042 22.6139V66.2277M534.042 22.6139H577.655M534.042 66.2277V109.842M534.042 66.2277H577.655M534.042 109.842V153.455M534.042 109.842H577.655M534.042 153.455V197.069M534.042 153.455H577.655M534.042 197.069V240.683M534.042 197.069H577.655M534.042 240.683V284.297M534.042 240.683H577.655M534.042 284.297V327.911M534.042 284.297H577.655M534.042 327.911V371.525M534.042 327.911H577.655M534.042 371.525V415.139M534.042 371.525H577.655M534.042 415.139V458.752M534.042 415.139H577.655M534.042 458.752V502.366M534.042 458.752H577.655M534.042 502.366V545.98M534.042 502.366H577.655M534.042 545.98V589.594M534.042 545.98H577.655M534.042 589.594V633.208M534.042 589.594H577.655M534.042 633.208V676.822M534.042 633.208H577.655M534.042 676.822V720.436M534.042 676.822H577.655M534.042 720.436V764.049M534.042 720.436H577.655M534.042 764.049V807.663M534.042 764.049H577.655M534.042 807.663V851.277M534.042 807.663H577.655M534.042 851.277H577.655M577.655 -21V22.6139M577.655 -21H621.269M577.655 22.6139V66.2277M577.655 22.6139H621.269M577.655 66.2277V109.842M577.655 66.2277H621.269M577.655 109.842V153.455M577.655 109.842H621.269M577.655 153.455V197.069M577.655 153.455H621.269M577.655 197.069V240.683M577.655 197.069H621.269M577.655 240.683V284.297M577.655 240.683H621.269M577.655 284.297V327.911M577.655 284.297H621.269M577.655 327.911V371.525M577.655 327.911H621.269M577.655 371.525V415.139M577.655 371.525H621.269M577.655 415.139V458.752M577.655 415.139H621.269M577.655 458.752V502.366M577.655 458.752H621.269M577.655 502.366V545.98M577.655 502.366H621.269M577.655 545.98V589.594M577.655 545.98H621.269M577.655 589.594V633.208M577.655 589.594H621.269M577.655 633.208V676.822M577.655 633.208H621.269M577.655 676.822V720.436M577.655 676.822H621.269M577.655 720.436V764.049M577.655 720.436H621.269M577.655 764.049V807.663M577.655 764.049H621.269M577.655 807.663V851.277M577.655 807.663H621.269M577.655 851.277H621.269M621.269 -21V22.6139M621.269 -21H664.883M621.269 22.6139V66.2277M621.269 22.6139H664.883M621.269 66.2277V109.842M621.269 66.2277H664.883M621.269 109.842V153.455M621.269 109.842H664.883M621.269 153.455V197.069M621.269 153.455H664.883M621.269 197.069V240.683M621.269 197.069H664.883M621.269 240.683V284.297M621.269 240.683H664.883M621.269 284.297V327.911M621.269 284.297H664.883M621.269 327.911V371.525M621.269 327.911H664.883M621.269 371.525V415.139M621.269 371.525H664.883M621.269 415.139V458.752M621.269 415.139H664.883M621.269 458.752V502.366M621.269 458.752H664.883M621.269 502.366V545.98M621.269 502.366H664.883M621.269 545.98V589.594M621.269 545.98H664.883M621.269 589.594V633.208M621.269 589.594H664.883M621.269 633.208V676.822M621.269 633.208H664.883M621.269 676.822V720.436M621.269 676.822H664.883M621.269 720.436V764.049M621.269 720.436H664.883M621.269 764.049V807.663M621.269 764.049H664.883M621.269 807.663V851.277M621.269 807.663H664.883M621.269 851.277H664.883M664.883 -21V22.6139M664.883 -21H708.497M664.883 22.6139V66.2277M664.883 22.6139H708.497M664.883 66.2277V109.842M664.883 66.2277H708.497M664.883 109.842V153.455M664.883 109.842H708.497M664.883 153.455V197.069M664.883 153.455H708.497M664.883 197.069V240.683M664.883 197.069H708.497M664.883 240.683V284.297M664.883 240.683H708.497M664.883 284.297V327.911M664.883 284.297H708.497M664.883 327.911V371.525M664.883 327.911H708.497M664.883 371.525V415.139M664.883 371.525H708.497M664.883 415.139V458.752M664.883 415.139H708.497M664.883 458.752V502.366M664.883 458.752H708.497M664.883 502.366V545.98M664.883 502.366H708.497M664.883 545.98V589.594M664.883 545.98H708.497M664.883 589.594V633.208M664.883 589.594H708.497M664.883 633.208V676.822M664.883 633.208H708.497M664.883 676.822V720.436M664.883 676.822H708.497M664.883 720.436V764.049M664.883 720.436H708.497M664.883 764.049V807.663M664.883 764.049H708.497M664.883 807.663V851.277M664.883 807.663H708.497M664.883 851.277H708.497M708.497 -21V22.6139M708.497 -21H752.111M708.497 22.6139V66.2277M708.497 22.6139H752.111M708.497 66.2277V109.842M708.497 66.2277H752.111M708.497 109.842V153.455M708.497 109.842H752.111M708.497 153.455V197.069M708.497 153.455H752.111M708.497 197.069V240.683M708.497 197.069H752.111M708.497 240.683V284.297M708.497 240.683H752.111M708.497 284.297V327.911M708.497 284.297H752.111M708.497 327.911V371.525M708.497 327.911H752.111M708.497 371.525V415.139M708.497 371.525H752.111M708.497 415.139V458.752M708.497 415.139H752.111M708.497 458.752V502.366M708.497 458.752H752.111M708.497 502.366V545.98M708.497 502.366H752.111M708.497 545.98V589.594M708.497 545.98H752.111M708.497 589.594V633.208M708.497 589.594H752.111M708.497 633.208V676.822M708.497 633.208H752.111M708.497 676.822V720.436M708.497 676.822H752.111M708.497 720.436V764.049M708.497 720.436H752.111M708.497 764.049V807.663M708.497 764.049H752.111M708.497 807.663V851.277M708.497 807.663H752.111M708.497 851.277H752.111M752.111 -21V22.6139M752.111 -21H795.725M752.111 22.6139V66.2277M752.111 22.6139H795.725M752.111 66.2277V109.842M752.111 66.2277H795.725M752.111 109.842V153.455M752.111 109.842H795.725M752.111 153.455V197.069M752.111 153.455H795.725M752.111 197.069V240.683M752.111 197.069H795.725M752.111 240.683V284.297M752.111 240.683H795.725M752.111 284.297V327.911M752.111 284.297H795.725M752.111 327.911V371.525M752.111 327.911H795.725M752.111 371.525V415.139M752.111 371.525H795.725M752.111 415.139V458.752M752.111 415.139H795.725M752.111 458.752V502.366M752.111 458.752H795.725M752.111 502.366V545.98M752.111 502.366H795.725M752.111 545.98V589.594M752.111 545.98H795.725M752.111 589.594V633.208M752.111 589.594H795.725M752.111 633.208V676.822M752.111 633.208H795.725M752.111 676.822V720.436M752.111 676.822H795.725M752.111 720.436V764.049M752.111 720.436H795.725M752.111 764.049V807.663M752.111 764.049H795.725M752.111 807.663V851.277M752.111 807.663H795.725M752.111 851.277H795.725M795.725 -21V22.6139M795.725 -21H839.339M795.725 22.6139V66.2277M795.725 22.6139H839.339M795.725 66.2277V109.842M795.725 66.2277H839.339M795.725 109.842V153.455M795.725 109.842H839.339M795.725 153.455V197.069M795.725 153.455H839.339M795.725 197.069V240.683M795.725 197.069H839.339M795.725 240.683V284.297M795.725 240.683H839.339M795.725 284.297V327.911M795.725 284.297H839.339M795.725 327.911V371.525M795.725 327.911H839.339M795.725 371.525V415.139M795.725 371.525H839.339M795.725 415.139V458.752M795.725 415.139H839.339M795.725 458.752V502.366M795.725 458.752H839.339M795.725 502.366V545.98M795.725 502.366H839.339M795.725 545.98V589.594M795.725 545.98H839.339M795.725 589.594V633.208M795.725 589.594H839.339M795.725 633.208V676.822M795.725 633.208H839.339M795.725 676.822V720.436M795.725 676.822H839.339M795.725 720.436V764.049M795.725 720.436H839.339M795.725 764.049V807.663M795.725 764.049H839.339M795.725 807.663V851.277M795.725 807.663H839.339M795.725 851.277H839.339M839.339 -21V22.6139M839.339 -21H882.952M839.339 22.6139V66.2277M839.339 22.6139H882.952M839.339 66.2277V109.842M839.339 66.2277H882.952M839.339 109.842V153.455M839.339 109.842H882.952M839.339 153.455V197.069M839.339 153.455H882.952M839.339 197.069V240.683M839.339 197.069H882.952M839.339 240.683V284.297M839.339 240.683H882.952M839.339 284.297V327.911M839.339 284.297H882.952M839.339 327.911V371.525M839.339 327.911H882.952M839.339 371.525V415.139M839.339 371.525H882.952M839.339 415.139V458.752M839.339 415.139H882.952M839.339 458.752V502.366M839.339 458.752H882.952M839.339 502.366V545.98M839.339 502.366H882.952M839.339 545.98V589.594M839.339 545.98H882.952M839.339 589.594V633.208M839.339 589.594H882.952M839.339 633.208V676.822M839.339 633.208H882.952M839.339 676.822V720.436M839.339 676.822H882.952M839.339 720.436V764.049M839.339 720.436H882.952M839.339 764.049V807.663M839.339 764.049H882.952M839.339 807.663V851.277M839.339 807.663H882.952M839.339 851.277H882.952M882.952 -21V22.6139M882.952 -21H926.566M882.952 22.6139V66.2277M882.952 22.6139H926.566M882.952 66.2277V109.842M882.952 66.2277H926.566M882.952 109.842V153.455M882.952 109.842H926.566M882.952 153.455V197.069M882.952 153.455H926.566M882.952 197.069V240.683M882.952 197.069H926.566M882.952 240.683V284.297M882.952 240.683H926.566M882.952 284.297V327.911M882.952 284.297H926.566M882.952 327.911V371.525M882.952 327.911H926.566M882.952 371.525V415.139M882.952 371.525H926.566M882.952 415.139V458.752M882.952 415.139H926.566M882.952 458.752V502.366M882.952 458.752H926.566M882.952 502.366V545.98M882.952 502.366H926.566M882.952 545.98V589.594M882.952 545.98H926.566M882.952 589.594V633.208M882.952 589.594H926.566M882.952 633.208V676.822M882.952 633.208H926.566M882.952 676.822V720.436M882.952 676.822H926.566M882.952 720.436V764.049M882.952 720.436H926.566M882.952 764.049V807.663M882.952 764.049H926.566M882.952 807.663V851.277M882.952 807.663H926.566M882.952 851.277H926.566M926.566 -21V22.6139M926.566 -21H970.18M926.566 22.6139V66.2277M926.566 22.6139H970.18M926.566 66.2277V109.842M926.566 66.2277H970.18M926.566 109.842V153.455M926.566 109.842H970.18M926.566 153.455V197.069M926.566 153.455H970.18M926.566 197.069V240.683M926.566 197.069H970.18M926.566 240.683V284.297M926.566 240.683H970.18M926.566 284.297V327.911M926.566 284.297H970.18M926.566 327.911V371.525M926.566 327.911H970.18M926.566 371.525V415.139M926.566 371.525H970.18M926.566 415.139V458.752M926.566 415.139H970.18M926.566 458.752V502.366M926.566 458.752H970.18M926.566 502.366V545.98M926.566 502.366H970.18M926.566 545.98V589.594M926.566 545.98H970.18M926.566 589.594V633.208M926.566 589.594H970.18M926.566 633.208V676.822M926.566 633.208H970.18M926.566 676.822V720.436M926.566 676.822H970.18M926.566 720.436V764.049M926.566 720.436H970.18M926.566 764.049V807.663M926.566 764.049H970.18M926.566 807.663V851.277M926.566 807.663H970.18M926.566 851.277H970.18M970.18 -21V22.6139M970.18 -21H1013.79M970.18 22.6139V66.2277M970.18 22.6139H1013.79M970.18 66.2277V109.842M970.18 66.2277H1013.79M970.18 109.842V153.455M970.18 109.842H1013.79M970.18 153.455V197.069M970.18 153.455H1013.79M970.18 197.069V240.683M970.18 197.069H1013.79M970.18 240.683V284.297M970.18 240.683H1013.79M970.18 284.297V327.911M970.18 284.297H1013.79M970.18 327.911V371.525M970.18 327.911H1013.79M970.18 371.525V415.139M970.18 371.525H1013.79M970.18 415.139V458.752M970.18 415.139H1013.79M970.18 458.752V502.366M970.18 458.752H1013.79M970.18 502.366V545.98M970.18 502.366H1013.79M970.18 545.98V589.594M970.18 545.98H1013.79M970.18 589.594V633.208M970.18 589.594H1013.79M970.18 633.208V676.822M970.18 633.208H1013.79M970.18 676.822V720.436M970.18 676.822H1013.79M970.18 720.436V764.049M970.18 720.436H1013.79M970.18 764.049V807.663M970.18 764.049H1013.79M970.18 807.663V851.277M970.18 807.663H1013.79M970.18 851.277H1013.79M1013.79 -21V22.6139M1013.79 -21H1057.41M1013.79 22.6139V66.2277M1013.79 22.6139H1057.41M1013.79 66.2277V109.842M1013.79 66.2277H1057.41M1013.79 109.842V153.455M1013.79 109.842H1057.41M1013.79 153.455V197.069M1013.79 153.455H1057.41M1013.79 197.069V240.683M1013.79 197.069H1057.41M1013.79 240.683V284.297M1013.79 240.683H1057.41M1013.79 284.297V327.911M1013.79 284.297H1057.41M1013.79 327.911V371.525M1013.79 327.911H1057.41M1013.79 371.525V415.139M1013.79 371.525H1057.41M1013.79 415.139V458.752M1013.79 415.139H1057.41M1013.79 458.752V502.366M1013.79 458.752H1057.41M1013.79 502.366V545.98M1013.79 502.366H1057.41M1013.79 545.98V589.594M1013.79 545.98H1057.41M1013.79 589.594V633.208M1013.79 589.594H1057.41M1013.79 633.208V676.822M1013.79 633.208H1057.41M1013.79 676.822V720.436M1013.79 676.822H1057.41M1013.79 720.436V764.049M1013.79 720.436H1057.41M1013.79 764.049V807.663M1013.79 764.049H1057.41M1013.79 807.663V851.277M1013.79 807.663H1057.41M1013.79 851.277H1057.41M1057.41 -21V22.6139M1057.41 -21H1101.02M1057.41 22.6139V66.2277M1057.41 22.6139H1101.02M1057.41 66.2277V109.842M1057.41 66.2277H1101.02M1057.41 109.842V153.455M1057.41 109.842H1101.02M1057.41 153.455V197.069M1057.41 153.455H1101.02M1057.41 197.069V240.683M1057.41 197.069H1101.02M1057.41 240.683V284.297M1057.41 240.683H1101.02M1057.41 284.297V327.911M1057.41 284.297H1101.02M1057.41 327.911V371.525M1057.41 327.911H1101.02M1057.41 371.525V415.139M1057.41 371.525H1101.02M1057.41 415.139V458.752M1057.41 415.139H1101.02M1057.41 458.752V502.366M1057.41 458.752H1101.02M1057.41 502.366V545.98M1057.41 502.366H1101.02M1057.41 545.98V589.594M1057.41 545.98H1101.02M1057.41 589.594V633.208M1057.41 589.594H1101.02M1057.41 633.208V676.822M1057.41 633.208H1101.02M1057.41 676.822V720.436M1057.41 676.822H1101.02M1057.41 720.436V764.049M1057.41 720.436H1101.02M1057.41 764.049V807.663M1057.41 764.049H1101.02M1057.41 807.663V851.277M1057.41 807.663H1101.02M1057.41 851.277H1101.02M1101.02 -21V22.6139M1101.02 -21H1144.64M1101.02 22.6139V66.2277M1101.02 22.6139H1144.64M1101.02 66.2277V109.842M1101.02 66.2277H1144.64M1101.02 109.842V153.455M1101.02 109.842H1144.64M1101.02 153.455V197.069M1101.02 153.455H1144.64M1101.02 197.069V240.683M1101.02 197.069H1144.64M1101.02 240.683V284.297M1101.02 240.683H1144.64M1101.02 284.297V327.911M1101.02 284.297H1144.64M1101.02 327.911V371.525M1101.02 327.911H1144.64M1101.02 371.525V415.139M1101.02 371.525H1144.64M1101.02 415.139V458.752M1101.02 415.139H1144.64M1101.02 458.752V502.366M1101.02 458.752H1144.64M1101.02 502.366V545.98M1101.02 502.366H1144.64M1101.02 545.98V589.594M1101.02 545.98H1144.64M1101.02 589.594V633.208M1101.02 589.594H1144.64M1101.02 633.208V676.822M1101.02 633.208H1144.64M1101.02 676.822V720.436M1101.02 676.822H1144.64M1101.02 720.436V764.049M1101.02 720.436H1144.64M1101.02 764.049V807.663M1101.02 764.049H1144.64M1101.02 807.663V851.277M1101.02 807.663H1144.64M1101.02 851.277H1144.64M1144.64 -21V22.6139M1144.64 -21H1188.25M1144.64 22.6139V66.2277M1144.64 22.6139H1188.25M1144.64 66.2277V109.842M1144.64 66.2277H1188.25M1144.64 109.842V153.455M1144.64 109.842H1188.25M1144.64 153.455V197.069M1144.64 153.455H1188.25M1144.64 197.069V240.683M1144.64 197.069H1188.25M1144.64 240.683V284.297M1144.64 240.683H1188.25M1144.64 284.297V327.911M1144.64 284.297H1188.25M1144.64 327.911V371.525M1144.64 327.911H1188.25M1144.64 371.525V415.139M1144.64 371.525H1188.25M1144.64 415.139V458.752M1144.64 415.139H1188.25M1144.64 458.752V502.366M1144.64 458.752H1188.25M1144.64 502.366V545.98M1144.64 502.366H1188.25M1144.64 545.98V589.594M1144.64 545.98H1188.25M1144.64 589.594V633.208M1144.64 589.594H1188.25M1144.64 633.208V676.822M1144.64 633.208H1188.25M1144.64 676.822V720.436M1144.64 676.822H1188.25M1144.64 720.436V764.049M1144.64 720.436H1188.25M1144.64 764.049V807.663M1144.64 764.049H1188.25M1144.64 807.663V851.277M1144.64 807.663H1188.25M1144.64 851.277H1188.25M1188.25 -21V22.6139M1188.25 -21H1231.86M1188.25 22.6139V66.2277M1188.25 22.6139H1231.86M1188.25 66.2277V109.842M1188.25 66.2277H1231.86M1188.25 109.842V153.455M1188.25 109.842H1231.86M1188.25 153.455V197.069M1188.25 153.455H1231.86M1188.25 197.069V240.683M1188.25 197.069H1231.86M1188.25 240.683V284.297M1188.25 240.683H1231.86M1188.25 284.297V327.911M1188.25 284.297H1231.86M1188.25 327.911V371.525M1188.25 327.911H1231.86M1188.25 371.525V415.139M1188.25 371.525H1231.86M1188.25 415.139V458.752M1188.25 415.139H1231.86M1188.25 458.752V502.366M1188.25 458.752H1231.86M1188.25 502.366V545.98M1188.25 502.366H1231.86M1188.25 545.98V589.594M1188.25 545.98H1231.86M1188.25 589.594V633.208M1188.25 589.594H1231.86M1188.25 633.208V676.822M1188.25 633.208H1231.86M1188.25 676.822V720.436M1188.25 676.822H1231.86M1188.25 720.436V764.049M1188.25 720.436H1231.86M1188.25 764.049V807.663M1188.25 764.049H1231.86M1188.25 807.663V851.277M1188.25 807.663H1231.86M1188.25 851.277H1231.86M1231.86 -21V22.6139M1231.86 -21H1275.48M1231.86 22.6139V66.2277M1231.86 22.6139H1275.48M1231.86 66.2277V109.842M1231.86 66.2277H1275.48M1231.86 109.842V153.455M1231.86 109.842H1275.48M1231.86 153.455V197.069M1231.86 153.455H1275.48M1231.86 197.069V240.683M1231.86 197.069H1275.48M1231.86 240.683V284.297M1231.86 240.683H1275.48M1231.86 284.297V327.911M1231.86 284.297H1275.48M1231.86 327.911V371.525M1231.86 327.911H1275.48M1231.86 371.525V415.139M1231.86 371.525H1275.48M1231.86 415.139V458.752M1231.86 415.139H1275.48M1231.86 458.752V502.366M1231.86 458.752H1275.48M1231.86 502.366V545.98M1231.86 502.366H1275.48M1231.86 545.98V589.594M1231.86 545.98H1275.48M1231.86 589.594V633.208M1231.86 589.594H1275.48M1231.86 633.208V676.822M1231.86 633.208H1275.48M1231.86 676.822V720.436M1231.86 676.822H1275.48M1231.86 720.436V764.049M1231.86 720.436H1275.48M1231.86 764.049V807.663M1231.86 764.049H1275.48M1231.86 807.663V851.277M1231.86 807.663H1275.48M1231.86 851.277H1275.48M1275.48 -21V22.6139M1275.48 -21H1319.09M1275.48 22.6139V66.2277M1275.48 22.6139H1319.09M1275.48 66.2277V109.842M1275.48 66.2277H1319.09M1275.48 109.842V153.455M1275.48 109.842H1319.09M1275.48 153.455V197.069M1275.48 153.455H1319.09M1275.48 197.069V240.683M1275.48 197.069H1319.09M1275.48 240.683V284.297M1275.48 240.683H1319.09M1275.48 284.297V327.911M1275.48 284.297H1319.09M1275.48 327.911V371.525M1275.48 327.911H1319.09M1275.48 371.525V415.139M1275.48 371.525H1319.09M1275.48 415.139V458.752M1275.48 415.139H1319.09M1275.48 458.752V502.366M1275.48 458.752H1319.09M1275.48 502.366V545.98M1275.48 502.366H1319.09M1275.48 545.98V589.594M1275.48 545.98H1319.09M1275.48 589.594V633.208M1275.48 589.594H1319.09M1275.48 633.208V676.822M1275.48 633.208H1319.09M1275.48 676.822V720.436M1275.48 676.822H1319.09M1275.48 720.436V764.049M1275.48 720.436H1319.09M1275.48 764.049V807.663M1275.48 764.049H1319.09M1275.48 807.663V851.277M1275.48 807.663H1319.09M1275.48 851.277H1319.09M1319.09 -21V22.6139M1319.09 -21H1362.7M1319.09 22.6139V66.2277M1319.09 22.6139H1362.7M1319.09 66.2277V109.842M1319.09 66.2277H1362.7M1319.09 109.842V153.455M1319.09 109.842H1362.7M1319.09 153.455V197.069M1319.09 153.455H1362.7M1319.09 197.069V240.683M1319.09 197.069H1362.7M1319.09 240.683V284.297M1319.09 240.683H1362.7M1319.09 284.297V327.911M1319.09 284.297H1362.7M1319.09 327.911V371.525M1319.09 327.911H1362.7M1319.09 371.525V415.139M1319.09 371.525H1362.7M1319.09 415.139V458.752M1319.09 415.139H1362.7M1319.09 458.752V502.366M1319.09 458.752H1362.7M1319.09 502.366V545.98M1319.09 502.366H1362.7M1319.09 545.98V589.594M1319.09 545.98H1362.7M1319.09 589.594V633.208M1319.09 589.594H1362.7M1319.09 633.208V676.822M1319.09 633.208H1362.7M1319.09 676.822V720.436M1319.09 676.822H1362.7M1319.09 720.436V764.049M1319.09 720.436H1362.7M1319.09 764.049V807.663M1319.09 764.049H1362.7M1319.09 807.663V851.277M1319.09 807.663H1362.7M1319.09 851.277H1362.7M1362.7 -21V22.6139M1362.7 -21H1406.32M1362.7 22.6139V66.2277M1362.7 22.6139H1406.32M1362.7 66.2277V109.842M1362.7 66.2277H1406.32M1362.7 109.842V153.455M1362.7 109.842H1406.32M1362.7 153.455V197.069M1362.7 153.455H1406.32M1362.7 197.069V240.683M1362.7 197.069H1406.32M1362.7 240.683V284.297M1362.7 240.683H1406.32M1362.7 284.297V327.911M1362.7 284.297H1406.32M1362.7 327.911V371.525M1362.7 327.911H1406.32M1362.7 371.525V415.139M1362.7 371.525H1406.32M1362.7 415.139V458.752M1362.7 415.139H1406.32M1362.7 458.752V502.366M1362.7 458.752H1406.32M1362.7 502.366V545.98M1362.7 502.366H1406.32M1362.7 545.98V589.594M1362.7 545.98H1406.32M1362.7 589.594V633.208M1362.7 589.594H1406.32M1362.7 633.208V676.822M1362.7 633.208H1406.32M1362.7 676.822V720.436M1362.7 676.822H1406.32M1362.7 720.436V764.049M1362.7 720.436H1406.32M1362.7 764.049V807.663M1362.7 764.049H1406.32M1362.7 807.663V851.277M1362.7 807.663H1406.32M1362.7 851.277H1406.32M1406.32 -21V22.6139M1406.32 -21H1449.93M1406.32 22.6139V66.2277M1406.32 22.6139H1449.93M1406.32 66.2277V109.842M1406.32 66.2277H1449.93M1406.32 109.842V153.455M1406.32 109.842H1449.93M1406.32 153.455V197.069M1406.32 153.455H1449.93M1406.32 197.069V240.683M1406.32 197.069H1449.93M1406.32 240.683V284.297M1406.32 240.683H1449.93M1406.32 284.297V327.911M1406.32 284.297H1449.93M1406.32 327.911V371.525M1406.32 327.911H1449.93M1406.32 371.525V415.139M1406.32 371.525H1449.93M1406.32 415.139V458.752M1406.32 415.139H1449.93M1406.32 458.752V502.366M1406.32 458.752H1449.93M1406.32 502.366V545.98M1406.32 502.366H1449.93M1406.32 545.98V589.594M1406.32 545.98H1449.93M1406.32 589.594V633.208M1406.32 589.594H1449.93M1406.32 633.208V676.822M1406.32 633.208H1449.93M1406.32 676.822V720.436M1406.32 676.822H1449.93M1406.32 720.436V764.049M1406.32 720.436H1449.93M1406.32 764.049V807.663M1406.32 764.049H1449.93M1406.32 807.663V851.277M1406.32 807.663H1449.93M1406.32 851.277H1449.93M1449.93 -21V22.6139M1449.93 -21H1493.55M1449.93 22.6139V66.2277M1449.93 22.6139H1493.55M1449.93 66.2277V109.842M1449.93 66.2277H1493.55M1449.93 109.842V153.455M1449.93 109.842H1493.55M1449.93 153.455V197.069M1449.93 153.455H1493.55M1449.93 197.069V240.683M1449.93 197.069H1493.55M1449.93 240.683V284.297M1449.93 240.683H1493.55M1449.93 284.297V327.911M1449.93 284.297H1493.55M1449.93 327.911V371.525M1449.93 327.911H1493.55M1449.93 371.525V415.139M1449.93 371.525H1493.55M1449.93 415.139V458.752M1449.93 415.139H1493.55M1449.93 458.752V502.366M1449.93 458.752H1493.55M1449.93 502.366V545.98M1449.93 502.366H1493.55M1449.93 545.98V589.594M1449.93 545.98H1493.55M1449.93 589.594V633.208M1449.93 589.594H1493.55M1449.93 633.208V676.822M1449.93 633.208H1493.55M1449.93 676.822V720.436M1449.93 676.822H1493.55M1449.93 720.436V764.049M1449.93 720.436H1493.55M1449.93 764.049V807.663M1449.93 764.049H1493.55M1449.93 807.663V851.277M1449.93 807.663H1493.55M1449.93 851.277H1493.55M1493.55 -21V22.6139M1493.55 -21H1537.16M1493.55 22.6139V66.2277M1493.55 22.6139H1537.16M1493.55 66.2277V109.842M1493.55 66.2277H1537.16M1493.55 109.842V153.455M1493.55 109.842H1537.16M1493.55 153.455V197.069M1493.55 153.455H1537.16M1493.55 197.069V240.683M1493.55 197.069H1537.16M1493.55 240.683V284.297M1493.55 240.683H1537.16M1493.55 284.297V327.911M1493.55 284.297H1537.16M1493.55 327.911V371.525M1493.55 327.911H1537.16M1493.55 371.525V415.139M1493.55 371.525H1537.16M1493.55 415.139V458.752M1493.55 415.139H1537.16M1493.55 458.752V502.366M1493.55 458.752H1537.16M1493.55 502.366V545.98M1493.55 502.366H1537.16M1493.55 545.98V589.594M1493.55 545.98H1537.16M1493.55 589.594V633.208M1493.55 589.594H1537.16M1493.55 633.208V676.822M1493.55 633.208H1537.16M1493.55 676.822V720.436M1493.55 676.822H1537.16M1493.55 720.436V764.049M1493.55 720.436H1537.16M1493.55 764.049V807.663M1493.55 764.049H1537.16M1493.55 807.663V851.277M1493.55 807.663H1537.16M1493.55 851.277H1537.16M1537.16 -21V22.6139M1537.16 -21H1580.77M1537.16 22.6139V66.2277M1537.16 22.6139H1580.77M1537.16 66.2277V109.842M1537.16 66.2277H1580.77M1537.16 109.842V153.455M1537.16 109.842H1580.77M1537.16 153.455V197.069M1537.16 153.455H1580.77M1537.16 197.069V240.683M1537.16 197.069H1580.77M1537.16 240.683V284.297M1537.16 240.683H1580.77M1537.16 284.297V327.911M1537.16 284.297H1580.77M1537.16 327.911V371.525M1537.16 327.911H1580.77M1537.16 371.525V415.139M1537.16 371.525H1580.77M1537.16 415.139V458.752M1537.16 415.139H1580.77M1537.16 458.752V502.366M1537.16 458.752H1580.77M1537.16 502.366V545.98M1537.16 502.366H1580.77M1537.16 545.98V589.594M1537.16 545.98H1580.77M1537.16 589.594V633.208M1537.16 589.594H1580.77M1537.16 633.208V676.822M1537.16 633.208H1580.77M1537.16 676.822V720.436M1537.16 676.822H1580.77M1537.16 720.436V764.049M1537.16 720.436H1580.77M1537.16 764.049V807.663M1537.16 764.049H1580.77M1537.16 807.663V851.277M1537.16 807.663H1580.77M1537.16 851.277H1580.77M1580.77 -21V22.6139M1580.77 -21H1624.39M1580.77 22.6139V66.2277M1580.77 22.6139H1624.39M1580.77 66.2277V109.842M1580.77 66.2277H1624.39M1580.77 109.842V153.455M1580.77 109.842H1624.39M1580.77 153.455V197.069M1580.77 153.455H1624.39M1580.77 197.069V240.683M1580.77 197.069H1624.39M1580.77 240.683V284.297M1580.77 240.683H1624.39M1580.77 284.297V327.911M1580.77 284.297H1624.39M1580.77 327.911V371.525M1580.77 327.911H1624.39M1580.77 371.525V415.139M1580.77 371.525H1624.39M1580.77 415.139V458.752M1580.77 415.139H1624.39M1580.77 458.752V502.366M1580.77 458.752H1624.39M1580.77 502.366V545.98M1580.77 502.366H1624.39M1580.77 545.98V589.594M1580.77 545.98H1624.39M1580.77 589.594V633.208M1580.77 589.594H1624.39M1580.77 633.208V676.822M1580.77 633.208H1624.39M1580.77 676.822V720.436M1580.77 676.822H1624.39M1580.77 720.436V764.049M1580.77 720.436H1624.39M1580.77 764.049V807.663M1580.77 764.049H1624.39M1580.77 807.663V851.277M1580.77 807.663H1624.39M1580.77 851.277H1624.39M1624.39 -21V22.6139M1624.39 -21H1668V22.6139M1624.39 22.6139V66.2277M1624.39 22.6139H1668M1624.39 66.2277V109.842M1624.39 66.2277H1668M1624.39 109.842V153.455M1624.39 109.842H1668M1624.39 153.455V197.069M1624.39 153.455H1668M1624.39 197.069V240.683M1624.39 197.069H1668M1624.39 240.683V284.297M1624.39 240.683H1668M1624.39 284.297V327.911M1624.39 284.297H1668M1624.39 327.911V371.525M1624.39 327.911H1668M1624.39 371.525V415.139M1624.39 371.525H1668M1624.39 415.139V458.752M1624.39 415.139H1668M1624.39 458.752V502.366M1624.39 458.752H1668M1624.39 502.366V545.98M1624.39 502.366H1668M1624.39 545.98V589.594M1624.39 545.98H1668M1624.39 589.594V633.208M1624.39 589.594H1668M1624.39 633.208V676.822M1624.39 633.208H1668M1624.39 676.822V720.436M1624.39 676.822H1668M1624.39 720.436V764.049M1624.39 720.436H1668M1624.39 764.049V807.663M1624.39 764.049H1668M1624.39 807.663V851.277M1624.39 807.663H1668M1624.39 851.277H1668V807.663M1668 22.6139V66.2277M1668 66.2277V109.842M1668 109.842V153.455M1668 153.455V197.069M1668 197.069V240.683M1668 240.683V284.297M1668 284.297V327.911M1668 327.911V371.525M1668 371.525V415.139M1668 415.139V458.752M1668 458.752V502.366M1668 502.366V545.98M1668 545.98V589.594M1668 589.594V633.208M1668 633.208V676.822M1668 676.822V720.436M1668 720.436V764.049M1668 764.049V807.663"
            stroke="black" stroke-width="0.493784" />
    </g>
    <path d="M177.5 323.627C152 306.294 75.4 273.027 -27 278.627"
        stroke="url(#paint2_linear_804_9281)" stroke-width="2" stroke-dasharray="9 9" />
    <g opacity="0.5" filter="url(#filter1_f_804_9281)">
        <path d="M126.5 296.627L185.5 313.127V331.127L170.5 338.627L126.5 296.627Z"
            fill="url(#paint3_linear_804_9281)" />
    </g>
    <g filter="url(#filter2_di_804_9281)">
        <path
            d="M177.72 303.861L176.135 321.613C176.05 322.565 175.517 323.419 174.698 323.914L160.215 332.664C157.698 334.185 158.644 338.043 161.579 338.226L202.092 340.758C204.544 340.911 206.131 338.213 204.804 336.145L183.234 302.509C181.69 300.102 177.974 301.014 177.72 303.861Z"
            fill="#FBCD5F" />
    </g>
    <g opacity="0.8" filter="url(#filter3_f_804_9281)">
        <rect x="174.234" y="324.457" width="5" height="32.3837"
            transform="rotate(-59.3906 174.234 324.457)" fill="white" />
    </g>
    <path d="M1211.5 205.627C1237 188.294 1313.6 155.027 1416 160.627"
        stroke="url(#paint4_linear_804_9281)" stroke-width="2" stroke-dasharray="9 9" />
    <g opacity="0.5" filter="url(#filter4_f_804_9281)">
        <path d="M1262.5 178.627L1203.5 195.127V213.127L1218.5 220.627L1262.5 178.627Z"
            fill="url(#paint5_linear_804_9281)" />
    </g>
    <g filter="url(#filter5_di_804_9281)">
        <path
            d="M1211.28 185.861L1212.86 203.613C1212.95 204.565 1213.48 205.419 1214.3 205.914L1228.79 214.664C1231.3 216.185 1230.36 220.043 1227.42 220.226L1186.91 222.758C1184.46 222.911 1182.87 220.213 1184.2 218.145L1205.77 184.509C1207.31 182.102 1211.03 183.014 1211.28 185.861Z"
            fill="#0064E2" />
    </g>
    <g opacity="0.4" filter="url(#filter6_f_804_9281)">
        <rect width="5" height="32.3837"
            transform="matrix(-0.509183 -0.860658 -0.860658 0.509183 1214.77 206.457)" fill="white" />
    </g>
    <defs>
        <filter id="filter0_f_804_9281" x="108" y="-294" width="1224" height="1224"
            filterUnits="userSpaceOnUse" color-interpolation-filters="sRGB">
            <feFlood flood-opacity="0" result="BackgroundImageFix" />
            <feBlend mode="normal" in="SourceGraphic" in2="BackgroundImageFix" result="shape" />
            <feGaussianBlur stdDeviation="200" result="effect1_foregroundBlur_804_9281" />
        </filter>
        <filter id="filter1_f_804_9281" x="94.5" y="264.627" width="123" height="106"
            filterUnits="userSpaceOnUse" color-interpolation-filters="sRGB">
            <feFlood flood-opacity="0" result="BackgroundImageFix" />
            <feBlend mode="normal" in="SourceGraphic" in2="BackgroundImageFix" result="shape" />
            <feGaussianBlur stdDeviation="16" result="effect1_foregroundBlur_804_9281" />
        </filter>
        <filter id="filter2_di_804_9281" x="135.263" y="281.625" width="93.5225" height="86.6397"
            filterUnits="userSpaceOnUse" color-interpolation-filters="sRGB">
            <feFlood flood-opacity="0" result="BackgroundImageFix" />
            <feColorMatrix in="SourceAlpha" type="matrix"
                values="0 0 0 0 0 0 0 0 0 0 0 0 0 0 0 0 0 0 127 0" result="hardAlpha" />
            <feOffset dy="4" />
            <feGaussianBlur stdDeviation="11.75" />
            <feComposite in2="hardAlpha" operator="out" />
            <feColorMatrix type="matrix"
                values="0 0 0 0 0.984314 0 0 0 0 0.803922 0 0 0 0 0.372549 0 0 0 0.5 0" />
            <feBlend mode="normal" in2="BackgroundImageFix" result="effect1_dropShadow_804_9281" />
            <feBlend mode="normal" in="SourceGraphic" in2="effect1_dropShadow_804_9281"
                result="shape" />
            <feColorMatrix in="SourceAlpha" type="matrix"
                values="0 0 0 0 0 0 0 0 0 0 0 0 0 0 0 0 0 0 127 0" result="hardAlpha" />
            <feOffset dy="4" />
            <feGaussianBlur stdDeviation="3.15" />
            <feComposite in2="hardAlpha" operator="arithmetic" k2="-1" k3="1" />
            <feColorMatrix type="matrix" values="0 0 0 0 1 0 0 0 0 1 0 0 0 0 1 0 0 0 0.25 0" />
            <feBlend mode="normal" in2="shape" result="effect2_innerShadow_804_9281" />
        </filter>
        <filter id="filter3_f_804_9281" x="165.634" y="311.554" width="47.6175" height="37.9925"
            filterUnits="userSpaceOnUse" color-interpolation-filters="sRGB">
            <feFlood flood-opacity="0" result="BackgroundImageFix" />
            <feBlend mode="normal" in="SourceGraphic" in2="BackgroundImageFix" result="shape" />
            <feGaussianBlur stdDeviation="4.3" result="effect1_foregroundBlur_804_9281" />
        </filter>
        <filter id="filter4_f_804_9281" x="1171.5" y="146.627" width="123" height="106"
            filterUnits="userSpaceOnUse" color-interpolation-filters="sRGB">
            <feFlood flood-opacity="0" result="BackgroundImageFix" />
            <feBlend mode="normal" in="SourceGraphic" in2="BackgroundImageFix" result="shape" />
            <feGaussianBlur stdDeviation="16" result="effect1_foregroundBlur_804_9281" />
        </filter>
        <filter id="filter5_di_804_9281" x="1160.21" y="163.625" width="93.5225" height="86.6397"
            filterUnits="userSpaceOnUse" color-interpolation-filters="sRGB">
            <feFlood flood-opacity="0" result="BackgroundImageFix" />
            <feColorMatrix in="SourceAlpha" type="matrix"
                values="0 0 0 0 0 0 0 0 0 0 0 0 0 0 0 0 0 0 127 0" result="hardAlpha" />
            <feOffset dy="4" />
            <feGaussianBlur stdDeviation="11.75" />
            <feComposite in2="hardAlpha" operator="out" />
            <feColorMatrix type="matrix"
                values="0 0 0 0 0 0 0 0 0 0.392157 0 0 0 0 0.886275 0 0 0 0.1 0" />
            <feBlend mode="normal" in2="BackgroundImageFix" result="effect1_dropShadow_804_9281" />
            <feBlend mode="normal" in="SourceGraphic" in2="effect1_dropShadow_804_9281"
                result="shape" />
            <feColorMatrix in="SourceAlpha" type="matrix"
                values="0 0 0 0 0 0 0 0 0 0 0 0 0 0 0 0 0 0 127 0" result="hardAlpha" />
            <feOffset dy="4" />
            <feGaussianBlur stdDeviation="3.15" />
            <feComposite in2="hardAlpha" operator="arithmetic" k2="-1" k3="1" />
            <feColorMatrix type="matrix" values="0 0 0 0 1 0 0 0 0 1 0 0 0 0 1 0 0 0 0.25 0" />
            <feBlend mode="normal" in2="shape" result="effect2_innerShadow_804_9281" />
        </filter>
        <filter id="filter6_f_804_9281" x="1175.75" y="193.554" width="47.6175" height="37.9925"
            filterUnits="userSpaceOnUse" color-interpolation-filters="sRGB">
            <feFlood flood-opacity="0" result="BackgroundImageFix" />
            <feBlend mode="normal" in="SourceGraphic" in2="BackgroundImageFix" result="shape" />
            <feGaussianBlur stdDeviation="4.3" result="effect1_foregroundBlur_804_9281" />
        </filter>
        <linearGradient id="paint0_linear_804_9281" x1="720" y1="106" x2="720" y2="530"
            gradientUnits="userSpaceOnUse">
            <stop stop-color="#FFEA00" />
            <stop offset="0.75" stop-color="#FFEA00" stop-opacity="0" />
        </linearGradient>
        <linearGradient id="paint1_linear_804_9281" x1="720" y1="140" x2="720" y2="496"
            gradientUnits="userSpaceOnUse">
            <stop stop-color="#FFEA00" />
            <stop offset="0.75" stop-color="#FFEA00" stop-opacity="0" />
        </linearGradient>
        <linearGradient id="paint2_linear_804_9281" x1="-33.5" y1="283.127" x2="177.5" y2="317.127"
            gradientUnits="userSpaceOnUse">
            <stop stop-color="#FBCE62" stop-opacity="0" />
            <stop offset="1" stop-color="#FBCE62" />
        </linearGradient>
        <linearGradient id="paint3_linear_804_9281" x1="179.5" y1="324.127" x2="160" y2="312.627"
            gradientUnits="userSpaceOnUse">
            <stop stop-color="#FBCF65" />
            <stop offset="1" stop-color="#FBCF65" stop-opacity="0" />
        </linearGradient>
        <linearGradient id="paint4_linear_804_9281" x1="1422.5" y1="165.127" x2="1211.5"
            y2="199.127" gradientUnits="userSpaceOnUse">
            <stop stop-color="#0064E2" stop-opacity="0" />
            <stop offset="1" stop-color="#0064E2" />
        </linearGradient>
        <linearGradient id="paint5_linear_804_9281" x1="1209.5" y1="206.127" x2="1229" y2="194.627"
            gradientUnits="userSpaceOnUse">
            <stop stop-color="#0064E2" />
            <stop offset="1" stop-color="#0064E2" stop-opacity="0" />
        </linearGradient>
    </defs>
</svg>