<svg width="1224" height="824" viewBox="0 0 1224 824" fill="none" xmlns="http://www.w3.org/2000/svg">
    <g opacity="0.4" filter="url(#filter0_f_804_9303)">
        <circle cx="612" cy="212" r="212" fill="url(#paint0_linear_804_9303)" />
    </g>
    <mask id="mask0_804_9303" style="mask-type:alpha" maskUnits="userSpaceOnUse" x="434" y="34"
        width="356" height="356">
        <circle opacity="0.5" cx="612" cy="212" r="178" fill="url(#paint1_linear_804_9303)" />
    </mask>
    <g mask="url(#mask0_804_9303)">
        <path opacity="0.8"
            d="M-315.394 -127H-359.008V-83.3861M-315.394 -127V-83.3861M-315.394 -127H-271.78M-315.394 -83.3861H-359.008M-315.394 -83.3861V-39.7723M-315.394 -83.3861H-271.78M-359.008 -83.3861V-39.7723M-315.394 -39.7723H-359.008M-315.394 -39.7723V3.84157M-315.394 -39.7723H-271.78M-359.008 -39.7723V3.84157M-315.394 3.84157H-359.008M-315.394 3.84157V47.4554M-315.394 3.84157H-271.78M-359.008 3.84157V47.4554M-315.394 47.4554H-359.008M-315.394 47.4554V91.0693M-315.394 47.4554H-271.78M-359.008 47.4554V91.0693M-315.394 91.0693H-359.008M-315.394 91.0693V134.683M-315.394 91.0693H-271.78M-359.008 91.0693V134.683M-315.394 134.683H-359.008M-315.394 134.683V178.297M-315.394 134.683H-271.78M-359.008 134.683V178.297M-315.394 178.297H-359.008M-315.394 178.297V221.911M-315.394 178.297H-271.78M-359.008 178.297V221.911M-315.394 221.911H-359.008M-315.394 221.911V265.525M-315.394 221.911H-271.78M-359.008 221.911V265.525M-315.394 265.525H-359.008M-315.394 265.525V309.139M-315.394 265.525H-271.78M-359.008 265.525V309.139M-315.394 309.139H-359.008M-315.394 309.139V352.752M-315.394 309.139H-271.78M-359.008 309.139V352.752M-315.394 352.752H-359.008M-315.394 352.752V396.366M-315.394 352.752H-271.78M-359.008 352.752V396.366M-315.394 396.366H-359.008M-315.394 396.366V439.98M-315.394 396.366H-271.78M-359.008 396.366V439.98M-315.394 439.98H-359.008M-315.394 439.98V483.594M-315.394 439.98H-271.78M-359.008 439.98V483.594M-315.394 483.594H-359.008M-315.394 483.594V527.208M-315.394 483.594H-271.78M-359.008 483.594V527.208M-315.394 527.208H-359.008M-315.394 527.208V570.822M-315.394 527.208H-271.78M-359.008 527.208V570.822M-315.394 570.822H-359.008M-315.394 570.822V614.436M-315.394 570.822H-271.78M-359.008 570.822V614.436M-315.394 614.436H-359.008M-315.394 614.436V658.049M-315.394 614.436H-271.78M-359.008 614.436V658.049M-315.394 658.049H-359.008M-315.394 658.049V701.663M-315.394 658.049H-271.78M-359.008 658.049V701.663M-315.394 701.663H-359.008M-315.394 701.663V745.277M-315.394 701.663H-271.78M-359.008 701.663V745.277H-315.394M-315.394 745.277H-271.78M-271.78 -127V-83.3861M-271.78 -127H-228.166M-271.78 -83.3861V-39.7723M-271.78 -83.3861H-228.166M-271.78 -39.7723V3.84157M-271.78 -39.7723H-228.166M-271.78 3.84157V47.4554M-271.78 3.84157H-228.166M-271.78 47.4554V91.0693M-271.78 47.4554H-228.166M-271.78 91.0693V134.683M-271.78 91.0693H-228.166M-271.78 134.683V178.297M-271.78 134.683H-228.166M-271.78 178.297V221.911M-271.78 178.297H-228.166M-271.78 221.911V265.525M-271.78 221.911H-228.166M-271.78 265.525V309.139M-271.78 265.525H-228.166M-271.78 309.139V352.752M-271.78 309.139H-228.166M-271.78 352.752V396.366M-271.78 352.752H-228.166M-271.78 396.366V439.98M-271.78 396.366H-228.166M-271.78 439.98V483.594M-271.78 439.98H-228.166M-271.78 483.594V527.208M-271.78 483.594H-228.166M-271.78 527.208V570.822M-271.78 527.208H-228.166M-271.78 570.822V614.436M-271.78 570.822H-228.166M-271.78 614.436V658.049M-271.78 614.436H-228.166M-271.78 658.049V701.663M-271.78 658.049H-228.166M-271.78 701.663V745.277M-271.78 701.663H-228.166M-271.78 745.277H-228.166M-228.166 -127V-83.3861M-228.166 -127H-184.552M-228.166 -83.3861V-39.7723M-228.166 -83.3861H-184.552M-228.166 -39.7723V3.84157M-228.166 -39.7723H-184.552M-228.166 3.84157V47.4554M-228.166 3.84157H-184.552M-228.166 47.4554V91.0693M-228.166 47.4554H-184.552M-228.166 91.0693V134.683M-228.166 91.0693H-184.552M-228.166 134.683V178.297M-228.166 134.683H-184.552M-228.166 178.297V221.911M-228.166 178.297H-184.552M-228.166 221.911V265.525M-228.166 221.911H-184.552M-228.166 265.525V309.139M-228.166 265.525H-184.552M-228.166 309.139V352.752M-228.166 309.139H-184.552M-228.166 352.752V396.366M-228.166 352.752H-184.552M-228.166 396.366V439.98M-228.166 396.366H-184.552M-228.166 439.98V483.594M-228.166 439.98H-184.552M-228.166 483.594V527.208M-228.166 483.594H-184.552M-228.166 527.208V570.822M-228.166 527.208H-184.552M-228.166 570.822V614.436M-228.166 570.822H-184.552M-228.166 614.436V658.049M-228.166 614.436H-184.552M-228.166 658.049V701.663M-228.166 658.049H-184.552M-228.166 701.663V745.277M-228.166 701.663H-184.552M-228.166 745.277H-184.552M-184.552 -127V-83.3861M-184.552 -127H-140.939M-184.552 -83.3861V-39.7723M-184.552 -83.3861H-140.939M-184.552 -39.7723V3.84157M-184.552 -39.7723H-140.939M-184.552 3.84157V47.4554M-184.552 3.84157H-140.939M-184.552 47.4554V91.0693M-184.552 47.4554H-140.939M-184.552 91.0693V134.683M-184.552 91.0693H-140.939M-184.552 134.683V178.297M-184.552 134.683H-140.939M-184.552 178.297V221.911M-184.552 178.297H-140.939M-184.552 221.911V265.525M-184.552 221.911H-140.939M-184.552 265.525V309.139M-184.552 265.525H-140.939M-184.552 309.139V352.752M-184.552 309.139H-140.939M-184.552 352.752V396.366M-184.552 352.752H-140.939M-184.552 396.366V439.98M-184.552 396.366H-140.939M-184.552 439.98V483.594M-184.552 439.98H-140.939M-184.552 483.594V527.208M-184.552 483.594H-140.939M-184.552 527.208V570.822M-184.552 527.208H-140.939M-184.552 570.822V614.436M-184.552 570.822H-140.939M-184.552 614.436V658.049M-184.552 614.436H-140.939M-184.552 658.049V701.663M-184.552 658.049H-140.939M-184.552 701.663V745.277M-184.552 701.663H-140.939M-184.552 745.277H-140.939M-140.939 -127V-83.3861M-140.939 -127H-97.3247M-140.939 -83.3861V-39.7723M-140.939 -83.3861H-97.3247M-140.939 -39.7723V3.84157M-140.939 -39.7723H-97.3247M-140.939 3.84157V47.4554M-140.939 3.84157H-97.3247M-140.939 47.4554V91.0693M-140.939 47.4554H-97.3247M-140.939 91.0693V134.683M-140.939 91.0693H-97.3247M-140.939 134.683V178.297M-140.939 134.683H-97.3247M-140.939 178.297V221.911M-140.939 178.297H-97.3247M-140.939 221.911V265.525M-140.939 221.911H-97.3247M-140.939 265.525V309.139M-140.939 265.525H-97.3247M-140.939 309.139V352.752M-140.939 309.139H-97.3247M-140.939 352.752V396.366M-140.939 352.752H-97.3247M-140.939 396.366V439.98M-140.939 396.366H-97.3247M-140.939 439.98V483.594M-140.939 439.98H-97.3247M-140.939 483.594V527.208M-140.939 483.594H-97.3247M-140.939 527.208V570.822M-140.939 527.208H-97.3247M-140.939 570.822V614.436M-140.939 570.822H-97.3247M-140.939 614.436V658.049M-140.939 614.436H-97.3247M-140.939 658.049V701.663M-140.939 658.049H-97.3247M-140.939 701.663V745.277M-140.939 701.663H-97.3247M-140.939 745.277H-97.3247M-97.3247 -127V-83.3861M-97.3247 -127H-53.7108M-97.3247 -83.3861V-39.7723M-97.3247 -83.3861H-53.7108M-97.3247 -39.7723V3.84157M-97.3247 -39.7723H-53.7108M-97.3247 3.84157V47.4554M-97.3247 3.84157H-53.7108M-97.3247 47.4554V91.0693M-97.3247 47.4554H-53.7108M-97.3247 91.0693V134.683M-97.3247 91.0693H-53.7108M-97.3247 134.683V178.297M-97.3247 134.683H-53.7108M-97.3247 178.297V221.911M-97.3247 178.297H-53.7108M-97.3247 221.911V265.525M-97.3247 221.911H-53.7108M-97.3247 265.525V309.139M-97.3247 265.525H-53.7108M-97.3247 309.139V352.752M-97.3247 309.139H-53.7108M-97.3247 352.752V396.366M-97.3247 352.752H-53.7108M-97.3247 396.366V439.98M-97.3247 396.366H-53.7108M-97.3247 439.98V483.594M-97.3247 439.98H-53.7108M-97.3247 483.594V527.208M-97.3247 483.594H-53.7108M-97.3247 527.208V570.822M-97.3247 527.208H-53.7108M-97.3247 570.822V614.436M-97.3247 570.822H-53.7108M-97.3247 614.436V658.049M-97.3247 614.436H-53.7108M-97.3247 658.049V701.663M-97.3247 658.049H-53.7108M-97.3247 701.663V745.277M-97.3247 701.663H-53.7108M-97.3247 745.277H-53.7108M-53.7108 -127V-83.3861M-53.7108 -127H-10.097M-53.7108 -83.3861V-39.7723M-53.7108 -83.3861H-10.097M-53.7108 -39.7723V3.84157M-53.7108 -39.7723H-10.097M-53.7108 3.84157V47.4554M-53.7108 3.84157H-10.097M-53.7108 47.4554V91.0693M-53.7108 47.4554H-10.097M-53.7108 91.0693V134.683M-53.7108 91.0693H-10.097M-53.7108 134.683V178.297M-53.7108 134.683H-10.097M-53.7108 178.297V221.911M-53.7108 178.297H-10.097M-53.7108 221.911V265.525M-53.7108 221.911H-10.097M-53.7108 265.525V309.139M-53.7108 265.525H-10.097M-53.7108 309.139V352.752M-53.7108 309.139H-10.097M-53.7108 352.752V396.366M-53.7108 352.752H-10.097M-53.7108 396.366V439.98M-53.7108 396.366H-10.097M-53.7108 439.98V483.594M-53.7108 439.98H-10.097M-53.7108 483.594V527.208M-53.7108 483.594H-10.097M-53.7108 527.208V570.822M-53.7108 527.208H-10.097M-53.7108 570.822V614.436M-53.7108 570.822H-10.097M-53.7108 614.436V658.049M-53.7108 614.436H-10.097M-53.7108 658.049V701.663M-53.7108 658.049H-10.097M-53.7108 701.663V745.277M-53.7108 701.663H-10.097M-53.7108 745.277H-10.097M-10.097 -127V-83.3861M-10.097 -127H33.5169M-10.097 -83.3861V-39.7723M-10.097 -83.3861H33.5169M-10.097 -39.7723V3.84157M-10.097 -39.7723H33.5169M-10.097 3.84157V47.4554M-10.097 3.84157H33.5169M-10.097 47.4554V91.0693M-10.097 47.4554H33.5169M-10.097 91.0693V134.683M-10.097 91.0693H33.5169M-10.097 134.683V178.297M-10.097 134.683H33.5169M-10.097 178.297V221.911M-10.097 178.297H33.5169M-10.097 221.911V265.525M-10.097 221.911H33.5169M-10.097 265.525V309.139M-10.097 265.525H33.5169M-10.097 309.139V352.752M-10.097 309.139H33.5169M-10.097 352.752V396.366M-10.097 352.752H33.5169M-10.097 396.366V439.98M-10.097 396.366H33.5169M-10.097 439.98V483.594M-10.097 439.98H33.5169M-10.097 483.594V527.208M-10.097 483.594H33.5169M-10.097 527.208V570.822M-10.097 527.208H33.5169M-10.097 570.822V614.436M-10.097 570.822H33.5169M-10.097 614.436V658.049M-10.097 614.436H33.5169M-10.097 658.049V701.663M-10.097 658.049H33.5169M-10.097 701.663V745.277M-10.097 701.663H33.5169M-10.097 745.277H33.5169M33.5169 -127V-83.3861M33.5169 -127H77.1307M33.5169 -83.3861V-39.7723M33.5169 -83.3861H77.1307M33.5169 -39.7723V3.84157M33.5169 -39.7723H77.1307M33.5169 3.84157V47.4554M33.5169 3.84157H77.1307M33.5169 47.4554V91.0693M33.5169 47.4554H77.1307M33.5169 91.0693V134.683M33.5169 91.0693H77.1307M33.5169 134.683V178.297M33.5169 134.683H77.1307M33.5169 178.297V221.911M33.5169 178.297H77.1307M33.5169 221.911V265.525M33.5169 221.911H77.1307M33.5169 265.525V309.139M33.5169 265.525H77.1307M33.5169 309.139V352.752M33.5169 309.139H77.1307M33.5169 352.752V396.366M33.5169 352.752H77.1307M33.5169 396.366V439.98M33.5169 396.366H77.1307M33.5169 439.98V483.594M33.5169 439.98H77.1307M33.5169 483.594V527.208M33.5169 483.594H77.1307M33.5169 527.208V570.822M33.5169 527.208H77.1307M33.5169 570.822V614.436M33.5169 570.822H77.1307M33.5169 614.436V658.049M33.5169 614.436H77.1307M33.5169 658.049V701.663M33.5169 658.049H77.1307M33.5169 701.663V745.277M33.5169 701.663H77.1307M33.5169 745.277H77.1307M77.1307 -127V-83.3861M77.1307 -127H120.745M77.1307 -83.3861V-39.7723M77.1307 -83.3861H120.745M77.1307 -39.7723V3.84157M77.1307 -39.7723H120.745M77.1307 3.84157V47.4554M77.1307 3.84157H120.745M77.1307 47.4554V91.0693M77.1307 47.4554H120.745M77.1307 91.0693V134.683M77.1307 91.0693H120.745M77.1307 134.683V178.297M77.1307 134.683H120.745M77.1307 178.297V221.911M77.1307 178.297H120.745M77.1307 221.911V265.525M77.1307 221.911H120.745M77.1307 265.525V309.139M77.1307 265.525H120.745M77.1307 309.139V352.752M77.1307 309.139H120.745M77.1307 352.752V396.366M77.1307 352.752H120.745M77.1307 396.366V439.98M77.1307 396.366H120.745M77.1307 439.98V483.594M77.1307 439.98H120.745M77.1307 483.594V527.208M77.1307 483.594H120.745M77.1307 527.208V570.822M77.1307 527.208H120.745M77.1307 570.822V614.436M77.1307 570.822H120.745M77.1307 614.436V658.049M77.1307 614.436H120.745M77.1307 658.049V701.663M77.1307 658.049H120.745M77.1307 701.663V745.277M77.1307 701.663H120.745M77.1307 745.277H120.745M120.745 -127V-83.3861M120.745 -127H164.358M120.745 -83.3861V-39.7723M120.745 -83.3861H164.358M120.745 -39.7723V3.84157M120.745 -39.7723H164.358M120.745 3.84157V47.4554M120.745 3.84157H164.358M120.745 47.4554V91.0693M120.745 47.4554H164.358M120.745 91.0693V134.683M120.745 91.0693H164.358M120.745 134.683V178.297M120.745 134.683H164.358M120.745 178.297V221.911M120.745 178.297H164.358M120.745 221.911V265.525M120.745 221.911H164.358M120.745 265.525V309.139M120.745 265.525H164.358M120.745 309.139V352.752M120.745 309.139H164.358M120.745 352.752V396.366M120.745 352.752H164.358M120.745 396.366V439.98M120.745 396.366H164.358M120.745 439.98V483.594M120.745 439.98H164.358M120.745 483.594V527.208M120.745 483.594H164.358M120.745 527.208V570.822M120.745 527.208H164.358M120.745 570.822V614.436M120.745 570.822H164.358M120.745 614.436V658.049M120.745 614.436H164.358M120.745 658.049V701.663M120.745 658.049H164.358M120.745 701.663V745.277M120.745 701.663H164.358M120.745 745.277H164.358M164.358 -127V-83.3861M164.358 -127H207.972M164.358 -83.3861V-39.7723M164.358 -83.3861H207.972M164.358 -39.7723V3.84157M164.358 -39.7723H207.972M164.358 3.84157V47.4554M164.358 3.84157H207.972M164.358 47.4554V91.0693M164.358 47.4554H207.972M164.358 91.0693V134.683M164.358 91.0693H207.972M164.358 134.683V178.297M164.358 134.683H207.972M164.358 178.297V221.911M164.358 178.297H207.972M164.358 221.911V265.525M164.358 221.911H207.972M164.358 265.525V309.139M164.358 265.525H207.972M164.358 309.139V352.752M164.358 309.139H207.972M164.358 352.752V396.366M164.358 352.752H207.972M164.358 396.366V439.98M164.358 396.366H207.972M164.358 439.98V483.594M164.358 439.98H207.972M164.358 483.594V527.208M164.358 483.594H207.972M164.358 527.208V570.822M164.358 527.208H207.972M164.358 570.822V614.436M164.358 570.822H207.972M164.358 614.436V658.049M164.358 614.436H207.972M164.358 658.049V701.663M164.358 658.049H207.972M164.358 701.663V745.277M164.358 701.663H207.972M164.358 745.277H207.972M207.972 -127V-83.3861M207.972 -127H251.586M207.972 -83.3861V-39.7723M207.972 -83.3861H251.586M207.972 -39.7723V3.84157M207.972 -39.7723H251.586M207.972 3.84157V47.4554M207.972 3.84157H251.586M207.972 47.4554V91.0693M207.972 47.4554H251.586M207.972 91.0693V134.683M207.972 91.0693H251.586M207.972 134.683V178.297M207.972 134.683H251.586M207.972 178.297V221.911M207.972 178.297H251.586M207.972 221.911V265.525M207.972 221.911H251.586M207.972 265.525V309.139M207.972 265.525H251.586M207.972 309.139V352.752M207.972 309.139H251.586M207.972 352.752V396.366M207.972 352.752H251.586M207.972 396.366V439.98M207.972 396.366H251.586M207.972 439.98V483.594M207.972 439.98H251.586M207.972 483.594V527.208M207.972 483.594H251.586M207.972 527.208V570.822M207.972 527.208H251.586M207.972 570.822V614.436M207.972 570.822H251.586M207.972 614.436V658.049M207.972 614.436H251.586M207.972 658.049V701.663M207.972 658.049H251.586M207.972 701.663V745.277M207.972 701.663H251.586M207.972 745.277H251.586M251.586 -127V-83.3861M251.586 -127H295.2M251.586 -83.3861V-39.7723M251.586 -83.3861H295.2M251.586 -39.7723V3.84157M251.586 -39.7723H295.2M251.586 3.84157V47.4554M251.586 3.84157H295.2M251.586 47.4554V91.0693M251.586 47.4554H295.2M251.586 91.0693V134.683M251.586 91.0693H295.2M251.586 134.683V178.297M251.586 134.683H295.2M251.586 178.297V221.911M251.586 178.297H295.2M251.586 221.911V265.525M251.586 221.911H295.2M251.586 265.525V309.139M251.586 265.525H295.2M251.586 309.139V352.752M251.586 309.139H295.2M251.586 352.752V396.366M251.586 352.752H295.2M251.586 396.366V439.98M251.586 396.366H295.2M251.586 439.98V483.594M251.586 439.98H295.2M251.586 483.594V527.208M251.586 483.594H295.2M251.586 527.208V570.822M251.586 527.208H295.2M251.586 570.822V614.436M251.586 570.822H295.2M251.586 614.436V658.049M251.586 614.436H295.2M251.586 658.049V701.663M251.586 658.049H295.2M251.586 701.663V745.277M251.586 701.663H295.2M251.586 745.277H295.2M295.2 -127V-83.3861M295.2 -127H338.814M295.2 -83.3861V-39.7723M295.2 -83.3861H338.814M295.2 -39.7723V3.84157M295.2 -39.7723H338.814M295.2 3.84157V47.4554M295.2 3.84157H338.814M295.2 47.4554V91.0693M295.2 47.4554H338.814M295.2 91.0693V134.683M295.2 91.0693H338.814M295.2 134.683V178.297M295.2 134.683H338.814M295.2 178.297V221.911M295.2 178.297H338.814M295.2 221.911V265.525M295.2 221.911H338.814M295.2 265.525V309.139M295.2 265.525H338.814M295.2 309.139V352.752M295.2 309.139H338.814M295.2 352.752V396.366M295.2 352.752H338.814M295.2 396.366V439.98M295.2 396.366H338.814M295.2 439.98V483.594M295.2 439.98H338.814M295.2 483.594V527.208M295.2 483.594H338.814M295.2 527.208V570.822M295.2 527.208H338.814M295.2 570.822V614.436M295.2 570.822H338.814M295.2 614.436V658.049M295.2 614.436H338.814M295.2 658.049V701.663M295.2 658.049H338.814M295.2 701.663V745.277M295.2 701.663H338.814M295.2 745.277H338.814M338.814 -127V-83.3861M338.814 -127H382.428M338.814 -83.3861V-39.7723M338.814 -83.3861H382.428M338.814 -39.7723V3.84157M338.814 -39.7723H382.428M338.814 3.84157V47.4554M338.814 3.84157H382.428M338.814 47.4554V91.0693M338.814 47.4554H382.428M338.814 91.0693V134.683M338.814 91.0693H382.428M338.814 134.683V178.297M338.814 134.683H382.428M338.814 178.297V221.911M338.814 178.297H382.428M338.814 221.911V265.525M338.814 221.911H382.428M338.814 265.525V309.139M338.814 265.525H382.428M338.814 309.139V352.752M338.814 309.139H382.428M338.814 352.752V396.366M338.814 352.752H382.428M338.814 396.366V439.98M338.814 396.366H382.428M338.814 439.98V483.594M338.814 439.98H382.428M338.814 483.594V527.208M338.814 483.594H382.428M338.814 527.208V570.822M338.814 527.208H382.428M338.814 570.822V614.436M338.814 570.822H382.428M338.814 614.436V658.049M338.814 614.436H382.428M338.814 658.049V701.663M338.814 658.049H382.428M338.814 701.663V745.277M338.814 701.663H382.428M338.814 745.277H382.428M382.428 -127V-83.3861M382.428 -127H426.042M382.428 -83.3861V-39.7723M382.428 -83.3861H426.042M382.428 -39.7723V3.84157M382.428 -39.7723H426.042M382.428 3.84157V47.4554M382.428 3.84157H426.042M382.428 47.4554V91.0693M382.428 47.4554H426.042M382.428 91.0693V134.683M382.428 91.0693H426.042M382.428 134.683V178.297M382.428 134.683H426.042M382.428 178.297V221.911M382.428 178.297H426.042M382.428 221.911V265.525M382.428 221.911H426.042M382.428 265.525V309.139M382.428 265.525H426.042M382.428 309.139V352.752M382.428 309.139H426.042M382.428 352.752V396.366M382.428 352.752H426.042M382.428 396.366V439.98M382.428 396.366H426.042M382.428 439.98V483.594M382.428 439.98H426.042M382.428 483.594V527.208M382.428 483.594H426.042M382.428 527.208V570.822M382.428 527.208H426.042M382.428 570.822V614.436M382.428 570.822H426.042M382.428 614.436V658.049M382.428 614.436H426.042M382.428 658.049V701.663M382.428 658.049H426.042M382.428 701.663V745.277M382.428 701.663H426.042M382.428 745.277H426.042M426.042 -127V-83.3861M426.042 -127H469.655M426.042 -83.3861V-39.7723M426.042 -83.3861H469.655M426.042 -39.7723V3.84157M426.042 -39.7723H469.655M426.042 3.84157V47.4554M426.042 3.84157H469.655M426.042 47.4554V91.0693M426.042 47.4554H469.655M426.042 91.0693V134.683M426.042 91.0693H469.655M426.042 134.683V178.297M426.042 134.683H469.655M426.042 178.297V221.911M426.042 178.297H469.655M426.042 221.911V265.525M426.042 221.911H469.655M426.042 265.525V309.139M426.042 265.525H469.655M426.042 309.139V352.752M426.042 309.139H469.655M426.042 352.752V396.366M426.042 352.752H469.655M426.042 396.366V439.98M426.042 396.366H469.655M426.042 439.98V483.594M426.042 439.98H469.655M426.042 483.594V527.208M426.042 483.594H469.655M426.042 527.208V570.822M426.042 527.208H469.655M426.042 570.822V614.436M426.042 570.822H469.655M426.042 614.436V658.049M426.042 614.436H469.655M426.042 658.049V701.663M426.042 658.049H469.655M426.042 701.663V745.277M426.042 701.663H469.655M426.042 745.277H469.655M469.655 -127V-83.3861M469.655 -127H513.269M469.655 -83.3861V-39.7723M469.655 -83.3861H513.269M469.655 -39.7723V3.84157M469.655 -39.7723H513.269M469.655 3.84157V47.4554M469.655 3.84157H513.269M469.655 47.4554V91.0693M469.655 47.4554H513.269M469.655 91.0693V134.683M469.655 91.0693H513.269M469.655 134.683V178.297M469.655 134.683H513.269M469.655 178.297V221.911M469.655 178.297H513.269M469.655 221.911V265.525M469.655 221.911H513.269M469.655 265.525V309.139M469.655 265.525H513.269M469.655 309.139V352.752M469.655 309.139H513.269M469.655 352.752V396.366M469.655 352.752H513.269M469.655 396.366V439.98M469.655 396.366H513.269M469.655 439.98V483.594M469.655 439.98H513.269M469.655 483.594V527.208M469.655 483.594H513.269M469.655 527.208V570.822M469.655 527.208H513.269M469.655 570.822V614.436M469.655 570.822H513.269M469.655 614.436V658.049M469.655 614.436H513.269M469.655 658.049V701.663M469.655 658.049H513.269M469.655 701.663V745.277M469.655 701.663H513.269M469.655 745.277H513.269M513.269 -127V-83.3861M513.269 -127H556.883M513.269 -83.3861V-39.7723M513.269 -83.3861H556.883M513.269 -39.7723V3.84157M513.269 -39.7723H556.883M513.269 3.84157V47.4554M513.269 3.84157H556.883M513.269 47.4554V91.0693M513.269 47.4554H556.883M513.269 91.0693V134.683M513.269 91.0693H556.883M513.269 134.683V178.297M513.269 134.683H556.883M513.269 178.297V221.911M513.269 178.297H556.883M513.269 221.911V265.525M513.269 221.911H556.883M513.269 265.525V309.139M513.269 265.525H556.883M513.269 309.139V352.752M513.269 309.139H556.883M513.269 352.752V396.366M513.269 352.752H556.883M513.269 396.366V439.98M513.269 396.366H556.883M513.269 439.98V483.594M513.269 439.98H556.883M513.269 483.594V527.208M513.269 483.594H556.883M513.269 527.208V570.822M513.269 527.208H556.883M513.269 570.822V614.436M513.269 570.822H556.883M513.269 614.436V658.049M513.269 614.436H556.883M513.269 658.049V701.663M513.269 658.049H556.883M513.269 701.663V745.277M513.269 701.663H556.883M513.269 745.277H556.883M556.883 -127V-83.3861M556.883 -127H600.497M556.883 -83.3861V-39.7723M556.883 -83.3861H600.497M556.883 -39.7723V3.84157M556.883 -39.7723H600.497M556.883 3.84157V47.4554M556.883 3.84157H600.497M556.883 47.4554V91.0693M556.883 47.4554H600.497M556.883 91.0693V134.683M556.883 91.0693H600.497M556.883 134.683V178.297M556.883 134.683H600.497M556.883 178.297V221.911M556.883 178.297H600.497M556.883 221.911V265.525M556.883 221.911H600.497M556.883 265.525V309.139M556.883 265.525H600.497M556.883 309.139V352.752M556.883 309.139H600.497M556.883 352.752V396.366M556.883 352.752H600.497M556.883 396.366V439.98M556.883 396.366H600.497M556.883 439.98V483.594M556.883 439.98H600.497M556.883 483.594V527.208M556.883 483.594H600.497M556.883 527.208V570.822M556.883 527.208H600.497M556.883 570.822V614.436M556.883 570.822H600.497M556.883 614.436V658.049M556.883 614.436H600.497M556.883 658.049V701.663M556.883 658.049H600.497M556.883 701.663V745.277M556.883 701.663H600.497M556.883 745.277H600.497M600.497 -127V-83.3861M600.497 -127H644.111M600.497 -83.3861V-39.7723M600.497 -83.3861H644.111M600.497 -39.7723V3.84157M600.497 -39.7723H644.111M600.497 3.84157V47.4554M600.497 3.84157H644.111M600.497 47.4554V91.0693M600.497 47.4554H644.111M600.497 91.0693V134.683M600.497 91.0693H644.111M600.497 134.683V178.297M600.497 134.683H644.111M600.497 178.297V221.911M600.497 178.297H644.111M600.497 221.911V265.525M600.497 221.911H644.111M600.497 265.525V309.139M600.497 265.525H644.111M600.497 309.139V352.752M600.497 309.139H644.111M600.497 352.752V396.366M600.497 352.752H644.111M600.497 396.366V439.98M600.497 396.366H644.111M600.497 439.98V483.594M600.497 439.98H644.111M600.497 483.594V527.208M600.497 483.594H644.111M600.497 527.208V570.822M600.497 527.208H644.111M600.497 570.822V614.436M600.497 570.822H644.111M600.497 614.436V658.049M600.497 614.436H644.111M600.497 658.049V701.663M600.497 658.049H644.111M600.497 701.663V745.277M600.497 701.663H644.111M600.497 745.277H644.111M644.111 -127V-83.3861M644.111 -127H687.725M644.111 -83.3861V-39.7723M644.111 -83.3861H687.725M644.111 -39.7723V3.84157M644.111 -39.7723H687.725M644.111 3.84157V47.4554M644.111 3.84157H687.725M644.111 47.4554V91.0693M644.111 47.4554H687.725M644.111 91.0693V134.683M644.111 91.0693H687.725M644.111 134.683V178.297M644.111 134.683H687.725M644.111 178.297V221.911M644.111 178.297H687.725M644.111 221.911V265.525M644.111 221.911H687.725M644.111 265.525V309.139M644.111 265.525H687.725M644.111 309.139V352.752M644.111 309.139H687.725M644.111 352.752V396.366M644.111 352.752H687.725M644.111 396.366V439.98M644.111 396.366H687.725M644.111 439.98V483.594M644.111 439.98H687.725M644.111 483.594V527.208M644.111 483.594H687.725M644.111 527.208V570.822M644.111 527.208H687.725M644.111 570.822V614.436M644.111 570.822H687.725M644.111 614.436V658.049M644.111 614.436H687.725M644.111 658.049V701.663M644.111 658.049H687.725M644.111 701.663V745.277M644.111 701.663H687.725M644.111 745.277H687.725M687.725 -127V-83.3861M687.725 -127H731.339M687.725 -83.3861V-39.7723M687.725 -83.3861H731.339M687.725 -39.7723V3.84157M687.725 -39.7723H731.339M687.725 3.84157V47.4554M687.725 3.84157H731.339M687.725 47.4554V91.0693M687.725 47.4554H731.339M687.725 91.0693V134.683M687.725 91.0693H731.339M687.725 134.683V178.297M687.725 134.683H731.339M687.725 178.297V221.911M687.725 178.297H731.339M687.725 221.911V265.525M687.725 221.911H731.339M687.725 265.525V309.139M687.725 265.525H731.339M687.725 309.139V352.752M687.725 309.139H731.339M687.725 352.752V396.366M687.725 352.752H731.339M687.725 396.366V439.98M687.725 396.366H731.339M687.725 439.98V483.594M687.725 439.98H731.339M687.725 483.594V527.208M687.725 483.594H731.339M687.725 527.208V570.822M687.725 527.208H731.339M687.725 570.822V614.436M687.725 570.822H731.339M687.725 614.436V658.049M687.725 614.436H731.339M687.725 658.049V701.663M687.725 658.049H731.339M687.725 701.663V745.277M687.725 701.663H731.339M687.725 745.277H731.339M731.339 -127V-83.3861M731.339 -127H774.952M731.339 -83.3861V-39.7723M731.339 -83.3861H774.952M731.339 -39.7723V3.84157M731.339 -39.7723H774.952M731.339 3.84157V47.4554M731.339 3.84157H774.952M731.339 47.4554V91.0693M731.339 47.4554H774.952M731.339 91.0693V134.683M731.339 91.0693H774.952M731.339 134.683V178.297M731.339 134.683H774.952M731.339 178.297V221.911M731.339 178.297H774.952M731.339 221.911V265.525M731.339 221.911H774.952M731.339 265.525V309.139M731.339 265.525H774.952M731.339 309.139V352.752M731.339 309.139H774.952M731.339 352.752V396.366M731.339 352.752H774.952M731.339 396.366V439.98M731.339 396.366H774.952M731.339 439.98V483.594M731.339 439.98H774.952M731.339 483.594V527.208M731.339 483.594H774.952M731.339 527.208V570.822M731.339 527.208H774.952M731.339 570.822V614.436M731.339 570.822H774.952M731.339 614.436V658.049M731.339 614.436H774.952M731.339 658.049V701.663M731.339 658.049H774.952M731.339 701.663V745.277M731.339 701.663H774.952M731.339 745.277H774.952M774.952 -127V-83.3861M774.952 -127H818.566M774.952 -83.3861V-39.7723M774.952 -83.3861H818.566M774.952 -39.7723V3.84157M774.952 -39.7723H818.566M774.952 3.84157V47.4554M774.952 3.84157H818.566M774.952 47.4554V91.0693M774.952 47.4554H818.566M774.952 91.0693V134.683M774.952 91.0693H818.566M774.952 134.683V178.297M774.952 134.683H818.566M774.952 178.297V221.911M774.952 178.297H818.566M774.952 221.911V265.525M774.952 221.911H818.566M774.952 265.525V309.139M774.952 265.525H818.566M774.952 309.139V352.752M774.952 309.139H818.566M774.952 352.752V396.366M774.952 352.752H818.566M774.952 396.366V439.98M774.952 396.366H818.566M774.952 439.98V483.594M774.952 439.98H818.566M774.952 483.594V527.208M774.952 483.594H818.566M774.952 527.208V570.822M774.952 527.208H818.566M774.952 570.822V614.436M774.952 570.822H818.566M774.952 614.436V658.049M774.952 614.436H818.566M774.952 658.049V701.663M774.952 658.049H818.566M774.952 701.663V745.277M774.952 701.663H818.566M774.952 745.277H818.566M818.566 -127V-83.3861M818.566 -127H862.18M818.566 -83.3861V-39.7723M818.566 -83.3861H862.18M818.566 -39.7723V3.84157M818.566 -39.7723H862.18M818.566 3.84157V47.4554M818.566 3.84157H862.18M818.566 47.4554V91.0693M818.566 47.4554H862.18M818.566 91.0693V134.683M818.566 91.0693H862.18M818.566 134.683V178.297M818.566 134.683H862.18M818.566 178.297V221.911M818.566 178.297H862.18M818.566 221.911V265.525M818.566 221.911H862.18M818.566 265.525V309.139M818.566 265.525H862.18M818.566 309.139V352.752M818.566 309.139H862.18M818.566 352.752V396.366M818.566 352.752H862.18M818.566 396.366V439.98M818.566 396.366H862.18M818.566 439.98V483.594M818.566 439.98H862.18M818.566 483.594V527.208M818.566 483.594H862.18M818.566 527.208V570.822M818.566 527.208H862.18M818.566 570.822V614.436M818.566 570.822H862.18M818.566 614.436V658.049M818.566 614.436H862.18M818.566 658.049V701.663M818.566 658.049H862.18M818.566 701.663V745.277M818.566 701.663H862.18M818.566 745.277H862.18M862.18 -127V-83.3861M862.18 -127H905.794M862.18 -83.3861V-39.7723M862.18 -83.3861H905.794M862.18 -39.7723V3.84157M862.18 -39.7723H905.794M862.18 3.84157V47.4554M862.18 3.84157H905.794M862.18 47.4554V91.0693M862.18 47.4554H905.794M862.18 91.0693V134.683M862.18 91.0693H905.794M862.18 134.683V178.297M862.18 134.683H905.794M862.18 178.297V221.911M862.18 178.297H905.794M862.18 221.911V265.525M862.18 221.911H905.794M862.18 265.525V309.139M862.18 265.525H905.794M862.18 309.139V352.752M862.18 309.139H905.794M862.18 352.752V396.366M862.18 352.752H905.794M862.18 396.366V439.98M862.18 396.366H905.794M862.18 439.98V483.594M862.18 439.98H905.794M862.18 483.594V527.208M862.18 483.594H905.794M862.18 527.208V570.822M862.18 527.208H905.794M862.18 570.822V614.436M862.18 570.822H905.794M862.18 614.436V658.049M862.18 614.436H905.794M862.18 658.049V701.663M862.18 658.049H905.794M862.18 701.663V745.277M862.18 701.663H905.794M862.18 745.277H905.794M905.794 -127V-83.3861M905.794 -127H949.408M905.794 -83.3861V-39.7723M905.794 -83.3861H949.408M905.794 -39.7723V3.84157M905.794 -39.7723H949.408M905.794 3.84157V47.4554M905.794 3.84157H949.408M905.794 47.4554V91.0693M905.794 47.4554H949.408M905.794 91.0693V134.683M905.794 91.0693H949.408M905.794 134.683V178.297M905.794 134.683H949.408M905.794 178.297V221.911M905.794 178.297H949.408M905.794 221.911V265.525M905.794 221.911H949.408M905.794 265.525V309.139M905.794 265.525H949.408M905.794 309.139V352.752M905.794 309.139H949.408M905.794 352.752V396.366M905.794 352.752H949.408M905.794 396.366V439.98M905.794 396.366H949.408M905.794 439.98V483.594M905.794 439.98H949.408M905.794 483.594V527.208M905.794 483.594H949.408M905.794 527.208V570.822M905.794 527.208H949.408M905.794 570.822V614.436M905.794 570.822H949.408M905.794 614.436V658.049M905.794 614.436H949.408M905.794 658.049V701.663M905.794 658.049H949.408M905.794 701.663V745.277M905.794 701.663H949.408M905.794 745.277H949.408M949.408 -127V-83.3861M949.408 -127H993.022M949.408 -83.3861V-39.7723M949.408 -83.3861H993.022M949.408 -39.7723V3.84157M949.408 -39.7723H993.022M949.408 3.84157V47.4554M949.408 3.84157H993.022M949.408 47.4554V91.0693M949.408 47.4554H993.022M949.408 91.0693V134.683M949.408 91.0693H993.022M949.408 134.683V178.297M949.408 134.683H993.022M949.408 178.297V221.911M949.408 178.297H993.022M949.408 221.911V265.525M949.408 221.911H993.022M949.408 265.525V309.139M949.408 265.525H993.022M949.408 309.139V352.752M949.408 309.139H993.022M949.408 352.752V396.366M949.408 352.752H993.022M949.408 396.366V439.98M949.408 396.366H993.022M949.408 439.98V483.594M949.408 439.98H993.022M949.408 483.594V527.208M949.408 483.594H993.022M949.408 527.208V570.822M949.408 527.208H993.022M949.408 570.822V614.436M949.408 570.822H993.022M949.408 614.436V658.049M949.408 614.436H993.022M949.408 658.049V701.663M949.408 658.049H993.022M949.408 701.663V745.277M949.408 701.663H993.022M949.408 745.277H993.022M993.022 -127V-83.3861M993.022 -127H1036.64M993.022 -83.3861V-39.7723M993.022 -83.3861H1036.64M993.022 -39.7723V3.84157M993.022 -39.7723H1036.64M993.022 3.84157V47.4554M993.022 3.84157H1036.64M993.022 47.4554V91.0693M993.022 47.4554H1036.64M993.022 91.0693V134.683M993.022 91.0693H1036.64M993.022 134.683V178.297M993.022 134.683H1036.64M993.022 178.297V221.911M993.022 178.297H1036.64M993.022 221.911V265.525M993.022 221.911H1036.64M993.022 265.525V309.139M993.022 265.525H1036.64M993.022 309.139V352.752M993.022 309.139H1036.64M993.022 352.752V396.366M993.022 352.752H1036.64M993.022 396.366V439.98M993.022 396.366H1036.64M993.022 439.98V483.594M993.022 439.98H1036.64M993.022 483.594V527.208M993.022 483.594H1036.64M993.022 527.208V570.822M993.022 527.208H1036.64M993.022 570.822V614.436M993.022 570.822H1036.64M993.022 614.436V658.049M993.022 614.436H1036.64M993.022 658.049V701.663M993.022 658.049H1036.64M993.022 701.663V745.277M993.022 701.663H1036.64M993.022 745.277H1036.64M1036.64 -127V-83.3861M1036.64 -127H1080.25M1036.64 -83.3861V-39.7723M1036.64 -83.3861H1080.25M1036.64 -39.7723V3.84157M1036.64 -39.7723H1080.25M1036.64 3.84157V47.4554M1036.64 3.84157H1080.25M1036.64 47.4554V91.0693M1036.64 47.4554H1080.25M1036.64 91.0693V134.683M1036.64 91.0693H1080.25M1036.64 134.683V178.297M1036.64 134.683H1080.25M1036.64 178.297V221.911M1036.64 178.297H1080.25M1036.64 221.911V265.525M1036.64 221.911H1080.25M1036.64 265.525V309.139M1036.64 265.525H1080.25M1036.64 309.139V352.752M1036.64 309.139H1080.25M1036.64 352.752V396.366M1036.64 352.752H1080.25M1036.64 396.366V439.98M1036.64 396.366H1080.25M1036.64 439.98V483.594M1036.64 439.98H1080.25M1036.64 483.594V527.208M1036.64 483.594H1080.25M1036.64 527.208V570.822M1036.64 527.208H1080.25M1036.64 570.822V614.436M1036.64 570.822H1080.25M1036.64 614.436V658.049M1036.64 614.436H1080.25M1036.64 658.049V701.663M1036.64 658.049H1080.25M1036.64 701.663V745.277M1036.64 701.663H1080.25M1036.64 745.277H1080.25M1080.25 -127V-83.3861M1080.25 -127H1123.86M1080.25 -83.3861V-39.7723M1080.25 -83.3861H1123.86M1080.25 -39.7723V3.84157M1080.25 -39.7723H1123.86M1080.25 3.84157V47.4554M1080.25 3.84157H1123.86M1080.25 47.4554V91.0693M1080.25 47.4554H1123.86M1080.25 91.0693V134.683M1080.25 91.0693H1123.86M1080.25 134.683V178.297M1080.25 134.683H1123.86M1080.25 178.297V221.911M1080.25 178.297H1123.86M1080.25 221.911V265.525M1080.25 221.911H1123.86M1080.25 265.525V309.139M1080.25 265.525H1123.86M1080.25 309.139V352.752M1080.25 309.139H1123.86M1080.25 352.752V396.366M1080.25 352.752H1123.86M1080.25 396.366V439.98M1080.25 396.366H1123.86M1080.25 439.98V483.594M1080.25 439.98H1123.86M1080.25 483.594V527.208M1080.25 483.594H1123.86M1080.25 527.208V570.822M1080.25 527.208H1123.86M1080.25 570.822V614.436M1080.25 570.822H1123.86M1080.25 614.436V658.049M1080.25 614.436H1123.86M1080.25 658.049V701.663M1080.25 658.049H1123.86M1080.25 701.663V745.277M1080.25 701.663H1123.86M1080.25 745.277H1123.86M1123.86 -127V-83.3861M1123.86 -127H1167.48M1123.86 -83.3861V-39.7723M1123.86 -83.3861H1167.48M1123.86 -39.7723V3.84157M1123.86 -39.7723H1167.48M1123.86 3.84157V47.4554M1123.86 3.84157H1167.48M1123.86 47.4554V91.0693M1123.86 47.4554H1167.48M1123.86 91.0693V134.683M1123.86 91.0693H1167.48M1123.86 134.683V178.297M1123.86 134.683H1167.48M1123.86 178.297V221.911M1123.86 178.297H1167.48M1123.86 221.911V265.525M1123.86 221.911H1167.48M1123.86 265.525V309.139M1123.86 265.525H1167.48M1123.86 309.139V352.752M1123.86 309.139H1167.48M1123.86 352.752V396.366M1123.86 352.752H1167.48M1123.86 396.366V439.98M1123.86 396.366H1167.48M1123.86 439.98V483.594M1123.86 439.98H1167.48M1123.86 483.594V527.208M1123.86 483.594H1167.48M1123.86 527.208V570.822M1123.86 527.208H1167.48M1123.86 570.822V614.436M1123.86 570.822H1167.48M1123.86 614.436V658.049M1123.86 614.436H1167.48M1123.86 658.049V701.663M1123.86 658.049H1167.48M1123.86 701.663V745.277M1123.86 701.663H1167.48M1123.86 745.277H1167.48M1167.48 -127V-83.3861M1167.48 -127H1211.09M1167.48 -83.3861V-39.7723M1167.48 -83.3861H1211.09M1167.48 -39.7723V3.84157M1167.48 -39.7723H1211.09M1167.48 3.84157V47.4554M1167.48 3.84157H1211.09M1167.48 47.4554V91.0693M1167.48 47.4554H1211.09M1167.48 91.0693V134.683M1167.48 91.0693H1211.09M1167.48 134.683V178.297M1167.48 134.683H1211.09M1167.48 178.297V221.911M1167.48 178.297H1211.09M1167.48 221.911V265.525M1167.48 221.911H1211.09M1167.48 265.525V309.139M1167.48 265.525H1211.09M1167.48 309.139V352.752M1167.48 309.139H1211.09M1167.48 352.752V396.366M1167.48 352.752H1211.09M1167.48 396.366V439.98M1167.48 396.366H1211.09M1167.48 439.98V483.594M1167.48 439.98H1211.09M1167.48 483.594V527.208M1167.48 483.594H1211.09M1167.48 527.208V570.822M1167.48 527.208H1211.09M1167.48 570.822V614.436M1167.48 570.822H1211.09M1167.48 614.436V658.049M1167.48 614.436H1211.09M1167.48 658.049V701.663M1167.48 658.049H1211.09M1167.48 701.663V745.277M1167.48 701.663H1211.09M1167.48 745.277H1211.09M1211.09 -127V-83.3861M1211.09 -127H1254.7M1211.09 -83.3861V-39.7723M1211.09 -83.3861H1254.7M1211.09 -39.7723V3.84157M1211.09 -39.7723H1254.7M1211.09 3.84157V47.4554M1211.09 3.84157H1254.7M1211.09 47.4554V91.0693M1211.09 47.4554H1254.7M1211.09 91.0693V134.683M1211.09 91.0693H1254.7M1211.09 134.683V178.297M1211.09 134.683H1254.7M1211.09 178.297V221.911M1211.09 178.297H1254.7M1211.09 221.911V265.525M1211.09 221.911H1254.7M1211.09 265.525V309.139M1211.09 265.525H1254.7M1211.09 309.139V352.752M1211.09 309.139H1254.7M1211.09 352.752V396.366M1211.09 352.752H1254.7M1211.09 396.366V439.98M1211.09 396.366H1254.7M1211.09 439.98V483.594M1211.09 439.98H1254.7M1211.09 483.594V527.208M1211.09 483.594H1254.7M1211.09 527.208V570.822M1211.09 527.208H1254.7M1211.09 570.822V614.436M1211.09 570.822H1254.7M1211.09 614.436V658.049M1211.09 614.436H1254.7M1211.09 658.049V701.663M1211.09 658.049H1254.7M1211.09 701.663V745.277M1211.09 701.663H1254.7M1211.09 745.277H1254.7M1254.7 -127V-83.3861M1254.7 -127H1298.32M1254.7 -83.3861V-39.7723M1254.7 -83.3861H1298.32M1254.7 -39.7723V3.84157M1254.7 -39.7723H1298.32M1254.7 3.84157V47.4554M1254.7 3.84157H1298.32M1254.7 47.4554V91.0693M1254.7 47.4554H1298.32M1254.7 91.0693V134.683M1254.7 91.0693H1298.32M1254.7 134.683V178.297M1254.7 134.683H1298.32M1254.7 178.297V221.911M1254.7 178.297H1298.32M1254.7 221.911V265.525M1254.7 221.911H1298.32M1254.7 265.525V309.139M1254.7 265.525H1298.32M1254.7 309.139V352.752M1254.7 309.139H1298.32M1254.7 352.752V396.366M1254.7 352.752H1298.32M1254.7 396.366V439.98M1254.7 396.366H1298.32M1254.7 439.98V483.594M1254.7 439.98H1298.32M1254.7 483.594V527.208M1254.7 483.594H1298.32M1254.7 527.208V570.822M1254.7 527.208H1298.32M1254.7 570.822V614.436M1254.7 570.822H1298.32M1254.7 614.436V658.049M1254.7 614.436H1298.32M1254.7 658.049V701.663M1254.7 658.049H1298.32M1254.7 701.663V745.277M1254.7 701.663H1298.32M1254.7 745.277H1298.32M1298.32 -127V-83.3861M1298.32 -127H1341.93M1298.32 -83.3861V-39.7723M1298.32 -83.3861H1341.93M1298.32 -39.7723V3.84157M1298.32 -39.7723H1341.93M1298.32 3.84157V47.4554M1298.32 3.84157H1341.93M1298.32 47.4554V91.0693M1298.32 47.4554H1341.93M1298.32 91.0693V134.683M1298.32 91.0693H1341.93M1298.32 134.683V178.297M1298.32 134.683H1341.93M1298.32 178.297V221.911M1298.32 178.297H1341.93M1298.32 221.911V265.525M1298.32 221.911H1341.93M1298.32 265.525V309.139M1298.32 265.525H1341.93M1298.32 309.139V352.752M1298.32 309.139H1341.93M1298.32 352.752V396.366M1298.32 352.752H1341.93M1298.32 396.366V439.98M1298.32 396.366H1341.93M1298.32 439.98V483.594M1298.32 439.98H1341.93M1298.32 483.594V527.208M1298.32 483.594H1341.93M1298.32 527.208V570.822M1298.32 527.208H1341.93M1298.32 570.822V614.436M1298.32 570.822H1341.93M1298.32 614.436V658.049M1298.32 614.436H1341.93M1298.32 658.049V701.663M1298.32 658.049H1341.93M1298.32 701.663V745.277M1298.32 701.663H1341.93M1298.32 745.277H1341.93M1341.93 -127V-83.3861M1341.93 -127H1385.55M1341.93 -83.3861V-39.7723M1341.93 -83.3861H1385.55M1341.93 -39.7723V3.84157M1341.93 -39.7723H1385.55M1341.93 3.84157V47.4554M1341.93 3.84157H1385.55M1341.93 47.4554V91.0693M1341.93 47.4554H1385.55M1341.93 91.0693V134.683M1341.93 91.0693H1385.55M1341.93 134.683V178.297M1341.93 134.683H1385.55M1341.93 178.297V221.911M1341.93 178.297H1385.55M1341.93 221.911V265.525M1341.93 221.911H1385.55M1341.93 265.525V309.139M1341.93 265.525H1385.55M1341.93 309.139V352.752M1341.93 309.139H1385.55M1341.93 352.752V396.366M1341.93 352.752H1385.55M1341.93 396.366V439.98M1341.93 396.366H1385.55M1341.93 439.98V483.594M1341.93 439.98H1385.55M1341.93 483.594V527.208M1341.93 483.594H1385.55M1341.93 527.208V570.822M1341.93 527.208H1385.55M1341.93 570.822V614.436M1341.93 570.822H1385.55M1341.93 614.436V658.049M1341.93 614.436H1385.55M1341.93 658.049V701.663M1341.93 658.049H1385.55M1341.93 701.663V745.277M1341.93 701.663H1385.55M1341.93 745.277H1385.55M1385.55 -127V-83.3861M1385.55 -127H1429.16M1385.55 -83.3861V-39.7723M1385.55 -83.3861H1429.16M1385.55 -39.7723V3.84157M1385.55 -39.7723H1429.16M1385.55 3.84157V47.4554M1385.55 3.84157H1429.16M1385.55 47.4554V91.0693M1385.55 47.4554H1429.16M1385.55 91.0693V134.683M1385.55 91.0693H1429.16M1385.55 134.683V178.297M1385.55 134.683H1429.16M1385.55 178.297V221.911M1385.55 178.297H1429.16M1385.55 221.911V265.525M1385.55 221.911H1429.16M1385.55 265.525V309.139M1385.55 265.525H1429.16M1385.55 309.139V352.752M1385.55 309.139H1429.16M1385.55 352.752V396.366M1385.55 352.752H1429.16M1385.55 396.366V439.98M1385.55 396.366H1429.16M1385.55 439.98V483.594M1385.55 439.98H1429.16M1385.55 483.594V527.208M1385.55 483.594H1429.16M1385.55 527.208V570.822M1385.55 527.208H1429.16M1385.55 570.822V614.436M1385.55 570.822H1429.16M1385.55 614.436V658.049M1385.55 614.436H1429.16M1385.55 658.049V701.663M1385.55 658.049H1429.16M1385.55 701.663V745.277M1385.55 701.663H1429.16M1385.55 745.277H1429.16M1429.16 -127V-83.3861M1429.16 -127H1472.77M1429.16 -83.3861V-39.7723M1429.16 -83.3861H1472.77M1429.16 -39.7723V3.84157M1429.16 -39.7723H1472.77M1429.16 3.84157V47.4554M1429.16 3.84157H1472.77M1429.16 47.4554V91.0693M1429.16 47.4554H1472.77M1429.16 91.0693V134.683M1429.16 91.0693H1472.77M1429.16 134.683V178.297M1429.16 134.683H1472.77M1429.16 178.297V221.911M1429.16 178.297H1472.77M1429.16 221.911V265.525M1429.16 221.911H1472.77M1429.16 265.525V309.139M1429.16 265.525H1472.77M1429.16 309.139V352.752M1429.16 309.139H1472.77M1429.16 352.752V396.366M1429.16 352.752H1472.77M1429.16 396.366V439.98M1429.16 396.366H1472.77M1429.16 439.98V483.594M1429.16 439.98H1472.77M1429.16 483.594V527.208M1429.16 483.594H1472.77M1429.16 527.208V570.822M1429.16 527.208H1472.77M1429.16 570.822V614.436M1429.16 570.822H1472.77M1429.16 614.436V658.049M1429.16 614.436H1472.77M1429.16 658.049V701.663M1429.16 658.049H1472.77M1429.16 701.663V745.277M1429.16 701.663H1472.77M1429.16 745.277H1472.77M1472.77 -127V-83.3861M1472.77 -127H1516.39M1472.77 -83.3861V-39.7723M1472.77 -83.3861H1516.39M1472.77 -39.7723V3.84157M1472.77 -39.7723H1516.39M1472.77 3.84157V47.4554M1472.77 3.84157H1516.39M1472.77 47.4554V91.0693M1472.77 47.4554H1516.39M1472.77 91.0693V134.683M1472.77 91.0693H1516.39M1472.77 134.683V178.297M1472.77 134.683H1516.39M1472.77 178.297V221.911M1472.77 178.297H1516.39M1472.77 221.911V265.525M1472.77 221.911H1516.39M1472.77 265.525V309.139M1472.77 265.525H1516.39M1472.77 309.139V352.752M1472.77 309.139H1516.39M1472.77 352.752V396.366M1472.77 352.752H1516.39M1472.77 396.366V439.98M1472.77 396.366H1516.39M1472.77 439.98V483.594M1472.77 439.98H1516.39M1472.77 483.594V527.208M1472.77 483.594H1516.39M1472.77 527.208V570.822M1472.77 527.208H1516.39M1472.77 570.822V614.436M1472.77 570.822H1516.39M1472.77 614.436V658.049M1472.77 614.436H1516.39M1472.77 658.049V701.663M1472.77 658.049H1516.39M1472.77 701.663V745.277M1472.77 701.663H1516.39M1472.77 745.277H1516.39M1516.39 -127V-83.3861M1516.39 -127H1560V-83.3861M1516.39 -83.3861V-39.7723M1516.39 -83.3861H1560M1516.39 -39.7723V3.84157M1516.39 -39.7723H1560M1516.39 3.84157V47.4554M1516.39 3.84157H1560M1516.39 47.4554V91.0693M1516.39 47.4554H1560M1516.39 91.0693V134.683M1516.39 91.0693H1560M1516.39 134.683V178.297M1516.39 134.683H1560M1516.39 178.297V221.911M1516.39 178.297H1560M1516.39 221.911V265.525M1516.39 221.911H1560M1516.39 265.525V309.139M1516.39 265.525H1560M1516.39 309.139V352.752M1516.39 309.139H1560M1516.39 352.752V396.366M1516.39 352.752H1560M1516.39 396.366V439.98M1516.39 396.366H1560M1516.39 439.98V483.594M1516.39 439.98H1560M1516.39 483.594V527.208M1516.39 483.594H1560M1516.39 527.208V570.822M1516.39 527.208H1560M1516.39 570.822V614.436M1516.39 570.822H1560M1516.39 614.436V658.049M1516.39 614.436H1560M1516.39 658.049V701.663M1516.39 658.049H1560M1516.39 701.663V745.277M1516.39 701.663H1560M1516.39 745.277H1560V701.663M1560 -83.3861V-39.7723M1560 -39.7723V3.84157M1560 3.84157V47.4554M1560 47.4554V91.0693M1560 91.0693V134.683M1560 134.683V178.297M1560 178.297V221.911M1560 221.911V265.525M1560 265.525V309.139M1560 309.139V352.752M1560 352.752V396.366M1560 396.366V439.98M1560 439.98V483.594M1560 483.594V527.208M1560 527.208V570.822M1560 570.822V614.436M1560 614.436V658.049M1560 658.049V701.663"
            stroke="black" stroke-width="0.493784" />
    </g>
    <defs>
        <filter id="filter0_f_804_9303" x="0" y="-400" width="1224" height="1224"
            filterUnits="userSpaceOnUse" color-interpolation-filters="sRGB">
            <feFlood flood-opacity="0" result="BackgroundImageFix" />
            <feBlend mode="normal" in="SourceGraphic" in2="BackgroundImageFix" result="shape" />
            <feGaussianBlur stdDeviation="200" result="effect1_foregroundBlur_804_9303" />
        </filter>
        <linearGradient id="paint0_linear_804_9303" x1="612" y1="0" x2="612" y2="424"
            gradientUnits="userSpaceOnUse">
            <stop stop-color="#FFEA00" />
            <stop offset="0.75" stop-color="#FFEA00" stop-opacity="0" />
        </linearGradient>
        <linearGradient id="paint1_linear_804_9303" x1="612" y1="34" x2="612" y2="390"
            gradientUnits="userSpaceOnUse">
            <stop stop-color="#FFEA00" />
            <stop offset="0.75" stop-color="#FFEA00" stop-opacity="0" />
        </linearGradient>
    </defs>
</svg>