<svg width="231" height="184" viewBox="0 0 231 184" fill="none" xmlns="http://www.w3.org/2000/svg">
<path d="M19.582 133.789L44.5044 150L69.4268 133.789L94.3502 150L119.274 133.789L144.2 150L169.126 133.789L169.126 44L144.2 60.2101L119.274 44L94.3502 60.2101L69.4268 44L44.5044 60.2101L19.582 44L19.582 133.789Z" fill="#34AD5C"/>
<path d="M160.294 52.9313C167.743 12.5962 135.182 13.4696 144.971 53.342C135.182 13.4691 105.792 27.5106 131.14 59.9499C105.792 27.5106 84.6531 52.2922 121.192 71.6119C84.6531 52.2922 75.4215 83.5294 116.848 86.3117C75.4215 83.5294 79.6932 115.821 118.859 101.507C79.6932 115.821 96.73 143.583 126.876 114.572C96.7295 143.583 123.585 162.015 139.513 123.246C123.585 162.015 155.616 167.931 154.587 126.03C155.616 167.931 187.284 160.307 169.489 122.442C187.284 160.307 213.113 140.462 181.644 113.103C213.113 140.462 228.637 111.827 188.949 99.6284C228.637 111.827 231.172 79.3534 190.143 84.3465C231.172 79.3534 220.28 48.6559 185.017 69.9007C220.281 48.656 197.844 25.0429 174.459 58.7883C197.844 25.0423 167.743 12.5962 160.294 52.9313Z" fill="#FCCA23"/>
</svg>
