<svg width="274" height="219" viewBox="0 0 274 219" fill="none" xmlns="http://www.w3.org/2000/svg">
<path d="M84.5453 177.568C128.488 192.486 176.198 168.961 191.116 125.018L142.635 108.559C136.808 125.723 118.172 134.906 101.007 129.079C83.8505 123.254 74.6573 104.623 80.4845 87.4589L32.0036 70.9998C17.0852 114.942 40.6105 162.652 84.5453 177.568Z" fill="#017CF5"/>
<path d="M231.753 123.333L248.171 114.658L232.952 104.019L245.413 90.2514L227.473 85.4593L234.473 68.2599L215.976 69.8929L216.672 51.3363L199.849 59.1978L194.157 41.5217L181.036 54.663L169.642 40L161.807 56.8359L146.085 46.9545L144.481 65.4548L126.328 61.5467L131.148 79.4795L112.752 82.0159L123.415 97.2189L106.996 105.894L122.216 116.533L109.754 130.301L127.695 135.093L120.694 152.292L139.192 150.659L138.495 169.215L155.319 161.354L161.011 179.031L174.131 165.889L185.526 180.552L193.36 163.716L209.083 173.598L210.686 155.097L228.84 159.006L224.02 141.073L242.416 138.536L231.753 123.333Z" fill="#E62E2E"/>
</svg>
