<svg width="169" height="154" viewBox="0 0 169 154" fill="none" xmlns="http://www.w3.org/2000/svg">
    <g filter="url(#filter0_f_1571_26061)">
        <ellipse cx="77.3076" cy="76.9502" rx="14.6884" ry="14.6885" fill="#FBCD61" />
    </g>
    <g filter="url(#filter1_i_1571_26061)">
        <mask id="mask0_1571_26061" style="mask-type:alpha" maskUnits="userSpaceOnUse" x="86" y="22"
            width="81" height="115">
            <rect x="86.998" y="22.7496" width="79.063" height="114.005"
                fill="url(#paint0_linear_1571_26061)" />
        </mask>
        <g mask="url(#mask0_1571_26061)">
            <path d="M123.7 21.8608L89.8125 56.994L90.0617 133.24L123.7 122.277L123.7 21.8608Z"
                fill="#FEFACC" />
            <path
                d="M131.922 29.3363C104.264 36.7472 89.8125 65.9645 89.8125 65.9645L90.0617 131.496L123.7 120.533L131.922 29.3363Z"
                fill="#EAEAEA" />
            <path
                d="M139.893 33.3229C112.235 40.7338 95.3691 58.6717 95.3691 58.6717L98.0319 135.483L131.67 124.52L139.893 33.3229Z"
                fill="#DBD9D9" />
            <path
                d="M146.87 40.7981C107.003 48.0241 97.0957 59.2468 97.0957 59.2468L105.01 131.247L138.648 120.284L146.87 40.7981Z"
                fill="#EAEAEA" />
            <path
                d="M156.784 46.8477C116.392 50.0255 98.0532 59.4385 98.0532 59.4385L106.034 132.626L140.605 121.28L156.784 46.8477Z"
                fill="#D9D7D7" />
            <g filter="url(#filter2_i_1571_26061)">
                <path
                    d="M161.326 47.2767L98.0371 59.2369L98.0371 135.483L161.326 119.038L161.326 47.2767Z"
                    fill="url(#paint1_linear_1571_26061)" />
            </g>
            <g filter="url(#filter3_i_1571_26061)">
                <path
                    d="M89.8125 56.9941L98.0349 59.2367L98.0349 135.483L89.8614 133.241L89.8125 56.9941Z"
                    fill="#FFF153" />
            </g>
            <path
                d="M136.988 73.6416L147.313 73.6416L147.313 83.9668L154.613 91.2666L147.313 98.5664L147.313 108.892L136.989 108.892L129.687 116.193L122.386 108.892L112.062 108.892L112.062 98.5674L104.762 91.2666L112.062 83.9658L112.062 73.6416L122.387 73.6416L129.687 66.3408L136.988 73.6416Z"
                fill="#FFFEF8" fill-opacity="0.48" />
            <path
                d="M136.508 74.8002L146.154 74.8002L146.154 84.4467L152.974 91.267L146.154 98.0863L146.154 107.733L136.509 107.733L129.687 114.554L122.866 107.733L113.222 107.733L113.222 98.0883L106.4 91.267L113.222 84.4457L113.222 74.8002L122.867 74.8002L129.687 67.9799L136.508 74.8002Z"
                fill="#FFF154" />
            <path
                d="M135.841 76.3965L144.55 76.3965L144.55 85.1045L150.712 91.2666L144.55 97.4278L144.55 106.137L135.841 106.137L129.682 112.296L123.522 106.137L114.81 106.137L114.81 97.4239L108.652 91.2666L114.81 85.1094L114.81 76.3965L123.522 76.3965L129.682 70.2373L135.841 76.3965Z"
                fill="#FFFEF8" fill-opacity="0.48" />
            <path
                d="M135.435 77.3752L143.576 77.3752L143.576 85.5169L149.326 91.2669L143.576 97.0169L143.576 105.159L135.434 105.159L129.68 110.913L123.926 105.159L115.792 105.159L115.792 97.0257L110.033 91.2669L115.792 85.5081L115.792 77.3752L123.925 77.3752L129.68 71.6204L135.435 77.3752Z"
                fill="#FFF154" />
        </g>
        <g filter="url(#filter4_di_1571_26061)">
            <rect x="84.957" y="35.5861" width="25.2136" height="13.1068" rx="6.5534" fill="#FFDE22"
                shape-rendering="crispEdges" />
            <path
                d="M92.4878 40.8012L92.9042 40.8012L92.8765 43.0313L92.5156 43.0313L92.4878 40.8012ZM92.696 44.1625C92.548 44.1625 92.4323 44.0469 92.4323 43.8988C92.4323 43.7484 92.548 43.6351 92.696 43.6351C92.8464 43.6351 92.9597 43.7484 92.9597 43.8988C92.9597 44.0469 92.8464 44.1625 92.696 44.1625ZM95.6302 44.1631C95.4249 44.1631 95.248 44.1284 95.0995 44.0589C94.9542 43.9894 94.8516 43.8615 94.7916 43.6751C94.621 43.7162 94.4568 43.7335 94.2988 43.7272C94.1441 43.7177 94.0035 43.6877 93.8772 43.6372C93.7508 43.5835 93.6513 43.5109 93.5787 43.4193C93.506 43.3245 93.4697 43.2124 93.4697 43.0829C93.4697 42.9123 93.5234 42.7575 93.6308 42.6186C93.7382 42.4764 93.8835 42.3564 94.0667 42.2585C94.2499 42.1606 94.452 42.0926 94.6731 42.0547L94.6589 41.6947L95.0427 41.6947L95.1185 43.2582C95.1248 43.4066 95.1501 43.5187 95.1943 43.5946C95.2417 43.6672 95.3048 43.7162 95.3838 43.7414C95.4659 43.7635 95.5638 43.7746 95.6776 43.7746C95.7439 43.7746 95.7913 43.7935 95.8197 43.8314C95.8513 43.8662 95.8671 43.9088 95.8671 43.9594C95.8671 44.0099 95.845 44.0573 95.8007 44.1015C95.7565 44.1426 95.6997 44.1631 95.6302 44.1631ZM93.844 43.0213C93.844 43.0939 93.8724 43.1539 93.9293 43.2013C93.9893 43.2487 94.0651 43.2834 94.1567 43.3055C94.2483 43.3277 94.3446 43.3387 94.4457 43.3387C94.5499 43.3387 94.6463 43.3308 94.7347 43.315L94.6921 42.448C94.512 42.4669 94.3588 42.508 94.2325 42.5712C94.1062 42.6312 94.0098 42.7023 93.9435 42.7844C93.8772 42.8633 93.844 42.9423 93.844 43.0213ZM95.6317 44.1631L95.6791 43.7746C95.837 43.7746 95.9602 43.7635 96.0487 43.7414C96.1371 43.7162 96.2034 43.6704 96.2476 43.604C96.295 43.5345 96.3329 43.435 96.3614 43.3055C96.3898 43.176 96.4245 43.0071 96.4656 42.7986L96.8351 42.8697C96.8162 42.9549 96.7941 43.0529 96.7688 43.1634C96.7467 43.274 96.7356 43.3671 96.7356 43.4429C96.7356 43.4903 96.7388 43.5345 96.7451 43.5756C96.7514 43.6167 96.7751 43.6514 96.8162 43.6798C96.8573 43.7083 96.9267 43.732 97.0247 43.7509C97.1226 43.7667 97.2631 43.7746 97.4463 43.7746C97.5127 43.7746 97.56 43.7935 97.5885 43.8314C97.62 43.8662 97.6358 43.9088 97.6358 43.9594C97.6358 44.0099 97.6137 44.0573 97.5695 44.1015C97.5253 44.1426 97.4684 44.1631 97.3989 44.1631C97.1936 44.1631 97.0326 44.152 96.9157 44.1299C96.802 44.1047 96.7167 44.0699 96.6598 44.0257C96.6061 43.9783 96.5667 43.9199 96.5414 43.8504C96.4498 43.9799 96.3361 44.0652 96.2003 44.1062C96.0676 44.1441 95.8781 44.1631 95.6317 44.1631ZM96.8257 45.0586C96.7593 45.0586 96.7025 45.0349 96.6551 44.9875C96.6109 44.9433 96.5888 44.8896 96.5888 44.8264C96.5888 44.7632 96.6109 44.708 96.6551 44.6606C96.7025 44.6132 96.7593 44.5895 96.8257 44.5895C96.8888 44.5895 96.9425 44.6132 96.9868 44.6606C97.0341 44.708 97.0578 44.7632 97.0578 44.8264C97.0578 44.8896 97.0341 44.9433 96.9868 44.9875C96.9425 45.0349 96.8888 45.0586 96.8257 45.0586ZM96.1766 45.0586C96.1103 45.0586 96.0534 45.0349 96.006 44.9875C95.9618 44.9433 95.9397 44.8896 95.9397 44.8264C95.9397 44.7632 95.9618 44.708 96.006 44.6606C96.0534 44.6132 96.1103 44.5895 96.1766 44.5895C96.2398 44.5895 96.2934 44.6132 96.3377 44.6606C96.385 44.708 96.4087 44.7632 96.4087 44.8264C96.4087 44.8896 96.385 44.9433 96.3377 44.9875C96.2934 45.0349 96.2398 45.0586 96.1766 45.0586ZM97.3992 44.1631L97.4466 43.7746C97.5982 43.7746 97.7198 43.7651 97.8114 43.7462C97.9061 43.7272 97.974 43.6893 98.0151 43.6325C98.0562 43.5724 98.0767 43.484 98.0767 43.3671C98.0767 43.2503 98.0483 43.1002 97.9914 42.917C97.9377 42.7338 97.8761 42.5522 97.8066 42.3722L98.1904 42.23C98.2315 42.3343 98.2694 42.4511 98.3041 42.5806C98.342 42.707 98.3736 42.8333 98.3989 42.9597C98.4241 43.086 98.4368 43.1966 98.4368 43.2913C98.4368 43.6103 98.3515 43.8362 98.1809 43.9688C98.0135 44.0983 97.7529 44.1631 97.3992 44.1631ZM97.9061 45.0443C97.8398 45.0443 97.7829 45.0207 97.7356 44.9733C97.6913 44.9291 97.6692 44.8754 97.6692 44.8122C97.6692 44.749 97.6913 44.6937 97.7356 44.6464C97.7829 44.599 97.8398 44.5753 97.9061 44.5753C97.9693 44.5753 98.023 44.599 98.0672 44.6464C98.1146 44.6937 98.1383 44.749 98.1383 44.8122C98.1383 44.8754 98.1146 44.9291 98.0672 44.9733C98.023 45.0207 97.9693 45.0443 97.9061 45.0443ZM98.6905 45.2386L98.5531 44.8785C98.8595 44.7774 99.098 44.6574 99.2685 44.5184C99.4422 44.3795 99.5638 44.2342 99.6333 44.0826C99.706 43.9278 99.7423 43.7778 99.7423 43.6325C99.7423 43.4777 99.7076 43.3213 99.6381 43.1634C99.5717 43.0023 99.4975 42.8507 99.4154 42.7086L99.7613 42.5333C99.8497 42.7007 99.9239 42.8618 99.9839 43.0165C100.047 43.1713 100.096 43.3071 100.131 43.424C100.175 43.5598 100.232 43.653 100.301 43.7035C100.374 43.7509 100.472 43.7746 100.595 43.7746C100.661 43.7746 100.709 43.7935 100.737 43.8314C100.769 43.8662 100.785 43.9088 100.785 43.9594C100.785 44.0099 100.763 44.0573 100.718 44.1015C100.674 44.1426 100.617 44.1631 100.548 44.1631C100.428 44.1631 100.327 44.1441 100.245 44.1062C100.166 44.0683 100.101 44.0178 100.05 43.9546C100.019 44.1315 99.9523 44.2926 99.8513 44.4379C99.7502 44.5832 99.6318 44.7095 99.4959 44.8169C99.3601 44.9275 99.2211 45.0175 99.079 45.087C98.9369 45.1565 98.8074 45.207 98.6905 45.2386ZM100.55 44.1631L100.597 43.7746C100.796 43.7746 100.95 43.773 101.057 43.7699C101.168 43.7667 101.248 43.7635 101.299 43.7604C101.349 43.7541 101.384 43.7509 101.403 43.7509C101.346 43.7193 101.28 43.6704 101.204 43.604C101.128 43.5345 101.062 43.4477 101.005 43.3434C100.948 43.2361 100.92 43.1097 100.92 42.9644C100.92 42.7875 100.961 42.6312 101.043 42.4954C101.128 42.3564 101.243 42.249 101.389 42.1732C101.537 42.0974 101.706 42.0595 101.896 42.0595C102.047 42.0595 102.204 42.0848 102.365 42.1353L102.284 42.5001C102.151 42.4654 102.022 42.448 101.896 42.448C101.722 42.448 101.58 42.4954 101.469 42.5901C101.362 42.6817 101.308 42.8065 101.308 42.9644C101.308 43.0687 101.335 43.1618 101.389 43.244C101.442 43.3229 101.509 43.3908 101.588 43.4477C101.67 43.5014 101.753 43.5424 101.839 43.5709C101.927 43.5993 102.006 43.6119 102.076 43.6088C102.126 43.593 102.172 43.5788 102.213 43.5661C102.257 43.5503 102.311 43.5298 102.374 43.5045C102.44 43.4793 102.535 43.4382 102.658 43.3813L102.791 43.7272C102.579 43.8125 102.363 43.8883 102.142 43.9546C101.924 44.021 101.686 44.0731 101.427 44.111C101.171 44.1457 100.879 44.1631 100.55 44.1631Z"
                fill="#020409" />
        </g>
        <g filter="url(#filter5_di_1571_26061)">
            <rect x="46.168" y="78.2318" width="60.2135" height="13.1068" rx="6.5534" fill="#0064E2"
                shape-rendering="crispEdges" />
            <path
                d="M56.8889 86.7852L56.5003 86.7852L56.5003 84.2126L56.4841 84.2126L55.4199 86.762L55.0683 86.762L54.0041 84.2126L53.9879 84.2126L53.9879 86.7852L53.5993 86.7852L53.5993 83.4469L54.0828 83.4469L55.2348 86.2323L55.2534 86.2323L56.4054 83.4469L56.8889 83.4469L56.8889 86.7852ZM58.4389 84.6869C58.0618 84.6869 57.7981 84.9761 57.7727 85.3763L59.0797 85.3763C59.0705 84.9738 58.8183 84.6869 58.4389 84.6869ZM59.0705 86.0958L59.4661 86.0958C59.3967 86.5168 58.9895 86.8268 58.4644 86.8268C57.775 86.8268 57.3562 86.3479 57.3562 85.5914C57.3562 84.8442 57.7819 84.3376 58.4459 84.3376C59.0959 84.3376 59.4961 84.8095 59.4961 85.5382L59.4961 85.6909L57.7703 85.6909L57.7703 85.7141C57.7703 86.1744 58.041 86.4775 58.4736 86.4775C58.779 86.4775 59.0034 86.3225 59.0705 86.0958ZM59.9033 86.7852L59.9033 84.3792L60.2827 84.3792L60.2827 84.7632L60.292 84.7632C60.4053 84.5088 60.6505 84.3376 60.9744 84.3376C61.3029 84.3376 61.5458 84.5041 61.6499 84.7956L61.6592 84.7956C61.7934 84.5088 62.0756 84.3376 62.4134 84.3376C62.8899 84.3376 63.1976 84.6476 63.1976 85.1241L63.1976 86.7852L62.7951 86.7852L62.7951 85.2167C62.7951 84.8882 62.6123 84.6938 62.2954 84.6938C61.9761 84.6938 61.7517 84.9298 61.7517 85.256L61.7517 86.7852L61.3492 86.7852L61.3492 85.1727C61.3492 84.8835 61.1549 84.6938 60.8564 84.6938C60.5372 84.6938 60.3058 84.9437 60.3058 85.2768L60.3058 86.7852L59.9033 86.7852ZM64.9072 86.8268C64.5556 86.8268 64.2803 86.6556 64.1253 86.378L64.116 86.378L64.116 86.7852L63.732 86.7852L63.732 83.4469L64.1345 83.4469L64.1345 84.7817L64.1438 84.7817C64.2942 84.5064 64.5741 84.3376 64.9141 84.3376C65.5203 84.3376 65.9297 84.828 65.9297 85.5822C65.9297 86.3387 65.5226 86.8268 64.9072 86.8268ZM64.8286 84.6915C64.4214 84.6915 64.1322 85.0478 64.1322 85.5822C64.1322 86.1189 64.4214 86.4728 64.8286 86.4728C65.2542 86.4728 65.5179 86.1328 65.5179 85.5822C65.5179 85.0362 65.2542 84.6915 64.8286 84.6915ZM67.3039 84.6869C66.9268 84.6869 66.6631 84.9761 66.6376 85.3763L67.9447 85.3763C67.9355 84.9738 67.6833 84.6869 67.3039 84.6869ZM67.9355 86.0958L68.331 86.0958C68.2616 86.5168 67.8545 86.8268 67.3293 86.8268C66.6399 86.8268 66.2212 86.3479 66.2212 85.5914C66.2212 84.8442 66.6469 84.3376 67.3108 84.3376C67.9609 84.3376 68.3611 84.8095 68.3611 85.5382L68.3611 85.6909L66.6353 85.6909L66.6353 85.7141C66.6353 86.1744 66.906 86.4775 67.3386 86.4775C67.644 86.4775 67.8684 86.3225 67.9355 86.0958ZM68.7683 86.7852L68.7683 84.3792L69.1477 84.3792L69.1477 84.7632L69.1569 84.7632C69.2911 84.5041 69.5479 84.3376 69.9204 84.3376C70.4478 84.3376 70.7532 84.6776 70.7532 85.2236L70.7532 86.7852L70.3507 86.7852L70.3507 85.2953C70.3507 84.9067 70.1679 84.6938 69.7977 84.6938C69.4184 84.6938 69.1708 84.9622 69.1708 85.3694L69.1708 86.7852L68.7683 86.7852ZM71.3963 83.7985L71.7988 83.7985L71.7988 84.3792L72.2662 84.3792L72.2662 84.71L71.7988 84.71L71.7988 86.1397C71.7988 86.3595 71.8914 86.459 72.0973 86.459C72.1435 86.459 72.2361 86.452 72.2638 86.4474L72.2638 86.7852C72.2153 86.7967 72.1042 86.8037 72.0094 86.8037C71.5675 86.8037 71.3963 86.6232 71.3963 86.1605L71.3963 84.71L71.0377 84.71L71.0377 84.3792L71.3963 84.3792L71.3963 83.7985ZM74.6721 84.3792L74.6721 86.7852L74.2904 86.7852L74.2904 86.3942L74.2811 86.3942C74.1377 86.6718 73.8879 86.8268 73.5177 86.8268C72.9926 86.8268 72.6849 86.4867 72.6849 85.9408L72.6849 84.3792L73.0874 84.3792L73.0874 85.869C73.0874 86.26 73.2702 86.4705 73.6426 86.4705C74.0336 86.4705 74.2696 86.2022 74.2696 85.7927L74.2696 84.3792L74.6721 84.3792ZM75.6183 85.448L76.6825 84.3792L77.1706 84.3792L76.1272 85.4179L77.203 86.7852L76.7357 86.7852L75.8427 85.6655L75.6183 85.8783L75.6183 86.7852L75.2158 86.7852L75.2158 83.4469L75.6183 83.4469L75.6183 85.448ZM78.5286 83.4469L79.72 83.4469C80.3469 83.4469 80.7888 83.8865 80.7888 84.518C80.7888 85.1519 80.3423 85.5938 79.7153 85.5938L78.945 85.5938L78.945 86.7852L78.5286 86.7852L78.5286 83.4469ZM78.945 83.8171L78.945 85.2236L79.6112 85.2236C80.0878 85.2236 80.3608 84.9622 80.3608 84.518C80.3608 84.0762 80.0901 83.8171 79.6112 83.8171L78.945 83.8171ZM82.0542 84.6869C81.6771 84.6869 81.4134 84.9761 81.3879 85.3763L82.695 85.3763C82.6857 84.9738 82.4336 84.6869 82.0542 84.6869ZM82.6857 86.0958L83.0813 86.0958C83.0119 86.5168 82.6048 86.8268 82.0796 86.8268C81.3902 86.8268 80.9715 86.3479 80.9715 85.5914C80.9715 84.8442 81.3972 84.3376 82.0611 84.3376C82.7112 84.3376 83.1114 84.8095 83.1114 85.5382L83.1114 85.6909L81.3856 85.6909L81.3856 85.7141C81.3856 86.1744 81.6563 86.4775 82.0889 86.4775C82.3943 86.4775 82.6187 86.3225 82.6857 86.0958ZM83.5186 86.7852L83.5186 84.3792L83.898 84.3792L83.898 84.7632L83.9072 84.7632C84.0206 84.5088 84.2658 84.3376 84.5897 84.3376C84.9182 84.3376 85.1611 84.5041 85.2652 84.7956L85.2744 84.7956C85.4086 84.5088 85.6909 84.3376 86.0286 84.3376C86.5052 84.3376 86.8129 84.6476 86.8129 85.1241L86.8129 86.7852L86.4103 86.7852L86.4103 85.2167C86.4103 84.8882 86.2276 84.6938 85.9106 84.6938C85.5914 84.6938 85.367 84.9298 85.367 85.256L85.367 86.7852L84.9645 86.7852L84.9645 85.1727C84.9645 84.8835 84.7701 84.6938 84.4717 84.6938C84.1524 84.6938 83.9211 84.9437 83.9211 85.2768L83.9211 86.7852L83.5186 86.7852ZM87.3473 86.7852L87.3473 84.3792L87.7498 84.3792L87.7498 86.7852L87.3473 86.7852ZM87.5485 83.9744C87.412 83.9744 87.2987 83.861 87.2987 83.7245C87.2987 83.5857 87.412 83.4747 87.5485 83.4747C87.6873 83.4747 87.8007 83.5857 87.8007 83.7245C87.8007 83.861 87.6873 83.9744 87.5485 83.9744ZM88.2934 86.7852L88.2934 84.3792L88.6728 84.3792L88.6728 84.7632L88.6821 84.7632C88.7955 84.5088 89.0407 84.3376 89.3646 84.3376C89.6931 84.3376 89.936 84.5041 90.0401 84.7956L90.0493 84.7956C90.1835 84.5088 90.4657 84.3376 90.8035 84.3376C91.2801 84.3376 91.5877 84.6476 91.5877 85.1241L91.5877 86.7852L91.1852 86.7852L91.1852 85.2167C91.1852 84.8882 91.0024 84.6938 90.6855 84.6938C90.3663 84.6938 90.1419 84.9298 90.1419 85.256L90.1419 86.7852L89.7393 86.7852L89.7393 85.1727C89.7393 84.8835 89.545 84.6938 89.2466 84.6938C88.9273 84.6938 88.696 84.9437 88.696 85.2768L88.696 86.7852L88.2934 86.7852ZM93.2696 84.3376C93.8826 84.3376 94.2991 84.828 94.2991 85.5822C94.2991 86.3364 93.885 86.8268 93.2788 86.8268C92.9341 86.8268 92.6565 86.6579 92.5131 86.3942L92.5038 86.3942L92.5038 87.5879L92.1013 87.5879L92.1013 84.3792L92.483 84.3792L92.483 84.7864L92.4923 84.7864C92.6403 84.5157 92.9203 84.3376 93.2696 84.3376ZM93.1909 86.4728C93.6189 86.4728 93.8873 86.1282 93.8873 85.5822C93.8873 85.0385 93.6189 84.6915 93.1909 84.6915C92.7791 84.6915 92.5015 85.0478 92.5015 85.5822C92.5015 86.1189 92.7791 86.4728 93.1909 86.4728ZM94.727 86.7852L94.727 84.3792L95.1296 84.3792L95.1296 86.7852L94.727 86.7852ZM94.9283 83.9744C94.7918 83.9744 94.6785 83.861 94.6785 83.7245C94.6785 83.5857 94.7918 83.4747 94.9283 83.4747C95.0671 83.4747 95.1805 83.5857 95.1805 83.7245C95.1805 83.861 95.0671 83.9744 94.9283 83.9744ZM95.6732 86.7852L95.6732 84.3792L96.0526 84.3792L96.0526 84.7632L96.0619 84.7632C96.196 84.5041 96.4528 84.3376 96.8253 84.3376C97.3528 84.3376 97.6581 84.6776 97.6581 85.2236L97.6581 86.7852L97.2556 86.7852L97.2556 85.2953C97.2556 84.9067 97.0728 84.6938 96.7027 84.6938C96.3233 84.6938 96.0757 84.9622 96.0757 85.3694L96.0757 86.7852L95.6732 86.7852ZM98.3336 83.4469L98.7501 83.4469L98.7223 85.677L98.3614 85.677L98.3336 83.4469ZM98.5418 86.8083C98.3938 86.8083 98.2781 86.6926 98.2781 86.5446C98.2781 86.3942 98.3938 86.2808 98.5418 86.2808C98.6922 86.2808 98.8056 86.3942 98.8056 86.5446C98.8056 86.6926 98.6922 86.8083 98.5418 86.8083Z"
                fill="white" />
        </g>
        <g filter="url(#filter6_di_1571_26061)">
            <rect x="119.184" y="105.545" width="44.2136" height="13.1068" rx="6.5534"
                fill="#F05D25" shape-rendering="crispEdges" />
            <path
                d="M126.455 113.18L126.874 113.18C126.913 113.541 127.256 113.779 127.732 113.779C128.183 113.779 128.512 113.541 128.512 113.212C128.512 112.93 128.315 112.757 127.866 112.641L127.438 112.53C126.823 112.373 126.55 112.102 126.55 111.648C126.55 111.093 127.036 110.705 127.73 110.705C128.394 110.705 128.875 111.098 128.894 111.658L128.477 111.658C128.44 111.299 128.151 111.079 127.716 111.079C127.283 111.079 126.983 111.304 126.983 111.63C126.983 111.882 127.168 112.033 127.621 112.151L127.971 112.243C128.662 112.417 128.942 112.683 128.942 113.161C128.942 113.772 128.461 114.154 127.693 114.154C126.985 114.154 126.495 113.77 126.455 113.18ZM130.534 111.651C131.147 111.651 131.563 112.141 131.563 112.895C131.563 113.65 131.149 114.14 130.543 114.14C130.198 114.14 129.921 113.971 129.777 113.707L129.768 113.707L129.768 114.901L129.366 114.901L129.366 111.692L129.747 111.692L129.747 112.1L129.757 112.1C129.905 111.829 130.184 111.651 130.534 111.651ZM130.455 113.786C130.883 113.786 131.151 113.441 131.151 112.895C131.151 112.352 130.883 112.005 130.455 112.005C130.043 112.005 129.766 112.361 129.766 112.895C129.766 113.432 130.043 113.786 130.455 113.786ZM132.935 112C132.558 112 132.294 112.289 132.269 112.69L133.576 112.69C133.567 112.287 133.315 112 132.935 112ZM133.567 113.409L133.962 113.409C133.893 113.83 133.486 114.14 132.961 114.14C132.271 114.14 131.852 113.661 131.852 112.905C131.852 112.157 132.278 111.651 132.942 111.651C133.592 111.651 133.992 112.123 133.992 112.851L133.992 113.004L132.267 113.004L132.267 113.027C132.267 113.488 132.537 113.791 132.97 113.791C133.275 113.791 133.5 113.636 133.567 113.409ZM135.193 113.798C135.572 113.798 135.864 113.532 135.864 113.185L135.864 112.988L135.221 113.027C134.897 113.048 134.712 113.192 134.712 113.418C134.712 113.647 134.904 113.798 135.193 113.798ZM135.103 114.14C134.624 114.14 134.302 113.851 134.302 113.418C134.302 113.006 134.619 112.747 135.175 112.715L135.864 112.676L135.864 112.474C135.864 112.181 135.67 112.005 135.336 112.005C135.026 112.005 134.832 112.151 134.781 112.386L134.393 112.386C134.42 111.97 134.777 111.651 135.346 111.651C135.91 111.651 136.266 111.956 136.266 112.435L136.266 114.098L135.885 114.098L135.885 113.684L135.875 113.684C135.732 113.96 135.427 114.14 135.103 114.14ZM137.201 112.761L138.265 111.692L138.753 111.692L137.71 112.731L138.786 114.098L138.318 114.098L137.425 112.979L137.201 113.192L137.201 114.098L136.799 114.098L136.799 110.76L137.201 110.76L137.201 112.761ZM142.18 113.724L142.18 114.098L140.111 114.098L140.111 110.76L142.18 110.76L142.18 111.135L140.528 111.135L140.528 112.206L142.094 112.206L142.094 112.576L140.528 112.576L140.528 113.724L142.18 113.724ZM142.668 114.098L142.668 111.692L143.047 111.692L143.047 112.076L143.056 112.076C143.19 111.817 143.447 111.651 143.82 111.651C144.347 111.651 144.653 111.991 144.653 112.537L144.653 114.098L144.25 114.098L144.25 112.609C144.25 112.22 144.067 112.007 143.697 112.007C143.318 112.007 143.07 112.275 143.07 112.683L143.07 114.098L142.668 114.098ZM146.145 113.763C146.563 113.763 146.843 113.416 146.843 112.886C146.843 112.356 146.563 112.005 146.145 112.005C145.731 112.005 145.46 112.347 145.46 112.886C145.46 113.425 145.731 113.763 146.145 113.763ZM146.159 115.005C145.629 115.005 145.21 114.707 145.143 114.297L145.557 114.297C145.636 114.517 145.874 114.663 146.175 114.663C146.591 114.663 146.843 114.422 146.843 114.064L146.843 113.684L146.834 113.684C146.686 113.946 146.401 114.117 146.064 114.117C145.451 114.117 145.048 113.633 145.048 112.886C145.048 112.132 145.451 111.651 146.073 111.651C146.413 111.651 146.695 111.817 146.855 112.097L146.862 112.097L146.862 111.692L147.246 111.692L147.246 114.05C147.246 114.624 146.823 115.005 146.159 115.005ZM147.792 114.098L147.792 110.76L148.194 110.76L148.194 114.098L147.792 114.098ZM148.759 114.098L148.759 111.692L149.161 111.692L149.161 114.098L148.759 114.098ZM148.96 111.288C148.824 111.288 148.71 111.174 148.71 111.038C148.71 110.899 148.824 110.788 148.96 110.788C149.099 110.788 149.212 110.899 149.212 111.038C149.212 111.174 149.099 111.288 148.96 111.288ZM149.663 112.356C149.663 111.945 150.031 111.651 150.561 111.651C151.058 111.651 151.424 111.947 151.442 112.354L151.058 112.354C151.031 112.123 150.843 111.979 150.547 111.979C150.253 111.979 150.059 112.125 150.059 112.336C150.059 112.502 150.186 112.613 150.459 112.683L150.832 112.773C151.317 112.895 151.493 113.071 151.493 113.425C151.493 113.844 151.098 114.14 150.536 114.14C150.008 114.14 149.64 113.853 149.599 113.428L150.001 113.428C150.045 113.677 150.235 113.812 150.561 113.812C150.887 113.812 151.088 113.673 151.088 113.455C151.088 113.284 150.989 113.192 150.718 113.12L150.295 113.011C149.872 112.902 149.663 112.685 149.663 112.356ZM151.933 114.098L151.933 110.76L152.335 110.76L152.335 112.076L152.345 112.076C152.479 111.808 152.743 111.651 153.108 111.651C153.635 111.651 153.955 112.007 153.955 112.544L153.955 114.098L153.552 114.098L153.552 112.618C153.552 112.236 153.36 112.007 152.983 112.007C152.583 112.007 152.335 112.28 152.335 112.696L152.335 114.098L151.933 114.098ZM154.628 110.76L155.044 110.76L155.017 112.99L154.656 112.99L154.628 110.76ZM154.836 114.122C154.688 114.122 154.572 114.006 154.572 113.858C154.572 113.707 154.688 113.594 154.836 113.594C154.987 113.594 155.1 113.707 155.1 113.858C155.1 114.006 154.987 114.122 154.836 114.122Z"
                fill="#020409" />
        </g>
    </g>
    <defs>
        <filter id="filter0_f_1571_26061" x="0.409431" y="0.0520096" width="153.796"
            height="153.796" filterUnits="userSpaceOnUse" color-interpolation-filters="sRGB">
            <feFlood flood-opacity="0" result="BackgroundImageFix" />
            <feBlend mode="normal" in="SourceGraphic" in2="BackgroundImageFix" result="shape" />
            <feGaussianBlur stdDeviation="31.1049" result="effect1_foregroundBlur_1571_26061" />
        </filter>
        <filter id="filter1_i_1571_26061" x="46.168" y="22.7496" width="117.229" height="115.326"
            filterUnits="userSpaceOnUse" color-interpolation-filters="sRGB">
            <feFlood flood-opacity="0" result="BackgroundImageFix" />
            <feBlend mode="normal" in="SourceGraphic" in2="BackgroundImageFix" result="shape" />
            <feColorMatrix in="SourceAlpha" type="matrix"
                values="0 0 0 0 0 0 0 0 0 0 0 0 0 0 0 0 0 0 127 0" result="hardAlpha" />
            <feOffset dy="2.59207" />
            <feGaussianBlur stdDeviation="2.85128" />
            <feComposite in2="hardAlpha" operator="arithmetic" k2="-1" k3="1" />
            <feColorMatrix type="matrix" values="0 0 0 0 1 0 0 0 0 1 0 0 0 0 1 0 0 0 0.4 0" />
            <feBlend mode="normal" in2="shape" result="effect1_innerShadow_1571_26061" />
        </filter>
        <filter id="filter2_i_1571_26061" x="98.0371" y="47.2767" width="63.2891" height="89.7403"
            filterUnits="userSpaceOnUse" color-interpolation-filters="sRGB">
            <feFlood flood-opacity="0" result="BackgroundImageFix" />
            <feBlend mode="normal" in="SourceGraphic" in2="BackgroundImageFix" result="shape" />
            <feColorMatrix in="SourceAlpha" type="matrix"
                values="0 0 0 0 0 0 0 0 0 0 0 0 0 0 0 0 0 0 127 0" result="hardAlpha" />
            <feOffset dy="1.53377" />
            <feGaussianBlur stdDeviation="10.7364" />
            <feComposite in2="hardAlpha" operator="arithmetic" k2="-1" k3="1" />
            <feColorMatrix type="matrix" values="0 0 0 0 1 0 0 0 0 1 0 0 0 0 1 0 0 0 1 0" />
            <feBlend mode="normal" in2="shape" result="effect1_innerShadow_1571_26061" />
        </filter>
        <filter id="filter3_i_1571_26061" x="89.8125" y="56.9941" width="8.22266" height="83.2819"
            filterUnits="userSpaceOnUse" color-interpolation-filters="sRGB">
            <feFlood flood-opacity="0" result="BackgroundImageFix" />
            <feBlend mode="normal" in="SourceGraphic" in2="BackgroundImageFix" result="shape" />
            <feColorMatrix in="SourceAlpha" type="matrix"
                values="0 0 0 0 0 0 0 0 0 0 0 0 0 0 0 0 0 0 127 0" result="hardAlpha" />
            <feOffset dy="5.75164" />
            <feGaussianBlur stdDeviation="2.39652" />
            <feComposite in2="hardAlpha" operator="arithmetic" k2="-1" k3="1" />
            <feColorMatrix type="matrix" values="0 0 0 0 1 0 0 0 0 1 0 0 0 0 1 0 0 0 0.25 0" />
            <feBlend mode="normal" in2="shape" result="effect1_innerShadow_1571_26061" />
        </filter>
        <filter id="filter4_di_1571_26061" x="80.2192" y="32.921" width="34.6886" height="22.5825"
            filterUnits="userSpaceOnUse" color-interpolation-filters="sRGB">
            <feFlood flood-opacity="0" result="BackgroundImageFix" />
            <feColorMatrix in="SourceAlpha" type="matrix"
                values="0 0 0 0 0 0 0 0 0 0 0 0 0 0 0 0 0 0 127 0" result="hardAlpha" />
            <feOffset dy="2.07282" />
            <feGaussianBlur stdDeviation="2.36893" />
            <feComposite in2="hardAlpha" operator="out" />
            <feColorMatrix type="matrix"
                values="0 0 0 0 1 0 0 0 0 0.870192 0 0 0 0 0.134615 0 0 0 0.3 0" />
            <feBlend mode="normal" in2="BackgroundImageFix" result="effect1_dropShadow_1571_26061" />
            <feBlend mode="normal" in="SourceGraphic" in2="effect1_dropShadow_1571_26061"
                result="shape" />
            <feColorMatrix in="SourceAlpha" type="matrix"
                values="0 0 0 0 0 0 0 0 0 0 0 0 0 0 0 0 0 0 127 0" result="hardAlpha" />
            <feOffset dy="0.592233" />
            <feGaussianBlur stdDeviation="1.09563" />
            <feComposite in2="hardAlpha" operator="arithmetic" k2="-1" k3="1" />
            <feColorMatrix type="matrix" values="0 0 0 0 1 0 0 0 0 1 0 0 0 0 1 0 0 0 0.25 0" />
            <feBlend mode="normal" in2="shape" result="effect2_innerShadow_1571_26061" />
        </filter>
        <filter id="filter5_di_1571_26061" x="39.2558" y="73.0477" width="74.0373" height="26.9312"
            filterUnits="userSpaceOnUse" color-interpolation-filters="sRGB">
            <feFlood flood-opacity="0" result="BackgroundImageFix" />
            <feColorMatrix in="SourceAlpha" type="matrix"
                values="0 0 0 0 0 0 0 0 0 0 0 0 0 0 0 0 0 0 127 0" result="hardAlpha" />
            <feOffset dy="1.72805" />
            <feGaussianBlur stdDeviation="3.45609" />
            <feComposite in2="hardAlpha" operator="out" />
            <feColorMatrix type="matrix"
                values="0 0 0 0 0.419608 0 0 0 0 0.686275 0 0 0 0 1 0 0 0 0.6 0" />
            <feBlend mode="normal" in2="BackgroundImageFix" result="effect1_dropShadow_1571_26061" />
            <feBlend mode="normal" in="SourceGraphic" in2="effect1_dropShadow_1571_26061"
                result="shape" />
            <feColorMatrix in="SourceAlpha" type="matrix"
                values="0 0 0 0 0 0 0 0 0 0 0 0 0 0 0 0 0 0 127 0" result="hardAlpha" />
            <feOffset dy="0.592233" />
            <feGaussianBlur stdDeviation="1.09563" />
            <feComposite in2="hardAlpha" operator="arithmetic" k2="-1" k3="1" />
            <feColorMatrix type="matrix" values="0 0 0 0 1 0 0 0 0 1 0 0 0 0 1 0 0 0 0.25 0" />
            <feBlend mode="normal" in2="shape" result="effect2_innerShadow_1571_26061" />
        </filter>
        <filter id="filter6_di_1571_26061" x="114.446" y="102.88" width="53.6886" height="22.5825"
            filterUnits="userSpaceOnUse" color-interpolation-filters="sRGB">
            <feFlood flood-opacity="0" result="BackgroundImageFix" />
            <feColorMatrix in="SourceAlpha" type="matrix"
                values="0 0 0 0 0 0 0 0 0 0 0 0 0 0 0 0 0 0 127 0" result="hardAlpha" />
            <feOffset dy="2.07282" />
            <feGaussianBlur stdDeviation="2.36893" />
            <feComposite in2="hardAlpha" operator="out" />
            <feColorMatrix type="matrix"
                values="0 0 0 0 0.941176 0 0 0 0 0.364706 0 0 0 0 0.145098 0 0 0 0.4 0" />
            <feBlend mode="normal" in2="BackgroundImageFix" result="effect1_dropShadow_1571_26061" />
            <feBlend mode="normal" in="SourceGraphic" in2="effect1_dropShadow_1571_26061"
                result="shape" />
            <feColorMatrix in="SourceAlpha" type="matrix"
                values="0 0 0 0 0 0 0 0 0 0 0 0 0 0 0 0 0 0 127 0" result="hardAlpha" />
            <feOffset dy="0.592233" />
            <feGaussianBlur stdDeviation="1.09563" />
            <feComposite in2="hardAlpha" operator="arithmetic" k2="-1" k3="1" />
            <feColorMatrix type="matrix" values="0 0 0 0 1 0 0 0 0 1 0 0 0 0 1 0 0 0 0.25 0" />
            <feBlend mode="normal" in2="shape" result="effect2_innerShadow_1571_26061" />
        </filter>
        <linearGradient id="paint0_linear_1571_26061" x1="126.53" y1="22.7496" x2="126.53"
            y2="126.687" gradientUnits="userSpaceOnUse">
            <stop stop-color="white" />
            <stop offset="1" stop-color="white" stop-opacity="0" />
        </linearGradient>
        <linearGradient id="paint1_linear_1571_26061" x1="106.686" y1="62.3145" x2="154.233"
            y2="120.023" gradientUnits="userSpaceOnUse">
            <stop stop-color="#FFF157" />
            <stop offset="1" stop-color="#FBF4A8" />
        </linearGradient>
    </defs>
</svg>