<svg width="240" height="239" viewBox="0 0 240 239" fill="none" xmlns="http://www.w3.org/2000/svg">
    <g filter="url(#filter0_f_1571_26044)">
        <circle cx="119.981" cy="119.348" r="31.1624" fill="#FBCD61" />
    </g>
    <g filter="url(#filter1_i_1571_26044)">
        <path
            d="M122.216 146.588C124.323 147.331 125.442 149.67 124.7 151.776C123.957 153.882 121.617 155.002 119.511 154.259L91.4245 144.352C89.3183 143.609 88.1996 141.27 88.9425 139.164C89.6855 137.058 92.0239 135.939 94.13 136.682L122.216 146.588Z"
            fill="#FBCD61" stroke="white" stroke-width="3.66617" />
        <path
            d="M121.004 91.7735C123.855 88.3502 129.432 90.3222 129.491 94.7826L129.491 94.7823L129.806 110.795C129.822 111.531 130.567 112.079 131.276 111.873L131.278 111.871L145.345 107.801C149.842 106.486 153.395 111.766 150.379 115.443L127.155 144.043L127.153 144.045C125.886 145.6 123.739 146.213 121.828 145.539L95.0617 136.098C93.1713 135.431 91.8475 133.646 91.8525 131.58L91.8528 131.579L91.7092 94.7503L91.7096 94.7463C91.7007 90.056 97.5847 88.2092 100.35 91.7609L100.479 91.9339L100.485 91.9411L100.49 91.9489L108.891 103.944L108.899 103.954L108.906 103.965C109.309 104.558 110.183 104.622 110.678 104.027L110.685 104.019L121.004 91.7735ZM107.114 122.253C107.025 122.222 106.917 122.225 106.811 122.276C106.704 122.327 106.634 122.409 106.603 122.498C106.571 122.588 106.574 122.695 106.625 122.801C106.676 122.908 106.758 122.978 106.847 123.009L120.89 127.962C120.979 127.994 121.087 127.991 121.194 127.94C121.3 127.889 121.37 127.807 121.402 127.718C121.433 127.629 121.43 127.521 121.379 127.414C121.328 127.308 121.246 127.238 121.157 127.206L107.114 122.253Z"
            fill="#FBCD61" stroke="white" stroke-width="3.66617" />
    </g>
    <path
        d="M67.0278 85.4654C66.926 85.5049 66.8732 85.6209 66.9081 85.7235M67.0278 85.4654L67.0992 85.6492M67.0278 85.4654L67.0741 85.4526C67.1196 85.4455 67.1615 85.4539 67.1908 85.4669C67.2279 85.4835 67.2687 85.5191 67.2904 85.5749C67.3155 85.6395 67.3074 85.703 67.2891 85.7441C67.2712 85.7842 67.2333 85.8264 67.1767 85.8486C67.0835 85.8848 66.9822 85.8532 66.9296 85.7707L66.9104 85.7321L66.9081 85.7235M67.0278 85.4654L67.0992 85.6492M66.9081 85.7235L67.0992 85.6492M66.9081 85.7235L67.0992 85.6492M70.6792 76.4866C72.4871 75.7839 74.3477 75.689 76.0102 76.422C77.6715 77.1548 78.8548 78.591 79.5533 80.3999L82.1813 87.161C82.8841 88.9692 82.9787 90.8288 82.2468 92.4916C81.5148 94.1543 80.0794 95.3404 78.2712 96.0432L71.5183 98.668C69.7101 99.3709 67.8497 99.4656 66.1861 98.7321C64.5229 97.9986 63.3368 96.5608 62.6329 94.7498L60.0081 87.9969C59.3053 86.1887 59.2106 84.329 59.9426 82.6663C60.6745 81.0036 62.1099 79.8174 63.9181 79.1146L70.6792 76.4866ZM69.9289 90.8536C70.5658 91.6399 71.664 91.9666 72.6551 91.5814C73.6508 91.1944 74.2354 90.2101 74.166 89.2067L69.9289 90.8536ZM72.6684 83.254C72.562 83.2956 72.5091 83.4101 72.5519 83.5204L72.5704 83.5572C72.6222 83.6369 72.7263 83.6735 72.8177 83.6382C72.9223 83.5975 72.9758 83.476 72.9351 83.3714C72.8922 83.2611 72.7751 83.2126 72.6684 83.254Z"
        fill="#00D218" stroke="white" stroke-width="3.66617" />
    <g filter="url(#filter2_i_1571_26044)">
        <path
            d="M151.186 163.927L153.153 159.185C153.377 158.645 153.844 158.244 154.412 158.106L158.879 157.016C160.625 156.59 160.779 154.167 159.102 153.523L146.671 148.752C145.269 148.214 143.85 149.497 144.245 150.945L147.724 163.707C148.184 165.393 150.517 165.541 151.186 163.927Z"
            fill="#F05D25" />
    </g>
    <path
        d="M152.744 164.922C151.253 167.835 146.846 167.455 145.956 164.189L142.477 151.427C141.687 148.53 144.524 145.964 147.328 147.04L159.758 151.812C163.113 153.1 162.805 157.944 159.314 158.796L154.846 159.887L152.879 164.629L152.744 164.922Z"
        stroke="white" stroke-width="3.66617" />
    <defs>
        <filter id="filter0_f_1571_26044" x="0.830391" y="0.197456" width="238.3" height="238.301"
            filterUnits="userSpaceOnUse" color-interpolation-filters="sRGB">
            <feFlood flood-opacity="0" result="BackgroundImageFix" />
            <feBlend mode="normal" in="SourceGraphic" in2="BackgroundImageFix" result="shape" />
            <feGaussianBlur stdDeviation="43.994" result="effect1_foregroundBlur_1571_26044" />
        </filter>
        <filter id="filter1_i_1571_26044" x="86.8789" y="88.0721" width="66.4629" height="76.1931"
            filterUnits="userSpaceOnUse" color-interpolation-filters="sRGB">
            <feFlood flood-opacity="0" result="BackgroundImageFix" />
            <feBlend mode="normal" in="SourceGraphic" in2="BackgroundImageFix" result="shape" />
            <feColorMatrix in="SourceAlpha" type="matrix"
                values="0 0 0 0 0 0 0 0 0 0 0 0 0 0 0 0 0 0 127 0" result="hardAlpha" />
            <feOffset dy="7.94336" />
            <feGaussianBlur stdDeviation="4.67436" />
            <feComposite in2="hardAlpha" operator="arithmetic" k2="-1" k3="1" />
            <feColorMatrix type="matrix" values="0 0 0 0 1 0 0 0 0 1 0 0 0 0 1 0 0 0 0.6 0" />
            <feBlend mode="normal" in2="shape" result="effect1_innerShadow_1571_26044" />
        </filter>
        <filter id="filter2_i_1571_26044" x="140.508" y="144.953" width="23.4375" height="27.5597"
            filterUnits="userSpaceOnUse" color-interpolation-filters="sRGB">
            <feFlood flood-opacity="0" result="BackgroundImageFix" />
            <feBlend mode="normal" in="SourceGraphic" in2="BackgroundImageFix" result="shape" />
            <feColorMatrix in="SourceAlpha" type="matrix"
                values="0 0 0 0 0 0 0 0 0 0 0 0 0 0 0 0 0 0 127 0" result="hardAlpha" />
            <feOffset dy="5.49925" />
            <feGaussianBlur stdDeviation="1.89419" />
            <feComposite in2="hardAlpha" operator="arithmetic" k2="-1" k3="1" />
            <feColorMatrix type="matrix" values="0 0 0 0 1 0 0 0 0 1 0 0 0 0 1 0 0 0 0.54 0" />
            <feBlend mode="normal" in2="shape" result="effect1_innerShadow_1571_26044" />
        </filter>
    </defs>
</svg>